<?xml version="1.0" standalone="no"?>
<!DOCTYPE svg PUBLIC "-//W3C//DTD SVG 1.1//EN" "http://www.w3.org/Graphics/SVG/1.1/DTD/svg11.dtd" >
<svg xmlns="http://www.w3.org/2000/svg" xmlns:xlink="http://www.w3.org/1999/xlink" version="1.1">
<metadata>
Created by FontForge 20161003 at Tue Jul 18 08:39:16 2017
 By www-data
(c) 2015 Apple Inc. All rights reserved.
</metadata>
<defs>
<font id="SFCompactLight" horiz-adv-x="1800" >
  <font-face 
    font-family="SFCompactLight"
    font-weight="300"
    font-stretch="normal"
    units-per-em="2048"
    panose-1="0 0 0 0 0 0 0 0 0 0"
    ascent="1638"
    descent="-410"
    x-height="1043"
    cap-height="1363"
    bbox="-473 -494 2048 1950"
    underline-thickness="86"
    underline-position="-263"
    unicode-range="U+0020-1F189"
  />
<missing-glyph horiz-adv-x="2048" 
d="M100 -494v316h1848v-316h-1848zM100 -68v315h1848v-315h-1848zM100 357v316h1848v-316h-1848zM100 783v316h1848v-316h-1848zM100 1209v315h1848v-315h-1848zM100 1634v316h1848v-316h-1848z" />
    <glyph glyph-name=".notdef" horiz-adv-x="2048" 
d="M100 -494v316h1848v-316h-1848zM100 -68v315h1848v-315h-1848zM100 357v316h1848v-316h-1848zM100 783v316h1848v-316h-1848zM100 1209v315h1848v-315h-1848zM100 1634v316h1848v-316h-1848z" />
    <glyph glyph-name=".null" horiz-adv-x="0" 
 />
    <glyph glyph-name="nonmarkingreturn" horiz-adv-x="0" 
 />
    <glyph glyph-name="space" unicode=" " horiz-adv-x="465" 
 />
    <glyph glyph-name="exclam" unicode="!" horiz-adv-x="551" 
d="M161 96q0 49 33 82.5t79 33.5q50 0 83.5 -33.5t33.5 -82.5q0 -47 -34 -79.5t-83 -32.5q-46 0 -79 32.5t-33 79.5zM205 1363h141l-15 -911h-111z" />
    <glyph glyph-name="quotedbl" unicode="&#x22;" horiz-adv-x="758" 
d="M146 1363h144l-22 -465h-100zM468 1363h144l-22 -465h-100z" />
    <glyph glyph-name="numbersign" unicode="#" horiz-adv-x="1238" 
d="M1164 866h-232l-72 -358h218l-21 -104h-219l-82 -404h-105l82 404h-320l-83 -404h-105l82 404h-217l22 104h218l72 358h-206l21 103h207l80 396h106l-81 -396h321l80 396h105l-81 -396h231zM507 866l-72 -358h320l73 358h-321z" />
    <glyph glyph-name="dollar" unicode="$" horiz-adv-x="1113" 
d="M242 1029q0 -161 206 -230q25 -10 60 -19v486q-121 -11 -193.5 -73t-72.5 -164zM902 362q0 98 -59.5 158t-201.5 102q-4 1 -13.5 3.5t-13.5 3.5v-524q132 11 210 78.5t78 178.5zM614 -135h-106v130q-104 6 -187 39t-133.5 84t-77 113t-27.5 130h125q6 -101 83.5 -171.5
t216.5 -82.5v548l-80 22q-309 81 -309 342q0 158 107 251.5t282 107.5v132h106v-132q170 -13 278 -107t112 -241h-123q-2 91 -72.5 157.5t-194.5 78.5v-515l67 -17q175 -46 260 -130.5t85 -232.5q0 -169 -113.5 -265.5t-298.5 -109.5v-131z" />
    <glyph glyph-name="percent" unicode="%" horiz-adv-x="1463" 
d="M169 1049v-17q0 -110 44 -177t118 -67q73 0 117.5 66.5t44.5 175.5v17q0 109 -43.5 175.5t-117.5 66.5q-76 0 -119.5 -67t-43.5 -173zM70 1025v30q0 141 72.5 233t188.5 92t188.5 -92t72.5 -235v-30q0 -142 -72.5 -234.5t-189.5 -92.5t-188.5 92.5t-71.5 236.5zM970 344
v-17q0 -110 44 -177t118 -67q73 0 117.5 66.5t44.5 175.5v17q0 109 -43.5 175.5t-117.5 66.5q-76 0 -119.5 -67t-43.5 -173zM871 320v30q0 141 72.5 233t188.5 92t188.5 -92t72.5 -235v-30q0 -143 -72.5 -235t-189.5 -92t-188.5 92.5t-71.5 236.5zM271 0h-118l517 681
l517 682h119l-518 -682z" />
    <glyph glyph-name="ampersand" unicode="&#x26;" horiz-adv-x="1331" 
d="M1138 0l-140 152q-95 -92 -213 -135t-232 -43q-122 0 -222 43.5t-161.5 131t-61.5 204.5q0 229 272 373q11 6 61 31q-91 94 -136 167t-45 158q0 127 94.5 210t237.5 83q144 0 237 -85t93 -213q0 -111 -76 -191t-225 -157l369 -400q76 133 79 391q1 8 1 50h121
q0 -5 -0.5 -26t-0.5 -25q-3 -308 -115 -475l229 -244h-166zM453 646q-106 -57 -161.5 -125.5t-55.5 -161.5q0 -127 94 -201t231 -74q96 0 194.5 38t165.5 112l-407 444q-3 -2 -29 -15.5t-32 -16.5zM548 804q130 64 190 125.5t60 144.5q0 86 -57.5 141t-148.5 55
q-90 0 -148.5 -55t-58.5 -140q0 -62 36.5 -121t126.5 -150z" />
    <glyph glyph-name="quotesingle" unicode="'" horiz-adv-x="436" 
d="M146 1363h144l-22 -465h-100z" />
    <glyph glyph-name="parenleft" unicode="(" horiz-adv-x="631" 
d="M423 1363h102q-35 -42 -71 -105t-76.5 -161.5t-65.5 -237.5t-25 -292q0 -124 18 -241t40 -196.5t60.5 -166t60 -126t57.5 -99.5h-108q-43 54 -82 122.5t-80 170.5t-65.5 241t-24.5 294q0 126 17.5 238.5t41.5 190t62.5 153.5t67.5 118.5t71 96.5z" />
    <glyph glyph-name="parenright" unicode=")" horiz-adv-x="631" 
d="M106 1363h100q42 -53 71.5 -96t68.5 -119t63 -153.5t41.5 -190t17.5 -238.5q0 -155 -25 -294t-66.5 -241t-80.5 -170.5t-82 -122.5h-106q36 61 57 99.5t59.5 125.5t60 166t39.5 196.5t18 241.5q0 153 -25 292t-65 237.5t-75.5 161.5t-70.5 105z" />
    <glyph glyph-name="asterisk" unicode="*" horiz-adv-x="984" 
d="M543 590h-105l14 338l-285 -181l-52 90l299 158l-299 157l52 90l285 -181l-14 338h105l-14 -338l286 181l52 -90l-300 -157l300 -158l-52 -90l-286 181z" />
    <glyph glyph-name="plus" unicode="+" horiz-adv-x="1113" 
d="M608 492v-463h-104v463h-421v106h421v442h104v-442h423v-106h-423z" />
    <glyph glyph-name="comma" unicode="," horiz-adv-x="462" 
d="M164 -361h-100l117 504h150z" />
    <glyph glyph-name="hyphen" unicode="&#x2011;" horiz-adv-x="826" 
d="M728 504h-630v113h630v-113z" />
    <glyph glyph-name="hyphen" unicode="-" horiz-adv-x="826" 
d="M728 504h-630v113h630v-113z" />
    <glyph glyph-name="period" unicode="." horiz-adv-x="550" 
d="M161 96q0 49 32.5 82.5t79.5 33.5q50 0 83.5 -33.5t33.5 -82.5q0 -47 -34 -79.5t-83 -32.5q-47 0 -79.5 32.5t-32.5 79.5z" />
    <glyph glyph-name="slash" unicode="/" horiz-adv-x="715" 
d="M162 -311h-111l501 1747h113z" />
    <glyph glyph-name="zero" unicode="0" horiz-adv-x="1217" 
d="M265 711v-61q0 -263 94.5 -415t249.5 -152t249 152t94 415v61q0 263 -94.5 415.5t-248.5 152.5q-155 0 -249.5 -152.5t-94.5 -415.5zM139 650v61q0 314 127 498t344 184t343 -184t126 -498v-61q0 -314 -126.5 -497t-343.5 -183t-343.5 183t-126.5 497z" />
    <glyph glyph-name="one" unicode="1" horiz-adv-x="892" 
d="M609 0h-126v1218h-7l-325 -229v135l332 238h126v-1362z" />
    <glyph glyph-name="two" unicode="2" horiz-adv-x="1119" 
d="M272 1004h-126v5q0 74 27 142.5t78 122.5t131.5 86.5t179.5 32.5q187 0 298 -104.5t111 -262.5q0 -60 -16 -114.5t-53 -111.5t-65.5 -93t-85.5 -102l-419 -482v-9h669v-114h-851v86l526 606q38 44 60 72.5t50 72.5t41 90t13 95q0 113 -77 185.5t-204 72.5
q-132 0 -209.5 -79.5t-77.5 -191.5v-5z" />
    <glyph glyph-name="three" unicode="3" horiz-adv-x="1137" 
d="M404 646v114h133q130 0 210.5 76t79.5 191q0 111 -78 182t-206 71q-123 0 -199 -64.5t-81 -150.5h-124q2 59 28 116t74.5 104.5t127 77t174.5 30.5q185 1 298 -97.5t117 -249.5q1 -57 -15.5 -108.5t-43.5 -89t-62.5 -67t-71.5 -46t-71 -21.5v-8q52 -5 104 -27.5t99.5 -61
t78 -103.5t31.5 -144q2 -174 -127.5 -287.5t-336.5 -113.5q-191 0 -309.5 96.5t-124.5 240.5h123q7 -94 95 -158.5t221 -65.5q149 -1 239.5 80t89.5 206q-1 126 -92.5 202t-236.5 76h-144z" />
    <glyph glyph-name="four" unicode="4" horiz-adv-x="1161" 
d="M695 1363h190v-943h188v-114h-188v-306h-122v306h-663v115q54 96 163 269t258 403.5t174 269.5zM233 420h530v828h-7q-97 -143 -274.5 -420t-248.5 -400v-8z" />
    <glyph glyph-name="five" unicode="5" horiz-adv-x="1161" 
d="M148 305h125q16 -101 104 -161.5t212 -60.5q135 0 231.5 96t96.5 252q0 145 -94 236t-234 91q-109 0 -185 -51t-111 -116h-111l60 772h737v-114h-626l-42 -512h8q29 47 105.5 90.5t187.5 43.5q187 0 311 -120t124 -317q0 -204 -129.5 -334t-337.5 -130q-185 0 -304 97.5
t-128 237.5z" />
    <glyph glyph-name="six" unicode="6" horiz-adv-x="1189" 
d="M1034 1098h-129q-16 66 -87 120.5t-188 54.5q-177 0 -271 -170t-96 -461v-14h8q30 100 126 170.5t240 70.5q84 0 161 -30t136.5 -84.5t95 -138.5t35.5 -184q0 -211 -127.5 -336t-326.5 -125q-127 0 -230 61t-161 180q-81 152 -81 406q0 361 128 564.5t368 203.5
q170 0 278.5 -89t120.5 -199zM287 426q0 -152 94 -247.5t232 -95.5q141 0 233 91t92 251q0 154 -94 242.5t-229 88.5q-142 0 -235 -93.5t-93 -236.5z" />
    <glyph glyph-name="seven" unicode="7" horiz-adv-x="1061" 
d="M114 1363h839v-120l-570 -1243h-135l575 1240v9h-709v114z" />
    <glyph glyph-name="eight" unicode="8" horiz-adv-x="1187" 
d="M594 81q148 0 245 81.5t97 210.5q0 126 -96.5 207t-245.5 81t-245.5 -81t-96.5 -207q0 -129 97 -210.5t245 -81.5zM594 769q126 0 208 71.5t82 184.5q0 114 -81.5 184.5t-208.5 70.5q-126 0 -208 -70.5t-82 -184.5q0 -112 82.5 -184t207.5 -72zM591 -30q-203 0 -334 111
t-131 286q0 78 28 143t72.5 106t91 66t93.5 35v8q-39 11 -76.5 34t-74 59.5t-59 92.5t-22.5 122q0 157 117.5 258t297.5 101q181 0 298 -101t117 -258q0 -67 -23 -123.5t-60 -93t-75 -59t-75 -32.5v-8q37 -8 74 -25t75.5 -46.5t68 -67.5t48.5 -92.5t19 -116.5
q0 -176 -133 -287.5t-337 -111.5z" />
    <glyph glyph-name="nine" unicode="9" horiz-adv-x="1188" 
d="M162 254h129q15 -67 85.5 -117t177.5 -50q191 0 284 167.5t88 468.5h-9q-37 -102 -127.5 -168.5t-231.5 -66.5q-181 0 -306.5 123t-125.5 330t129 330.5t327 123.5q75 0 139.5 -18t126.5 -65t105 -119.5t69.5 -189t26.5 -267.5q0 -383 -123 -572t-376 -189
q-164 0 -269.5 80t-118.5 199zM898 924q0 164 -90.5 261t-234.5 97q-136 0 -227.5 -94.5t-91.5 -248.5q0 -160 94 -248.5t229 -88.5q132 0 226.5 86.5t94.5 235.5z" />
    <glyph glyph-name="colon" unicode=":" horiz-adv-x="567" 
d="M169 805q0 49 33 82t80 33q50 0 83 -33t33 -82q0 -48 -33.5 -80.5t-82.5 -32.5q-47 0 -80 32.5t-33 80.5zM169 104q0 49 33 82.5t80 33.5q50 0 83 -33t33 -83q0 -47 -33.5 -80t-82.5 -33q-47 0 -80 33t-33 80z" />
    <glyph glyph-name="semicolon" unicode=";" horiz-adv-x="571" 
d="M164 808q0 49 32.5 82.5t79.5 33.5q50 0 83 -33t33 -83q0 -47 -33.5 -80t-82.5 -33q-47 0 -79.5 33t-32.5 80zM170 -383h-112l130 535h169z" />
    <glyph glyph-name="less" unicode="&#x3c;" horiz-adv-x="1113" 
d="M144 451v113l818 524v-136l-692 -435v-9l692 -407v-136z" />
    <glyph glyph-name="equal" unicode="=" horiz-adv-x="1113" 
d="M966 314h-820v104h820v-104zM966 671h-820v106h820v-106z" />
    <glyph glyph-name="greater" unicode="&#x3e;" horiz-adv-x="1113" 
d="M969 564v-113l-818 -486v136l692 407v9l-692 435v136z" />
    <glyph glyph-name="question" unicode="?" horiz-adv-x="966" 
d="M351 96q0 49 32.5 82.5t79.5 33.5q49 0 82.5 -33t33.5 -83q0 -47 -33.5 -79.5t-82.5 -32.5q-47 0 -79.5 32.5t-32.5 79.5zM92 1030q1 92 34 163.5t88.5 115t125.5 65.5t150 22q77 0 145 -21t122 -61t85.5 -104t31.5 -144q0 -46 -11 -87.5t-27.5 -72.5t-45 -63t-52.5 -54
t-61 -51q-95 -74 -126 -123t-31 -128v-73h-126v94q0 91 46.5 158t143.5 144q87 69 123.5 120.5t36.5 128.5q0 111 -74.5 168.5t-185.5 57.5q-133 0 -200.5 -74.5t-70.5 -180.5h-121z" />
    <glyph glyph-name="at" unicode="@" horiz-adv-x="1702" 
d="M1265 149q-96 0 -154.5 42.5t-68.5 102.5h-8q-13 -49 -71.5 -97t-147.5 -48q-119 0 -188.5 85.5t-69.5 234.5v91q0 142 69.5 228.5t194.5 86.5q86 0 137 -43t65 -91h7v119h107v-480q0 -70 41 -104t101 -34q88 0 147.5 88.5t59.5 264.5v37q0 115 -41 218t-116 183
t-192 127t-259 47h-8q-136 0 -253 -47t-201.5 -132.5t-133 -213t-48.5 -281.5v-43q0 -126 32.5 -232.5t90 -182.5t137.5 -129t174 -79t200 -26h8q196 0 318 49v-100q-107 -46 -318 -46h-8q-125 0 -236.5 29.5t-204.5 90.5t-160.5 148t-105 207.5t-37.5 264.5v55
q0 173 56 317t155.5 242t237 152t297.5 54h8q113 0 213 -25.5t177 -71t139 -108.5t102 -137t61 -157t21 -169v-52q0 -201 -93 -318t-233 -117zM670 482q0 -118 49 -176t129 -58q79 0 129.5 54t50.5 166v96q0 97 -49.5 158t-131.5 61q-79 0 -128 -59.5t-49 -168.5v-73z" />
    <glyph glyph-name="A" unicode="A" horiz-adv-x="1223" 
d="M193 0h-134l489 1363h127l489 -1363h-135l-149 436h-538zM614 1206h-6l-229 -665h464z" />
    <glyph glyph-name="B" unicode="B" horiz-adv-x="1262" 
d="M201 0v1363h478q177 0 280 -90t103 -245q0 -122 -62.5 -200t-160.5 -107v-6q136 -18 218.5 -105.5t82.5 -233.5q0 -174 -123 -275t-342 -101h-474zM329 1246v-487h265q338 0 338 249q0 114 -71.5 176t-200.5 62h-331zM329 643v-527h291q200 0 294.5 63t94.5 194
q0 130 -86.5 200t-233.5 70h-360z" />
    <glyph glyph-name="C" unicode="C" horiz-adv-x="1293" 
d="M274 789v-222q0 -221 102.5 -351t296.5 -130q160 0 260 87t100 221h126v-1q0 -179 -137.5 -301t-348.5 -122q-256 0 -391 160t-135 439v219q0 277 136.5 441t387.5 164q212 0 348 -129t136 -311v-1h-126q0 133 -100 229t-258 96q-190 0 -293.5 -133.5t-103.5 -354.5z" />
    <glyph glyph-name="D" unicode="D" horiz-adv-x="1338" 
d="M201 1363h403q300 0 451 -175t151 -507t-150 -506.5t-452 -174.5h-403v1363zM329 1247v-1131h271q475 0 475 565q0 277 -118 421.5t-357 144.5h-271z" />
    <glyph glyph-name="E" unicode="E" horiz-adv-x="1135" 
d="M997 116v-116h-796v1363h796v-117h-668v-491h632v-115h-632v-524h668z" />
    <glyph glyph-name="F" unicode="F" horiz-adv-x="1065" 
d="M329 0h-128v1363h784v-117h-656v-513h602v-116h-602v-617z" />
    <glyph glyph-name="G" unicode="G" horiz-adv-x="1315" 
d="M1161 972h-125q-16 132 -111 218.5t-252 86.5q-189 0 -294 -130.5t-105 -357.5v-205q0 -233 105 -365.5t301 -132.5q171 0 268 88.5t97 238.5v159h-382v116h506v-275q0 -201 -132.5 -322t-355.5 -121q-258 0 -396 163t-138 451v205q0 279 140.5 441.5t387.5 162.5
q210 0 342 -119.5t144 -301.5z" />
    <glyph glyph-name="H" unicode="H" horiz-adv-x="1398" 
d="M1196 0h-127v652h-740v-652h-128v1363h128v-595h740v595h127v-1363z" />
    <glyph glyph-name="I" unicode="I" horiz-adv-x="543" 
d="M335 0h-127v1363h127v-1363z" />
    <glyph glyph-name="J" unicode="J" horiz-adv-x="981" 
d="M54 299h125q3 -85 65 -146.5t168 -61.5q119 0 185 70t66 204v998h127v-985q0 -194 -100.5 -298.5t-277.5 -104.5q-168 0 -263 93.5t-95 230.5z" />
    <glyph glyph-name="K" unicode="K" horiz-adv-x="1197" 
d="M1126 1363l-531 -590l561 -773h-165l-491 685l-171 -184v-501h-128v1363h128v-693h5l637 693h155z" />
    <glyph glyph-name="L" unicode="L" horiz-adv-x="1045" 
d="M984 116v-116h-783v1363h128v-1247h655z" />
    <glyph glyph-name="M" unicode="M" horiz-adv-x="1626" 
d="M321 0h-116v1363h123l483 -1122h5l482 1122h123v-1363h-117v1084h-7l-426 -979h-116l-427 979h-7v-1084z" />
    <glyph glyph-name="N" unicode="N" horiz-adv-x="1398" 
d="M329 0h-128v1363h129l732 -1143h7v1143h127v-1363h-128l-733 1143h-6v-1143z" />
    <glyph glyph-name="O" unicode="O" horiz-adv-x="1357" 
d="M1083 794q0 228 -111 355.5t-294 127.5t-293.5 -127t-110.5 -356v-225q0 -229 110.5 -356t293.5 -127t294 127t111 356v225zM1210 571q0 -280 -142.5 -440.5t-389.5 -160.5q-246 0 -388.5 160.5t-142.5 440.5v221q0 281 142.5 441t388.5 160q247 0 389.5 -160.5
t142.5 -441.5v-220z" />
    <glyph glyph-name="P" unicode="P" horiz-adv-x="1184" 
d="M670 1363q196 0 311.5 -112.5t115.5 -299.5t-115.5 -299.5t-311.5 -112.5h-341v-539h-128v1363h469zM966 951q0 140 -79 217.5t-222 77.5h-336v-591h336q143 0 222 78t79 218z" />
    <glyph glyph-name="Q" unicode="Q" horiz-adv-x="1358" 
d="M1212 -162h-146l-139 189q-109 -53 -249 -53q-248 0 -389.5 161.5t-141.5 439.5v217q0 278 141.5 439.5t389.5 161.5q249 0 390.5 -161.5t141.5 -439.5v-217q0 -157 -47 -280t-137 -201zM274 572q0 -221 108 -351.5t296 -130.5q100 0 175 37l-188 256h151l135 -187
q132 129 132 376v222q0 221 -108.5 352t-296.5 131t-296 -130.5t-108 -352.5v-222z" />
    <glyph glyph-name="R" unicode="R" horiz-adv-x="1247" 
d="M671 1363q193 0 308 -107.5t115 -286.5q0 -141 -72 -239t-197 -137l293 -593h-147l-274 567h-368v-567h-128v1363h470zM329 683h320q150 0 232 72.5t82 205.5q0 135 -81.5 210.5t-227.5 75.5h-325v-564z" />
    <glyph glyph-name="S" unicode="S" horiz-adv-x="1194" 
d="M102 357h129q10 -114 105 -192t258 -78q157 0 251 73.5t94 194.5q0 99 -63 157.5t-200 94.5l-218 57q-152 41 -232.5 129.5t-80.5 221.5q0 167 126 274t328 107t325.5 -104t126.5 -265h-129q-8 111 -93 181.5t-233 70.5q-145 0 -233 -72t-88 -188q0 -172 222 -231
l212 -58q187 -51 273.5 -136t86.5 -230q0 -180 -134 -287t-356 -107q-217 0 -345 111.5t-132 275.5z" />
    <glyph glyph-name="T" unicode="T" horiz-adv-x="1084" 
d="M606 0h-128v1247h-434v116h996v-116h-434v-1247z" />
    <glyph glyph-name="U" unicode="U" horiz-adv-x="1369" 
d="M684 87q175 0 275 103t100 280v893h127v-893q0 -226 -136.5 -363t-365.5 -137t-365 137t-136 363v893h127v-893q0 -176 100 -279.5t274 -103.5z" />
    <glyph glyph-name="V" unicode="V" horiz-adv-x="1228" 
d="M548 0l-497 1363h144l414 -1209h8l416 1209h144l-501 -1363h-128z" />
    <glyph glyph-name="W" unicode="W" horiz-adv-x="1715" 
d="M538 0h-118l-372 1363h149l282 -1165h7l305 1165h133l305 -1165h7l282 1165h149l-372 -1363h-118l-316 1154h-7z" />
    <glyph glyph-name="X" unicode="X" horiz-adv-x="1167" 
d="M1119 1363l-462 -687l454 -676h-155l-376 574h-7l-378 -574h-146l456 685l-452 678h153l380 -575h8l377 575h148z" />
    <glyph glyph-name="Y" unicode="Y" horiz-adv-x="1120" 
d="M624 0h-127v602l-462 761h147l374 -634h8l374 634h147l-461 -760v-603z" />
    <glyph glyph-name="Z" unicode="Z" horiz-adv-x="1195" 
d="M113 0v93l786 1147v8h-759v115h918v-93l-783 -1147v-8h794v-115h-956z" />
    <glyph glyph-name="bracketleft" unicode="[" horiz-adv-x="652" 
d="M163 1363h386v-96h-266v-1397h279v-96h-399v1589z" />
    <glyph glyph-name="backslash" unicode="\" horiz-adv-x="715" 
d="M665 -311h-112l-502 1747h112z" />
    <glyph glyph-name="bracketright" unicode="]" horiz-adv-x="652" 
d="M103 1363h386v-1589h-399v96h280v1397h-267v96z" />
    <glyph glyph-name="asciicircum" unicode="^" horiz-adv-x="792" 
d="M704 795h-110l-196 460h-4l-196 -460h-109l245 570h125z" />
    <glyph glyph-name="underscore" unicode="_" horiz-adv-x="894" 
d="M895 -214h-896v103h896v-103z" />
    <glyph glyph-name="grave" unicode="`" horiz-adv-x="938" 
d="M604 1227h-100l-272 337h131z" />
    <glyph glyph-name="a" unicode="a" horiz-adv-x="1088" 
d="M464 -17q-152 0 -246 86.5t-94 229.5q0 137 93.5 218.5t267.5 81.5h295v123q0 114 -66.5 170t-184.5 56q-109 0 -166.5 -40.5t-73.5 -104.5h-123q11 120 107.5 188.5t261.5 68.5q167 0 269.5 -82t102.5 -250v-728h-122v152h-6q-39 -69 -117.5 -119t-197.5 -50zM492 95
q122 0 205 74t83 188v135h-293q-118 0 -175 -51.5t-57 -138.5q0 -98 67.5 -152.5t169.5 -54.5z" />
    <glyph glyph-name="b" unicode="b" horiz-adv-x="1178" 
d="M638 -17q-114 0 -201.5 51t-121.5 138h-7v-172h-120v1464h125v-602h7q24 86 115.5 142t207.5 56q182 0 291 -120t109 -320v-196q0 -201 -110 -321t-295 -120zM624 95q137 0 215 95.5t78 261.5v136q0 168 -79 264t-217 96q-139 0 -223.5 -93.5t-84.5 -247.5v-185
q0 -143 87.5 -235t223.5 -92z" />
    <glyph glyph-name="c" unicode="c" horiz-adv-x="1070" 
d="M136 435v178q0 207 114.5 327t306.5 120q92 0 167 -27.5t121.5 -72.5t72.5 -99t29 -110h-125q-6 33 -22.5 65t-46 62t-80 48.5t-115.5 18.5q-140 0 -218 -90.5t-78 -250.5v-168q0 -158 80 -248t219 -90q123 0 186 51t80 129h125q-4 -55 -28.5 -105.5t-70 -94t-122 -69.5
t-173.5 -26q-195 0 -308.5 120t-113.5 332z" />
    <glyph glyph-name="d" unicode="d" horiz-adv-x="1180" 
d="M540 1060q121 0 204.5 -54.5t113.5 -134.5h6v593h126v-1464h-120v182h-7q-21 -76 -110 -137.5t-217 -61.5q-180 0 -290.5 118t-110.5 314v213q0 199 113 315.5t292 116.5zM554 948q-131 0 -212 -92.5t-81 -259.5v-149q0 -165 81 -258t217 -93q140 0 222.5 94.5
t82.5 243.5v190q0 140 -87 232t-223 92z" />
    <glyph glyph-name="e" unicode="e" horiz-adv-x="1103" 
d="M566 -17q-202 0 -315.5 123t-113.5 337v151q0 216 115 341t302 125q186 0 301.5 -125t115.5 -341v-102h-708v-56q0 -155 80 -248t223 -93q107 0 175.5 47t81.5 108h133q-6 -43 -32.5 -87.5t-72 -86t-120.5 -67.5t-165 -26zM263 592h581v15q0 157 -79 249t-211 92
t-211.5 -92t-79.5 -249v-15z" />
    <glyph glyph-name="f" unicode="f" horiz-adv-x="748" 
d="M263 0v937h-180v106h180v117q0 145 71 212.5t229 67.5q71 0 113 -8v-107q-30 5 -100 5q-102 0 -145 -39.5t-43 -138.5v-109h264v-106h-264v-937h-125z" />
    <glyph glyph-name="g" unicode="g" horiz-adv-x="1151" 
d="M549 -268q147 0 226 74.5t79 204.5v200h-8q-30 -72 -110.5 -129t-200.5 -57q-177 0 -293.5 118t-116.5 315v168q0 201 118 317.5t292 116.5q122 0 205.5 -59t112.5 -132h6v174h120v-1030q0 -191 -115.5 -292.5t-319.5 -101.5q-94 0 -169 23t-121.5 63t-72 88.5
t-30.5 103.5h131q10 -68 80.5 -116.5t186.5 -48.5zM557 948q-136 0 -221 -94.5t-85 -258.5v-108q0 -158 86.5 -254t220.5 -96q137 0 216.5 96.5t79.5 228.5v156q0 137 -82 233.5t-215 96.5z" />
    <glyph glyph-name="h" unicode="h" horiz-adv-x="1190" 
d="M189 0v1464h126v-618h7q10 35 32.5 69t61 68.5t100.5 55.5t139 21q158 0 256 -92t98 -262v-706h-126v668q0 130 -69.5 205t-191.5 75q-146 0 -226.5 -100t-80.5 -250v-598h-126z" />
    <glyph glyph-name="i" unicode="i" horiz-adv-x="547" 
d="M211 0v1043h125v-1043h-125zM173 1361q0 44 29 72.5t71 28.5q44 0 72.5 -28.5t28.5 -72.5q0 -42 -29 -70.5t-72 -28.5q-42 0 -71 28.5t-29 70.5z" />
    <glyph glyph-name="j" unicode="j" horiz-adv-x="547" 
d="M173 1361q0 44 29 72.5t71 28.5q44 0 72.5 -28.5t28.5 -72.5q0 -42 -29 -70.5t-72 -28.5q-42 0 -71 28.5t-29 70.5zM336 1043v-1091q0 -163 -64 -238t-188 -75q-55 0 -89 9v104q27 -5 67 -5q81 0 115 47.5t34 157.5v1091h125z" />
    <glyph glyph-name="k" unicode="k" horiz-adv-x="1045" 
d="M315 405v-405h-126v1464h126v-916h5l485 495h151l-431 -444l458 -599h-153l-397 518z" />
    <glyph glyph-name="l" unicode="l" horiz-adv-x="518" 
d="M196 0v1464h126v-1464h-126z" />
    <glyph glyph-name="m" unicode="m" horiz-adv-x="1751" 
d="M186 0v1043h126v-171h6q11 32 29 61t50 60t86 49t122 18q119 0 196 -58t102 -148h6q14 39 39 73.5t62.5 65t93.5 49t123 18.5q158 0 250 -85.5t92 -245.5v-729h-126v696q0 118 -64 185t-179 67t-187.5 -79t-72.5 -194v-675h-125v689q0 118 -66.5 188.5t-180.5 70.5
q-116 0 -186 -79t-70 -199v-670h-126z" />
    <glyph glyph-name="n" unicode="n" horiz-adv-x="1181" 
d="M186 0v1043h126v-197h6q12 39 33.5 72.5t58.5 67.5t97.5 54t137.5 20q163 0 260 -91t97 -262v-707h-126v670q0 130 -67 204t-190 74q-148 0 -227.5 -100t-79.5 -250v-598h-126z" />
    <glyph glyph-name="o" unicode="o" horiz-adv-x="1144" 
d="M572 1060q190 0 313 -121.5t123 -334.5v-165q0 -214 -122.5 -335t-313.5 -121q-193 0 -314.5 120t-121.5 336v165q0 210 123 333t313 123zM573 948q-139 0 -225 -97t-86 -263v-136q0 -167 84 -262t227 -95q142 0 225.5 94.5t83.5 262.5v136q0 166 -85 263t-224 97z" />
    <glyph glyph-name="p" unicode="p" horiz-adv-x="1176" 
d="M635 -17q-120 0 -201 53.5t-115 135.5h-7v-526h-125v1398h120v-182h6q29 80 115 139t212 59q180 0 289.5 -119.5t109.5 -320.5v-196q0 -206 -111.5 -323.5t-292.5 -117.5zM619 95q134 0 214 93t80 266v135q0 170 -80 264.5t-217 94.5q-141 0 -222.5 -94t-81.5 -244v-191
q0 -142 85.5 -233t221.5 -91z" />
    <glyph glyph-name="q" unicode="q" horiz-adv-x="1169" 
d="M536 1060q114 0 202 -52.5t123 -143.5h7v179h120v-1397h-126v529h-6q-32 -86 -121.5 -139t-201.5 -53q-181 0 -289.5 119.5t-108.5 318.5v200q0 198 110 318.5t291 120.5zM555 947q-135 0 -214.5 -95t-79.5 -257v-149q0 -163 79.5 -257.5t217.5 -94.5t221 92.5t83 245.5
v192q0 142 -86 232.5t-221 90.5z" />
    <glyph glyph-name="r" unicode="r" horiz-adv-x="760" 
d="M198 0v1043h126v-177h7q10 33 30.5 64t54.5 61.5t89.5 49t123.5 18.5q26 0 71 -5v-118q-30 6 -85 6q-134 0 -212.5 -78t-78.5 -211v-653h-126z" />
    <glyph glyph-name="s" unicode="s" horiz-adv-x="1018" 
d="M139 760q0 98 51.5 167.5t133 101t183.5 31.5q169 0 265 -82t96 -200h-120q-4 67 -66 121.5t-179 54.5q-105 0 -172 -48t-67 -134q0 -27 8 -49.5t19.5 -39t33 -30.5t40 -23t50.5 -18.5t54 -14.5t60 -13q57 -12 95.5 -22t84.5 -26t75.5 -36.5t56 -49t39 -67.5t12.5 -88
q0 -149 -110.5 -230.5t-286.5 -81.5q-178 0 -279.5 79.5t-101.5 205.5h124q8 -78 70.5 -128.5t190.5 -50.5q127 0 197.5 52t70.5 140q0 38 -16 67.5t-37.5 47.5t-64 33.5t-73 23.5t-88.5 20q-69 15 -114 28t-94 36t-76.5 51t-46 71.5t-18.5 100.5z" />
    <glyph glyph-name="t" unicode="t" horiz-adv-x="741" 
d="M241 1043v259h126v-259h257v-106h-257v-672q0 -97 38.5 -131.5t142.5 -34.5q35 0 92 6v-107q-51 -8 -119 -8q-85 0 -140 16t-86 52t-42.5 85.5t-11.5 126.5v667h-176v106h176z" />
    <glyph glyph-name="u" unicode="u" horiz-adv-x="1177" 
d="M991 1043v-1043h-126v185h-7q-12 -36 -37.5 -70t-64 -64.5t-96.5 -49t-126 -18.5q-163 0 -260 82.5t-97 255.5v722h126v-691q0 -128 70 -192.5t187 -64.5q134 0 219.5 88.5t85.5 208.5v651h126z" />
    <glyph glyph-name="v" unicode="v" horiz-adv-x="1001" 
d="M434 0l-377 1043h140l296 -903h7l310 903h134l-383 -1043h-127z" />
    <glyph glyph-name="w" unicode="w" horiz-adv-x="1474" 
d="M1414 1043l-282 -1043h-124l-265 860h-4l-260 -860h-125l-294 1043h143l211 -872h7l259 872h121l264 -872h7l215 872h127z" />
    <glyph glyph-name="x" unicode="x" horiz-adv-x="1036" 
d="M798 0l-280 422h-6l-281 -422h-144l359 519l-357 524h152l273 -417h6l278 417h145l-357 -511l364 -532h-152z" />
    <glyph glyph-name="y" unicode="y" horiz-adv-x="1033" 
d="M962 1043l-377 -1050l-33 -90q-24 -64 -46.5 -106.5t-58.5 -83t-87 -60.5t-119 -20q-52 0 -99 9v108q31 -7 81 -7q85 0 131.5 42t72.5 125l24 75l-389 1058h140l311 -913h6l309 913h134z" />
    <glyph glyph-name="z" unicode="z" horiz-adv-x="1013" 
d="M134 0v91l591 833v8h-594v111h752v-92l-592 -832v-8h595v-111h-752z" />
    <glyph glyph-name="braceleft" unicode="{" horiz-adv-x="730" 
d="M229 599v-21q163 -15 163 -219v-346q0 -110 54.5 -162t173.5 -52h50v-103h-46q-174 0 -262 74t-88 246v295q0 110 -34.5 156.5t-133.5 46.5v148q98 0 133 47t35 157v257q0 170 87.5 240.5t262.5 70.5h46v-103h-50q-121 0 -174.5 -51t-53.5 -162v-299q0 -105 -40 -158.5
t-123 -61.5z" />
    <glyph glyph-name="bar" unicode="|" horiz-adv-x="609" 
d="M357 -309h-105v1745h105v-1745z" />
    <glyph glyph-name="braceright" unicode="}" horiz-adv-x="730" 
d="M501 578v21q-163 17 -163 220v299q0 111 -53.5 162t-175.5 51h-49v103h45q175 0 263 -70.5t88 -240.5v-257q0 -110 35 -157t133 -47v-148q-99 0 -133.5 -46.5t-34.5 -156.5v-295q0 -172 -88.5 -246t-262.5 -74h-45v103h49q120 0 174.5 52t54.5 162v346q0 204 163 219z
" />
    <glyph glyph-name="asciitilde" unicode="~" horiz-adv-x="1167" 
d="M793 506q-59 0 -110 23.5t-87.5 56.5t-69.5 66t-70.5 56.5t-76.5 23.5q-63 0 -103 -54t-42 -138h-116q0 128 69.5 216t191.5 88q50 0 94 -16.5t74.5 -41.5t62.5 -54.5t57 -54.5t57.5 -41.5t66.5 -16.5q65 0 102 54.5t41 136.5h116q0 -78 -26 -144.5t-86 -113t-145 -46.5z
" />
    <glyph glyph-name="nonbreakingspace" unicode="&#xa0;" horiz-adv-x="465" 
 />
    <glyph glyph-name="exclamdown" unicode="&#xa1;" horiz-adv-x="551" 
d="M346 -294h-142l16 911h110zM389 972q0 -49 -32.5 -82t-79.5 -33q-50 0 -83 33t-33 82q0 48 33.5 80.5t82.5 32.5q47 0 79.5 -32.5t32.5 -80.5z" />
    <glyph glyph-name="cent" unicode="&#xa2;" horiz-adv-x="1113" 
d="M958 433q-7 -108 -93 -193.5t-247 -98.5v-231h-106v232q-172 17 -271 134.5t-99 313.5v179q0 191 100 309t270 135v246h106v-245q153 -15 241.5 -106t93.5 -201h-125q-6 34 -22 66t-45.5 63t-80 50t-114.5 19q-141 0 -220 -92t-79 -253v-168q0 -158 81 -247t221 -89
q223 0 265 177h124z" />
    <glyph glyph-name="sterling" unicode="&#xa3;" horiz-adv-x="1113" 
d="M1015 109v-109h-902v116q42 0 66 3t52 16.5t42 41t24 78t10 124.5v271h-217v104h217v315q0 156 100 240t257 84t250.5 -83t98.5 -211h-120q-5 76 -65.5 130t-163.5 54q-115 0 -173 -62t-58 -165v-302h311v-104h-311v-278q0 -102 -17 -165t-60 -88v-10h659z" />
    <glyph glyph-name="currency" unicode="&#xa4;" horiz-adv-x="1113" 
d="M944 189l-181 182q-90 -65 -202 -65q-114 0 -206 68l-183 -185l-75 75l183 184q-70 90 -70 208q0 114 66 204l-179 179l76 76l177 -179q93 71 211 71q115 0 207 -68l176 176l75 -76l-175 -176q67 -93 67 -207q0 -120 -72 -212l180 -180zM305 656q0 -106 74.5 -181
t181.5 -75q106 0 181.5 75t75.5 181t-75.5 182t-181.5 76t-181 -75.5t-75 -182.5z" />
    <glyph glyph-name="yen" unicode="&#xa5;" horiz-adv-x="1113" 
d="M900 313h-280v-313h-127v313h-280v97h280v165h-280v96h239l-420 692h147l373 -634h8l375 634h147l-421 -692h239v-96h-280v-165h280v-97z" />
    <glyph glyph-name="brokenbar" unicode="&#xa6;" horiz-adv-x="609" 
d="M357 783h-105v654h105v-654zM357 -309h-105v685h105v-685z" />
    <glyph glyph-name="section" unicode="&#xa7;" horiz-adv-x="984" 
d="M748 66q0 39 -14.5 69t-35.5 49.5t-61.5 36.5t-76.5 27.5t-95 24.5q-82 20 -137.5 40.5t-106 54t-75.5 84.5t-25 120q0 92 54 154t125 93v7q-34 18 -59 37t-52 49t-41.5 73t-14.5 95q0 145 103.5 229t256.5 84q158 0 256.5 -85t98.5 -219h-120q-3 79 -68.5 135.5
t-169.5 56.5q-106 0 -169 -55.5t-63 -140.5q0 -40 15 -71.5t37 -52t60.5 -38t72.5 -27.5t86 -23q45 -11 75 -19t69.5 -22t65.5 -29t54 -37.5t44 -49t26.5 -62.5t10.5 -79q0 -85 -45.5 -150t-109.5 -104v-7q68 -37 112 -91t44 -143q0 -148 -108.5 -240.5t-280.5 -92.5
q-167 0 -274.5 83.5t-107.5 223.5h123q8 -89 76.5 -141.5t185.5 -52.5q126 0 192.5 59.5t66.5 146.5zM614 351q53 23 93 81t40 128q0 75 -54.5 122.5t-165.5 73.5q-5 1 -33 8.5t-54.5 14t-34.5 8.5q-55 -12 -107.5 -69.5t-52.5 -132.5q0 -83 57.5 -126.5t176.5 -74.5
q33 -7 135 -33z" />
    <glyph glyph-name="dieresis" unicode="&#xa8;" horiz-adv-x="938" 
d="M632 1226q-36 0 -63 26t-27 62q0 38 26.5 64t63.5 26q40 0 67.5 -26t27.5 -64q0 -37 -27.5 -62.5t-67.5 -25.5zM303 1226q-38 0 -65 25.5t-27 62.5q0 38 27 64t65 26q39 0 66 -26t27 -64q0 -37 -27.5 -62.5t-65.5 -25.5z" />
    <glyph glyph-name="copyright" unicode="&#xa9;" horiz-adv-x="1693" 
d="M544 634v99q0 157 83.5 241.5t230.5 84.5q130 0 205 -69t80 -158h-102q-10 52 -53 93t-130 41q-215 0 -215 -239v-94q0 -114 56.5 -172t158.5 -58q161 0 189 117h101q-7 -87 -82 -151t-208 -64q-148 0 -231 84.5t-83 244.5zM238 638q0 -129 44.5 -241t124 -192
t194.5 -125.5t251 -45.5t251.5 45.5t195 125.5t124.5 192t45 241v108q0 160 -77 293t-219 212t-320 79q-134 0 -249.5 -46t-195 -124.5t-124.5 -186t-45 -227.5v-108zM852 -62q-156 0 -290 53.5t-227 147t-145.5 223.5t-52.5 280v104q0 141 53.5 266.5t147 217t227.5 144.5
t287 53q154 0 288 -54t227 -145.5t146.5 -216.5t53.5 -265v-104q0 -150 -52.5 -280t-145 -223.5t-226.5 -147t-291 -53.5z" />
    <glyph glyph-name="ordfeminine" unicode="&#xaa;" horiz-adv-x="672" 
d="M295 785q-83 0 -134 45.5t-51 123.5t51.5 121.5t147.5 43.5h151v58q0 104 -122 104q-101 0 -115 -67h-91q5 68 60 108t150 40t153.5 -45t58.5 -139v-384h-90v77h-4q-51 -86 -165 -86zM321 862q58 0 98.5 35t40.5 87v64h-140q-58 1 -87.5 -23t-29.5 -65q0 -47 34 -72.5
t84 -25.5z" />
    <glyph glyph-name="guillemotleft" unicode="&#xab;" horiz-adv-x="1278" 
d="M588 565l353 404h150l-348 -403v-6l348 -405h-159l-344 402v8zM142 565l354 404h150l-348 -403v-6l348 -405h-159l-345 402v8z" />
    <glyph glyph-name="logicalnot" unicode="&#xac;" horiz-adv-x="1113" 
d="M1003 123h-113v370h-784v106h897v-476z" />
    <glyph glyph-name="registered" unicode="&#xae;" horiz-adv-x="1211" 
d="M609 416q-210 0 -345.5 132t-135.5 333v61q0 190 137.5 320t343.5 130q205 0 343 -131t138 -319v-61q0 -201 -135.5 -333t-345.5 -132zM609 495q176 0 288.5 108.5t112.5 275.5v65q0 156 -113.5 263.5t-287.5 107.5q-173 0 -287 -107.5t-114 -263.5v-65
q0 -167 112.5 -275.5t288.5 -108.5zM517 1099v-177h96q110 0 110 89q0 42 -27 65t-73 23h-106zM517 666h-77v494h208q68 0 110.5 -41.5t42.5 -105.5q0 -53 -27.5 -91.5t-71.5 -50.5q4 -6 26.5 -46.5t52.5 -94t36 -64.5h-91l-103 195h-106v-195z" />
    <glyph glyph-name="macron" unicode="&#xaf;" horiz-adv-x="938" 
d="M756 1270h-579v90h579v-90z" />
    <glyph glyph-name="degree" unicode="&#xb0;" horiz-adv-x="713" 
d="M357 835q-113 0 -192 79.5t-79 192.5q0 112 79 190.5t192 78.5q111 0 190.5 -79t79.5 -190q0 -112 -79.5 -192t-190.5 -80zM357 936q71 0 121 50.5t50 120.5q0 71 -50 120.5t-121 49.5q-69 0 -119.5 -50t-50.5 -120q0 -69 50.5 -120t119.5 -51z" />
    <glyph glyph-name="plusminus" unicode="&#xb1;" horiz-adv-x="1128" 
d="M614 672v-307h-104v307h-410v106h410v291h104v-291h412v-106h-412zM1028 137h-926v107h926v-107z" />
    <glyph glyph-name="twosuperior" unicode="&#xb2;" horiz-adv-x="690" 
d="M213 1176h-95v7q0 81 56.5 139t158.5 58q97 0 156 -53t59 -133q0 -55 -28.5 -102.5t-84.5 -105.5l-186 -191v-1h311v-87h-436v65l249 273q76 80 76 143q0 47 -32.5 76.5t-85.5 29.5q-55 0 -86.5 -32.5t-31.5 -78.5v-7z" />
    <glyph glyph-name="threesuperior" unicode="&#xb3;" horiz-adv-x="684" 
d="M254 1006v84h72q53 0 86 30t33 76q0 45 -32 73t-84 28t-84.5 -27t-35.5 -65h-91q2 71 58.5 123t153.5 52q93 0 152 -48t59 -123q0 -57 -35.5 -99.5t-89.5 -55.5v-1q63 -10 105.5 -50.5t42.5 -109.5q0 -86 -65.5 -141.5t-168.5 -55.5q-101 0 -162.5 52.5t-63.5 126.5h91
q3 -40 40.5 -67.5t94.5 -27.5q62 0 100 32t38 82q0 49 -38 80.5t-100 31.5h-76z" />
    <glyph glyph-name="acute" unicode="&#xb4;" horiz-adv-x="938" 
d="M297 1227l242 337h131l-272 -337h-101z" />
    <glyph glyph-name="mu" unicode="&#xb5;" horiz-adv-x="1241" 
d="M188 -354v1397h126v-674q0 -126 67 -200t186 -74q134 0 216.5 86t82.5 212v650h126v-805q0 -81 20.5 -110t76.5 -29q28 0 55 5v-107q-32 -7 -75 -7q-183 0 -196 175l-2 16h-7q-37 -92 -113 -145t-182 -53q-173 0 -249 130h-6v-467h-126z" />
    <glyph glyph-name="paragraph" unicode="&#xb6;" horiz-adv-x="1244" 
d="M730 -210h-126v747h-20q-49 0 -103.5 12t-114.5 42.5t-107 75.5t-78 118.5t-31 163.5q0 98 31 174.5t77.5 121t108 73t114 38t104.5 9.5h145v-1575zM894 -210v1575h126v-1575h-126z" />
    <glyph glyph-name="periodcentered" unicode="&#xb7;" horiz-adv-x="596" 
d="M184 717q0 49 32.5 82.5t79.5 33.5q50 0 83.5 -33.5t33.5 -82.5q0 -47 -34 -79.5t-83 -32.5q-47 0 -79.5 32.5t-32.5 79.5z" />
    <glyph glyph-name="cedilla" unicode="&#xb8;" horiz-adv-x="893" 
d="M348 -219v64l64 162h95l-57 -147q95 0 153.5 -39t58.5 -118q0 -87 -63.5 -132.5t-157.5 -48.5q-78 -3 -141 16v85q47 -14 119 -14q54 0 93 22t39 68q0 49 -40 65.5t-112 16.5h-51z" />
    <glyph glyph-name="onesuperior" unicode="&#xb9;" horiz-adv-x="617" 
d="M414 707h-97v551h-5l-156 -114v99l161 120h97v-656z" />
    <glyph glyph-name="ordmasculine" unicode="&#xba;" horiz-adv-x="659" 
d="M331 1281q-69 0 -110 -47.5t-41 -126.5v-67q0 -80 39.5 -126.5t111.5 -46.5q70 0 109.5 46.5t39.5 126.5v67q0 79 -40.5 126.5t-108.5 47.5zM331 1362q108 0 176.5 -67t68.5 -182v-79q0 -117 -68 -183t-177 -66q-111 0 -179 66t-68 183v79q0 113 69 181t178 68z" />
    <glyph glyph-name="guillemotright" unicode="&#xbb;" horiz-adv-x="1278" 
d="M1136 565v-8l-345 -402h-159l348 405v6l-348 403h150zM691 565v-8l-345 -402h-159l348 405v6l-348 403h150z" />
    <glyph glyph-name="onequarter" unicode="&#xbc;" horiz-adv-x="1475" 
d="M947 214h233v368h-4q-119 -176 -229 -364v-4zM1134 667h135v-453h86v-81h-86v-133h-89v133h-334v78q32 57 82 136t118 184t88 136zM378 707h-97v551h-5l-156 -114v99l161 120h97v-656zM271 0h-118l517 681l517 682h119l-518 -682z" />
    <glyph glyph-name="onehalf" unicode="&#xbd;" horiz-adv-x="1526" 
d="M1054 459h-96v7q0 82 57.5 141t160.5 59q98 0 158 -53.5t60 -134.5q0 -20 -4 -39t-12 -37t-17.5 -34.5t-23.5 -34.5t-27 -33t-31 -33l-189 -194v-1h316v-88h-442v66l252 277q23 24 38 43t27 46.5t12 55.5q0 48 -33 77.5t-86 29.5q-56 0 -88 -33t-32 -80v-7zM378 707h-97
v551h-5l-156 -114v99l161 120h97v-656zM271 0h-118l517 681l517 682h119l-518 -682z" />
    <glyph glyph-name="threequarters" unicode="&#xbe;" horiz-adv-x="1558" 
d="M1030 216h233v366h-4q-131 -193 -229 -363v-3zM1218 667h136v-451h84v-83h-84v-133h-91v133h-334v78q32 58 78.5 131.5t125 193.5t85.5 131zM272 990v85h72q27 0 49.5 8t38 22.5t24.5 34t9 42.5q0 22 -8.5 41t-24 32.5t-37 21t-48.5 7.5q-52 0 -85 -27.5t-36 -65.5h-92
q3 72 60 124.5t154 52.5q95 0 154.5 -48.5t59.5 -124.5q0 -58 -36 -100.5t-91 -55.5v-1q64 -11 107 -51.5t43 -110.5q0 -87 -66 -143t-171 -56q-101 0 -163.5 53t-64.5 128h92q2 -27 19.5 -48.5t48 -34.5t68.5 -13q42 0 73.5 15t49 41t17.5 59q0 50 -38.5 81.5t-101.5 31.5
h-76zM337 0h-118l517 681l517 682h119l-518 -682z" />
    <glyph glyph-name="questiondown" unicode="&#xbf;" horiz-adv-x="965" 
d="M615 960q0 -49 -33 -82.5t-80 -33.5q-50 0 -83 33t-33 83q0 47 33.5 80t82.5 33q47 0 80 -33t33 -80zM874 26q-1 -91 -34 -162.5t-89 -115t-125.5 -65.5t-149.5 -22q-104 0 -189 35.5t-140 112t-55 182.5q0 57 15 105t45.5 88t60.5 68.5t76 65.5q94 75 125 124t31 128v73
h126v-95q0 -91 -46.5 -157.5t-143.5 -143.5q-86 -68 -123 -120.5t-37 -129.5q0 -111 75 -168t186 -57q68 0 121 22t84.5 58.5t47.5 80.5t17 93h122z" />
    <glyph glyph-name="Agrave" unicode="&#xc0;" horiz-adv-x="1223" 
d="M193 0h-134l489 1363h127l489 -1363h-135l-149 436h-538zM614 1206h-6l-229 -665h464zM699 1514h-106l-293 322h136z" />
    <glyph glyph-name="Aacute" unicode="&#xc1;" horiz-adv-x="1223" 
d="M193 0h-134l489 1363h127l489 -1363h-135l-149 436h-538zM614 1206h-6l-229 -665h464zM522 1514l263 322h136l-293 -322h-106z" />
    <glyph glyph-name="Acircumflex" unicode="&#xc2;" horiz-adv-x="1223" 
d="M193 0h-134l489 1363h127l489 -1363h-135l-149 436h-538zM614 1206h-6l-229 -665h464zM652 1733l272 -232h-136l-174 148h-5l-180 -148h-133l279 232h77z" />
    <glyph glyph-name="Atilde" unicode="&#xc3;" horiz-adv-x="1223" 
d="M193 0h-134l489 1363h127l489 -1363h-135l-149 436h-538zM614 1206h-6l-229 -665h464zM731 1474q-45 0 -82.5 20.5t-59 44.5t-49.5 44.5t-56 20.5q-39 0 -59 -34.5t-21 -81.5h-88q0 85 44 142t121 57q43 0 80.5 -20.5t60 -45t51.5 -45t57 -20.5q40 0 62 33.5t23 81.5h88
q0 -80 -45.5 -138.5t-126.5 -58.5z" />
    <glyph glyph-name="Adieresis" unicode="&#xc4;" horiz-adv-x="1223" 
d="M193 0h-134l489 1363h127l489 -1363h-135l-149 436h-538zM614 1206h-6l-229 -665h464zM773 1490q-37 0 -63 25t-26 62t26 62t63 25q39 0 65.5 -25t26.5 -62t-26.5 -62t-65.5 -25zM448 1490q-38 0 -63.5 25t-25.5 62t25.5 62t63.5 25q39 0 65 -25t26 -62t-26 -62t-65 -25z
" />
    <glyph glyph-name="Aring" unicode="&#xc5;" horiz-adv-x="1223" 
d="M193 0h-134l489 1363h127l489 -1363h-135l-149 436h-538zM614 1206h-6l-229 -665h464zM612 1499q-75 0 -127.5 51.5t-52.5 126.5t52.5 126t127.5 51t127.5 -51t52.5 -126t-52.5 -126.5t-127.5 -51.5zM503 1676q0 -45 32 -77.5t77 -32.5t76.5 32.5t31.5 77.5q0 46 -31 78
t-77 32q-45 0 -77 -32t-32 -78z" />
    <glyph glyph-name="AE" unicode="&#xc6;" horiz-adv-x="1884" 
d="M887 1246l-389 -695h460v695h-71zM958 445h-518l-255 -445h-143l776 1363h928v-117h-661v-491h626v-115h-626v-524h661v-116h-788v445z" />
    <glyph glyph-name="Ccedilla" unicode="&#xc7;" horiz-adv-x="1293" 
d="M656 -481q-78 -3 -141 16v85q47 -14 119 -14q54 0 93 22t39 68q0 48 -40 65t-112 17h-51v64l52 131q-226 16 -347 173t-121 423v219q0 277 138 441t383 164q117 0 212.5 -39.5t154 -104t89.5 -141t31 -155.5v-1h-126q0 58 -24 115t-68 104t-114 76.5t-155 29.5
q-185 0 -289.5 -131t-104.5 -357v-222q0 -228 104 -354t296 -126q166 0 262.5 89t96.5 218h126v-1q0 -72 -28.5 -142.5t-82 -131.5t-142 -101.5t-197.5 -46.5l-44 -114q95 0 153.5 -39t58.5 -118q0 -87 -63 -132.5t-158 -48.5z" />
    <glyph glyph-name="Egrave" unicode="&#xc8;" horiz-adv-x="1135" 
d="M684 1514h-106l-293 322h136zM997 116v-116h-796v1363h796v-117h-668v-491h632v-115h-632v-524h668z" />
    <glyph glyph-name="Eacute" unicode="&#xc9;" horiz-adv-x="1135" 
d="M507 1514l263 322h136l-293 -322h-106zM997 116v-116h-796v1363h796v-117h-668v-491h632v-115h-632v-524h668z" />
    <glyph glyph-name="Ecircumflex" unicode="&#xca;" horiz-adv-x="1135" 
d="M637 1733l272 -232h-136l-174 148h-5l-180 -148h-133l279 232h77zM997 116v-116h-796v1363h796v-117h-668v-491h632v-115h-632v-524h668z" />
    <glyph glyph-name="Edieresis" unicode="&#xcb;" horiz-adv-x="1135" 
d="M758 1490q-37 0 -63 25t-26 62t26 62t63 25q39 0 65.5 -25t26.5 -62t-26.5 -62t-65.5 -25zM433 1490q-38 0 -63.5 25t-25.5 62t25.5 62t63.5 25q39 0 65 -25t26 -62t-26 -62t-65 -25zM997 116v-116h-796v1363h796v-117h-668v-491h632v-115h-632v-524h668z" />
    <glyph glyph-name="Igrave" unicode="&#xcc;" horiz-adv-x="543" 
d="M335 0h-127v1363h127v-1363zM359 1514h-106l-293 322h136z" />
    <glyph glyph-name="Iacute" unicode="&#xcd;" horiz-adv-x="543" 
d="M335 0h-127v1363h127v-1363zM182 1514l263 322h136l-293 -322h-106z" />
    <glyph glyph-name="Icircumflex" unicode="&#xce;" horiz-adv-x="543" 
d="M335 0h-127v1363h127v-1363zM312 1733l272 -232h-136l-174 148h-5l-180 -148h-133l279 232h77z" />
    <glyph glyph-name="Idieresis" unicode="&#xcf;" horiz-adv-x="543" 
d="M335 0h-127v1363h127v-1363zM433 1490q-37 0 -63 25t-26 62t26 62t63 25q39 0 65.5 -25t26.5 -62t-26.5 -62t-65.5 -25zM108 1490q-38 0 -63.5 25t-25.5 62t25.5 62t63.5 25q39 0 65 -25t26 -62t-26 -62t-65 -25z" />
    <glyph glyph-name="Eth" unicode="&#xd0;" horiz-adv-x="1407" 
d="M673 0h-403v640h-159v116h159v607h403q300 0 451 -175t151 -507t-150 -506.5t-452 -174.5zM398 116h271q474 0 474 565q0 277 -117.5 421t-356.5 144h-271v-490h334v-116h-334v-524z" />
    <glyph glyph-name="Ntilde" unicode="&#xd1;" horiz-adv-x="1398" 
d="M818 1474q-44 0 -82 20.5t-59.5 44.5t-50 44.5t-55.5 20.5q-39 0 -59 -34.5t-21 -81.5h-88q0 85 44 142t121 57q43 0 80.5 -20.5t60 -45t51.5 -45t57 -20.5q40 0 62 33.5t23 81.5h88q0 -80 -45.5 -138.5t-126.5 -58.5zM329 0h-128v1363h129l732 -1143h7v1143h127v-1363
h-128l-733 1143h-6v-1143z" />
    <glyph glyph-name="Ograve" unicode="&#xd2;" horiz-adv-x="1357" 
d="M765 1514h-106l-293 322h136zM1083 794q0 228 -111 355.5t-294 127.5t-293.5 -127t-110.5 -356v-225q0 -229 110.5 -356t293.5 -127t294 127t111 356v225zM1210 571q0 -280 -142.5 -440.5t-389.5 -160.5q-246 0 -388.5 160.5t-142.5 440.5v221q0 281 142.5 441t388.5 160
q247 0 389.5 -160.5t142.5 -441.5v-220z" />
    <glyph glyph-name="Oacute" unicode="&#xd3;" horiz-adv-x="1357" 
d="M588 1514l263 322h136l-293 -322h-106zM1083 794q0 228 -111 355.5t-294 127.5t-293.5 -127t-110.5 -356v-225q0 -229 110.5 -356t293.5 -127t294 127t111 356v225zM1210 571q0 -280 -142.5 -440.5t-389.5 -160.5q-246 0 -388.5 160.5t-142.5 440.5v221q0 281 142.5 441
t388.5 160q247 0 389.5 -160.5t142.5 -441.5v-220z" />
    <glyph glyph-name="Ocircumflex" unicode="&#xd4;" horiz-adv-x="1357" 
d="M718 1733l272 -232h-136l-174 148h-5l-180 -148h-133l279 232h77zM1083 794q0 228 -111 355.5t-294 127.5t-293.5 -127t-110.5 -356v-225q0 -229 110.5 -356t293.5 -127t294 127t111 356v225zM1210 571q0 -280 -142.5 -440.5t-389.5 -160.5q-246 0 -388.5 160.5
t-142.5 440.5v221q0 281 142.5 441t388.5 160q247 0 389.5 -160.5t142.5 -441.5v-220z" />
    <glyph glyph-name="Otilde" unicode="&#xd5;" horiz-adv-x="1357" 
d="M1083 794q0 228 -111 355.5t-294 127.5t-293.5 -127t-110.5 -356v-225q0 -229 110.5 -356t293.5 -127t294 127t111 356v225zM1210 571q0 -280 -142.5 -440.5t-389.5 -160.5q-246 0 -388.5 160.5t-142.5 440.5v221q0 281 142.5 441t388.5 160q247 0 389.5 -160.5
t142.5 -441.5v-220zM797 1474q-45 0 -82.5 20.5t-59 44.5t-49.5 44.5t-56 20.5q-39 0 -59 -34.5t-21 -81.5h-88q0 85 44 142t121 57q43 0 80.5 -20.5t60 -45t51.5 -45t57 -20.5q40 0 62 33.5t23 81.5h88q0 -80 -45.5 -138.5t-126.5 -58.5z" />
    <glyph glyph-name="Odieresis" unicode="&#xd6;" horiz-adv-x="1357" 
d="M840 1490q-37 0 -63 25t-26 62t26 62t63 25q39 0 65.5 -25t26.5 -62t-26.5 -62t-65.5 -25zM515 1490q-38 0 -63.5 25t-25.5 62t25.5 62t63.5 25q39 0 65 -25t26 -62t-26 -62t-65 -25zM1083 794q0 228 -111 355.5t-294 127.5t-293.5 -127t-110.5 -356v-225
q0 -229 110.5 -356t293.5 -127t294 127t111 356v225zM1210 571q0 -280 -142.5 -440.5t-389.5 -160.5q-246 0 -388.5 160.5t-142.5 440.5v221q0 281 142.5 441t388.5 160q247 0 389.5 -160.5t142.5 -441.5v-220z" />
    <glyph glyph-name="multiply" unicode="&#xd7;" horiz-adv-x="1113" 
d="M875 90l-318 320l-319 -320l-75 75l319 319l-319 320l74 74l320 -319l319 319l74 -74l-319 -320l319 -319z" />
    <glyph glyph-name="Oslash" unicode="&#xd8;" horiz-adv-x="1357" 
d="M676 -30q-251 0 -391 165l-106 -129l-76 62l123 149q-79 144 -79 349v221q0 281 143 443.5t389 162.5q242 0 383 -158l107 129l80 -56l-127 -153q88 -151 88 -368v-221q0 -280 -143.5 -438t-390.5 -158zM273 564q0 -134 42 -238l666 809q-112 142 -303 142
q-182 0 -293.5 -129.5t-111.5 -358.5v-225zM678 87q184 0 294.5 124.5t110.5 352.5v225q0 148 -49 257l-668 -812q109 -147 312 -147z" />
    <glyph glyph-name="Ugrave" unicode="&#xd9;" horiz-adv-x="1369" 
d="M772 1514h-106l-293 322h136zM684 87q175 0 275 103t100 280v893h127v-893q0 -226 -136.5 -363t-365.5 -137t-365 137t-136 363v893h127v-893q0 -176 100 -279.5t274 -103.5z" />
    <glyph glyph-name="Uacute" unicode="&#xda;" horiz-adv-x="1369" 
d="M595 1514l263 322h136l-293 -322h-106zM684 87q175 0 275 103t100 280v893h127v-893q0 -226 -136.5 -363t-365.5 -137t-365 137t-136 363v893h127v-893q0 -176 100 -279.5t274 -103.5z" />
    <glyph glyph-name="Ucircumflex" unicode="&#xdb;" horiz-adv-x="1369" 
d="M725 1733l272 -232h-136l-174 148h-5l-180 -148h-133l279 232h77zM684 87q175 0 275 103t100 280v893h127v-893q0 -226 -136.5 -363t-365.5 -137t-365 137t-136 363v893h127v-893q0 -176 100 -279.5t274 -103.5z" />
    <glyph glyph-name="Udieresis" unicode="&#xdc;" horiz-adv-x="1369" 
d="M846 1490q-37 0 -63 25t-26 62t26 62t63 25q39 0 65.5 -25t26.5 -62t-26.5 -62t-65.5 -25zM521 1490q-38 0 -63.5 25t-25.5 62t25.5 62t63.5 25q39 0 65 -25t26 -62t-26 -62t-65 -25zM684 87q175 0 275 103t100 280v893h127v-893q0 -226 -136.5 -363t-365.5 -137
t-365 137t-136 363v893h127v-893q0 -176 100 -279.5t274 -103.5z" />
    <glyph glyph-name="Yacute" unicode="&#xdd;" horiz-adv-x="1120" 
d="M624 0h-127v602l-462 761h147l374 -634h8l374 634h147l-461 -760v-603zM470 1514l263 322h136l-293 -322h-106z" />
    <glyph glyph-name="Thorn" unicode="&#xde;" horiz-adv-x="1184" 
d="M946 722q0 259 -301 259h-316v-518h316q301 0 301 259zM1077 722q0 -178 -113.5 -276t-313.5 -98h-321v-348h-128v1363h128v-267h321q200 0 313.5 -98t113.5 -276z" />
    <glyph glyph-name="germandbls" unicode="&#xdf;" horiz-adv-x="1236" 
d="M326 0h-127v1054q0 175 104.5 276t291.5 102q182 1 290.5 -94t108.5 -249q0 -72 -26.5 -134.5t-66.5 -102.5t-84 -64.5t-84 -29.5v-9q70 -1 137 -24.5t123.5 -66.5t91.5 -114.5t35 -158.5q0 -97 -40.5 -176t-107.5 -127t-148 -73.5t-168 -25.5q-84 0 -154 17v110
q57 -19 156 -19q48 0 94 10t89.5 32.5t76 55t52.5 82.5t20 110q0 135 -102.5 215t-277.5 80h-83v130h62q107 0 192 79.5t85 193.5q0 113 -74 178t-193 65q-138 0 -205.5 -73.5t-67.5 -205.5v-1043z" />
    <glyph glyph-name="agrave" unicode="&#xe0;" horiz-adv-x="1088" 
d="M464 -17q-152 0 -246 86.5t-94 229.5q0 137 93.5 218.5t267.5 81.5h295v123q0 114 -66.5 170t-184.5 56q-109 0 -166.5 -40.5t-73.5 -104.5h-123q11 120 107.5 188.5t261.5 68.5q167 0 269.5 -82t102.5 -250v-728h-122v152h-6q-39 -69 -117.5 -119t-197.5 -50zM492 95
q122 0 205 74t83 188v135h-293q-118 0 -175 -51.5t-57 -138.5q0 -98 67.5 -152.5t169.5 -54.5zM622 1228h-100l-272 337h131z" />
    <glyph glyph-name="aacute" unicode="&#xe1;" horiz-adv-x="1088" 
d="M464 -17q-152 0 -246 86.5t-94 229.5q0 137 93.5 218.5t267.5 81.5h295v123q0 114 -66.5 170t-184.5 56q-109 0 -166.5 -40.5t-73.5 -104.5h-123q11 120 107.5 188.5t261.5 68.5q167 0 269.5 -82t102.5 -250v-728h-122v152h-6q-39 -69 -117.5 -119t-197.5 -50zM492 95
q122 0 205 74t83 188v135h-293q-118 0 -175 -51.5t-57 -138.5q0 -98 67.5 -152.5t169.5 -54.5zM465 1228l242 337h131l-272 -337h-101z" />
    <glyph glyph-name="acircumflex" unicode="&#xe2;" horiz-adv-x="1088" 
d="M464 -17q-152 0 -246 86.5t-94 229.5q0 137 93.5 218.5t267.5 81.5h295v123q0 114 -66.5 170t-184.5 56q-109 0 -166.5 -40.5t-73.5 -104.5h-123q11 120 107.5 188.5t261.5 68.5q167 0 269.5 -82t102.5 -250v-728h-122v152h-6q-39 -69 -117.5 -119t-197.5 -50zM492 95
q122 0 205 74t83 188v135h-293q-118 0 -175 -51.5t-57 -138.5q0 -98 67.5 -152.5t169.5 -54.5zM255 1223l246 367h86l244 -367h-113l-172 272h-4l-175 -272h-112z" />
    <glyph glyph-name="atilde" unicode="&#xe3;" horiz-adv-x="1088" 
d="M464 -17q-152 0 -246 86.5t-94 229.5q0 137 93.5 218.5t267.5 81.5h295v123q0 114 -66.5 170t-184.5 56q-109 0 -166.5 -40.5t-73.5 -104.5h-123q11 120 107.5 188.5t261.5 68.5q167 0 269.5 -82t102.5 -250v-728h-122v152h-6q-39 -69 -117.5 -119t-197.5 -50zM492 95
q122 0 205 74t83 188v135h-293q-118 0 -175 -51.5t-57 -138.5q0 -98 67.5 -152.5t169.5 -54.5zM668 1225q-39 0 -70.5 16.5t-51.5 39.5t-38.5 46.5t-40.5 40t-48 16.5q-42 0 -63 -38.5t-23 -101.5h-90q0 104 45.5 167t129.5 63q41 0 73.5 -16.5t53 -40t38.5 -46.5t39 -39.5
t45 -16.5q76 0 84 142h91q0 -96 -45 -164t-129 -68z" />
    <glyph glyph-name="adieresis" unicode="&#xe4;" horiz-adv-x="1088" 
d="M464 -17q-152 0 -246 86.5t-94 229.5q0 137 93.5 218.5t267.5 81.5h295v123q0 114 -66.5 170t-184.5 56q-109 0 -166.5 -40.5t-73.5 -104.5h-123q11 120 107.5 188.5t261.5 68.5q167 0 269.5 -82t102.5 -250v-728h-122v152h-6q-39 -69 -117.5 -119t-197.5 -50zM492 95
q122 0 205 74t83 188v135h-293q-118 0 -175 -51.5t-57 -138.5q0 -98 67.5 -152.5t169.5 -54.5zM707 1226q-36 0 -63 26t-27 62q0 38 26.5 64t63.5 26q40 0 67.5 -26t27.5 -64q0 -37 -27.5 -62.5t-67.5 -25.5zM378 1226q-38 0 -65 25.5t-27 62.5q0 38 27 64t65 26
q39 0 66 -26t27 -64q0 -37 -27.5 -62.5t-65.5 -25.5z" />
    <glyph glyph-name="aring" unicode="&#xe5;" horiz-adv-x="1088" 
d="M464 -17q-152 0 -246 86.5t-94 229.5q0 137 93.5 218.5t267.5 81.5h295v123q0 114 -66.5 170t-184.5 56q-109 0 -166.5 -40.5t-73.5 -104.5h-123q11 120 107.5 188.5t261.5 68.5q167 0 269.5 -82t102.5 -250v-728h-122v152h-6q-39 -69 -117.5 -119t-197.5 -50zM492 95
q122 0 205 74t83 188v135h-293q-118 0 -175 -51.5t-57 -138.5q0 -98 67.5 -152.5t169.5 -54.5zM544 1226q-75 0 -127.5 51.5t-52.5 126.5t52.5 126t127.5 51t127.5 -51t52.5 -126t-52.5 -126.5t-127.5 -51.5zM435 1403q0 -45 32 -77.5t77 -32.5t76.5 32.5t31.5 77.5
q0 46 -31 78t-77 32q-45 0 -77 -32t-32 -78z" />
    <glyph glyph-name="ae" unicode="&#xe6;" horiz-adv-x="1744" 
d="M1211 -17q-148 0 -246 64t-129 165h-10q-33 -96 -125.5 -162.5t-231.5 -66.5q-156 0 -251.5 85t-95.5 229q0 142 96 222t271 80h293v123q0 112 -69 168.5t-182 56.5q-110 0 -169.5 -40.5t-75.5 -103.5h-123q11 120 110.5 188.5t263.5 68.5q111 0 198.5 -43t124.5 -126h10
q44 82 132.5 125.5t196.5 43.5q185 0 297 -124.5t112 -341.5v-102h-699v-76q0 -145 81.5 -232.5t220.5 -87.5q107 0 173 46t81 108h133q-6 -43 -32 -87.5t-71 -86t-119.5 -67.5t-164.5 -26zM1199 949q-128 0 -209 -90t-81 -238v-29h573v20q0 158 -75.5 247.5t-207.5 89.5z
M494 93q121 0 204.5 74.5t83.5 187.5v137h-291q-119 0 -180.5 -52t-61.5 -139q0 -98 70.5 -153t174.5 -55z" />
    <glyph glyph-name="ccedilla" unicode="&#xe7;" horiz-adv-x="1070" 
d="M563 -478q-78 -3 -141 16v85q47 -14 119 -14q54 0 93 22t39 68q0 49 -40 65.5t-112 16.5h-51v64l55 139q-181 11 -285 130t-104 321v178q0 207 114.5 327t306.5 120q92 0 167 -27.5t121.5 -72.5t72.5 -99t29 -110h-125q-6 34 -22.5 66t-46 63t-80 50t-115.5 19
q-140 0 -218.5 -92t-78.5 -253v-168q0 -158 80 -246.5t220 -88.5q123 0 186 49.5t80 127.5h125q-3 -50 -24 -97t-59.5 -88.5t-103 -70.5t-145.5 -37l-48 -125q95 0 153.5 -39t58.5 -118q0 -87 -63.5 -132.5t-157.5 -48.5z" />
    <glyph glyph-name="egrave" unicode="&#xe8;" horiz-adv-x="1103" 
d="M630 1228h-100l-272 337h131zM566 -17q-202 0 -315.5 123t-113.5 337v151q0 216 115 341t302 125q186 0 301.5 -125t115.5 -341v-102h-708v-56q0 -155 80 -248t223 -93q107 0 175.5 47t81.5 108h133q-6 -43 -32.5 -87.5t-72 -86t-120.5 -67.5t-165 -26zM263 592h581v15
q0 157 -79 249t-211 92t-211.5 -92t-79.5 -249v-15z" />
    <glyph glyph-name="eacute" unicode="&#xe9;" horiz-adv-x="1103" 
d="M473 1228l242 337h131l-272 -337h-101zM566 -17q-202 0 -315.5 123t-113.5 337v151q0 216 115 341t302 125q186 0 301.5 -125t115.5 -341v-102h-708v-56q0 -155 80 -248t223 -93q107 0 175.5 47t81.5 108h133q-6 -43 -32.5 -87.5t-72 -86t-120.5 -67.5t-165 -26zM263 592
h581v15q0 157 -79 249t-211 92t-211.5 -92t-79.5 -249v-15z" />
    <glyph glyph-name="ecircumflex" unicode="&#xea;" horiz-adv-x="1103" 
d="M263 1223l246 367h86l244 -367h-113l-172 272h-4l-175 -272h-112zM566 -17q-202 0 -315.5 123t-113.5 337v151q0 216 115 341t302 125q186 0 301.5 -125t115.5 -341v-102h-708v-56q0 -155 80 -248t223 -93q107 0 175.5 47t81.5 108h133q-6 -43 -32.5 -87.5t-72 -86
t-120.5 -67.5t-165 -26zM263 592h581v15q0 157 -79 249t-211 92t-211.5 -92t-79.5 -249v-15z" />
    <glyph glyph-name="edieresis" unicode="&#xeb;" horiz-adv-x="1103" 
d="M566 -17q-202 0 -315.5 123t-113.5 337v151q0 216 115 341t302 125q186 0 301.5 -125t115.5 -341v-102h-708v-56q0 -155 80 -248t223 -93q107 0 175.5 47t81.5 108h133q-6 -43 -32.5 -87.5t-72 -86t-120.5 -67.5t-165 -26zM263 592h581v15q0 157 -79 249t-211 92
t-211.5 -92t-79.5 -249v-15zM714 1226q-36 0 -63 26t-27 62q0 38 26.5 64t63.5 26q40 0 67.5 -26t27.5 -64q0 -37 -27.5 -62.5t-67.5 -25.5zM385 1226q-38 0 -65 25.5t-27 62.5q0 38 27 64t65 26q39 0 66 -26t27 -64q0 -37 -27.5 -62.5t-65.5 -25.5z" />
    <glyph glyph-name="igrave" unicode="&#xec;" horiz-adv-x="547" 
d="M352 1228h-100l-272 337h131zM211 0v1043h125v-1043h-125z" />
    <glyph glyph-name="iacute" unicode="&#xed;" horiz-adv-x="547" 
d="M195 1228l242 337h131l-272 -337h-101zM211 0v1043h125v-1043h-125z" />
    <glyph glyph-name="icircumflex" unicode="&#xee;" horiz-adv-x="547" 
d="M-15 1223l246 367h86l244 -367h-113l-172 272h-4l-175 -272h-112zM211 0v1043h125v-1043h-125z" />
    <glyph glyph-name="idieresis" unicode="&#xef;" horiz-adv-x="547" 
d="M211 0v1043h125v-1043h-125zM437 1226q-36 0 -63 26t-27 62q0 38 26.5 64t63.5 26q40 0 67.5 -26t27.5 -64q0 -37 -27.5 -62.5t-67.5 -25.5zM108 1226q-38 0 -65 25.5t-27 62.5q0 38 27 64t65 26q39 0 66 -26t27 -64q0 -37 -27.5 -62.5t-65.5 -25.5z" />
    <glyph glyph-name="eth" unicode="&#xf0;" horiz-adv-x="1144" 
d="M573 -17q-205 0 -321 127t-116 343v84q0 214 116 340.5t308 126.5q104 0 180.5 -42t121.5 -115h7q-2 5 -7.5 28t-8.5 33q-46 193 -147 318l-261 -92l-32 79l235 81q-99 113 -246 218h172q109 -77 191 -177l267 94l27 -75l-240 -87q189 -278 189 -664v-149
q0 -216 -114.5 -343.5t-320.5 -127.5zM572 893q-145 0 -227.5 -94t-82.5 -270v-68q0 -175 82.5 -270t227.5 -95q144 0 227 96t83 272v89q0 157 -83.5 248.5t-226.5 91.5z" />
    <glyph glyph-name="ntilde" unicode="&#xf1;" horiz-adv-x="1181" 
d="M715 1225q-39 0 -70.5 16.5t-51.5 39.5t-38.5 46.5t-40.5 40t-48 16.5q-42 0 -63 -38.5t-23 -101.5h-90q0 104 45.5 167t129.5 63q41 0 73.5 -16.5t53 -40t38.5 -46.5t39 -39.5t45 -16.5q76 0 84 142h91q0 -96 -45 -164t-129 -68zM186 0v1043h126v-197h6q12 39 33.5 72.5
t58.5 67.5t97.5 54t137.5 20q163 0 260 -91t97 -262v-707h-126v670q0 130 -67 204t-190 74q-148 0 -227.5 -100t-79.5 -250v-598h-126z" />
    <glyph glyph-name="ograve" unicode="&#xf2;" horiz-adv-x="1144" 
d="M650 1228h-100l-272 337h131zM572 1060q190 0 313 -121.5t123 -334.5v-165q0 -214 -122.5 -335t-313.5 -121q-193 0 -314.5 120t-121.5 336v165q0 210 123 333t313 123zM573 948q-139 0 -225 -97t-86 -263v-136q0 -167 84 -262t227 -95q142 0 225.5 94.5t83.5 262.5v136
q0 166 -85 263t-224 97z" />
    <glyph glyph-name="oacute" unicode="&#xf3;" horiz-adv-x="1144" 
d="M493 1228l242 337h131l-272 -337h-101zM572 1060q190 0 313 -121.5t123 -334.5v-165q0 -214 -122.5 -335t-313.5 -121q-193 0 -314.5 120t-121.5 336v165q0 210 123 333t313 123zM573 948q-139 0 -225 -97t-86 -263v-136q0 -167 84 -262t227 -95q142 0 225.5 94.5
t83.5 262.5v136q0 166 -85 263t-224 97z" />
    <glyph glyph-name="ocircumflex" unicode="&#xf4;" horiz-adv-x="1144" 
d="M283 1223l246 367h86l244 -367h-113l-172 272h-4l-175 -272h-112zM572 1060q190 0 313 -121.5t123 -334.5v-165q0 -214 -122.5 -335t-313.5 -121q-193 0 -314.5 120t-121.5 336v165q0 210 123 333t313 123zM573 948q-139 0 -225 -97t-86 -263v-136q0 -167 84 -262
t227 -95q142 0 225.5 94.5t83.5 262.5v136q0 166 -85 263t-224 97z" />
    <glyph glyph-name="otilde" unicode="&#xf5;" horiz-adv-x="1144" 
d="M696 1225q-39 0 -70.5 16.5t-51.5 39.5t-38.5 46.5t-40.5 40t-48 16.5q-42 0 -63 -38.5t-23 -101.5h-90q0 104 45.5 167t129.5 63q41 0 73.5 -16.5t53 -40t38.5 -46.5t39 -39.5t45 -16.5q76 0 84 142h91q0 -96 -45 -164t-129 -68zM572 1060q190 0 313 -121.5t123 -334.5
v-165q0 -214 -122.5 -335t-313.5 -121q-193 0 -314.5 120t-121.5 336v165q0 210 123 333t313 123zM573 948q-139 0 -225 -97t-86 -263v-136q0 -167 84 -262t227 -95q142 0 225.5 94.5t83.5 262.5v136q0 166 -85 263t-224 97z" />
    <glyph glyph-name="odieresis" unicode="&#xf6;" horiz-adv-x="1144" 
d="M735 1226q-36 0 -63 26t-27 62q0 38 26.5 64t63.5 26q40 0 67.5 -26t27.5 -64q0 -37 -27.5 -62.5t-67.5 -25.5zM406 1226q-38 0 -65 25.5t-27 62.5q0 38 27 64t65 26q39 0 66 -26t27 -64q0 -37 -27.5 -62.5t-65.5 -25.5zM572 1060q190 0 313 -121.5t123 -334.5v-165
q0 -214 -122.5 -335t-313.5 -121q-193 0 -314.5 120t-121.5 336v165q0 210 123 333t313 123zM573 948q-139 0 -225 -97t-86 -263v-136q0 -167 84 -262t227 -95q142 0 225.5 94.5t83.5 262.5v136q0 166 -85 263t-224 97z" />
    <glyph glyph-name="divide" unicode="&#xf7;" horiz-adv-x="1128" 
d="M1028 490h-927v107h927v-107zM456 921q0 46 31.5 78t75.5 32q47 0 78.5 -31.5t31.5 -78.5q0 -46 -31.5 -76.5t-78.5 -30.5q-45 0 -76 31t-31 76zM456 172q0 46 31.5 78t75.5 32q47 0 78.5 -32t31.5 -78q0 -45 -32 -76t-78 -31q-44 0 -75.5 31t-31.5 76z" />
    <glyph glyph-name="oslash" unicode="&#xf8;" horiz-adv-x="1144" 
d="M362 168q80 -75 210 -75q142 0 227 96t85 264v157q0 107 -40 184zM258 432q0 -110 42 -189l483 628q-79 81 -211 81q-139 0 -226.5 -99t-87.5 -264v-157zM572 -17q-163 0 -276 96l-102 -135l-76 56l110 145q-92 119 -92 294v165q0 210 123 333t313 123q164 0 277 -101
l111 143l74 -57l-117 -151q91 -121 91 -290v-165q0 -214 -122.5 -335t-313.5 -121z" />
    <glyph glyph-name="ugrave" unicode="&#xf9;" horiz-adv-x="1177" 
d="M667 1228h-100l-272 337h131zM991 1043v-1043h-126v185h-7q-12 -36 -37.5 -70t-64 -64.5t-96.5 -49t-126 -18.5q-163 0 -260 82.5t-97 255.5v722h126v-691q0 -128 70 -192.5t187 -64.5q134 0 219.5 88.5t85.5 208.5v651h126z" />
    <glyph glyph-name="uacute" unicode="&#xfa;" horiz-adv-x="1177" 
d="M510 1228l242 337h131l-272 -337h-101zM991 1043v-1043h-126v185h-7q-12 -36 -37.5 -70t-64 -64.5t-96.5 -49t-126 -18.5q-163 0 -260 82.5t-97 255.5v722h126v-691q0 -128 70 -192.5t187 -64.5q134 0 219.5 88.5t85.5 208.5v651h126z" />
    <glyph glyph-name="ucircumflex" unicode="&#xfb;" horiz-adv-x="1177" 
d="M300 1223l246 367h86l244 -367h-113l-172 272h-4l-175 -272h-112zM991 1043v-1043h-126v185h-7q-12 -36 -37.5 -70t-64 -64.5t-96.5 -49t-126 -18.5q-163 0 -260 82.5t-97 255.5v722h126v-691q0 -128 70 -192.5t187 -64.5q134 0 219.5 88.5t85.5 208.5v651h126z" />
    <glyph glyph-name="udieresis" unicode="&#xfc;" horiz-adv-x="1177" 
d="M991 1043v-1043h-126v185h-7q-12 -36 -37.5 -70t-64 -64.5t-96.5 -49t-126 -18.5q-163 0 -260 82.5t-97 255.5v722h126v-691q0 -128 70 -192.5t187 -64.5q134 0 219.5 88.5t85.5 208.5v651h126zM751 1226q-36 0 -63 26t-27 62q0 38 26.5 64t63.5 26q40 0 67.5 -26
t27.5 -64q0 -37 -27.5 -62.5t-67.5 -25.5zM422 1226q-38 0 -65 25.5t-27 62.5q0 38 27 64t65 26q39 0 66 -26t27 -64q0 -37 -27.5 -62.5t-65.5 -25.5z" />
    <glyph glyph-name="yacute" unicode="&#xfd;" horiz-adv-x="1033" 
d="M962 1043l-377 -1050l-33 -90q-24 -64 -46.5 -106.5t-58.5 -83t-87 -60.5t-119 -20q-52 0 -99 9v108q31 -7 81 -7q85 0 131.5 42t72.5 125l24 75l-389 1058h140l311 -913h6l309 913h134zM437 1228l242 337h131l-272 -337h-101z" />
    <glyph glyph-name="thorn" unicode="&#xfe;" horiz-adv-x="1176" 
d="M632 -17q-120 0 -200.5 55.5t-112.5 133.5h-7v-526h-125v1818h125v-602h7q30 85 114 141.5t204 56.5q179 0 290.5 -118.5t111.5 -323.5v-192q0 -204 -111 -323.5t-296 -119.5zM617 95q136 0 216 94t80 264v134q0 174 -81.5 267.5t-217.5 93.5q-138 0 -220 -93.5
t-82 -246.5v-190q0 -138 84 -230.5t221 -92.5z" />
    <glyph glyph-name="ydieresis" unicode="&#xff;" horiz-adv-x="1033" 
d="M962 1043l-377 -1050l-33 -90q-24 -64 -46.5 -106.5t-58.5 -83t-87 -60.5t-119 -20q-52 0 -99 9v108q31 -7 81 -7q85 0 131.5 42t72.5 125l24 75l-389 1058h140l311 -913h6l309 913h134zM679 1226q-36 0 -63 26t-27 62q0 38 26.5 64t63.5 26q40 0 67.5 -26t27.5 -64
q0 -37 -27.5 -62.5t-67.5 -25.5zM350 1226q-38 0 -65 25.5t-27 62.5q0 38 27 64t65 26q39 0 66 -26t27 -64q0 -37 -27.5 -62.5t-65.5 -25.5z" />
    <glyph glyph-name="Amacron" unicode="&#x100;" horiz-adv-x="1223" 
d="M193 0h-134l489 1363h127l489 -1363h-135l-149 436h-538zM614 1206h-6l-229 -665h464zM895 1518h-566v86h566v-86z" />
    <glyph glyph-name="amacron" unicode="&#x101;" horiz-adv-x="1088" 
d="M464 -17q-152 0 -246 86.5t-94 229.5q0 137 93.5 218.5t267.5 81.5h295v123q0 114 -66.5 170t-184.5 56q-109 0 -166.5 -40.5t-73.5 -104.5h-123q11 120 107.5 188.5t261.5 68.5q167 0 269.5 -82t102.5 -250v-728h-122v152h-6q-39 -69 -117.5 -119t-197.5 -50zM492 95
q122 0 205 74t83 188v135h-293q-118 0 -175 -51.5t-57 -138.5q0 -98 67.5 -152.5t169.5 -54.5zM834 1270h-579v90h579v-90z" />
    <glyph glyph-name="Abreve" unicode="&#x102;" horiz-adv-x="1223" 
d="M193 0h-134l489 1363h127l489 -1363h-135l-149 436h-538zM614 1206h-6l-229 -665h464zM310 1733h97q0 -77 53 -122t152 -45t151 45t52 122h97q0 -105 -77.5 -176t-222.5 -71q-146 0 -224 70.5t-78 176.5z" />
    <glyph glyph-name="abreve" unicode="&#x103;" horiz-adv-x="1088" 
d="M464 -17q-152 0 -246 86.5t-94 229.5q0 137 93.5 218.5t267.5 81.5h295v123q0 114 -66.5 170t-184.5 56q-109 0 -166.5 -40.5t-73.5 -104.5h-123q11 120 107.5 188.5t261.5 68.5q167 0 269.5 -82t102.5 -250v-728h-122v152h-6q-39 -69 -117.5 -119t-197.5 -50zM492 95
q122 0 205 74t83 188v135h-293q-118 0 -175 -51.5t-57 -138.5q0 -98 67.5 -152.5t169.5 -54.5zM267 1470h95q0 -74 47.5 -122.5t135.5 -48.5q87 0 133.5 48.5t46.5 122.5h94q0 -46 -16 -90t-47.5 -82t-86 -61.5t-124.5 -23.5t-125 23.5t-87.5 61.5t-49 82t-16.5 90z" />
    <glyph glyph-name="Aogonek" unicode="&#x104;" horiz-adv-x="1223" 
d="M1063 -380q-96 0 -152 49t-56 130q0 142 162 237l-137 400h-538l-149 -436h-134l489 1363h127l486 -1355q-85 -31 -135 -80.5t-50 -108.5q0 -47 30 -74.5t85 -27.5q41 0 80 11v-89q-38 -19 -108 -19zM614 1206h-6l-229 -665h464z" />
    <glyph glyph-name="aogonek" unicode="&#x105;" horiz-adv-x="1088" 
d="M931 -355q-47 -19 -110 -19q-83 0 -140 45t-57 132q0 78 42.5 130.5t118.5 105.5v113h-6q-38 -70 -117 -119.5t-198 -49.5q-152 0 -246 86.5t-94 229.5q0 137 93.5 218.5t266.5 81.5h296v124q0 113 -66.5 168.5t-185.5 55.5q-108 0 -165.5 -40.5t-73.5 -103.5h-123
q11 120 108.5 188.5t260.5 68.5q81 0 147 -19t117 -58t79.5 -104t28.5 -151v-725q-169 -77 -169 -178q0 -47 30.5 -72.5t80.5 -25.5q44 0 82 11v-93zM492 93q121 0 204.5 75.5t83.5 188.5v135h-292q-118 0 -175.5 -51.5t-57.5 -138.5q0 -98 67.5 -153.5t169.5 -55.5z" />
    <glyph glyph-name="Cacute" unicode="&#x106;" horiz-adv-x="1293" 
d="M578 1514l263 322h136l-293 -322h-106zM274 789v-222q0 -221 102.5 -351t296.5 -130q160 0 260 87t100 221h126v-1q0 -179 -137.5 -301t-348.5 -122q-256 0 -391 160t-135 439v219q0 277 136.5 441t387.5 164q212 0 348 -129t136 -311v-1h-126q0 133 -100 229t-258 96
q-190 0 -293.5 -133.5t-103.5 -354.5z" />
    <glyph glyph-name="cacute" unicode="&#x107;" horiz-adv-x="1070" 
d="M136 435v178q0 207 114.5 327t306.5 120q92 0 167 -27.5t121.5 -72.5t72.5 -99t29 -110h-125q-6 33 -22.5 65t-46 62t-80 48.5t-115.5 18.5q-140 0 -218 -90.5t-78 -250.5v-168q0 -158 80 -248t219 -90q123 0 186 51t80 129h125q-4 -55 -28.5 -105.5t-70 -94t-122 -69.5
t-173.5 -26q-195 0 -308.5 120t-113.5 332zM461 1228l242 337h131l-272 -337h-101z" />
    <glyph glyph-name="Ccircumflex" unicode="&#x108;" horiz-adv-x="1293" 
d="M274 789v-222q0 -221 102.5 -351t296.5 -130q160 0 260 87t100 221h126v-1q0 -179 -137.5 -301t-348.5 -122q-256 0 -391 160t-135 439v219q0 277 136.5 441t387.5 164q212 0 348 -129t136 -311v-1h-126q0 133 -100 229t-258 96q-190 0 -293.5 -133.5t-103.5 -354.5z
M708 1733l272 -232h-136l-174 148h-5l-180 -148h-133l279 232h77z" />
    <glyph glyph-name="ccircumflex" unicode="&#x109;" horiz-adv-x="1070" 
d="M251 1223l246 367h86l244 -367h-113l-172 272h-4l-175 -272h-112zM136 435v178q0 207 114.5 327t306.5 120q92 0 167 -27.5t121.5 -72.5t72.5 -99t29 -110h-125q-6 33 -22.5 65t-46 62t-80 48.5t-115.5 18.5q-140 0 -218 -90.5t-78 -250.5v-168q0 -158 80 -248t219 -90
q123 0 186 51t80 129h125q-4 -55 -28.5 -105.5t-70 -94t-122 -69.5t-173.5 -26q-195 0 -308.5 120t-113.5 332z" />
    <glyph glyph-name="Cdotaccent" unicode="&#x10a;" horiz-adv-x="1293" 
d="M577 1587q0 39 26 65.5t64 26.5q39 0 65.5 -26.5t26.5 -65.5q0 -38 -26.5 -64t-65.5 -26q-38 0 -64 26t-26 64zM274 789v-222q0 -221 102.5 -351t296.5 -130q160 0 260 87t100 221h126v-1q0 -179 -137.5 -301t-348.5 -122q-256 0 -391 160t-135 439v219q0 277 136.5 441
t387.5 164q212 0 348 -129t136 -311v-1h-126q0 133 -100 229t-258 96q-190 0 -293.5 -133.5t-103.5 -354.5z" />
    <glyph glyph-name="cdotaccent" unicode="&#x10b;" horiz-adv-x="1070" 
d="M136 435v178q0 207 114.5 327t306.5 120q92 0 167 -27.5t121.5 -72.5t72.5 -99t29 -110h-125q-6 33 -22.5 65t-46 62t-80 48.5t-115.5 18.5q-140 0 -218 -90.5t-78 -250.5v-168q0 -158 80 -248t219 -90q123 0 186 51t80 129h125q-4 -55 -28.5 -105.5t-70 -94t-122 -69.5
t-173.5 -26q-195 0 -308.5 120t-113.5 332zM449 1326q0 39 26 65.5t63 26.5q40 0 66.5 -26.5t26.5 -65.5q0 -38 -26.5 -64t-66.5 -26q-37 0 -63 26t-26 64z" />
    <glyph glyph-name="Ccaron" unicode="&#x10c;" horiz-adv-x="1293" 
d="M274 789v-222q0 -221 102.5 -351t296.5 -130q160 0 260 87t100 221h126v-1q0 -179 -137.5 -301t-348.5 -122q-256 0 -391 160t-135 439v219q0 277 136.5 441t387.5 164q212 0 348 -129t136 -311v-1h-126q0 133 -100 229t-258 96q-190 0 -293.5 -133.5t-103.5 -354.5z
M349 1713h137l180 -139h5l171 139h139l-241 -202h-138z" />
    <glyph glyph-name="ccaron" unicode="&#x10d;" horiz-adv-x="1070" 
d="M252 1584h112l175 -280h3l168 280h112l-237 -367h-87zM136 435v178q0 207 114.5 327t306.5 120q92 0 167 -27.5t121.5 -72.5t72.5 -99t29 -110h-125q-6 33 -22.5 65t-46 62t-80 48.5t-115.5 18.5q-140 0 -218 -90.5t-78 -250.5v-168q0 -158 80 -248t219 -90q123 0 186 51
t80 129h125q-4 -55 -28.5 -105.5t-70 -94t-122 -69.5t-173.5 -26q-195 0 -308.5 120t-113.5 332z" />
    <glyph glyph-name="Dcaron" unicode="&#x10e;" horiz-adv-x="1338" 
d="M316 1713h137l180 -139h5l171 139h139l-241 -202h-138zM201 1363h403q300 0 451 -175t151 -507t-150 -506.5t-452 -174.5h-403v1363zM329 1247v-1131h271q475 0 475 565q0 277 -118 421.5t-357 144.5h-271z" />
    <glyph glyph-name="dcaron" unicode="&#x10f;" horiz-adv-x="1321" 
d="M1194 1436h120l-37 -488h-83v488zM540 1060q121 0 204.5 -54.5t113.5 -134.5h6v593h126v-1464h-120v182h-7q-21 -76 -110 -137.5t-217 -61.5q-180 0 -290.5 118t-110.5 314v213q0 199 113 315.5t292 116.5zM554 948q-131 0 -212 -92.5t-81 -259.5v-149q0 -165 81 -258
t217 -93q140 0 222.5 94.5t82.5 243.5v190q0 140 -87 232t-223 92z" />
    <glyph glyph-name="Dcroat" unicode="&#x110;" horiz-adv-x="1407" 
d="M673 0h-403v640h-159v116h159v607h403q300 0 451 -175t151 -507t-150 -506.5t-452 -174.5zM398 116h271q474 0 474 565q0 277 -117.5 421t-356.5 144h-271v-490h334v-116h-334v-524z" />
    <glyph glyph-name="dcroat" unicode="&#x111;" horiz-adv-x="1180" 
d="M555 947q-131 0 -212 -92t-81 -260v-148q0 -166 81 -259t216 -93q141 0 223.5 94.5t82.5 243.5v191q0 139 -86.5 231t-223.5 92zM864 182q-9 -31 -32.5 -64t-62.5 -64t-99.5 -51t-132.5 -20q-179 0 -290 117.5t-111 314.5v213q0 198 112.5 315t292.5 117q130 0 209.5 -57
t107.5 -132h7v336h-260v104h260v153h126v-153h131v-104h-131v-1207h-120v182h-7z" />
    <glyph glyph-name="Emacron" unicode="&#x112;" horiz-adv-x="1135" 
d="M997 116v-116h-796v1363h796v-117h-668v-491h632v-115h-632v-524h668zM880 1518h-566v86h566v-86z" />
    <glyph glyph-name="emacron" unicode="&#x113;" horiz-adv-x="1103" 
d="M566 -17q-202 0 -315.5 123t-113.5 337v151q0 216 115 341t302 125q186 0 301.5 -125t115.5 -341v-102h-708v-56q0 -155 80 -248t223 -93q107 0 175.5 47t81.5 108h133q-6 -43 -32.5 -87.5t-72 -86t-120.5 -67.5t-165 -26zM263 592h581v15q0 157 -79 249t-211 92
t-211.5 -92t-79.5 -249v-15zM842 1270h-579v90h579v-90z" />
    <glyph glyph-name="Ebreve" unicode="&#x114;" horiz-adv-x="1135" 
d="M997 116v-116h-796v1363h796v-117h-668v-491h632v-115h-632v-524h668zM295 1733h97q0 -77 53 -122t152 -45t151 45t52 122h97q0 -105 -77.5 -176t-222.5 -71q-146 0 -224 70.5t-78 176.5z" />
    <glyph glyph-name="ebreve" unicode="&#x115;" horiz-adv-x="1103" 
d="M566 -17q-202 0 -315.5 123t-113.5 337v151q0 216 115 341t302 125q186 0 301.5 -125t115.5 -341v-102h-708v-56q0 -155 80 -248t223 -93q107 0 175.5 47t81.5 108h133q-6 -43 -32.5 -87.5t-72 -86t-120.5 -67.5t-165 -26zM263 592h581v15q0 157 -79 249t-211 92
t-211.5 -92t-79.5 -249v-15zM275 1470h95q0 -74 47.5 -122.5t135.5 -48.5q87 0 133.5 48.5t46.5 122.5h94q0 -46 -16 -90t-47.5 -82t-86 -61.5t-124.5 -23.5t-125 23.5t-87.5 61.5t-49 82t-16.5 90z" />
    <glyph glyph-name="Edotaccent" unicode="&#x116;" horiz-adv-x="1135" 
d="M506 1587q0 39 26 65.5t64 26.5q39 0 65.5 -26.5t26.5 -65.5q0 -38 -26.5 -64t-65.5 -26q-38 0 -64 26t-26 64zM997 116v-116h-796v1363h796v-117h-668v-491h632v-115h-632v-524h668z" />
    <glyph glyph-name="edotaccent" unicode="&#x117;" horiz-adv-x="1103" 
d="M460 1326q0 39 26 65.5t63 26.5q40 0 66.5 -26.5t26.5 -65.5q0 -38 -26.5 -64t-66.5 -26q-37 0 -63 26t-26 64zM566 -17q-202 0 -315.5 123t-113.5 337v151q0 216 115 341t302 125q186 0 301.5 -125t115.5 -341v-102h-708v-56q0 -155 80 -248t223 -93q107 0 175.5 47
t81.5 108h133q-6 -43 -32.5 -87.5t-72 -86t-120.5 -67.5t-165 -26zM263 592h581v15q0 157 -79 249t-211 92t-211.5 -92t-79.5 -249v-15z" />
    <glyph glyph-name="Eogonek" unicode="&#x118;" horiz-adv-x="1135" 
d="M997 -362q-38 -18 -105 -18q-87 0 -144 46t-57 135q0 65 34.5 117t87.5 82h-612v1363h796v-117h-669v-491h633v-115h-632v-524h668v-106q-81 -21 -137 -69.5t-57 -118.5q0 -51 31 -78t86 -27q42 0 77 11v-90z" />
    <glyph glyph-name="eogonek" unicode="&#x119;" horiz-adv-x="1103" 
d="M906 -261v-95q-39 -18 -111 -18q-84 0 -143.5 48t-59.5 136q0 66 29 114t78 92l-4 7q-54 -40 -146 -40q-185 0 -298.5 124.5t-113.5 335.5v150q0 217 115 342.5t302 125.5t302 -125.5t115 -342.5v-101h-708v-55q0 -155 80 -248t224 -93q106 0 174 46t82 108h133
q-23 -85 -127 -197q-43 -45 -63.5 -69t-41 -65t-20.5 -81q0 -51 35.5 -81t87.5 -30q40 0 79 12zM263 592h581v16q0 156 -79 248.5t-211 92.5t-211.5 -92t-79.5 -249v-16z" />
    <glyph glyph-name="Ecaron" unicode="&#x11a;" horiz-adv-x="1135" 
d="M278 1713h137l180 -139h5l171 139h139l-241 -202h-138zM997 116v-116h-796v1363h796v-117h-668v-491h632v-115h-632v-524h668z" />
    <glyph glyph-name="ecaron" unicode="&#x11b;" horiz-adv-x="1103" 
d="M264 1584h112l175 -280h3l168 280h112l-237 -367h-87zM566 -17q-202 0 -315.5 123t-113.5 337v151q0 216 115 341t302 125q186 0 301.5 -125t115.5 -341v-102h-708v-56q0 -155 80 -248t223 -93q107 0 175.5 47t81.5 108h133q-6 -43 -32.5 -87.5t-72 -86t-120.5 -67.5
t-165 -26zM263 592h581v15q0 157 -79 249t-211 92t-211.5 -92t-79.5 -249v-15z" />
    <glyph glyph-name="Gcircumflex" unicode="&#x11c;" horiz-adv-x="1315" 
d="M712 1733l272 -232h-136l-174 148h-5l-180 -148h-133l279 232h77zM1161 972h-125q-16 132 -111 218.5t-252 86.5q-189 0 -294 -130.5t-105 -357.5v-205q0 -233 105 -365.5t301 -132.5q171 0 268 88.5t97 238.5v159h-382v116h506v-275q0 -201 -132.5 -322t-355.5 -121
q-258 0 -396 163t-138 451v205q0 279 140.5 441.5t387.5 162.5q210 0 342 -119.5t144 -301.5z" />
    <glyph glyph-name="gcircumflex" unicode="&#x11d;" horiz-adv-x="1151" 
d="M287 1223l246 367h86l244 -367h-113l-172 272h-4l-175 -272h-112zM549 -268q147 0 226 74.5t79 204.5v200h-8q-30 -72 -110.5 -129t-200.5 -57q-177 0 -293.5 118t-116.5 315v168q0 201 118 317.5t292 116.5q122 0 205.5 -59t112.5 -132h6v174h120v-1030
q0 -191 -115.5 -292.5t-319.5 -101.5q-94 0 -169 23t-121.5 63t-72 88.5t-30.5 103.5h131q10 -68 80.5 -116.5t186.5 -48.5zM557 948q-136 0 -221 -94.5t-85 -258.5v-108q0 -158 86.5 -254t220.5 -96q137 0 216.5 96.5t79.5 228.5v156q0 137 -82 233.5t-215 96.5z" />
    <glyph glyph-name="Gbreve" unicode="&#x11e;" horiz-adv-x="1315" 
d="M1161 972h-125q-16 132 -111 218.5t-252 86.5q-189 0 -294 -130.5t-105 -357.5v-205q0 -233 105 -365.5t301 -132.5q171 0 268 88.5t97 238.5v159h-382v116h506v-275q0 -201 -132.5 -322t-355.5 -121q-258 0 -396 163t-138 451v205q0 279 140.5 441.5t387.5 162.5
q210 0 342 -119.5t144 -301.5zM370 1733h97q0 -77 53 -122t152 -45t151 45t52 122h97q0 -105 -77.5 -176t-222.5 -71q-146 0 -224 70.5t-78 176.5z" />
    <glyph glyph-name="gbreve" unicode="&#x11f;" horiz-adv-x="1151" 
d="M299 1470h95q0 -74 47.5 -122.5t135.5 -48.5q87 0 133.5 48.5t46.5 122.5h94q0 -46 -16 -90t-47.5 -82t-86 -61.5t-124.5 -23.5t-125 23.5t-87.5 61.5t-49 82t-16.5 90zM549 -268q147 0 226 74.5t79 204.5v200h-8q-30 -72 -110.5 -129t-200.5 -57q-177 0 -293.5 118
t-116.5 315v168q0 201 118 317.5t292 116.5q122 0 205.5 -59t112.5 -132h6v174h120v-1030q0 -191 -115.5 -292.5t-319.5 -101.5q-94 0 -169 23t-121.5 63t-72 88.5t-30.5 103.5h131q10 -68 80.5 -116.5t186.5 -48.5zM557 948q-136 0 -221 -94.5t-85 -258.5v-108
q0 -158 86.5 -254t220.5 -96q137 0 216.5 96.5t79.5 228.5v156q0 137 -82 233.5t-215 96.5z" />
    <glyph glyph-name="Gdotaccent" unicode="&#x120;" horiz-adv-x="1315" 
d="M581 1587q0 39 26 65.5t64 26.5q39 0 65.5 -26.5t26.5 -65.5q0 -38 -26.5 -64t-65.5 -26q-38 0 -64 26t-26 64zM1161 972h-125q-16 132 -111 218.5t-252 86.5q-189 0 -294 -130.5t-105 -357.5v-205q0 -233 105 -365.5t301 -132.5q171 0 268 88.5t97 238.5v159h-382v116
h506v-275q0 -201 -132.5 -322t-355.5 -121q-258 0 -396 163t-138 451v205q0 279 140.5 441.5t387.5 162.5q210 0 342 -119.5t144 -301.5z" />
    <glyph glyph-name="gdotaccent" unicode="&#x121;" horiz-adv-x="1151" 
d="M485 1326q0 39 26 65.5t63 26.5q40 0 66.5 -26.5t26.5 -65.5q0 -38 -26.5 -64t-66.5 -26q-37 0 -63 26t-26 64zM549 -268q147 0 226 74.5t79 204.5v200h-8q-30 -72 -110.5 -129t-200.5 -57q-177 0 -293.5 118t-116.5 315v168q0 201 118 317.5t292 116.5q122 0 205.5 -59
t112.5 -132h6v174h120v-1030q0 -191 -115.5 -292.5t-319.5 -101.5q-94 0 -169 23t-121.5 63t-72 88.5t-30.5 103.5h131q10 -68 80.5 -116.5t186.5 -48.5zM557 948q-136 0 -221 -94.5t-85 -258.5v-108q0 -158 86.5 -254t220.5 -96q137 0 216.5 96.5t79.5 228.5v156
q0 137 -82 233.5t-215 96.5z" />
    <glyph glyph-name="Gcommaaccent" unicode="&#x122;" horiz-adv-x="1315" 
d="M636 -471h-95l82 319h121zM1161 972h-125q-16 132 -111 218.5t-252 86.5q-189 0 -294 -130.5t-105 -357.5v-205q0 -233 105 -365.5t301 -132.5q171 0 268 88.5t97 238.5v159h-382v116h506v-275q0 -201 -132.5 -322t-355.5 -121q-258 0 -396 163t-138 451v205
q0 279 140.5 441.5t387.5 162.5q210 0 342 -119.5t144 -301.5z" />
    <glyph glyph-name="gcommaaccent" unicode="&#x123;" horiz-adv-x="1151" 
d="M592 1579h101l-85 -335h-130zM549 -268q147 0 226 74.5t79 204.5v200h-8q-30 -72 -110.5 -129t-200.5 -57q-177 0 -293.5 118t-116.5 315v168q0 201 118 317.5t292 116.5q122 0 205.5 -59t112.5 -132h6v174h120v-1030q0 -191 -115.5 -292.5t-319.5 -101.5q-94 0 -169 23
t-121.5 63t-72 88.5t-30.5 103.5h131q10 -68 80.5 -116.5t186.5 -48.5zM557 948q-136 0 -221 -94.5t-85 -258.5v-108q0 -158 86.5 -254t220.5 -96q137 0 216.5 96.5t79.5 228.5v156q0 137 -82 233.5t-215 96.5z" />
    <glyph glyph-name="Hcircumflex" unicode="&#x124;" horiz-adv-x="1398" 
d="M1196 0h-127v652h-740v-652h-128v1363h128v-595h740v595h127v-1363zM739 1733l272 -232h-136l-174 148h-5l-180 -148h-133l279 232h77z" />
    <glyph glyph-name="hcircumflex" unicode="&#x125;" horiz-adv-x="1190" 
d="M189 0v1464h126v-618h7q10 35 32.5 69t61 68.5t100.5 55.5t139 21q158 0 256 -92t98 -262v-706h-126v668q0 130 -69.5 205t-191.5 75q-146 0 -226.5 -100t-80.5 -250v-598h-126zM290 1834l272 -232h-136l-174 148h-5l-180 -148h-133l279 232h77z" />
    <glyph glyph-name="Hbar" unicode="&#x126;" horiz-adv-x="1398" 
d="M328 747h740v263h-740v-263zM328 632v-632h-128v1010h-121v102h121v251h128v-251h740v251h127v-251h125v-102h-125v-1010h-127v632h-740z" />
    <glyph glyph-name="hbar" unicode="&#x127;" horiz-adv-x="1190" 
d="M315 598v-598h-126v1209h-125v102h125v153h126v-153h263v-102h-263v-363h7q10 35 32.5 69t61 68.5t100.5 55.5t139 21q158 0 256 -92t98 -262v-706h-126v668q0 130 -69.5 205t-191.5 75q-146 0 -226.5 -100t-80.5 -250z" />
    <glyph glyph-name="Itilde" unicode="&#x128;" horiz-adv-x="543" 
d="M335 0h-127v1363h127v-1363zM391 1474q-45 0 -82.5 20.5t-59 44.5t-49.5 44.5t-56 20.5q-39 0 -59 -34.5t-21 -81.5h-88q0 85 44 142t121 57q43 0 80.5 -20.5t60 -45t51.5 -45t57 -20.5q40 0 62 33.5t23 81.5h88q0 -80 -45.5 -138.5t-126.5 -58.5z" />
    <glyph glyph-name="itilde" unicode="&#x129;" horiz-adv-x="547" 
d="M211 0v1043h125v-1043h-125zM398 1225q-39 0 -70.5 16.5t-51.5 39.5t-38.5 46.5t-40.5 40t-48 16.5q-42 0 -63 -38.5t-23 -101.5h-90q0 104 45.5 167t129.5 63q41 0 73.5 -16.5t53 -40t38.5 -46.5t39 -39.5t45 -16.5q76 0 84 142h91q0 -96 -45 -164t-129 -68z" />
    <glyph glyph-name="Imacron" unicode="&#x12a;" horiz-adv-x="543" 
d="M335 0h-127v1363h127v-1363zM555 1518h-566v86h566v-86z" />
    <glyph glyph-name="imacron" unicode="&#x12b;" horiz-adv-x="547" 
d="M211 0v1043h125v-1043h-125zM564 1270h-579v90h579v-90z" />
    <glyph glyph-name="Ibreve" unicode="&#x12c;" horiz-adv-x="543" 
d="M335 0h-127v1363h127v-1363zM-30 1733h97q0 -77 53 -122t152 -45t151 45t52 122h97q0 -105 -77.5 -176t-222.5 -71q-146 0 -224 70.5t-78 176.5z" />
    <glyph glyph-name="ibreve" unicode="&#x12d;" horiz-adv-x="547" 
d="M211 0v1043h125v-1043h-125zM-3 1470h95q0 -74 47.5 -122.5t135.5 -48.5q87 0 133.5 48.5t46.5 122.5h94q0 -46 -16 -90t-47.5 -82t-86 -61.5t-124.5 -23.5t-125 23.5t-87.5 61.5t-49 82t-16.5 90z" />
    <glyph glyph-name="Iogonek" unicode="&#x12e;" horiz-adv-x="543" 
d="M367 -361q-36 -19 -110 -19q-92 0 -145.5 47.5t-53.5 133.5q0 72 40 131.5t110 97.5v1333h127v-1363q-76 -28 -119.5 -75t-43.5 -104q0 -49 30 -76.5t83 -27.5q43 0 82 11v-89z" />
    <glyph glyph-name="iogonek" unicode="&#x12f;" horiz-adv-x="547" 
d="M368 -267v-88q-34 -19 -107 -19q-90 0 -146 46t-56 134q0 143 152 230v1007h125v-1037q-163 -65 -163 -179q0 -50 31 -77t85 -27q46 0 79 10zM173 1361q0 44 29 72.5t71 28.5q44 0 72.5 -28.5t28.5 -72.5q0 -42 -29 -70.5t-72 -28.5q-42 0 -71 28.5t-29 70.5z" />
    <glyph glyph-name="Idotaccent" unicode="&#x130;" horiz-adv-x="543" 
d="M335 0h-127v1363h127v-1363zM181 1587q0 39 26 65.5t64 26.5q39 0 65.5 -26.5t26.5 -65.5q0 -38 -26.5 -64t-65.5 -26q-38 0 -64 26t-26 64z" />
    <glyph glyph-name="dotlessi" unicode="&#x131;" horiz-adv-x="547" 
d="M211 0v1043h125v-1043h-125z" />
    <glyph glyph-name="Jcircumflex" unicode="&#x134;" horiz-adv-x="981" 
d="M54 299h125q3 -85 65 -146.5t168 -61.5q119 0 185 70t66 204v998h127v-985q0 -194 -100.5 -298.5t-277.5 -104.5q-168 0 -263 93.5t-95 230.5zM765 1733l272 -232h-136l-174 148h-5l-180 -148h-133l279 232h77z" />
    <glyph glyph-name="jcircumflex" unicode="&#x135;" horiz-adv-x="547" 
d="M336 1043v-1091q0 -163 -64 -238t-188 -75q-55 0 -89 9v104q27 -5 67 -5q81 0 115 47.5t34 157.5v1091h125zM-14 1223l246 367h86l244 -367h-113l-172 272h-4l-175 -272h-112z" />
    <glyph glyph-name="Kcommaaccent" unicode="&#x136;" horiz-adv-x="1197" 
d="M1126 1363l-531 -590l561 -773h-165l-491 685l-171 -184v-501h-128v1363h128v-693h5l637 693h155zM562 -471h-95l82 319h121z" />
    <glyph glyph-name="kcommaaccent" unicode="&#x137;" horiz-adv-x="1045" 
d="M315 405v-405h-126v1464h126v-916h5l485 495h151l-431 -444l458 -599h-153l-397 518zM506 -471h-95l82 319h121z" />
    <glyph glyph-name="Lacute" unicode="&#x139;" horiz-adv-x="1045" 
d="M175 1514l263 322h136l-293 -322h-106zM984 116v-116h-783v1363h128v-1247h655z" />
    <glyph glyph-name="lacute" unicode="&#x13a;" horiz-adv-x="518" 
d="M169 1615l263 322h136l-293 -322h-106zM196 0v1464h126v-1464h-126z" />
    <glyph glyph-name="Lcommaaccent" unicode="&#x13b;" horiz-adv-x="1045" 
d="M499 -471h-95l82 319h121zM984 116v-116h-783v1363h128v-1247h655z" />
    <glyph glyph-name="lcommaaccent" unicode="&#x13c;" horiz-adv-x="518" 
d="M223 -471h-95l82 319h121zM196 0v1464h126v-1464h-126z" />
    <glyph glyph-name="Lcaron" unicode="&#x13d;" horiz-adv-x="1045" 
d="M602 1437h127l-40 -488h-87v488zM984 116v-116h-783v1363h128v-1247h655z" />
    <glyph glyph-name="lcaron" unicode="&#x13e;" horiz-adv-x="643" 
d="M520 1436h120l-37 -488h-83v488zM196 0v1464h126v-1464h-126z" />
    <glyph glyph-name="Lslash" unicode="&#x141;" horiz-adv-x="1052" 
d="M991 0h-783v560l-139 -81v127l139 81v676h127v-602l411 242v-129l-411 -241v-517h656v-116z" />
    <glyph glyph-name="lslash" unicode="&#x142;" horiz-adv-x="560" 
d="M343 0h-125v644l-169 -124v130l169 124v690h125v-600l171 125v-129l-171 -126v-734z" />
    <glyph glyph-name="Nacute" unicode="&#x143;" horiz-adv-x="1398" 
d="M609 1514l263 322h136l-293 -322h-106zM329 0h-128v1363h129l732 -1143h7v1143h127v-1363h-128l-733 1143h-6v-1143z" />
    <glyph glyph-name="nacute" unicode="&#x144;" horiz-adv-x="1181" 
d="M512 1228l242 337h131l-272 -337h-101zM186 0v1043h126v-197h6q12 39 33.5 72.5t58.5 67.5t97.5 54t137.5 20q163 0 260 -91t97 -262v-707h-126v670q0 130 -67 204t-190 74q-148 0 -227.5 -100t-79.5 -250v-598h-126z" />
    <glyph glyph-name="Ncommaaccent" unicode="&#x145;" horiz-adv-x="1398" 
d="M663 -471h-95l82 319h121zM329 0h-128v1363h129l732 -1143h7v1143h127v-1363h-128l-733 1143h-6v-1143z" />
    <glyph glyph-name="ncommaaccent" unicode="&#x146;" horiz-adv-x="1181" 
d="M554 -471h-95l82 319h121zM186 0v1043h126v-197h6q12 39 33.5 72.5t58.5 67.5t97.5 54t137.5 20q163 0 260 -91t97 -262v-707h-126v670q0 130 -67 204t-190 74q-148 0 -227.5 -100t-79.5 -250v-598h-126z" />
    <glyph glyph-name="Ncaron" unicode="&#x147;" horiz-adv-x="1398" 
d="M380 1713h137l180 -139h5l171 139h139l-241 -202h-138zM329 0h-128v1363h129l732 -1143h7v1143h127v-1363h-128l-733 1143h-6v-1143z" />
    <glyph glyph-name="ncaron" unicode="&#x148;" horiz-adv-x="1181" 
d="M303 1584h112l175 -280h3l168 280h112l-237 -367h-87zM186 0v1043h126v-197h6q12 39 33.5 72.5t58.5 67.5t97.5 54t137.5 20q163 0 260 -91t97 -262v-707h-126v670q0 130 -67 204t-190 74q-148 0 -227.5 -100t-79.5 -250v-598h-126z" />
    <glyph glyph-name="Omacron" unicode="&#x14c;" horiz-adv-x="1357" 
d="M1083 794q0 228 -111 355.5t-294 127.5t-293.5 -127t-110.5 -356v-225q0 -229 110.5 -356t293.5 -127t294 127t111 356v225zM1210 571q0 -280 -142.5 -440.5t-389.5 -160.5q-246 0 -388.5 160.5t-142.5 440.5v221q0 281 142.5 441t388.5 160q247 0 389.5 -160.5
t142.5 -441.5v-220zM961 1518h-566v86h566v-86z" />
    <glyph glyph-name="omacron" unicode="&#x14d;" horiz-adv-x="1144" 
d="M862 1270h-579v90h579v-90zM572 1060q190 0 313 -121.5t123 -334.5v-165q0 -214 -122.5 -335t-313.5 -121q-193 0 -314.5 120t-121.5 336v165q0 210 123 333t313 123zM573 948q-139 0 -225 -97t-86 -263v-136q0 -167 84 -262t227 -95q142 0 225.5 94.5t83.5 262.5v136
q0 166 -85 263t-224 97z" />
    <glyph glyph-name="Obreve" unicode="&#x14e;" horiz-adv-x="1357" 
d="M1083 794q0 228 -111 355.5t-294 127.5t-293.5 -127t-110.5 -356v-225q0 -229 110.5 -356t293.5 -127t294 127t111 356v225zM1210 571q0 -280 -142.5 -440.5t-389.5 -160.5q-246 0 -388.5 160.5t-142.5 440.5v221q0 281 142.5 441t388.5 160q247 0 389.5 -160.5
t142.5 -441.5v-220zM376 1733h97q0 -77 53 -122t152 -45t151 45t52 122h97q0 -105 -77.5 -176t-222.5 -71q-146 0 -224 70.5t-78 176.5z" />
    <glyph glyph-name="obreve" unicode="&#x14f;" horiz-adv-x="1144" 
d="M295 1470h95q0 -74 47.5 -122.5t135.5 -48.5q87 0 133.5 48.5t46.5 122.5h94q0 -46 -16 -90t-47.5 -82t-86 -61.5t-124.5 -23.5t-125 23.5t-87.5 61.5t-49 82t-16.5 90zM572 1060q190 0 313 -121.5t123 -334.5v-165q0 -214 -122.5 -335t-313.5 -121q-193 0 -314.5 120
t-121.5 336v165q0 210 123 333t313 123zM573 948q-139 0 -225 -97t-86 -263v-136q0 -167 84 -262t227 -95q142 0 225.5 94.5t83.5 262.5v136q0 166 -85 263t-224 97z" />
    <glyph glyph-name="Ohungarumlaut" unicode="&#x150;" horiz-adv-x="1357" 
d="M450 1514l263 322h136l-293 -322h-106zM748 1514l263 322h136l-293 -322h-106zM1083 794q0 228 -111 355.5t-294 127.5t-293.5 -127t-110.5 -356v-225q0 -229 110.5 -356t293.5 -127t294 127t111 356v225zM1210 571q0 -280 -142.5 -440.5t-389.5 -160.5
q-246 0 -388.5 160.5t-142.5 440.5v221q0 281 142.5 441t388.5 160q247 0 389.5 -160.5t142.5 -441.5v-220z" />
    <glyph glyph-name="ohungarumlaut" unicode="&#x151;" horiz-adv-x="1144" 
d="M468 1218h-100l244 346h136zM747 1218h-99l244 346h136zM572 1060q190 0 313 -121.5t123 -334.5v-165q0 -214 -122.5 -335t-313.5 -121q-193 0 -314.5 120t-121.5 336v165q0 210 123 333t313 123zM573 948q-139 0 -225 -97t-86 -263v-136q0 -167 84 -262t227 -95
q142 0 225.5 94.5t83.5 262.5v136q0 166 -85 263t-224 97z" />
    <glyph glyph-name="OE" unicode="&#x152;" horiz-adv-x="2012" 
d="M274 789v-225q0 -221 106 -349.5t295 -128.5t296.5 123t107.5 330v283q0 206 -107.5 330.5t-296.5 124.5q-186 0 -293.5 -132.5t-107.5 -355.5zM674 -30q-249 0 -388 159.5t-139 436.5v221q0 279 141 442.5t388 163.5q135 0 239 -53.5t154 -145.5h10v169h789v-117h-661
v-491h625v-115h-625v-524h661v-116h-789v176h-9q-57 -97 -160 -151.5t-236 -54.5z" />
    <glyph glyph-name="oe" unicode="&#x153;" horiz-adv-x="1850" 
d="M1311 -17q-126 0 -221.5 55.5t-140.5 153.5h-10q-50 -98 -148 -153.5t-219 -55.5q-193 0 -314.5 120t-121.5 336v165q0 210 123 333t313 123q123 0 219 -52.5t149 -156.5h9q48 99 140.5 154t209.5 55q186 0 300.5 -125t114.5 -341v-102h-706v-55q0 -155 80 -248t223 -93
q107 0 176 46.5t84 107.5h133q-6 -43 -33 -87.5t-73 -86t-121.5 -67.5t-165.5 -26zM572 949q-139 0 -225 -97.5t-86 -262.5v-136q0 -168 84 -262.5t227 -94.5q142 0 225.5 94.5t83.5 262.5v136q0 166 -85 263t-224 97zM1008 592h580v15q0 157 -78.5 249.5t-210.5 92.5
t-211.5 -92.5t-79.5 -249.5v-15z" />
    <glyph glyph-name="Racute" unicode="&#x154;" horiz-adv-x="1247" 
d="M506 1514l263 322h136l-293 -322h-106zM671 1363q193 0 308 -107.5t115 -286.5q0 -141 -72 -239t-197 -137l293 -593h-147l-274 567h-368v-567h-128v1363h470zM329 683h320q150 0 232 72.5t82 205.5q0 135 -81.5 210.5t-227.5 75.5h-325v-564z" />
    <glyph glyph-name="racute" unicode="&#x155;" horiz-adv-x="760" 
d="M335 1228l242 337h131l-272 -337h-101zM198 0v1043h126v-177h7q10 33 30.5 64t54.5 61.5t89.5 49t123.5 18.5q26 0 71 -5v-118q-30 6 -85 6q-134 0 -212.5 -78t-78.5 -211v-653h-126z" />
    <glyph glyph-name="Rcommaaccent" unicode="&#x156;" horiz-adv-x="1247" 
d="M671 1363q193 0 308 -107.5t115 -286.5q0 -141 -72 -239t-197 -137l293 -593h-147l-274 567h-368v-567h-128v1363h470zM329 683h320q150 0 232 72.5t82 205.5q0 135 -81.5 210.5t-227.5 75.5h-325v-564zM560 -471h-95l82 319h121z" />
    <glyph glyph-name="rcommaaccent" unicode="&#x157;" horiz-adv-x="760" 
d="M198 0v1043h126v-177h7q10 33 30.5 64t54.5 61.5t89.5 49t123.5 18.5q26 0 71 -5v-118q-30 6 -85 6q-134 0 -212.5 -78t-78.5 -211v-653h-126zM227 -471h-95l82 319h121z" />
    <glyph glyph-name="Rcaron" unicode="&#x158;" horiz-adv-x="1247" 
d="M671 1363q193 0 308 -107.5t115 -286.5q0 -141 -72 -239t-197 -137l293 -593h-147l-274 567h-368v-567h-128v1363h470zM329 683h320q150 0 232 72.5t82 205.5q0 135 -81.5 210.5t-227.5 75.5h-325v-564zM277 1713h137l180 -139h5l171 139h139l-241 -202h-138z" />
    <glyph glyph-name="rcaron" unicode="&#x159;" horiz-adv-x="760" 
d="M126 1584h112l175 -280h3l168 280h112l-237 -367h-87zM198 0v1043h126v-177h7q10 33 30.5 64t54.5 61.5t89.5 49t123.5 18.5q26 0 71 -5v-118q-30 6 -85 6q-134 0 -212.5 -78t-78.5 -211v-653h-126z" />
    <glyph glyph-name="Sacute" unicode="&#x15a;" horiz-adv-x="1194" 
d="M505 1514l263 322h136l-293 -322h-106zM102 357h129q10 -114 105 -192t258 -78q157 0 251 73.5t94 194.5q0 99 -63 157.5t-200 94.5l-218 57q-152 41 -232.5 129.5t-80.5 221.5q0 167 126 274t328 107t325.5 -104t126.5 -265h-129q-8 111 -93 181.5t-233 70.5
q-145 0 -233 -72t-88 -188q0 -172 222 -231l212 -58q187 -51 273.5 -136t86.5 -230q0 -180 -134 -287t-356 -107q-217 0 -345 111.5t-132 275.5z" />
    <glyph glyph-name="sacute" unicode="&#x15b;" horiz-adv-x="1018" 
d="M139 760q0 98 51.5 167.5t133 101t183.5 31.5q169 0 265 -82t96 -200h-120q-4 67 -66 121.5t-179 54.5q-105 0 -172 -48t-67 -134q0 -27 8 -49.5t19.5 -39t33 -30.5t40 -23t50.5 -18.5t54 -14.5t60 -13q57 -12 95.5 -22t84.5 -26t75.5 -36.5t56 -49t39 -67.5t12.5 -88
q0 -149 -110.5 -230.5t-286.5 -81.5q-178 0 -279.5 79.5t-101.5 205.5h124q8 -78 70.5 -128.5t190.5 -50.5q127 0 197.5 52t70.5 140q0 38 -16 67.5t-37.5 47.5t-64 33.5t-73 23.5t-88.5 20q-69 15 -114 28t-94 36t-76.5 51t-46 71.5t-18.5 100.5zM430 1228l242 337h131
l-272 -337h-101z" />
    <glyph glyph-name="Scircumflex" unicode="&#x15c;" horiz-adv-x="1194" 
d="M102 357h129q10 -114 105 -192t258 -78q157 0 251 73.5t94 194.5q0 99 -63 157.5t-200 94.5l-218 57q-152 41 -232.5 129.5t-80.5 221.5q0 167 126 274t328 107t325.5 -104t126.5 -265h-129q-8 111 -93 181.5t-233 70.5q-145 0 -233 -72t-88 -188q0 -172 222 -231
l212 -58q187 -51 273.5 -136t86.5 -230q0 -180 -134 -287t-356 -107q-217 0 -345 111.5t-132 275.5zM635 1733l272 -232h-136l-174 148h-5l-180 -148h-133l279 232h77z" />
    <glyph glyph-name="scircumflex" unicode="&#x15d;" horiz-adv-x="1018" 
d="M220 1223l246 367h86l244 -367h-113l-172 272h-4l-175 -272h-112zM139 760q0 98 51.5 167.5t133 101t183.5 31.5q169 0 265 -82t96 -200h-120q-4 67 -66 121.5t-179 54.5q-105 0 -172 -48t-67 -134q0 -27 8 -49.5t19.5 -39t33 -30.5t40 -23t50.5 -18.5t54 -14.5t60 -13
q57 -12 95.5 -22t84.5 -26t75.5 -36.5t56 -49t39 -67.5t12.5 -88q0 -149 -110.5 -230.5t-286.5 -81.5q-178 0 -279.5 79.5t-101.5 205.5h124q8 -78 70.5 -128.5t190.5 -50.5q127 0 197.5 52t70.5 140q0 38 -16 67.5t-37.5 47.5t-64 33.5t-73 23.5t-88.5 20q-69 15 -114 28
t-94 36t-76.5 51t-46 71.5t-18.5 100.5z" />
    <glyph glyph-name="Scedilla" unicode="&#x15e;" horiz-adv-x="1194" 
d="M596 -478q-82 -2 -140 16v85q50 -14 119 -14q57 0 94.5 23t37.5 63q0 45 -36 65.5t-116 20.5h-51v64l50 126q-105 3 -190.5 35.5t-141.5 85.5t-87 121t-33 144h129q10 -114 105 -192t258 -78q157 0 251 73.5t94 194.5q0 99 -63 157.5t-200 94.5l-218 57
q-152 41 -232.5 129.5t-80.5 221.5q0 167 126 274t328 107t325.5 -104t126.5 -265h-129q-8 111 -93 181.5t-233 70.5q-145 0 -233 -72t-88 -188q0 -172 222 -231l212 -58q187 -51 273.5 -136t86.5 -230q0 -164 -113 -269t-307 -122l-43 -113q97 0 154.5 -40t57.5 -117
q0 -82 -61 -129.5t-161 -51.5z" />
    <glyph glyph-name="scedilla" unicode="&#x15f;" horiz-adv-x="1018" 
d="M501 -478q-79 -3 -140 16v85q47 -14 119 -14q54 0 93 22t39 68q0 49 -40 65.5t-112 16.5h-51v64l54 138q-164 7 -256.5 86t-92.5 199h124q8 -78 70.5 -128.5t190.5 -50.5q127 0 197.5 52t70.5 140q0 38 -16 67.5t-37.5 47.5t-64 33.5t-73 23.5t-88.5 20q-69 15 -114 28
t-94 36t-76.5 51t-46 71.5t-18.5 100.5q0 98 51.5 167.5t133 101t183.5 31.5q169 0 265 -82t96 -200h-120q-4 67 -66 121.5t-179 54.5q-105 0 -172 -48t-67 -134q0 -27 8 -49.5t19.5 -39t33 -30.5t40 -23t50.5 -18.5t54 -14.5t60 -13q57 -12 95.5 -22t84.5 -26t75.5 -36.5
t56 -49t39 -67.5t12.5 -88q0 -135 -91 -214.5t-242 -94.5l-48 -126q95 0 153.5 -39t58.5 -118q0 -87 -63.5 -132.5t-158.5 -48.5z" />
    <glyph glyph-name="Scaron" unicode="&#x160;" horiz-adv-x="1194" 
d="M102 357h129q10 -114 105 -192t258 -78q157 0 251 73.5t94 194.5q0 99 -63 157.5t-200 94.5l-218 57q-152 41 -232.5 129.5t-80.5 221.5q0 167 126 274t328 107t325.5 -104t126.5 -265h-129q-8 111 -93 181.5t-233 70.5q-145 0 -233 -72t-88 -188q0 -172 222 -231
l212 -58q187 -51 273.5 -136t86.5 -230q0 -180 -134 -287t-356 -107q-217 0 -345 111.5t-132 275.5zM276 1713h137l180 -139h5l171 139h139l-241 -202h-138z" />
    <glyph glyph-name="scaron" unicode="&#x161;" horiz-adv-x="1018" 
d="M221 1584h112l175 -280h3l168 280h112l-237 -367h-87zM139 760q0 98 51.5 167.5t133 101t183.5 31.5q169 0 265 -82t96 -200h-120q-4 67 -66 121.5t-179 54.5q-105 0 -172 -48t-67 -134q0 -27 8 -49.5t19.5 -39t33 -30.5t40 -23t50.5 -18.5t54 -14.5t60 -13
q57 -12 95.5 -22t84.5 -26t75.5 -36.5t56 -49t39 -67.5t12.5 -88q0 -149 -110.5 -230.5t-286.5 -81.5q-178 0 -279.5 79.5t-101.5 205.5h124q8 -78 70.5 -128.5t190.5 -50.5q127 0 197.5 52t70.5 140q0 38 -16 67.5t-37.5 47.5t-64 33.5t-73 23.5t-88.5 20q-69 15 -114 28
t-94 36t-76.5 51t-46 71.5t-18.5 100.5z" />
    <glyph glyph-name="Tcedilla" unicode="&#x162;" horiz-adv-x="1083" 
d="M510 0h-32v1247h-434v116h995v-116h-433v-1247l-68 -140q95 0 153 -39t58 -118q0 -87 -63.5 -132.5t-157.5 -48.5q-79 -3 -140 16v85q45 -14 118 -14q54 0 93 22t39 68q0 49 -40 65.5t-112 16.5h-51v64z" />
    <glyph glyph-name="tcedilla" unicode="&#x163;" horiz-adv-x="741" 
d="M432 -474q-75 -3 -140 15v86q46 -14 118 -14q54 0 93 22t39 68q0 48 -40 65t-111 17h-52v63l61 154q-91 21 -125 84t-34 184v667h-176v106h176v259h126v-259h257v-106h-257v-672q0 -97 38.5 -131.5t142.5 -34.5q35 0 92 6v-107q-51 -8 -119 -8q-6 0 -16 0.5t-14 0.5
l-49 -127q95 0 153 -39.5t58 -117.5q0 -87 -63 -132.5t-158 -48.5z" />
    <glyph glyph-name="Tcaron" unicode="&#x164;" horiz-adv-x="1084" 
d="M222 1713h137l180 -139h5l171 139h139l-241 -202h-138zM606 0h-128v1247h-434v116h996v-116h-434v-1247z" />
    <glyph glyph-name="tcaron" unicode="&#x165;" horiz-adv-x="741" 
d="M562 1699h120l-37 -488h-83v488zM241 1043v259h126v-259h257v-106h-257v-672q0 -97 38.5 -131.5t142.5 -34.5q35 0 92 6v-107q-51 -8 -119 -8q-85 0 -140 16t-86 52t-42.5 85.5t-11.5 126.5v667h-176v106h176z" />
    <glyph glyph-name="Tbar" unicode="&#x166;" horiz-adv-x="1084" 
d="M852 669h-246v-669h-128v669h-246v102h246v476h-434v116h996v-116h-434v-476h246v-102z" />
    <glyph glyph-name="tbar" unicode="&#x167;" horiz-adv-x="741" 
d="M640 -2q-51 -8 -119 -8q-85 0 -140 16t-86 52t-42.5 85.5t-11.5 126.5v285h-159v108h159v274h-176v106h176v259h126v-259h257v-106h-257v-274h227v-108h-227v-290q0 -97 38.5 -131.5t142.5 -34.5q35 0 92 6v-107z" />
    <glyph glyph-name="Utilde" unicode="&#x168;" horiz-adv-x="1369" 
d="M684 87q175 0 275 103t100 280v893h127v-893q0 -226 -136.5 -363t-365.5 -137t-365 137t-136 363v893h127v-893q0 -176 100 -279.5t274 -103.5zM804 1474q-44 0 -82 20.5t-59.5 44.5t-50 44.5t-55.5 20.5q-39 0 -59 -34.5t-21 -81.5h-88q0 85 44 142t121 57
q43 0 80.5 -20.5t60 -45t51.5 -45t57 -20.5q40 0 62 33.5t23 81.5h88q0 -80 -45.5 -138.5t-126.5 -58.5z" />
    <glyph glyph-name="utilde" unicode="&#x169;" horiz-adv-x="1177" 
d="M991 1043v-1043h-126v185h-7q-12 -36 -37.5 -70t-64 -64.5t-96.5 -49t-126 -18.5q-163 0 -260 82.5t-97 255.5v722h126v-691q0 -128 70 -192.5t187 -64.5q134 0 219.5 88.5t85.5 208.5v651h126zM713 1225q-39 0 -70.5 16.5t-51.5 39.5t-38.5 46.5t-40.5 40t-48 16.5
q-42 0 -63 -38.5t-23 -101.5h-90q0 104 45.5 167t129.5 63q41 0 73.5 -16.5t53 -40t38.5 -46.5t39 -39.5t45 -16.5q76 0 84 142h91q0 -96 -45 -164t-129 -68z" />
    <glyph glyph-name="Umacron" unicode="&#x16a;" horiz-adv-x="1369" 
d="M684 87q175 0 275 103t100 280v893h127v-893q0 -226 -136.5 -363t-365.5 -137t-365 137t-136 363v893h127v-893q0 -176 100 -279.5t274 -103.5zM968 1518h-566v86h566v-86z" />
    <glyph glyph-name="umacron" unicode="&#x16b;" horiz-adv-x="1177" 
d="M991 1043v-1043h-126v185h-7q-12 -36 -37.5 -70t-64 -64.5t-96.5 -49t-126 -18.5q-163 0 -260 82.5t-97 255.5v722h126v-691q0 -128 70 -192.5t187 -64.5q134 0 219.5 88.5t85.5 208.5v651h126zM879 1270h-579v90h579v-90z" />
    <glyph glyph-name="Ubreve" unicode="&#x16c;" horiz-adv-x="1369" 
d="M684 87q175 0 275 103t100 280v893h127v-893q0 -226 -136.5 -363t-365.5 -137t-365 137t-136 363v893h127v-893q0 -176 100 -279.5t274 -103.5zM383 1733h97q0 -77 53 -122t152 -45t151 45t52 122h97q0 -105 -77.5 -176t-222.5 -71q-146 0 -224 70.5t-78 176.5z" />
    <glyph glyph-name="ubreve" unicode="&#x16d;" horiz-adv-x="1177" 
d="M991 1043v-1043h-126v185h-7q-12 -36 -37.5 -70t-64 -64.5t-96.5 -49t-126 -18.5q-163 0 -260 82.5t-97 255.5v722h126v-691q0 -128 70 -192.5t187 -64.5q134 0 219.5 88.5t85.5 208.5v651h126zM312 1470h95q0 -74 47.5 -122.5t135.5 -48.5q87 0 133.5 48.5t46.5 122.5
h94q0 -46 -16 -90t-47.5 -82t-86 -61.5t-124.5 -23.5t-125 23.5t-87.5 61.5t-49 82t-16.5 90z" />
    <glyph glyph-name="Uring" unicode="&#x16e;" horiz-adv-x="1369" 
d="M685 1499q-75 0 -127.5 51.5t-52.5 126.5t52.5 126t127.5 51t127.5 -51t52.5 -126t-52.5 -126.5t-127.5 -51.5zM576 1676q0 -45 32 -77.5t77 -32.5t76.5 32.5t31.5 77.5q0 46 -31 78t-77 32q-45 0 -77 -32t-32 -78zM684 87q175 0 275 103t100 280v893h127v-893
q0 -226 -136.5 -363t-365.5 -137t-365 137t-136 363v893h127v-893q0 -176 100 -279.5t274 -103.5z" />
    <glyph glyph-name="uring" unicode="&#x16f;" horiz-adv-x="1177" 
d="M991 1043v-1043h-126v185h-7q-12 -36 -37.5 -70t-64 -64.5t-96.5 -49t-126 -18.5q-163 0 -260 82.5t-97 255.5v722h126v-691q0 -128 70 -192.5t187 -64.5q134 0 219.5 88.5t85.5 208.5v651h126zM588 1226q-75 0 -127.5 51.5t-52.5 126.5t52.5 126t127.5 51t127.5 -51
t52.5 -126t-52.5 -126.5t-127.5 -51.5zM479 1403q0 -45 32 -77.5t77 -32.5t76.5 32.5t31.5 77.5q0 46 -31 78t-77 32q-45 0 -77 -32t-32 -78z" />
    <glyph glyph-name="Uhungarumlaut" unicode="&#x170;" horiz-adv-x="1369" 
d="M684 87q175 0 275 103t100 280v893h127v-893q0 -226 -136.5 -363t-365.5 -137t-365 137t-136 363v893h127v-893q0 -176 100 -279.5t274 -103.5zM457 1514l263 322h136l-293 -322h-106zM755 1514l263 322h136l-293 -322h-106z" />
    <glyph glyph-name="uhungarumlaut" unicode="&#x171;" horiz-adv-x="1177" 
d="M485 1218h-100l244 346h136zM764 1218h-99l244 346h136zM991 1043v-1043h-126v185h-7q-12 -36 -37.5 -70t-64 -64.5t-96.5 -49t-126 -18.5q-163 0 -260 82.5t-97 255.5v722h126v-691q0 -128 70 -192.5t187 -64.5q134 0 219.5 88.5t85.5 208.5v651h126z" />
    <glyph glyph-name="Uogonek" unicode="&#x172;" horiz-adv-x="1369" 
d="M966 -380q-54 0 -99 18t-76.5 62.5t-31.5 109.5q0 116 108 199l-4 7q-94 -46 -196 -46q-227 0 -355.5 136t-128.5 364v893h127v-893q0 -176 100 -279.5t274 -103.5q175 0 275 103t100 280v893h127v-893q0 -136 -42.5 -231.5t-117.5 -171.5q-11 -11 -42 -41.5t-44.5 -45.5
t-33 -41t-27.5 -51.5t-8 -53.5q0 -54 34.5 -83.5t88.5 -29.5q44 0 79 12v-94q-41 -19 -107 -19z" />
    <glyph glyph-name="uogonek" unicode="&#x173;" horiz-adv-x="1177" 
d="M1014 -355q-43 -19 -109 -19q-84 0 -141 45t-57 133q0 43 13.5 79t44.5 69t46 45.5t54 42.5v145h-7q-12 -36 -37.5 -70t-64 -64.5t-96.5 -49t-126 -18.5q-163 0 -260 82.5t-97 255.5v722h126v-693q0 -129 69.5 -193t187.5 -64q134 0 219.5 88.5t85.5 208.5v653h126v-1034
q-72 -33 -121 -80t-49 -104q0 -46 30 -71.5t81 -25.5q48 0 82 10v-93z" />
    <glyph glyph-name="Wcircumflex" unicode="&#x174;" horiz-adv-x="1715" 
d="M898 1733l272 -232h-136l-174 148h-5l-180 -148h-133l279 232h77zM538 0h-118l-372 1363h149l282 -1165h7l305 1165h133l305 -1165h7l282 1165h149l-372 -1363h-118l-316 1154h-7z" />
    <glyph glyph-name="wcircumflex" unicode="&#x175;" horiz-adv-x="1474" 
d="M448 1223l246 367h86l244 -367h-113l-172 272h-4l-175 -272h-112zM1414 1043l-282 -1043h-124l-265 860h-4l-260 -860h-125l-294 1043h143l211 -872h7l259 872h121l264 -872h7l215 872h127z" />
    <glyph glyph-name="Ycircumflex" unicode="&#x176;" horiz-adv-x="1120" 
d="M624 0h-127v602l-462 761h147l374 -634h8l374 634h147l-461 -760v-603zM600 1733l272 -232h-136l-174 148h-5l-180 -148h-133l279 232h77z" />
    <glyph glyph-name="ycircumflex" unicode="&#x177;" horiz-adv-x="1033" 
d="M962 1043l-377 -1050l-33 -90q-24 -64 -46.5 -106.5t-58.5 -83t-87 -60.5t-119 -20q-52 0 -99 9v108q31 -7 81 -7q85 0 131.5 42t72.5 125l24 75l-389 1058h140l311 -913h6l309 913h134zM227 1223l246 367h86l244 -367h-113l-172 272h-4l-175 -272h-112z" />
    <glyph glyph-name="Ydieresis" unicode="&#x178;" horiz-adv-x="1120" 
d="M624 0h-127v602l-462 761h147l374 -634h8l374 634h147l-461 -760v-603zM721 1490q-37 0 -63 25t-26 62t26 62t63 25q39 0 65.5 -25t26.5 -62t-26.5 -62t-65.5 -25zM396 1490q-38 0 -63.5 25t-25.5 62t25.5 62t63.5 25q39 0 65 -25t26 -62t-26 -62t-65 -25z" />
    <glyph glyph-name="Zacute" unicode="&#x179;" horiz-adv-x="1195" 
d="M508 1514l263 322h136l-293 -322h-106zM113 0v93l786 1147v8h-759v115h918v-93l-783 -1147v-8h794v-115h-956z" />
    <glyph glyph-name="zacute" unicode="&#x17a;" horiz-adv-x="1013" 
d="M428 1228l242 337h131l-272 -337h-101zM134 0v91l591 833v8h-594v111h752v-92l-592 -832v-8h595v-111h-752z" />
    <glyph glyph-name="Zdotaccent" unicode="&#x17b;" horiz-adv-x="1195" 
d="M507 1587q0 39 26 65.5t64 26.5q39 0 65.5 -26.5t26.5 -65.5q0 -38 -26.5 -64t-65.5 -26q-38 0 -64 26t-26 64zM113 0v93l786 1147v8h-759v115h918v-93l-783 -1147v-8h794v-115h-956z" />
    <glyph glyph-name="zdotaccent" unicode="&#x17c;" horiz-adv-x="1013" 
d="M416 1326q0 39 26 65.5t63 26.5q40 0 66.5 -26.5t26.5 -65.5q0 -38 -26.5 -64t-66.5 -26q-37 0 -63 26t-26 64zM134 0v91l591 833v8h-594v111h752v-92l-592 -832v-8h595v-111h-752z" />
    <glyph glyph-name="Zcaron" unicode="&#x17d;" horiz-adv-x="1195" 
d="M113 0v93l786 1147v8h-759v115h918v-93l-783 -1147v-8h794v-115h-956zM279 1713h137l180 -139h5l171 139h139l-241 -202h-138z" />
    <glyph glyph-name="zcaron" unicode="&#x17e;" horiz-adv-x="1013" 
d="M219 1584h112l175 -280h3l168 280h112l-237 -367h-87zM134 0v91l591 833v8h-594v111h752v-92l-592 -832v-8h595v-111h-752z" />
    <glyph glyph-name="florin" unicode="&#x192;" horiz-adv-x="1113" 
d="M191 -186l179 990h-234l19 106h235l34 194q24 140 106.5 214.5t217.5 74.5q70 0 123.5 -23t82 -59.5t42 -74.5t13.5 -75h-119q-1 58 -44.5 91t-107.5 33q-156 0 -190 -200l-31 -175h310l-20 -106h-310l-179 -990h-127z" />
    <glyph glyph-name="Ohorn" unicode="&#x1a0;" horiz-adv-x="1379" 
d="M1210 566q0 -276 -141.5 -436t-392.5 -160q-249 0 -389 159.5t-140 436.5v221q0 279 142 442.5t390 163.5q79 0 153 -21.5t136 -43t113 -21.5q143 0 143 156v92h115v-90q0 -133 -69 -195t-192 -54l-4 -6q61 -70 98.5 -185.5t37.5 -238.5v-220zM274 789v-225
q0 -220 107.5 -348.5t296.5 -128.5q190 0 297.5 128.5t107.5 348.5v225q0 223 -109 355.5t-296 132.5t-295.5 -132.5t-108.5 -355.5z" />
    <glyph glyph-name="ohorn" unicode="&#x1a1;" horiz-adv-x="1141" 
d="M572 -17q-193 0 -314.5 120t-121.5 336v165q0 210 123 333t313 123q55 0 129.5 -19t127.5 -19q71 0 107.5 41.5t36.5 116.5v140h115v-131q0 -249 -205 -253v-7q52 -52 88.5 -139t36.5 -186v-165q0 -214 -122.5 -335t-313.5 -121zM573 949q-139 0 -225 -97.5t-86 -262.5
v-136q0 -168 84 -262.5t227 -94.5q142 0 225.5 94.5t83.5 262.5v136q0 166 -85 263t-224 97z" />
    <glyph glyph-name="Uhorn" unicode="&#x1af;" horiz-adv-x="1428" 
d="M684 -30q-229 0 -365 137t-136 363v893h127v-893q0 -177 100 -280t275 -103t274.5 103t99.5 280v893h128q146 0 146 157v99h114v-100q0 -120 -62.5 -185.5t-168.5 -65.5h-30v-798q0 -226 -136.5 -363t-365.5 -137z" />
    <glyph glyph-name="uhorn" unicode="&#x1b0;" horiz-adv-x="1244" 
d="M858 185q-12 -36 -37.5 -70t-64 -64.5t-96.5 -49t-126 -18.5q-163 0 -260 82.5t-97 255.5v722h126v-693q0 -129 69.5 -193t187.5 -64q134 0 219.5 88.5t85.5 208.5v653h119q146 0 146 157v120h115v-118q0 -118 -61 -185.5t-176 -67.5h-17v-949h-126v185h-7z" />
    <glyph glyph-name="Acaron" unicode="&#x1cd;" horiz-adv-x="1223" 
d="M193 0h-134l489 1363h127l489 -1363h-135l-149 436h-538zM614 1206h-6l-229 -665h464zM293 1713h137l180 -139h5l171 139h139l-241 -202h-138z" />
    <glyph glyph-name="acaron" unicode="&#x1ce;" horiz-adv-x="1088" 
d="M464 -17q-152 0 -246 86.5t-94 229.5q0 137 93.5 218.5t267.5 81.5h295v123q0 114 -66.5 170t-184.5 56q-109 0 -166.5 -40.5t-73.5 -104.5h-123q11 120 107.5 188.5t261.5 68.5q167 0 269.5 -82t102.5 -250v-728h-122v152h-6q-39 -69 -117.5 -119t-197.5 -50zM492 95
q122 0 205 74t83 188v135h-293q-118 0 -175 -51.5t-57 -138.5q0 -98 67.5 -152.5t169.5 -54.5zM256 1584h112l175 -280h3l168 280h112l-237 -367h-87z" />
    <glyph glyph-name="Icaron" unicode="&#x1cf;" horiz-adv-x="543" 
d="M335 0h-127v1363h127v-1363zM-47 1713h137l180 -139h5l171 139h139l-241 -202h-138z" />
    <glyph glyph-name="icaron" unicode="&#x1d0;" horiz-adv-x="547" 
d="M-12 1584h112l175 -280h3l168 280h112l-237 -367h-87zM211 0v1043h125v-1043h-125z" />
    <glyph glyph-name="Ocaron" unicode="&#x1d1;" horiz-adv-x="1357" 
d="M359 1713h137l180 -139h5l171 139h139l-241 -202h-138zM1083 794q0 228 -111 355.5t-294 127.5t-293.5 -127t-110.5 -356v-225q0 -229 110.5 -356t293.5 -127t294 127t111 356v225zM1210 571q0 -280 -142.5 -440.5t-389.5 -160.5q-246 0 -388.5 160.5t-142.5 440.5v221
q0 281 142.5 441t388.5 160q247 0 389.5 -160.5t142.5 -441.5v-220z" />
    <glyph glyph-name="ocaron" unicode="&#x1d2;" horiz-adv-x="1144" 
d="M284 1584h112l175 -280h3l168 280h112l-237 -367h-87zM572 1060q190 0 313 -121.5t123 -334.5v-165q0 -214 -122.5 -335t-313.5 -121q-193 0 -314.5 120t-121.5 336v165q0 210 123 333t313 123zM573 948q-139 0 -225 -97t-86 -263v-136q0 -167 84 -262t227 -95
q142 0 225.5 94.5t83.5 262.5v136q0 166 -85 263t-224 97z" />
    <glyph glyph-name="Ucaron" unicode="&#x1d3;" horiz-adv-x="1369" 
d="M366 1713h137l180 -139h5l171 139h139l-241 -202h-138zM684 87q175 0 275 103t100 280v893h127v-893q0 -226 -136.5 -363t-365.5 -137t-365 137t-136 363v893h127v-893q0 -176 100 -279.5t274 -103.5z" />
    <glyph glyph-name="ucaron" unicode="&#x1d4;" horiz-adv-x="1177" 
d="M301 1584h112l175 -280h3l168 280h112l-237 -367h-87zM991 1043v-1043h-126v185h-7q-12 -36 -37.5 -70t-64 -64.5t-96.5 -49t-126 -18.5q-163 0 -260 82.5t-97 255.5v722h126v-691q0 -128 70 -192.5t187 -64.5q134 0 219.5 88.5t85.5 208.5v651h126z" />
    <glyph glyph-name="Udieresismacron" unicode="&#x1d5;" horiz-adv-x="1369" 
d="M684 87q175 0 275 103t100 280v893h127v-893q0 -226 -136.5 -363t-365.5 -137t-365 137t-136 363v893h127v-893q0 -176 100 -279.5t274 -103.5zM847 1490q-37 0 -63 25t-26 62t26 62t63 25q39 0 65.5 -25t26.5 -62t-26.5 -62t-65.5 -25zM522 1490q-38 0 -63.5 25
t-25.5 62t25.5 62t63.5 25q39 0 65 -25t26 -62t-26 -62t-65 -25zM968 1788h-566v86h566v-86z" />
    <glyph glyph-name="udieresismacron" unicode="&#x1d6;" horiz-adv-x="1177" 
d="M991 1043v-1043h-126v185h-7q-12 -36 -37.5 -70t-64 -64.5t-96.5 -49t-126 -18.5q-163 0 -260 82.5t-97 255.5v722h126v-691q0 -128 70 -192.5t187 -64.5q134 0 219.5 88.5t85.5 208.5v651h126zM751 1226q-36 0 -63 26t-27 62q0 38 26.5 64t63.5 26q40 0 67.5 -26
t27.5 -64q0 -37 -27.5 -62.5t-67.5 -25.5zM422 1226q-38 0 -65 25.5t-27 62.5q0 38 27 64t65 26q39 0 66 -26t27 -64q0 -37 -27.5 -62.5t-65.5 -25.5zM878 1596h-579v90h579v-90z" />
    <glyph glyph-name="Udieresisacute" unicode="&#x1d7;" horiz-adv-x="1369" 
d="M614 1723l268 210h155l-297 -210h-126zM847 1490q-37 0 -63 25t-26 62t26 62t63 25q39 0 65.5 -25t26.5 -62t-26.5 -62t-65.5 -25zM522 1490q-38 0 -63.5 25t-25.5 62t25.5 62t63.5 25q39 0 65 -25t26 -62t-26 -62t-65 -25zM684 87q175 0 275 103t100 280v893h127v-893
q0 -226 -136.5 -363t-365.5 -137t-365 137t-136 363v893h127v-893q0 -176 100 -279.5t274 -103.5z" />
    <glyph glyph-name="udieresisacute" unicode="&#x1d8;" horiz-adv-x="1177" 
d="M509 1525l242 337h131l-272 -337h-101zM751 1226q-36 0 -63 26t-27 62q0 38 26.5 64t63.5 26q40 0 67.5 -26t27.5 -64q0 -37 -27.5 -62.5t-67.5 -25.5zM422 1226q-38 0 -65 25.5t-27 62.5q0 38 27 64t65 26q39 0 66 -26t27 -64q0 -37 -27.5 -62.5t-65.5 -25.5zM991 1043
v-1043h-126v185h-7q-12 -36 -37.5 -70t-64 -64.5t-96.5 -49t-126 -18.5q-163 0 -260 82.5t-97 255.5v722h126v-691q0 -128 70 -192.5t187 -64.5q134 0 219.5 88.5t85.5 208.5v651h126z" />
    <glyph glyph-name="Udieresiscaron" unicode="&#x1d9;" horiz-adv-x="1369" 
d="M522 1490q-38 0 -63.5 25t-25.5 62t25.5 62t63.5 25q39 0 65 -25t26 -62t-26 -62t-65 -25zM847 1490q-37 0 -63 25t-26 62t26 62t63 25q39 0 65.5 -25t26.5 -62t-26.5 -62t-65.5 -25zM373 1923h133l177 -132h4l177 132h132l-272 -204h-76zM684 87q175 0 275 103t100 280
v893h127v-893q0 -226 -136.5 -363t-365.5 -137t-365 137t-136 363v893h127v-893q0 -176 100 -279.5t274 -103.5z" />
    <glyph glyph-name="udieresiscaron" unicode="&#x1da;" horiz-adv-x="1177" 
d="M300 1884h112l175 -280h3l168 280h112l-237 -367h-87zM751 1226q-36 0 -63 26t-27 62q0 38 26.5 64t63.5 26q40 0 67.5 -26t27.5 -64q0 -37 -27.5 -62.5t-67.5 -25.5zM422 1226q-38 0 -65 25.5t-27 62.5q0 38 27 64t65 26q39 0 66 -26t27 -64q0 -37 -27.5 -62.5
t-65.5 -25.5zM991 1043v-1043h-126v185h-7q-12 -36 -37.5 -70t-64 -64.5t-96.5 -49t-126 -18.5q-163 0 -260 82.5t-97 255.5v722h126v-691q0 -128 70 -192.5t187 -64.5q134 0 219.5 88.5t85.5 208.5v651h126z" />
    <glyph glyph-name="Udieresisgrave" unicode="&#x1db;" horiz-adv-x="1369" 
d="M756 1723h-126l-297 210h155zM847 1490q-37 0 -63 25t-26 62t26 62t63 25q39 0 65.5 -25t26.5 -62t-26.5 -62t-65.5 -25zM522 1490q-38 0 -63.5 25t-25.5 62t25.5 62t63.5 25q39 0 65 -25t26 -62t-26 -62t-65 -25zM684 87q175 0 275 103t100 280v893h127v-893
q0 -226 -136.5 -363t-365.5 -137t-365 137t-136 363v893h127v-893q0 -176 100 -279.5t274 -103.5z" />
    <glyph glyph-name="udieresisgrave" unicode="&#x1dc;" horiz-adv-x="1177" 
d="M666 1525h-100l-272 337h131zM751 1226q-36 0 -63 26t-27 62q0 38 26.5 64t63.5 26q40 0 67.5 -26t27.5 -64q0 -37 -27.5 -62.5t-67.5 -25.5zM422 1226q-38 0 -65 25.5t-27 62.5q0 38 27 64t65 26q39 0 66 -26t27 -64q0 -37 -27.5 -62.5t-65.5 -25.5zM991 1043v-1043
h-126v185h-7q-12 -36 -37.5 -70t-64 -64.5t-96.5 -49t-126 -18.5q-163 0 -260 82.5t-97 255.5v722h126v-691q0 -128 70 -192.5t187 -64.5q134 0 219.5 88.5t85.5 208.5v651h126z" />
    <glyph glyph-name="Adieresismacron" unicode="&#x1de;" horiz-adv-x="1223" 
d="M193 0h-134l489 1363h127l489 -1363h-135l-149 436h-538zM614 1206h-6l-229 -665h464zM774 1490q-37 0 -63 25t-26 62t26 62t63 25q39 0 65.5 -25t26.5 -62t-26.5 -62t-65.5 -25zM449 1490q-38 0 -63.5 25t-25.5 62t25.5 62t63.5 25q39 0 65 -25t26 -62t-26 -62t-65 -25z
M895 1788h-566v86h566v-86z" />
    <glyph glyph-name="adieresismacron" unicode="&#x1df;" horiz-adv-x="1088" 
d="M464 -17q-152 0 -246 86.5t-94 229.5q0 137 93.5 218.5t267.5 81.5h295v123q0 114 -66.5 170t-184.5 56q-109 0 -166.5 -40.5t-73.5 -104.5h-123q11 120 107.5 188.5t261.5 68.5q167 0 269.5 -82t102.5 -250v-728h-122v152h-6q-39 -69 -117.5 -119t-197.5 -50zM492 95
q122 0 205 74t83 188v135h-293q-118 0 -175 -51.5t-57 -138.5q0 -98 67.5 -152.5t169.5 -54.5zM707 1226q-36 0 -63 26t-27 62q0 38 26.5 64t63.5 26q40 0 67.5 -26t27.5 -64q0 -37 -27.5 -62.5t-67.5 -25.5zM378 1226q-38 0 -65 25.5t-27 62.5q0 38 27 64t65 26
q39 0 66 -26t27 -64q0 -37 -27.5 -62.5t-65.5 -25.5zM834 1596h-579v90h579v-90z" />
    <glyph glyph-name="Adotmacron" unicode="&#x1e0;" horiz-adv-x="1223" 
d="M193 0h-134l489 1363h127l489 -1363h-135l-149 436h-538zM614 1206h-6l-229 -665h464zM521 1587q0 39 26 65.5t64 26.5q39 0 65.5 -26.5t26.5 -65.5q0 -38 -26.5 -64t-65.5 -26q-38 0 -64 26t-26 64zM895 1780h-566v86h566v-86z" />
    <glyph glyph-name="adotmacron" unicode="&#x1e1;" horiz-adv-x="1088" 
d="M464 -17q-152 0 -246 86.5t-94 229.5q0 137 93.5 218.5t267.5 81.5h295v123q0 114 -66.5 170t-184.5 56q-109 0 -166.5 -40.5t-73.5 -104.5h-123q11 120 107.5 188.5t261.5 68.5q167 0 269.5 -82t102.5 -250v-728h-122v152h-6q-39 -69 -117.5 -119t-197.5 -50zM492 95
q122 0 205 74t83 188v135h-293q-118 0 -175 -51.5t-57 -138.5q0 -98 67.5 -152.5t169.5 -54.5zM453 1326q0 39 26 65.5t63 26.5q40 0 66.5 -26.5t26.5 -65.5q0 -38 -26.5 -64t-66.5 -26q-37 0 -63 26t-26 64zM834 1596h-579v90h579v-90z" />
    <glyph glyph-name="AEmacron" unicode="&#x1e2;" horiz-adv-x="1884" 
d="M887 1246l-389 -695h460v695h-71zM958 445h-518l-255 -445h-143l776 1363h928v-117h-661v-491h626v-115h-626v-524h661v-116h-788v445zM1641 1518h-566v86h566v-86z" />
    <glyph glyph-name="aemacron" unicode="&#x1e3;" horiz-adv-x="1744" 
d="M1211 -17q-148 0 -246 64t-129 165h-10q-33 -96 -125.5 -162.5t-231.5 -66.5q-156 0 -251.5 85t-95.5 229q0 142 96 222t271 80h293v123q0 112 -69 168.5t-182 56.5q-110 0 -169.5 -40.5t-75.5 -103.5h-123q11 120 110.5 188.5t263.5 68.5q111 0 198.5 -43t124.5 -126h10
q44 82 132.5 125.5t196.5 43.5q185 0 297 -124.5t112 -341.5v-102h-699v-76q0 -145 81.5 -232.5t220.5 -87.5q107 0 173 46t81 108h133q-6 -43 -32 -87.5t-71 -86t-119.5 -67.5t-164.5 -26zM1199 949q-128 0 -209 -90t-81 -238v-29h573v20q0 158 -75.5 247.5t-207.5 89.5z
M494 93q121 0 204.5 74.5t83.5 187.5v137h-291q-119 0 -180.5 -52t-61.5 -139q0 -98 70.5 -153t174.5 -55zM1162 1270h-579v90h579v-90z" />
    <glyph glyph-name="Gcaron" unicode="&#x1e6;" horiz-adv-x="1315" 
d="M353 1713h137l180 -139h5l171 139h139l-241 -202h-138zM1161 972h-125q-16 132 -111 218.5t-252 86.5q-189 0 -294 -130.5t-105 -357.5v-205q0 -233 105 -365.5t301 -132.5q171 0 268 88.5t97 238.5v159h-382v116h506v-275q0 -201 -132.5 -322t-355.5 -121
q-258 0 -396 163t-138 451v205q0 279 140.5 441.5t387.5 162.5q210 0 342 -119.5t144 -301.5z" />
    <glyph glyph-name="gcaron" unicode="&#x1e7;" horiz-adv-x="1151" 
d="M288 1584h112l175 -280h3l168 280h112l-237 -367h-87zM549 -268q147 0 226 74.5t79 204.5v200h-8q-30 -72 -110.5 -129t-200.5 -57q-177 0 -293.5 118t-116.5 315v168q0 201 118 317.5t292 116.5q122 0 205.5 -59t112.5 -132h6v174h120v-1030q0 -191 -115.5 -292.5
t-319.5 -101.5q-94 0 -169 23t-121.5 63t-72 88.5t-30.5 103.5h131q10 -68 80.5 -116.5t186.5 -48.5zM557 948q-136 0 -221 -94.5t-85 -258.5v-108q0 -158 86.5 -254t220.5 -96q137 0 216.5 96.5t79.5 228.5v156q0 137 -82 233.5t-215 96.5z" />
    <glyph glyph-name="Kcaron" unicode="&#x1e8;" horiz-adv-x="1197" 
d="M1126 1363l-531 -590l561 -773h-165l-491 685l-171 -184v-501h-128v1363h128v-693h5l637 693h155zM262 1713h137l180 -139h5l171 139h139l-241 -202h-138z" />
    <glyph glyph-name="kcaron" unicode="&#x1e9;" horiz-adv-x="1045" 
d="M315 405v-405h-126v1464h126v-916h5l485 495h151l-431 -444l458 -599h-153l-397 518zM-69 1814h137l180 -139h5l171 139h139l-241 -202h-138z" />
    <glyph glyph-name="Oogonek" unicode="&#x1ea;" horiz-adv-x="1357" 
d="M958 -380q-91 0 -149 50.5t-58 134.5q0 120 108 205l-4 6q-73 -46 -183 -46q-248 0 -386.5 160.5t-138.5 440.5v221q0 278 141.5 439.5t389.5 161.5q249 0 390.5 -162t141.5 -440v-221q0 -314 -188 -497q-92 -92 -125.5 -141.5t-33.5 -102.5q0 -48 34.5 -78t88.5 -30
q34 0 79 12v-94q-46 -19 -107 -19zM1083 794q0 221 -108.5 352t-296.5 131t-296 -130.5t-108 -352.5v-225q0 -222 108 -352.5t296 -130.5t296.5 131t108.5 352v225z" />
    <glyph glyph-name="oogonek" unicode="&#x1eb;" horiz-adv-x="1144" 
d="M573 949q-139 0 -225 -97t-86 -262v-137q0 -167 84 -262t227 -95q142 0 225.5 94.5t83.5 262.5v137q0 165 -85 262t-224 97zM707 23q-65 -40 -154 -40q-87 0 -162.5 30t-132.5 86t-89.5 142t-32.5 191v172q0 210 123.5 333t315.5 123q188 0 310.5 -121.5t122.5 -334.5
v-165q0 -123 -39.5 -211t-107.5 -159q-8 -9 -31 -32.5t-31.5 -32.5t-26 -29.5t-24.5 -33t-16.5 -30.5t-13 -35.5t-3.5 -36.5q0 -51 34 -81.5t90 -30.5q40 0 78 12v-95q-45 -18 -108 -18q-86 0 -145.5 47t-59.5 139q0 115 108 204z" />
    <glyph glyph-name="Oogonekmacron" unicode="&#x1ec;" horiz-adv-x="1357" 
d="M958 -380q-91 0 -149 50.5t-58 134.5q0 120 108 205l-4 6q-73 -46 -183 -46q-248 0 -386.5 160.5t-138.5 440.5v221q0 278 141.5 439.5t389.5 161.5q249 0 390.5 -162t141.5 -440v-221q0 -314 -188 -497q-92 -92 -125.5 -141.5t-33.5 -102.5q0 -48 34.5 -78t88.5 -30
q34 0 79 12v-94q-46 -19 -107 -19zM1083 794q0 221 -108.5 352t-296.5 131t-296 -130.5t-108 -352.5v-225q0 -222 108 -352.5t296 -130.5t296.5 131t108.5 352v225zM961 1518h-566v86h566v-86z" />
    <glyph glyph-name="oogonekmacron" unicode="&#x1ed;" horiz-adv-x="1144" 
d="M573 949q-139 0 -225 -97t-86 -262v-137q0 -167 84 -262t227 -95q142 0 225.5 94.5t83.5 262.5v137q0 165 -85 262t-224 97zM707 23q-65 -40 -154 -40q-87 0 -162.5 30t-132.5 86t-89.5 142t-32.5 191v172q0 210 123.5 333t315.5 123q188 0 310.5 -121.5t122.5 -334.5
v-165q0 -123 -39.5 -211t-107.5 -159q-8 -9 -31 -32.5t-31.5 -32.5t-26 -29.5t-24.5 -33t-16.5 -30.5t-13 -35.5t-3.5 -36.5q0 -51 34 -81.5t90 -30.5q40 0 78 12v-95q-45 -18 -108 -18q-86 0 -145.5 47t-59.5 139q0 115 108 204zM862 1270h-579v90h579v-90z" />
    <glyph glyph-name="Gacute" unicode="&#x1f4;" horiz-adv-x="1315" 
d="M582 1514l263 322h136l-293 -322h-106zM1161 972h-125q-16 132 -111 218.5t-252 86.5q-189 0 -294 -130.5t-105 -357.5v-205q0 -233 105 -365.5t301 -132.5q171 0 268 88.5t97 238.5v159h-382v116h506v-275q0 -201 -132.5 -322t-355.5 -121q-258 0 -396 163t-138 451v205
q0 279 140.5 441.5t387.5 162.5q210 0 342 -119.5t144 -301.5z" />
    <glyph glyph-name="gacute" unicode="&#x1f5;" horiz-adv-x="1151" 
d="M497 1228l242 337h131l-272 -337h-101zM549 -268q147 0 226 74.5t79 204.5v200h-8q-30 -72 -110.5 -129t-200.5 -57q-177 0 -293.5 118t-116.5 315v168q0 201 118 317.5t292 116.5q122 0 205.5 -59t112.5 -132h6v174h120v-1030q0 -191 -115.5 -292.5t-319.5 -101.5
q-94 0 -169 23t-121.5 63t-72 88.5t-30.5 103.5h131q10 -68 80.5 -116.5t186.5 -48.5zM557 948q-136 0 -221 -94.5t-85 -258.5v-108q0 -158 86.5 -254t220.5 -96q137 0 216.5 96.5t79.5 228.5v156q0 137 -82 233.5t-215 96.5z" />
    <glyph glyph-name="Ngrave" unicode="&#x1f8;" horiz-adv-x="1398" 
d="M786 1514h-106l-293 322h136zM329 0h-128v1363h129l732 -1143h7v1143h127v-1363h-128l-733 1143h-6v-1143z" />
    <glyph glyph-name="ngrave" unicode="&#x1f9;" horiz-adv-x="1181" 
d="M669 1228h-100l-272 337h131zM186 0v1043h126v-197h6q12 39 33.5 72.5t58.5 67.5t97.5 54t137.5 20q163 0 260 -91t97 -262v-707h-126v670q0 130 -67 204t-190 74q-148 0 -227.5 -100t-79.5 -250v-598h-126z" />
    <glyph glyph-name="Aringacute" unicode="&#x1fa;" horiz-adv-x="1223" 
d="M193 0h-134l489 1363h127l489 -1363h-135l-149 436h-538zM614 1206h-6l-229 -665h464zM560 1810l121 135h138l-155 -135h-104zM612 1429q-71 0 -120 48.5t-49 118.5t49 117.5t120 47.5q70 0 120 -48t50 -117q0 -70 -50 -118.5t-120 -48.5zM514 1596q0 -42 29 -71.5
t70 -29.5q42 0 70 29.5t28 71.5t-28 71t-70 29q-41 0 -70 -29t-29 -71z" />
    <glyph glyph-name="aringacute" unicode="&#x1fb;" horiz-adv-x="1088" 
d="M464 -17q-152 0 -246 86.5t-94 229.5q0 137 93.5 218.5t267.5 81.5h295v123q0 114 -66.5 170t-184.5 56q-109 0 -166.5 -40.5t-73.5 -104.5h-123q11 120 107.5 188.5t261.5 68.5q167 0 269.5 -82t102.5 -250v-728h-122v152h-6q-39 -69 -117.5 -119t-197.5 -50zM492 95
q122 0 205 74t83 188v135h-293q-118 0 -175 -51.5t-57 -138.5q0 -98 67.5 -152.5t169.5 -54.5zM593 1675h-97l144 190h131zM545 1226q-76 0 -128.5 51.5t-52.5 126.5t52.5 126t128.5 51q75 0 127 -51t52 -126t-52 -126.5t-127 -51.5zM435 1403q0 -45 32 -77.5t77 -32.5
t77 32.5t32 77.5q0 46 -31.5 78t-77.5 32q-45 0 -77 -32t-32 -78z" />
    <glyph glyph-name="AEacute" unicode="&#x1fc;" horiz-adv-x="1884" 
d="M1268 1514l263 322h136l-293 -322h-106zM887 1246l-389 -695h460v695h-71zM958 445h-518l-255 -445h-143l776 1363h928v-117h-661v-491h626v-115h-626v-524h661v-116h-788v445z" />
    <glyph glyph-name="aeacute" unicode="&#x1fd;" horiz-adv-x="1744" 
d="M793 1228l242 337h131l-272 -337h-101zM1211 -17q-148 0 -246 64t-129 165h-10q-33 -96 -125.5 -162.5t-231.5 -66.5q-156 0 -251.5 85t-95.5 229q0 142 96 222t271 80h293v123q0 112 -69 168.5t-182 56.5q-110 0 -169.5 -40.5t-75.5 -103.5h-123q11 120 110.5 188.5
t263.5 68.5q111 0 198.5 -43t124.5 -126h10q44 82 132.5 125.5t196.5 43.5q185 0 297 -124.5t112 -341.5v-102h-699v-76q0 -145 81.5 -232.5t220.5 -87.5q107 0 173 46t81 108h133q-6 -43 -32 -87.5t-71 -86t-119.5 -67.5t-164.5 -26zM1199 949q-128 0 -209 -90t-81 -238
v-29h573v20q0 158 -75.5 247.5t-207.5 89.5zM494 93q121 0 204.5 74.5t83.5 187.5v137h-291q-119 0 -180.5 -52t-61.5 -139q0 -98 70.5 -153t174.5 -55z" />
    <glyph glyph-name="Oslashacute" unicode="&#x1fe;" horiz-adv-x="1357" 
d="M676 -30q-251 0 -391 165l-106 -129l-76 62l123 149q-79 144 -79 349v221q0 281 143 443.5t389 162.5q242 0 383 -158l107 129l80 -56l-127 -153q88 -151 88 -368v-221q0 -280 -143.5 -438t-390.5 -158zM273 564q0 -134 42 -238l666 809q-112 142 -303 142
q-182 0 -293.5 -129.5t-111.5 -358.5v-225zM678 87q184 0 294.5 124.5t110.5 352.5v225q0 148 -49 257l-668 -812q109 -147 312 -147zM588 1514l263 322h136l-293 -322h-106z" />
    <glyph glyph-name="oslashacute" unicode="&#x1ff;" horiz-adv-x="1144" 
d="M362 168q80 -75 210 -75q142 0 227 96t85 264v157q0 107 -40 184zM258 432q0 -110 42 -189l483 628q-79 81 -211 81q-139 0 -226.5 -99t-87.5 -264v-157zM572 -17q-163 0 -276 96l-102 -135l-76 56l110 145q-92 119 -92 294v165q0 210 123 333t313 123q164 0 277 -101
l111 143l74 -57l-117 -151q91 -121 91 -290v-165q0 -214 -122.5 -335t-313.5 -121zM493 1228l242 337h131l-272 -337h-101z" />
    <glyph glyph-name="Adblgrave" unicode="&#x200;" horiz-adv-x="1223" 
d="M193 0h-134l489 1363h127l489 -1363h-135l-149 436h-538zM614 1206h-6l-229 -665h464zM537 1514h-102l-296 322h136zM835 1514h-103l-296 322h137z" />
    <glyph glyph-name="adblgrave" unicode="&#x201;" horiz-adv-x="1088" 
d="M464 -17q-152 0 -246 86.5t-94 229.5q0 137 93.5 218.5t267.5 81.5h295v123q0 114 -66.5 170t-184.5 56q-109 0 -166.5 -40.5t-73.5 -104.5h-123q11 120 107.5 188.5t261.5 68.5q167 0 269.5 -82t102.5 -250v-728h-122v152h-6q-39 -69 -117.5 -119t-197.5 -50zM492 95
q122 0 205 74t83 188v135h-293q-118 0 -175 -51.5t-57 -138.5q0 -98 67.5 -152.5t169.5 -54.5zM374 1217l-280 346h136l244 -346h-100zM651 1217l-280 346h136l244 -346h-100z" />
    <glyph glyph-name="Ainvertedbreve" unicode="&#x202;" horiz-adv-x="1223" 
d="M193 0h-134l489 1363h127l489 -1363h-135l-149 436h-538zM614 1206h-6l-229 -665h464zM612 1670q-94 0 -148.5 -47.5t-54.5 -116.5h-95q0 98 78.5 172t219.5 74q140 0 217.5 -74t77.5 -172h-95q0 69 -53.5 116.5t-146.5 47.5z" />
    <glyph glyph-name="ainvertedbreve" unicode="&#x203;" horiz-adv-x="1088" 
d="M464 -17q-152 0 -246 86.5t-94 229.5q0 137 93.5 218.5t267.5 81.5h295v123q0 114 -66.5 170t-184.5 56q-109 0 -166.5 -40.5t-73.5 -104.5h-123q11 120 107.5 188.5t261.5 68.5q167 0 269.5 -82t102.5 -250v-728h-122v152h-6q-39 -69 -117.5 -119t-197.5 -50zM492 95
q122 0 205 74t83 188v135h-293q-118 0 -175 -51.5t-57 -138.5q0 -98 67.5 -152.5t169.5 -54.5zM267 1226q0 46 16.5 90t48.5 82t87 61.5t125 23.5t124.5 -23.5t86.5 -61.5t48 -82t16 -90h-95q0 74 -46 122.5t-134 48.5t-135.5 -49t-47.5 -122h-94z" />
    <glyph glyph-name="Edblgrave" unicode="&#x204;" horiz-adv-x="1135" 
d="M522 1514h-102l-296 322h136zM820 1514h-103l-296 322h137zM997 116v-116h-796v1363h796v-117h-668v-491h632v-115h-632v-524h668z" />
    <glyph glyph-name="edblgrave" unicode="&#x205;" horiz-adv-x="1103" 
d="M566 -17q-202 0 -315.5 123t-113.5 337v151q0 216 115 341t302 125q186 0 301.5 -125t115.5 -341v-102h-708v-56q0 -155 80 -248t223 -93q107 0 175.5 47t81.5 108h133q-6 -43 -32.5 -87.5t-72 -86t-120.5 -67.5t-165 -26zM263 592h581v15q0 157 -79 249t-211 92
t-211.5 -92t-79.5 -249v-15zM382 1217l-280 346h136l244 -346h-100zM659 1217l-280 346h136l244 -346h-100z" />
    <glyph glyph-name="Einvertedbreve" unicode="&#x206;" horiz-adv-x="1135" 
d="M997 116v-116h-796v1363h796v-117h-668v-491h632v-115h-632v-524h668zM597 1670q-94 0 -148.5 -47.5t-54.5 -116.5h-95q0 98 78.5 172t219.5 74q140 0 217.5 -74t77.5 -172h-95q0 69 -53.5 116.5t-146.5 47.5z" />
    <glyph glyph-name="einvertedbreve" unicode="&#x207;" horiz-adv-x="1103" 
d="M566 -17q-202 0 -315.5 123t-113.5 337v151q0 216 115 341t302 125q186 0 301.5 -125t115.5 -341v-102h-708v-56q0 -155 80 -248t223 -93q107 0 175.5 47t81.5 108h133q-6 -43 -32.5 -87.5t-72 -86t-120.5 -67.5t-165 -26zM263 592h581v15q0 157 -79 249t-211 92
t-211.5 -92t-79.5 -249v-15zM275 1226q0 46 16.5 90t48.5 82t87 61.5t125 23.5t124.5 -23.5t86.5 -61.5t48 -82t16 -90h-95q0 74 -46 122.5t-134 48.5t-135.5 -49t-47.5 -122h-94z" />
    <glyph glyph-name="Idblgrave" unicode="&#x208;" horiz-adv-x="543" 
d="M335 0h-127v1363h127v-1363zM197 1514h-102l-296 322h136zM495 1514h-103l-296 322h137z" />
    <glyph glyph-name="idblgrave" unicode="&#x209;" horiz-adv-x="547" 
d="M211 0v1043h125v-1043h-125zM104 1217l-280 346h136l244 -346h-100zM381 1217l-280 346h136l244 -346h-100z" />
    <glyph glyph-name="Iinvertedbreve" unicode="&#x20a;" horiz-adv-x="543" 
d="M335 0h-127v1363h127v-1363zM272 1670q-94 0 -148.5 -47.5t-54.5 -116.5h-95q0 98 78.5 172t219.5 74q140 0 217.5 -74t77.5 -172h-95q0 69 -53.5 116.5t-146.5 47.5z" />
    <glyph glyph-name="iinvertedbreve" unicode="&#x20b;" horiz-adv-x="547" 
d="M211 0v1043h125v-1043h-125zM-3 1226q0 46 16.5 90t48.5 82t87 61.5t125 23.5t124.5 -23.5t86.5 -61.5t48 -82t16 -90h-95q0 74 -46 122.5t-134 48.5t-135.5 -49t-47.5 -122h-94z" />
    <glyph glyph-name="Odblgrave" unicode="&#x20c;" horiz-adv-x="1357" 
d="M603 1514h-102l-296 322h136zM901 1514h-103l-296 322h137zM1083 794q0 228 -111 355.5t-294 127.5t-293.5 -127t-110.5 -356v-225q0 -229 110.5 -356t293.5 -127t294 127t111 356v225zM1210 571q0 -280 -142.5 -440.5t-389.5 -160.5q-246 0 -388.5 160.5t-142.5 440.5
v221q0 281 142.5 441t388.5 160q247 0 389.5 -160.5t142.5 -441.5v-220z" />
    <glyph glyph-name="odblgrave" unicode="&#x20d;" horiz-adv-x="1144" 
d="M572 1060q190 0 313 -121.5t123 -334.5v-165q0 -214 -122.5 -335t-313.5 -121q-193 0 -314.5 120t-121.5 336v165q0 210 123 333t313 123zM573 948q-139 0 -225 -97t-86 -263v-136q0 -167 84 -262t227 -95q142 0 225.5 94.5t83.5 262.5v136q0 166 -85 263t-224 97z
M402 1217l-280 346h136l244 -346h-100zM679 1217l-280 346h136l244 -346h-100z" />
    <glyph glyph-name="Oinvertedbreve" unicode="&#x20e;" horiz-adv-x="1357" 
d="M678 1670q-94 0 -148.5 -47.5t-54.5 -116.5h-95q0 98 78.5 172t219.5 74q140 0 217.5 -74t77.5 -172h-95q0 69 -53.5 116.5t-146.5 47.5zM1083 794q0 228 -111 355.5t-294 127.5t-293.5 -127t-110.5 -356v-225q0 -229 110.5 -356t293.5 -127t294 127t111 356v225z
M1210 571q0 -280 -142.5 -440.5t-389.5 -160.5q-246 0 -388.5 160.5t-142.5 440.5v221q0 281 142.5 441t388.5 160q247 0 389.5 -160.5t142.5 -441.5v-220z" />
    <glyph glyph-name="oinvertedbreve" unicode="&#x20f;" horiz-adv-x="1144" 
d="M572 1060q190 0 313 -121.5t123 -334.5v-165q0 -214 -122.5 -335t-313.5 -121q-193 0 -314.5 120t-121.5 336v165q0 210 123 333t313 123zM573 948q-139 0 -225 -97t-86 -263v-136q0 -167 84 -262t227 -95q142 0 225.5 94.5t83.5 262.5v136q0 166 -85 263t-224 97z
M295 1226q0 46 16.5 90t48.5 82t87 61.5t125 23.5t124.5 -23.5t86.5 -61.5t48 -82t16 -90h-95q0 74 -46 122.5t-134 48.5t-135.5 -49t-47.5 -122h-94z" />
    <glyph glyph-name="Rdblgrave" unicode="&#x210;" horiz-adv-x="1247" 
d="M521 1514h-102l-296 322h136zM819 1514h-103l-296 322h137zM671 1363q193 0 308 -107.5t115 -286.5q0 -141 -72 -239t-197 -137l293 -593h-147l-274 567h-368v-567h-128v1363h470zM329 683h320q150 0 232 72.5t82 205.5q0 135 -81.5 210.5t-227.5 75.5h-325v-564z" />
    <glyph glyph-name="rdblgrave" unicode="&#x211;" horiz-adv-x="760" 
d="M198 0v1043h126v-177h7q10 33 30.5 64t54.5 61.5t89.5 49t123.5 18.5q26 0 71 -5v-118q-30 6 -85 6q-134 0 -212.5 -78t-78.5 -211v-653h-126zM244 1217l-280 346h136l244 -346h-100zM521 1217l-280 346h136l244 -346h-100z" />
    <glyph glyph-name="Rinvertedbreve" unicode="&#x212;" horiz-adv-x="1247" 
d="M671 1363q193 0 308 -107.5t115 -286.5q0 -141 -72 -239t-197 -137l293 -593h-147l-274 567h-368v-567h-128v1363h470zM329 683h320q150 0 232 72.5t82 205.5q0 135 -81.5 210.5t-227.5 75.5h-325v-564zM596 1670q-94 0 -148.5 -47.5t-54.5 -116.5h-95q0 98 78.5 172
t219.5 74q140 0 217.5 -74t77.5 -172h-95q0 69 -53.5 116.5t-146.5 47.5z" />
    <glyph glyph-name="rinvertedbreve" unicode="&#x213;" horiz-adv-x="760" 
d="M198 0v1043h126v-177h7q10 33 30.5 64t54.5 61.5t89.5 49t123.5 18.5q26 0 71 -5v-118q-30 6 -85 6q-134 0 -212.5 -78t-78.5 -211v-653h-126zM137 1226q0 46 16.5 90t48.5 82t87 61.5t125 23.5t124.5 -23.5t86.5 -61.5t48 -82t16 -90h-95q0 74 -46 122.5t-134 48.5
t-135.5 -49t-47.5 -122h-94z" />
    <glyph glyph-name="Udblgrave" unicode="&#x214;" horiz-adv-x="1369" 
d="M610 1514h-102l-296 322h136zM908 1514h-103l-296 322h137zM684 87q175 0 275 103t100 280v893h127v-893q0 -226 -136.5 -363t-365.5 -137t-365 137t-136 363v893h127v-893q0 -176 100 -279.5t274 -103.5z" />
    <glyph glyph-name="udblgrave" unicode="&#x215;" horiz-adv-x="1177" 
d="M991 1043v-1043h-126v185h-7q-12 -36 -37.5 -70t-64 -64.5t-96.5 -49t-126 -18.5q-163 0 -260 82.5t-97 255.5v722h126v-691q0 -128 70 -192.5t187 -64.5q134 0 219.5 88.5t85.5 208.5v651h126zM419 1217l-280 346h136l244 -346h-100zM696 1217l-280 346h136l244 -346
h-100z" />
    <glyph glyph-name="Uinvertedbreve" unicode="&#x216;" horiz-adv-x="1369" 
d="M684 87q175 0 275 103t100 280v893h127v-893q0 -226 -136.5 -363t-365.5 -137t-365 137t-136 363v893h127v-893q0 -176 100 -279.5t274 -103.5zM685 1670q-94 0 -148.5 -47.5t-54.5 -116.5h-95q0 98 78.5 172t219.5 74q140 0 217.5 -74t77.5 -172h-95q0 69 -53.5 116.5
t-146.5 47.5z" />
    <glyph glyph-name="uinvertedbreve" unicode="&#x217;" horiz-adv-x="1177" 
d="M991 1043v-1043h-126v185h-7q-12 -36 -37.5 -70t-64 -64.5t-96.5 -49t-126 -18.5q-163 0 -260 82.5t-97 255.5v722h126v-691q0 -128 70 -192.5t187 -64.5q134 0 219.5 88.5t85.5 208.5v651h126zM312 1226q0 46 16.5 90t48.5 82t87 61.5t125 23.5t124.5 -23.5t86.5 -61.5
t48 -82t16 -90h-95q0 74 -46 122.5t-134 48.5t-135.5 -49t-47.5 -122h-94z" />
    <glyph glyph-name="Scommaaccent" unicode="&#x218;" horiz-adv-x="1194" 
d="M102 357h129q10 -114 105 -192t258 -78q157 0 251 73.5t94 194.5q0 99 -63 157.5t-200 94.5l-218 57q-152 41 -232.5 129.5t-80.5 221.5q0 167 126 274t328 107t325.5 -104t126.5 -265h-129q-8 111 -93 181.5t-233 70.5q-145 0 -233 -72t-88 -188q0 -172 222 -231
l212 -58q187 -51 273.5 -136t86.5 -230q0 -180 -134 -287t-356 -107q-217 0 -345 111.5t-132 275.5zM543 -471h-95l82 319h121z" />
    <glyph glyph-name="scommaaccent" unicode="&#x219;" horiz-adv-x="1018" 
d="M139 760q0 98 51.5 167.5t133 101t183.5 31.5q169 0 265 -82t96 -200h-120q-4 67 -66 121.5t-179 54.5q-105 0 -172 -48t-67 -134q0 -27 8 -49.5t19.5 -39t33 -30.5t40 -23t50.5 -18.5t54 -14.5t60 -13q57 -12 95.5 -22t84.5 -26t75.5 -36.5t56 -49t39 -67.5t12.5 -88
q0 -149 -110.5 -230.5t-286.5 -81.5q-178 0 -279.5 79.5t-101.5 205.5h124q8 -78 70.5 -128.5t190.5 -50.5q127 0 197.5 52t70.5 140q0 38 -16 67.5t-37.5 47.5t-64 33.5t-73 23.5t-88.5 20q-69 15 -114 28t-94 36t-76.5 51t-46 71.5t-18.5 100.5zM473 -471h-95l82 319h121z
" />
    <glyph glyph-name="Tcommaaccent" unicode="&#x21a;" horiz-adv-x="1084" 
d="M505 -471h-95l82 319h121zM606 0h-128v1247h-434v116h996v-116h-434v-1247z" />
    <glyph glyph-name="tcommaaccent" unicode="&#x21b;" horiz-adv-x="741" 
d="M386 -471h-95l82 319h121zM241 1043v259h126v-259h257v-106h-257v-672q0 -97 38.5 -131.5t142.5 -34.5q35 0 92 6v-107q-51 -8 -119 -8q-85 0 -140 16t-86 52t-42.5 85.5t-11.5 126.5v667h-176v106h176z" />
    <glyph glyph-name="Hcaron" unicode="&#x21e;" horiz-adv-x="1398" 
d="M1196 0h-127v652h-740v-652h-128v1363h128v-595h740v595h127v-1363zM380 1713h137l180 -139h5l171 139h139l-241 -202h-138z" />
    <glyph glyph-name="hcaron" unicode="&#x21f;" horiz-adv-x="1190" 
d="M189 0v1464h126v-618h7q10 35 32.5 69t61 68.5t100.5 55.5t139 21q158 0 256 -92t98 -262v-706h-126v668q0 130 -69.5 205t-191.5 75q-146 0 -226.5 -100t-80.5 -250v-598h-126zM-69 1814h137l180 -139h5l171 139h139l-241 -202h-138z" />
    <glyph glyph-name="Adotaccent" unicode="&#x226;" horiz-adv-x="1223" 
d="M193 0h-134l489 1363h127l489 -1363h-135l-149 436h-538zM614 1206h-6l-229 -665h464zM521 1587q0 39 26 65.5t64 26.5q39 0 65.5 -26.5t26.5 -65.5q0 -38 -26.5 -64t-65.5 -26q-38 0 -64 26t-26 64z" />
    <glyph glyph-name="adotaccent" unicode="&#x227;" horiz-adv-x="1088" 
d="M464 -17q-152 0 -246 86.5t-94 229.5q0 137 93.5 218.5t267.5 81.5h295v123q0 114 -66.5 170t-184.5 56q-109 0 -166.5 -40.5t-73.5 -104.5h-123q11 120 107.5 188.5t261.5 68.5q167 0 269.5 -82t102.5 -250v-728h-122v152h-6q-39 -69 -117.5 -119t-197.5 -50zM492 95
q122 0 205 74t83 188v135h-293q-118 0 -175 -51.5t-57 -138.5q0 -98 67.5 -152.5t169.5 -54.5zM453 1326q0 39 26 65.5t63 26.5q40 0 66.5 -26.5t26.5 -65.5q0 -38 -26.5 -64t-66.5 -26q-37 0 -63 26t-26 64z" />
    <glyph glyph-name="Ecedilla" unicode="&#x228;" horiz-adv-x="1135" 
d="M545 0h-344v1363h796v-117h-668v-491h632v-115h-632v-524h668v-116h-357l-54 -140q95 0 153 -39t58 -118q0 -87 -63 -132.5t-158 -48.5q-79 -3 -140 16v85q47 -14 119 -14q54 0 93 22t39 68q0 49 -40 65.5t-112 16.5h-51v64z" />
    <glyph glyph-name="ecedilla" unicode="&#x229;" horiz-adv-x="1103" 
d="M263 592h581v15q0 157 -79 249.5t-211 92.5t-211.5 -92.5t-79.5 -249.5v-15zM555 -478q-78 -3 -141 16v85q47 -14 119 -14q54 0 93 22t39 68q0 49 -40 65.5t-112 16.5h-51v64l55 140q-180 15 -280 136t-100 322v151q0 216 115 341t302 125q186 0 301.5 -125t115.5 -341
v-102h-708v-55q0 -155 80 -248t223 -93q107 0 175.5 46.5t81.5 107.5h133q-4 -32 -19.5 -65t-44 -67t-67 -61.5t-94 -47t-119.5 -24.5l-48 -125q95 0 153.5 -39t58.5 -118q0 -87 -63.5 -132.5t-157.5 -48.5z" />
    <glyph glyph-name="Odieresismacron" unicode="&#x22a;" horiz-adv-x="1357" 
d="M1083 794q0 228 -111 355.5t-294 127.5t-293.5 -127t-110.5 -356v-225q0 -229 110.5 -356t293.5 -127t294 127t111 356v225zM1210 571q0 -280 -142.5 -440.5t-389.5 -160.5q-246 0 -388.5 160.5t-142.5 440.5v221q0 281 142.5 441t388.5 160q247 0 389.5 -160.5
t142.5 -441.5v-220zM840 1490q-37 0 -63 25t-26 62t26 62t63 25q39 0 65.5 -25t26.5 -62t-26.5 -62t-65.5 -25zM515 1490q-38 0 -63.5 25t-25.5 62t25.5 62t63.5 25q39 0 65 -25t26 -62t-26 -62t-65 -25zM961 1788h-566v86h566v-86z" />
    <glyph glyph-name="odieresismacron" unicode="&#x22b;" horiz-adv-x="1144" 
d="M735 1226q-36 0 -63 26t-27 62q0 38 26.5 64t63.5 26q40 0 67.5 -26t27.5 -64q0 -37 -27.5 -62.5t-67.5 -25.5zM406 1226q-38 0 -65 25.5t-27 62.5q0 38 27 64t65 26q39 0 66 -26t27 -64q0 -37 -27.5 -62.5t-65.5 -25.5zM862 1596h-579v90h579v-90zM572 1060
q190 0 313 -121.5t123 -334.5v-165q0 -214 -122.5 -335t-313.5 -121q-193 0 -314.5 120t-121.5 336v165q0 210 123 333t313 123zM573 948q-139 0 -225 -97t-86 -263v-136q0 -167 84 -262t227 -95q142 0 225.5 94.5t83.5 262.5v136q0 166 -85 263t-224 97z" />
    <glyph glyph-name="Otildemacron" unicode="&#x22c;" horiz-adv-x="1357" 
d="M961 1788h-566v86h566v-86zM797 1474q-45 0 -82.5 20.5t-59 44.5t-49.5 44.5t-56 20.5q-39 0 -59 -34.5t-21 -81.5h-88q0 85 44 142t121 57q43 0 80.5 -20.5t60 -45t51.5 -45t57 -20.5q40 0 62 33.5t23 81.5h88q0 -80 -45.5 -138.5t-126.5 -58.5zM1083 794
q0 228 -111 355.5t-294 127.5t-293.5 -127t-110.5 -356v-225q0 -229 110.5 -356t293.5 -127t294 127t111 356v225zM1210 571q0 -280 -142.5 -440.5t-389.5 -160.5q-246 0 -388.5 160.5t-142.5 440.5v221q0 281 142.5 441t388.5 160q247 0 389.5 -160.5t142.5 -441.5v-220z
" />
    <glyph glyph-name="otildemacron" unicode="&#x22d;" horiz-adv-x="1144" 
d="M696 1225q-39 0 -70.5 16.5t-52 39.5t-38.5 46.5t-40.5 40t-48.5 16.5q-41 0 -62 -38.5t-23 -101.5h-90q0 104 45.5 167t129.5 63q41 0 73.5 -16.5t53 -40t38.5 -46.5t39 -39.5t45 -16.5q76 0 84 142h90q0 -96 -44.5 -164t-128.5 -68zM861 1596h-578v90h578v-90z
M572 1060q190 0 313 -121.5t123 -334.5v-165q0 -214 -122.5 -335t-313.5 -121q-193 0 -314.5 120t-121.5 336v165q0 210 123 333t313 123zM573 948q-139 0 -225 -97t-86 -263v-136q0 -167 84 -262t227 -95q142 0 225.5 94.5t83.5 262.5v136q0 166 -85 263t-224 97z" />
    <glyph glyph-name="Odotaccent" unicode="&#x22e;" horiz-adv-x="1357" 
d="M587 1587q0 39 26 65.5t64 26.5q39 0 65.5 -26.5t26.5 -65.5q0 -38 -26.5 -64t-65.5 -26q-38 0 -64 26t-26 64zM1083 794q0 228 -111 355.5t-294 127.5t-293.5 -127t-110.5 -356v-225q0 -229 110.5 -356t293.5 -127t294 127t111 356v225zM1210 571q0 -280 -142.5 -440.5
t-389.5 -160.5q-246 0 -388.5 160.5t-142.5 440.5v221q0 281 142.5 441t388.5 160q247 0 389.5 -160.5t142.5 -441.5v-220z" />
    <glyph glyph-name="odotaccent" unicode="&#x22f;" horiz-adv-x="1144" 
d="M481 1326q0 39 26 65.5t63 26.5q40 0 66.5 -26.5t26.5 -65.5q0 -38 -26.5 -64t-66.5 -26q-37 0 -63 26t-26 64zM572 1060q190 0 313 -121.5t123 -334.5v-165q0 -214 -122.5 -335t-313.5 -121q-193 0 -314.5 120t-121.5 336v165q0 210 123 333t313 123zM573 948
q-139 0 -225 -97t-86 -263v-136q0 -167 84 -262t227 -95q142 0 225.5 94.5t83.5 262.5v136q0 166 -85 263t-224 97z" />
    <glyph glyph-name="Odotaccentmacron" unicode="&#x230;" horiz-adv-x="1357" 
d="M587 1587q0 39 26 65.5t64 26.5q39 0 65.5 -26.5t26.5 -65.5q0 -38 -26.5 -64t-65.5 -26q-38 0 -64 26t-26 64zM961 1780h-566v86h566v-86zM1083 794q0 228 -111 355.5t-294 127.5t-293.5 -127t-110.5 -356v-225q0 -229 110.5 -356t293.5 -127t294 127t111 356v225z
M1210 571q0 -280 -142.5 -440.5t-389.5 -160.5q-246 0 -388.5 160.5t-142.5 440.5v221q0 281 142.5 441t388.5 160q247 0 389.5 -160.5t142.5 -441.5v-220z" />
    <glyph glyph-name="odotaccentmacron" unicode="&#x231;" horiz-adv-x="1144" 
d="M572 1060q190 0 313 -121.5t123 -334.5v-165q0 -214 -122.5 -335t-313.5 -121q-193 0 -314.5 120t-121.5 336v165q0 210 123 333t313 123zM573 948q-139 0 -225 -97t-86 -263v-136q0 -167 84 -262t227 -95q142 0 225.5 94.5t83.5 262.5v136q0 166 -85 263t-224 97z
M481 1326q0 39 26 65.5t63 26.5q40 0 66.5 -26.5t26.5 -65.5q0 -38 -26.5 -64t-66.5 -26q-37 0 -63 26t-26 64zM862 1596h-579v90h579v-90z" />
    <glyph glyph-name="Ymacron" unicode="&#x232;" horiz-adv-x="1120" 
d="M624 0h-127v602l-462 761h147l374 -634h8l374 634h147l-461 -760v-603zM843 1518h-566v86h566v-86z" />
    <glyph glyph-name="ymacron" unicode="&#x233;" horiz-adv-x="1033" 
d="M962 1043l-377 -1050l-33 -90q-24 -64 -46.5 -106.5t-58.5 -83t-87 -60.5t-119 -20q-52 0 -99 9v108q31 -7 81 -7q85 0 131.5 42t72.5 125l24 75l-389 1058h140l311 -913h6l309 913h134zM806 1270h-579v90h579v-90z" />
    <glyph glyph-name="quoteright" unicode="&#x2019;" horiz-adv-x="559" 
d="M261 867h-107l98 496h154z" />
    <glyph glyph-name="quoteright" unicode="&#x2bc;" horiz-adv-x="559" 
d="M261 867h-107l98 496h154z" />
    <glyph glyph-name="circumflex" unicode="&#x2c6;" horiz-adv-x="938" 
d="M181 1223l246 367h86l244 -367h-113l-172 272h-4l-175 -272h-112z" />
    <glyph glyph-name="caron" unicode="&#x2c7;" horiz-adv-x="938" 
d="M173 1584h112l175 -280h3l168 280h112l-237 -367h-87z" />
    <glyph glyph-name="breve" unicode="&#x2d8;" horiz-adv-x="938" 
d="M199 1482h95q0 -74 47.5 -122.5t135.5 -48.5q87 0 133.5 48.5t46.5 122.5h94q0 -46 -16 -90t-47.5 -82t-86 -61.5t-124.5 -23.5t-125 23.5t-87.5 61.5t-49 82t-16.5 90z" />
    <glyph glyph-name="dotaccent" unicode="&#x2d9;" horiz-adv-x="938" 
d="M382 1326q0 39 26 65.5t63 26.5q40 0 66.5 -26.5t26.5 -65.5q0 -38 -26.5 -64t-66.5 -26q-37 0 -63 26t-26 64z" />
    <glyph glyph-name="ring" unicode="&#x2da;" horiz-adv-x="938" 
d="M460 1226q-75 0 -127.5 51.5t-52.5 126.5t52.5 126t127.5 51t127.5 -51t52.5 -126t-52.5 -126.5t-127.5 -51.5zM351 1403q0 -45 32 -77.5t77 -32.5t76.5 32.5t31.5 77.5q0 46 -31 78t-77 32q-45 0 -77 -32t-32 -78z" />
    <glyph glyph-name="ogonek" unicode="&#x2db;" horiz-adv-x="839" 
d="M571 -261v-95q-39 -18 -113 -18q-80 0 -135 43.5t-55 129.5q0 43 20.5 88t44 73.5t56 64t42.5 48.5l92 -6q-143 -140 -143 -239q0 -49 29.5 -74.5t77.5 -25.5q45 0 84 11z" />
    <glyph glyph-name="tilde" unicode="&#x2dc;" horiz-adv-x="938" 
d="M590 1225q-39 0 -70.5 16.5t-51.5 39.5t-38.5 46.5t-40.5 40t-48 16.5q-42 0 -63 -38.5t-23 -101.5h-90q0 104 45.5 167t129.5 63q41 0 73.5 -16.5t53 -40t38.5 -46.5t39 -39.5t45 -16.5q76 0 84 142h91q0 -96 -45 -164t-129 -68z" />
    <glyph glyph-name="hungarumlaut" unicode="&#x2dd;" horiz-adv-x="938" 
d="M258 1217h-100l244 346h136zM537 1217h-99l244 346h136z" />
    <glyph glyph-name="gravecmb" unicode="&#x300;" horiz-adv-x="0" 
d="M78 1228h-100l-272 337h131z" />
    <glyph glyph-name="acutecmb" unicode="&#x301;" horiz-adv-x="0" 
d="M-79 1228l242 337h131l-272 -337h-101z" />
    <glyph glyph-name="circumflexcmb" unicode="&#x302;" horiz-adv-x="0" 
d="M-289 1223l246 367h86l244 -367h-113l-172 272h-4l-175 -272h-112z" />
    <glyph glyph-name="tildecmb" unicode="&#x303;" horiz-adv-x="0" 
d="M124 1225q-39 0 -70.5 16.5t-51.5 39.5t-38.5 46.5t-40.5 40t-48 16.5q-42 0 -63 -38.5t-23 -101.5h-90q0 104 45.5 167t129.5 63q41 0 73.5 -16.5t53 -40t38.5 -46.5t39 -39.5t45 -16.5q76 0 84 142h91q0 -96 -45 -164t-129 -68z" />
    <glyph glyph-name="macroncmb" unicode="&#x304;" horiz-adv-x="0" 
d="M290 1270h-579v90h579v-90z" />
    <glyph glyph-name="brevecmb" unicode="&#x306;" horiz-adv-x="0" 
d="M-277 1470h95q0 -74 47.5 -122.5t135.5 -48.5q87 0 133.5 48.5t46.5 122.5h94q0 -46 -16 -90t-47.5 -82t-86 -61.5t-124.5 -23.5t-125 23.5t-87.5 61.5t-49 82t-16.5 90z" />
    <glyph glyph-name="dotaccentcmb" unicode="&#x307;" horiz-adv-x="0" 
d="M-91 1326q0 39 26 65.5t63 26.5q40 0 66.5 -26.5t26.5 -65.5q0 -38 -26.5 -64t-66.5 -26q-37 0 -63 26t-26 64z" />
    <glyph glyph-name="dieresiscmb" unicode="&#x308;" horiz-adv-x="0" 
d="M163 1226q-36 0 -63 26t-27 62q0 38 26.5 64t63.5 26q40 0 67.5 -26t27.5 -64q0 -37 -27.5 -62.5t-67.5 -25.5zM-166 1226q-38 0 -65 25.5t-27 62.5q0 38 27 64t65 26q39 0 66 -26t27 -64q0 -37 -27.5 -62.5t-65.5 -25.5z" />
    <glyph glyph-name="hookabovecmb" unicode="&#x309;" horiz-adv-x="0" 
d="M-134 1425v83q47 20 107 20q88 0 140.5 -44.5t52.5 -120.5q0 -63 -36.5 -105t-98.5 -77l-51 68q90 51 90 110q0 38 -29.5 61.5t-75.5 23.5q-51 0 -99 -19z" />
    <glyph glyph-name="ringcmb" unicode="&#x30a;" horiz-adv-x="0" 
d="M0 1226q-75 0 -127.5 51.5t-52.5 126.5t52.5 126t127.5 51t127.5 -51t52.5 -126t-52.5 -126.5t-127.5 -51.5zM-109 1403q0 -45 32 -77.5t77 -32.5t76.5 32.5t31.5 77.5q0 46 -31 78t-77 32q-45 0 -77 -32t-32 -78z" />
    <glyph glyph-name="hungarumlautcmb" unicode="&#x30b;" horiz-adv-x="0" 
d="M-104 1218h-100l244 346h136zM175 1218h-99l244 346h136z" />
    <glyph glyph-name="caroncmb" unicode="&#x30c;" horiz-adv-x="0" 
d="M-288 1584h112l175 -280h3l168 280h112l-237 -367h-87z" />
    <glyph glyph-name="dblgravecmb" unicode="&#x30f;" horiz-adv-x="0" 
d="M-170 1217l-280 346h136l244 -346h-100zM107 1217l-280 346h136l244 -346h-100z" />
    <glyph glyph-name="invertedbrevecmb" unicode="&#x311;" horiz-adv-x="0" 
d="M-277 1226q0 46 16.5 90t48.5 82t87 61.5t125 23.5t124.5 -23.5t86.5 -61.5t48 -82t16 -90h-95q0 74 -46 122.5t-134 48.5t-135.5 -49t-47.5 -122h-94z" />
    <glyph glyph-name="horncmb" unicode="&#x31b;" horiz-adv-x="0" 
d="M0 969v117q25 -28 79 -28q146 0 146 157v140h115v-138q0 -120 -61 -195.5t-176 -75.5q-72 0 -103 23z" />
    <glyph glyph-name="dotbelowcmb" unicode="&#x323;" horiz-adv-x="0" 
d="M-91 -263q0 39 26 64t65 25q40 0 66 -25t26 -64t-26 -63t-66 -24q-39 0 -65 24t-26 63z" />
    <glyph glyph-name="dieresisbelowcmb" unicode="&#x324;" horiz-adv-x="0" 
d="M163 -392q-36 0 -63 26t-27 62q0 38 26.5 64t63.5 26q40 0 67.5 -26t27.5 -64q0 -37 -27.5 -62.5t-67.5 -25.5zM-166 -392q-38 0 -65 25.5t-27 62.5q0 38 27 64t65 26q39 0 66 -26t27 -64q0 -37 -27.5 -62.5t-65.5 -25.5z" />
    <glyph glyph-name="ringbelowcmb" unicode="&#x325;" horiz-adv-x="0" 
d="M0 -469q-75 0 -127.5 51.5t-52.5 126.5t52.5 126t127.5 51t127.5 -51t52.5 -126t-52.5 -126.5t-127.5 -51.5zM-109 -292q0 -45 32 -77.5t77 -32.5t76.5 32.5t31.5 77.5q0 46 -31 78t-77 32q-45 0 -77 -32t-32 -78z" />
    <glyph glyph-name="commabelowcmb" unicode="&#x326;" horiz-adv-x="0" 
d="M-36 -471h-95l82 319h121z" />
    <glyph glyph-name="cedillacmb" unicode="&#x327;" horiz-adv-x="0" 
d="M-114 -219v64l64 162h95l-57 -147q95 0 153.5 -39t58.5 -118q0 -87 -63.5 -132.5t-157.5 -48.5q-78 -3 -141 16v85q47 -14 119 -14q54 0 93 22t39 68q0 49 -40 65.5t-112 16.5h-51z" />
    <glyph glyph-name="ogonekcmb" unicode="&#x328;" horiz-adv-x="0" 
d="M91 -261v-95q-39 -18 -113 -18q-80 0 -135 43.5t-55 129.5q0 43 20.5 88t44 73.5t56 64t42.5 48.5l92 -6q-143 -140 -143 -239q0 -49 29.5 -74.5t77.5 -25.5q45 0 84 11z" />
    <glyph glyph-name="circumflexbelowcmb" unicode="&#x32d;" horiz-adv-x="0" 
d="M-309 -401l269 254h84l261 -254h-129l-174 175h-5l-179 -175h-127z" />
    <glyph glyph-name="brevebelowcmb" unicode="&#x32e;" horiz-adv-x="0" 
d="M186 -150h96q0 -47 -16 -90.5t-48 -82t-88.5 -61.5t-129.5 -23t-131 22.5t-91.5 60.5t-51 82t-17.5 92h102q0 -73 49.5 -122t139.5 -49q89 0 137.5 49t48.5 122z" />
    <glyph glyph-name="tildebelowcmb" unicode="&#x330;" horiz-adv-x="0" 
d="M124 -377q-45 0 -83.5 21.5t-60.5 46.5t-50.5 46.5t-56.5 21.5q-39 0 -60.5 -36.5t-23.5 -85.5h-88q0 89 45 146.5t124 57.5q36 0 67.5 -14t53.5 -33.5t42 -39.5t43 -34t47 -14q41 0 64 35.5t24 86.5h88q0 -84 -46.5 -144.5t-128.5 -60.5z" />
    <glyph glyph-name="macronbelowcmb" unicode="&#x331;" horiz-adv-x="0" 
d="M290 -303h-579v90h579v-90z" />
    <glyph glyph-name="greekquestionmark" unicode="&#x37e;" horiz-adv-x="571" 
d="M164 808q0 49 32.5 82.5t79.5 33.5q50 0 83 -33t33 -83q0 -47 -33.5 -80t-82.5 -33q-47 0 -79.5 33t-32.5 80zM170 -383h-112l130 535h169z" />
    <glyph glyph-name="tonosgreek" unicode="&#x384;" horiz-adv-x="805" 
d="M297 1226l107 341h132l-138 -341h-101z" />
    <glyph glyph-name="dieresistonosgreek" unicode="&#x385;" horiz-adv-x="1104" 
d="M790 1226q-36 0 -63 26t-27 62q0 38 26.5 64t63.5 26q40 0 67.5 -26t27.5 -64q0 -37 -27.5 -62.5t-67.5 -25.5zM294 1226q-38 0 -65 25.5t-27 62.5q0 38 27 64t65 26q39 0 66 -26t27 -64q0 -37 -27.5 -62.5t-65.5 -25.5zM470 1226l42 341h133l-75 -341h-100z" />
    <glyph glyph-name="Alphatonosgreek" unicode="&#x386;" horiz-adv-x="1227" 
d="M197 0h-134l489 1363h127l489 -1363h-135l-149 436h-538zM618 1206h-6l-229 -665h464zM116 1022l107 341h132l-138 -341h-101z" />
    <glyph glyph-name="anoteleia" unicode="&#x387;" horiz-adv-x="596" 
d="M184 927q0 49 32.5 82.5t79.5 33.5q50 0 83.5 -33.5t33.5 -82.5q0 -47 -34 -79.5t-83 -32.5q-47 0 -79.5 32.5t-32.5 79.5z" />
    <glyph glyph-name="Epsilontonosgreek" unicode="&#x388;" horiz-adv-x="1353" 
d="M44 1022l107 341h132l-138 -341h-101zM1216 116v-116h-796v1363h796v-117h-668v-491h632v-115h-632v-524h668z" />
    <glyph glyph-name="Etatonosgreek" unicode="&#x389;" horiz-adv-x="1617" 
d="M44 1022l107 341h132l-138 -341h-101zM1415 0h-127v652h-740v-652h-128v1363h128v-595h740v595h127v-1363z" />
    <glyph glyph-name="Iotatonosgreek" unicode="&#x38a;" horiz-adv-x="762" 
d="M554 0h-127v1363h127v-1363zM44 1022l107 341h132l-138 -341h-101z" />
    <glyph glyph-name="Omicrontonosgreek" unicode="&#x38c;" horiz-adv-x="1500" 
d="M1226 794q0 228 -111 355.5t-294 127.5t-293.5 -127t-110.5 -356v-225q0 -229 110.5 -356t293.5 -127t294 127t111 356v225zM1353 571q0 -280 -142.5 -440.5t-389.5 -160.5q-246 0 -388.5 160.5t-142.5 440.5v221q0 281 142.5 441t388.5 160q247 0 389.5 -160.5
t142.5 -441.5v-220zM44 1022l107 341h132l-138 -341h-101z" />
    <glyph glyph-name="Upsilontonosgreek" unicode="&#x38e;" horiz-adv-x="1457" 
d="M44 1022l107 341h132l-138 -341h-101zM961 0h-127v602l-462 761h147l374 -634h8l374 634h147l-461 -760v-603z" />
    <glyph glyph-name="Omegatonosgreek" unicode="&#x38f;" horiz-adv-x="1545" 
d="M948 0v133q129 39 215.5 186.5t86.5 334.5v137q0 234 -112 360t-295 126q-186 0 -297.5 -127t-111.5 -359v-137q0 -185 86 -333t216 -188v-133h-442v116h277v8q-112 57 -188 199t-76 334v132q0 287 146 445.5t390 158.5q243 0 388.5 -158.5t145.5 -445.5v-132
q0 -191 -77 -334t-187 -199v-8h278v-116h-443zM44 1022l107 341h132l-138 -341h-101z" />
    <glyph glyph-name="iotadieresistonosgreek" unicode="&#x390;" horiz-adv-x="624" 
d="M181 1043h126v-778q0 -97 38.5 -131.5t142.5 -34.5q33 0 93 6v-107q-51 -8 -120 -8q-162 0 -221 61t-59 219v773zM516 1226q-36 0 -63 26t-27 62q0 38 26.5 64t63.5 26q40 0 67.5 -26t27.5 -64q0 -37 -27.5 -62.5t-67.5 -25.5zM20 1226q-38 0 -65 25.5t-27 62.5
q0 38 27 64t65 26q39 0 66 -26t27 -64q0 -37 -27.5 -62.5t-65.5 -25.5zM196 1226l42 341h133l-75 -341h-100z" />
    <glyph glyph-name="Alphagreek" unicode="&#x391;" horiz-adv-x="1223" 
d="M193 0h-134l489 1363h127l489 -1363h-135l-149 436h-538zM614 1206h-6l-229 -665h464z" />
    <glyph glyph-name="Betagreek" unicode="&#x392;" horiz-adv-x="1262" 
d="M201 0v1363h478q177 0 280 -90t103 -245q0 -122 -62.5 -200t-160.5 -107v-6q136 -18 218.5 -105.5t82.5 -233.5q0 -174 -123 -275t-342 -101h-474zM329 1246v-487h265q338 0 338 249q0 114 -71.5 176t-200.5 62h-331zM329 643v-527h291q200 0 294.5 63t94.5 194
q0 130 -86.5 200t-233.5 70h-360z" />
    <glyph glyph-name="Gammagreek" unicode="&#x393;" horiz-adv-x="1045" 
d="M329 0h-128v1363h764v-117h-636v-1246z" />
    <glyph glyph-name="Deltagreek" unicode="&#x394;" horiz-adv-x="1251" 
d="M1166 87v-87h-1082v86l479 1277h126zM626 1199h-5l-400 -1093h804z" />
    <glyph glyph-name="Epsilongreek" unicode="&#x395;" horiz-adv-x="1185" 
d="M997 116v-116h-796v1363h796v-117h-668v-491h632v-115h-632v-524h668z" />
    <glyph glyph-name="Zetagreek" unicode="&#x396;" horiz-adv-x="1195" 
d="M113 0v93l786 1147v8h-759v115h918v-93l-783 -1147v-8h794v-115h-956z" />
    <glyph glyph-name="Etagreek" unicode="&#x397;" horiz-adv-x="1398" 
d="M1196 0h-127v652h-740v-652h-128v1363h128v-595h740v595h127v-1363z" />
    <glyph glyph-name="Thetagreek" unicode="&#x398;" horiz-adv-x="1371" 
d="M274 789v-225q0 -230 109.5 -354t301.5 -124t302 124t110 354v225q0 231 -111 359.5t-301 128.5t-300.5 -128.5t-110.5 -359.5zM147 566v221q0 283 142.5 444.5t396.5 161.5t396 -161.5t142 -445.5v-220q0 -281 -142.5 -438.5t-398.5 -157.5q-255 0 -395.5 157
t-140.5 439zM951 630h-532v115h532v-115z" />
    <glyph glyph-name="Iotagreek" unicode="&#x399;" horiz-adv-x="543" 
d="M335 0h-127v1363h127v-1363z" />
    <glyph glyph-name="Kappagreek" unicode="&#x39a;" horiz-adv-x="1197" 
d="M1126 1363l-531 -590l561 -773h-165l-491 685l-171 -184v-501h-128v1363h128v-693h5l637 693h155z" />
    <glyph glyph-name="Lambdagreek" unicode="&#x39b;" horiz-adv-x="1183" 
d="M987 0l-395 1191h-6l-396 -1191h-131l469 1363h127l469 -1363h-137z" />
    <glyph glyph-name="Mugreek" unicode="&#x39c;" horiz-adv-x="1626" 
d="M321 0h-116v1363h123l483 -1122h5l482 1122h123v-1363h-117v1084h-7l-426 -979h-116l-427 979h-7v-1084z" />
    <glyph glyph-name="Nugreek" unicode="&#x39d;" horiz-adv-x="1398" 
d="M329 0h-128v1363h129l732 -1143h7v1143h127v-1363h-128l-733 1143h-6v-1143z" />
    <glyph glyph-name="Xigreek" unicode="&#x39e;" horiz-adv-x="1172" 
d="M138 1243v120h896v-120h-896zM220 636v120h732v-120h-732zM138 0v120h896v-120h-896z" />
    <glyph glyph-name="Omicrongreek" unicode="&#x39f;" horiz-adv-x="1357" 
d="M1083 794q0 228 -111 355.5t-294 127.5t-293.5 -127t-110.5 -356v-225q0 -229 110.5 -356t293.5 -127t294 127t111 356v225zM1210 571q0 -280 -142.5 -440.5t-389.5 -160.5q-246 0 -388.5 160.5t-142.5 440.5v221q0 281 142.5 441t388.5 160q247 0 389.5 -160.5
t142.5 -441.5v-220z" />
    <glyph glyph-name="Pigreek" unicode="&#x3a0;" horiz-adv-x="1378" 
d="M329 1247v-1247h-128v1363h975v-1363h-127v1247h-720z" />
    <glyph glyph-name="Rhogreek" unicode="&#x3a1;" horiz-adv-x="1184" 
d="M670 1363q196 0 311.5 -112.5t115.5 -299.5t-115.5 -299.5t-311.5 -112.5h-341v-539h-128v1363h469zM966 951q0 140 -79 217.5t-222 77.5h-336v-591h336q143 0 222 78t79 218z" />
    <glyph glyph-name="Sigmagreek" unicode="&#x3a3;" horiz-adv-x="1168" 
d="M1043 0h-930v93l420 593l-406 584v93h912v-115h-746v-8l377 -538v-20l-395 -559v-8h768v-115z" />
    <glyph glyph-name="Taugreek" unicode="&#x3a4;" horiz-adv-x="1084" 
d="M606 0h-128v1247h-434v116h996v-116h-434v-1247z" />
    <glyph glyph-name="Upsilongreek" unicode="&#x3a5;" horiz-adv-x="1120" 
d="M624 0h-127v602l-462 761h147l374 -634h8l374 634h147l-461 -760v-603z" />
    <glyph glyph-name="Phigreek" unicode="&#x3a6;" horiz-adv-x="1576" 
d="M851 -55h-123v117q-273 4 -430.5 161.5t-157.5 414.5v82q0 164 67 291.5t201.5 203.5t319.5 79v118h123v-118q274 -5 431 -162.5t157 -411.5v-82q0 -257 -158 -414.5t-430 -161.5v-117zM728 175v1006q-217 -5 -340.5 -129.5t-123.5 -346.5v-53q0 -226 124.5 -349
t339.5 -128zM851 175q215 5 339.5 128t124.5 348v54q0 222 -124 346.5t-340 129.5v-1006z" />
    <glyph glyph-name="Chigreek" unicode="&#x3a7;" horiz-adv-x="1167" 
d="M1119 1363l-462 -687l454 -676h-155l-376 574h-7l-378 -574h-146l456 685l-452 678h153l380 -575h8l377 575h148z" />
    <glyph glyph-name="Psigreek" unicode="&#x3a8;" horiz-adv-x="1492" 
d="M682 0v325q-499 11 -499 484v554h127v-550q0 -198 89.5 -284t282.5 -89v923h128v-923q193 3 282.5 89t89.5 284v550h127v-554q0 -244 -127 -361t-372 -123v-325h-128z" />
    <glyph glyph-name="Omegagreek" unicode="&#x3a9;" horiz-adv-x="1405" 
d="M808 0v133q129 39 215.5 186.5t86.5 334.5v137q0 234 -112 360t-295 126q-186 0 -297.5 -127t-111.5 -359v-137q0 -185 86 -333t216 -188v-133h-442v116h277v8q-112 57 -188 199t-76 334v132q0 287 146 445.5t390 158.5q243 0 388.5 -158.5t145.5 -445.5v-132
q0 -191 -77 -334t-187 -199v-8h278v-116h-443z" />
    <glyph glyph-name="Iotadieresisgreek" unicode="&#x3aa;" horiz-adv-x="507" 
d="M317 0h-127v1363h127v-1363zM415 1490q-37 0 -63 25t-26 62t26 62t63 25q39 0 65.5 -25t26.5 -62t-26.5 -62t-65.5 -25zM90 1490q-38 0 -63.5 25t-25.5 62t25.5 62t63.5 25q39 0 65 -25t26 -62t-26 -62t-65 -25z" />
    <glyph glyph-name="Upsilondieresisgreek" unicode="&#x3ab;" horiz-adv-x="1120" 
d="M624 0h-127v602l-462 761h147l374 -634h8l374 634h147l-461 -760v-603zM721 1490q-37 0 -63 25t-26 62t26 62t63 25q39 0 65.5 -25t26.5 -62t-26.5 -62t-65.5 -25zM396 1490q-38 0 -63.5 25t-25.5 62t25.5 62t63.5 25q39 0 65 -25t26 -62t-26 -62t-65 -25z" />
    <glyph glyph-name="alphatonosgreek" unicode="&#x3ac;" horiz-adv-x="1223" 
d="M531 -17q-176 0 -284 119.5t-108 318.5v200q0 198 110.5 318.5t284.5 120.5q122 0 203.5 -51.5t114.5 -137.5h7v172h120v-805q0 -79 20.5 -109t74.5 -30q29 0 57 5v-107q-30 -7 -76 -7q-184 0 -195 180l-1 11h-7q-32 -88 -117.5 -143t-203.5 -55zM556 94q138 0 218 96
t80 249v178q0 141 -83 235.5t-218 94.5q-130 0 -209 -94.5t-79 -257.5v-149q0 -165 80 -258.5t211 -93.5zM488 1226l107 341h132l-138 -341h-101z" />
    <glyph glyph-name="epsilontonosgreek" unicode="&#x3ad;" horiz-adv-x="1111" 
d="M541 1226l107 341h132l-138 -341h-101zM556 -18q-189 0 -295 78.5t-106 218.5q0 90 47 155t135 90v6q-79 24 -120.5 83t-41.5 146q0 141 102 220.5t291 79.5q381 0 426 -302h-125q-19 98 -94.5 144t-208.5 46t-200 -51.5t-67 -139.5q0 -170 248 -170h149v-113h-157
q-130 0 -194 -49.5t-64 -134.5q0 -93 72.5 -144t204.5 -51q138 0 221 56.5t106 154.5h125q-32 -154 -151.5 -238.5t-302.5 -84.5z" />
    <glyph glyph-name="etatonosgreek" unicode="&#x3ae;" horiz-adv-x="1251" 
d="M265 0v799q0 81 -22.5 113t-80.5 32q-19 0 -49 -4v106q28 7 74 7q99 0 146.5 -48.5t54.5 -145.5l2 -18h7q33 105 114.5 162t202.5 57q169 0 263 -95.5t94 -256.5v-1062h-125v1023q0 130 -66 204.5t-193 74.5q-131 0 -213.5 -96t-82.5 -250v-602h-126zM477 1226l107 341
h132l-138 -341h-101z" />
    <glyph glyph-name="iotatonosgreek" unicode="&#x3af;" horiz-adv-x="624" 
d="M181 1043h126v-778q0 -97 38.5 -131.5t142.5 -34.5q33 0 93 6v-107q-51 -8 -120 -8q-162 0 -221 61t-59 219v773zM194 1226l107 341h132l-138 -341h-101z" />
    <glyph glyph-name="upsilondieresistonosgreek" unicode="&#x3b0;" horiz-adv-x="1138" 
d="M798 1226q-36 0 -63 26t-27 62q0 38 26.5 64t63.5 26q40 0 67.5 -26t27.5 -64q0 -37 -27.5 -62.5t-67.5 -25.5zM302 1226q-38 0 -65 25.5t-27 62.5q0 38 27 64t65 26q39 0 66 -26t27 -64q0 -37 -27.5 -62.5t-65.5 -25.5zM478 1226l42 341h133l-75 -341h-100zM557 -17
q-182 0 -281 101t-99 300v659h126v-644q0 -154 63 -229t194 -75q141 0 218.5 105t77.5 309v18q0 284 -97 516h130q42 -89 67.5 -231.5t25.5 -280.5v-16q0 -254 -110 -393t-315 -139z" />
    <glyph glyph-name="alphagreek" unicode="&#x3b1;" horiz-adv-x="1223" 
d="M531 -17q-176 0 -284 119.5t-108 318.5v200q0 198 110.5 318.5t284.5 120.5q122 0 203.5 -51.5t114.5 -137.5h7v172h120v-805q0 -79 20.5 -109t74.5 -30q29 0 57 5v-107q-30 -7 -76 -7q-184 0 -195 180l-1 11h-7q-32 -88 -117.5 -143t-203.5 -55zM556 94q138 0 218 96
t80 249v178q0 141 -83 235.5t-218 94.5q-130 0 -209 -94.5t-79 -257.5v-149q0 -165 80 -258.5t211 -93.5z" />
    <glyph glyph-name="betagreek" unicode="&#x3b2;" horiz-adv-x="1196" 
d="M188 -354v1393q0 217 107 329.5t293 112.5q178 0 279.5 -97.5t101.5 -262.5q0 -115 -50.5 -195t-142.5 -121v-7q136 -30 210.5 -128.5t74.5 -258.5q0 -189 -114 -308.5t-302 -119.5q-116 0 -201.5 48t-123.5 138h-6v-523h-126zM638 95q133 0 215 86.5t82 225.5
q0 157 -96.5 242.5t-283.5 85.5h-73v113h88q276 0 276 265q0 118 -69 187t-187 69q-276 0 -276 -355v-597q0 -142 88.5 -232t235.5 -90z" />
    <glyph glyph-name="gammagreek" unicode="&#x3b3;" horiz-adv-x="1057" 
d="M439 -354v325l-369 1072h132l307 -934h7q289 414 289 749q0 108 -22 185h127q21 -68 21 -190q0 -189 -85.5 -397t-281.5 -475v-335h-125z" />
    <glyph glyph-name="deltagreek" unicode="&#x3b4;" horiz-adv-x="1136" 
d="M562 -17q-197 0 -315 125.5t-118 355.5v50q0 191 97.5 313t262.5 146v6q-103 48 -149.5 109.5t-46.5 143.5q0 112 87 180.5t233 68.5q191 0 296 -79v-112q-120 79 -302 79q-92 0 -142 -36.5t-50 -102.5q0 -60 46 -106t170 -102q202 -92 285.5 -209.5t83.5 -303.5v-42
q0 -229 -117 -356.5t-321 -127.5zM565 96q146 0 229 97t83 277v36q0 180 -86 275.5t-224 95.5q-146 0 -230.5 -94.5t-84.5 -279.5v-35q0 -182 84.5 -277t228.5 -95z" />
    <glyph glyph-name="epsilongreek" unicode="&#x3b5;" horiz-adv-x="1111" 
d="M556 -17q-189 0 -295 78.5t-106 218.5q0 90 47 155t135 90v6q-79 24 -120.5 83t-41.5 146q0 141 102 220.5t291 79.5q381 0 426 -302h-125q-19 98 -94.5 144t-208.5 46t-200 -51.5t-67 -139.5q0 -170 248 -170h149v-113h-157q-130 0 -194 -49.5t-64 -134.5
q0 -93 72.5 -144t204.5 -51q138 0 221 56.5t106 154.5h125q-32 -154 -151.5 -238.5t-302.5 -84.5z" />
    <glyph glyph-name="zetagreek" unicode="&#x3b6;" horiz-adv-x="911" 
d="M669 -328q61 90 61 167q0 70 -43 114.5t-169 102.5q-210 96 -300 214.5t-90 294.5q0 220 137.5 429t384.5 357h-463v113h662v-113q-300 -181 -447.5 -374.5t-147.5 -411.5q0 -146 64 -228t242 -167q174 -84 234 -146t60 -157q0 -117 -91 -245z" />
    <glyph glyph-name="etagreek" unicode="&#x3b7;" horiz-adv-x="1251" 
d="M265 0v799q0 81 -22.5 113t-80.5 32q-19 0 -49 -4v106q28 7 74 7q99 0 146.5 -48.5t54.5 -145.5l2 -18h7q33 105 114.5 162t202.5 57q169 0 263 -95.5t94 -256.5v-1062h-125v1023q0 130 -66 204.5t-193 74.5q-131 0 -213.5 -96t-82.5 -250v-602h-126z" />
    <glyph glyph-name="thetagreek" unicode="&#x3b8;" horiz-adv-x="1179" 
d="M590 -17q-221 0 -333.5 164.5t-112.5 520.5v142q0 671 445 671q446 0 446 -671v-142q0 -356 -112.5 -520.5t-332.5 -164.5zM590 95q162 0 239.5 135t77.5 446h-635q0 -210 36 -339t105 -185.5t177 -56.5zM907 789q-1 217 -37.5 345.5t-103.5 181.5t-176 53t-176.5 -53
t-103.5 -181.5t-37 -345.5h634z" />
    <glyph glyph-name="iotagreek" unicode="&#x3b9;" horiz-adv-x="624" 
d="M181 1043h126v-778q0 -97 38.5 -131.5t142.5 -34.5q33 0 93 6v-107q-51 -8 -120 -8q-162 0 -221 61t-59 219v773z" />
    <glyph glyph-name="kappagreek" unicode="&#x3ba;" horiz-adv-x="1121" 
d="M189 0v1043h122v-592h7l383 460q69 83 116.5 112.5t114.5 29.5q37 0 71 -7v-106q-25 4 -56 4q-44 0 -73 -18.5t-78 -76.5l-178 -214l419 -635h-128l-365 546l-233 -277v-269h-122z" />
    <glyph glyph-name="lambdagreek" unicode="&#x3bb;" horiz-adv-x="1120" 
d="M78 0l400 1002l-48 132q-55 149 -95 193.5t-115 44.5q-26 0 -50 -4v106q30 7 70 7q76 0 124 -24.5t90 -92.5t89 -201l343 -975q18 -51 43 -70t72 -19q17 0 47 5v-107q-32 -7 -71 -7q-84 0 -126 31.5t-73 119.5l-234 684h-6l-322 -825h-138z" />
    <glyph glyph-name="mugreek" unicode="&#x3bc;" horiz-adv-x="1241" 
d="M188 -354v1397h126v-674q0 -126 67 -200t186 -74q134 0 216.5 86t82.5 212v650h126v-805q0 -81 20.5 -110t76.5 -29q28 0 55 5v-107q-32 -7 -75 -7q-183 0 -196 175l-2 16h-7q-37 -92 -113 -145t-182 -53q-173 0 -249 130h-6v-467h-126z" />
    <glyph glyph-name="nugreek" unicode="&#x3bd;" horiz-adv-x="1057" 
d="M429 0l-359 1043h132l307 -934h7q289 412 289 749q0 108 -22 185h127q21 -68 21 -190q0 -187 -82.5 -389.5t-270.5 -463.5h-149z" />
    <glyph glyph-name="xigreek" unicode="&#x3be;" horiz-adv-x="947" 
d="M684 -328q61 89 61 168q0 66 -43.5 110.5t-172.5 104.5q-225 103 -310.5 192.5t-85.5 220.5q0 116 70 200t204 110v7q-216 73 -216 277q0 112 63 183.5t178 98.5v7h-240v113h669v-95l-90 -9q-460 -50 -460 -285q0 -117 84 -174t269 -57h128v-106h-132
q-196 0 -298.5 -68.5t-102.5 -186.5q0 -70 25.5 -116t93.5 -93t209 -113q163 -78 222.5 -141t59.5 -154q0 -120 -92 -244z" />
    <glyph glyph-name="omicrongreek" unicode="&#x3bf;" horiz-adv-x="1134" 
d="M567 1060q188 0 309.5 -121.5t121.5 -334.5v-165q0 -214 -121 -335t-310 -121q-191 0 -311 120t-120 336v165q0 210 121.5 333t309.5 123zM568 948q-137 0 -221.5 -97t-84.5 -263v-136q0 -167 82.5 -262t223.5 -95q140 0 222 94.5t82 262.5v136q0 166 -83.5 263
t-220.5 97z" />
    <glyph glyph-name="pigreek" unicode="&#x3c0;" horiz-adv-x="1367" 
d="M323 0v930h-233v113h1168v-113h-235v-684q0 -79 23.5 -113t83.5 -34q23 0 58 5v-105q-36 -8 -86 -8q-110 0 -157 60t-47 190v689h-449v-930h-126z" />
    <glyph glyph-name="rhogreek" unicode="&#x3c1;" horiz-adv-x="1157" 
d="M173 -354v954q0 213 112.5 336.5t311.5 123.5q197 0 310 -118.5t113 -322.5v-195q0 -203 -111 -322t-291 -119q-119 0 -198.5 51.5t-113.5 137.5h-7v-526h-126zM603 95q130 0 210.5 93t80.5 266v135q0 171 -81 265t-215 94q-142 0 -220.5 -93.5t-78.5 -257.5v-178
q0 -139 85 -231.5t219 -92.5z" />
    <glyph glyph-name="sigmafinalgreek" unicode="&#x3c2;" horiz-adv-x="1068" 
d="M670 -328q61 90 61 167q0 69 -43 114t-169 103q-212 97 -297.5 210.5t-85.5 296.5v21q0 228 119 352t309 124q166 0 273.5 -87.5t112.5 -221.5h-125q-16 91 -83 142.5t-177 51.5q-143 0 -223 -94t-80 -270v-13q0 -151 61 -232t238 -166q174 -84 234 -146t60 -157
q0 -117 -91 -245z" />
    <glyph glyph-name="sigmagreek" unicode="&#x3c3;" horiz-adv-x="1222" 
d="M566 -17q-198 0 -314 125t-116 349v112q0 223 120.5 348.5t335.5 125.5h539v-113h-280v-7q154 -121 154 -379v-96q0 -220 -120.5 -342.5t-318.5 -122.5zM568 95q150 0 232 95t82 266v107q0 167 -81.5 266.5t-224.5 99.5q-145 0 -229.5 -98t-84.5 -265v-106
q0 -170 82 -267.5t224 -97.5z" />
    <glyph glyph-name="taugreek" unicode="&#x3c4;" horiz-adv-x="1031" 
d="M698 -10q-84 0 -138 15t-85.5 50.5t-43.5 86.5t-12 130v658h-345v113h856v-113h-385v-666q0 -96 39 -130.5t142 -34.5q42 0 93 6v-107q-43 -8 -121 -8z" />
    <glyph glyph-name="upsilongreek" unicode="&#x3c5;" horiz-adv-x="1138" 
d="M557 -17q-182 0 -281 101t-99 300v659h126v-644q0 -154 63 -229t194 -75q141 0 218.5 105t77.5 309v18q0 284 -97 516h130q42 -89 67.5 -231.5t25.5 -280.5v-16q0 -254 -110 -393t-315 -139z" />
    <glyph glyph-name="phigreek" unicode="&#x3c6;" horiz-adv-x="1407" 
d="M640 -354v337q-250 7 -382 141.5t-132 368.5v57q0 240 135 371.5t379 138.5v242h126v-242q246 -7 380.5 -139.5t134.5 -370.5v-57q0 -233 -131.5 -368t-383.5 -142v-337h-126zM766 92q188 2 289.5 110t101.5 313v14q0 201 -99 310.5t-292 111.5v-859zM640 92v859
q-193 -2 -291.5 -110.5t-98.5 -312.5v-14q0 -205 100.5 -312.5t289.5 -109.5z" />
    <glyph glyph-name="chigreek" unicode="&#x3c7;" horiz-adv-x="1096" 
d="M94 -354l376 698l-232 480q-34 72 -65.5 96t-84.5 24q-14 0 -44 -4l-1 106q29 7 74 7q78 0 124 -34.5t90 -128.5l205 -428h8l297 581h138l-376 -704l237 -489q28 -58 59 -81.5t76 -23.5q26 0 51 5v-107q-31 -7 -75 -7q-72 0 -119 34.5t-88 122.5l-207 429h-7l-298 -576
h-138z" />
    <glyph glyph-name="psigreek" unicode="&#x3c8;" horiz-adv-x="1414" 
d="M637 -354v337q-230 5 -345 107t-115 323v630h126v-632q0 -161 80.5 -238.5t253.5 -77.5v1207h122v-1207q187 5 279.5 104.5t92.5 318.5v17q0 275 -96 508h130q39 -85 65.5 -227.5t26.5 -273.5v-17q0 -267 -126 -403.5t-372 -138.5v-337h-122z" />
    <glyph glyph-name="omegagreek" unicode="&#x3c9;" horiz-adv-x="1538" 
d="M1046 -17q-101 0 -173 54t-101 160h-6q-29 -106 -101 -160t-172 -54q-166 0 -253 112t-87 358v17q0 167 48 326.5t123 246.5h134q-84 -108 -131.5 -258.5t-47.5 -310.5v-41q0 -180 55 -259t159 -79q98 0 155.5 72t57.5 211v354h126v-354q0 -139 57.5 -211t155.5 -72
q104 0 159 79t55 259v40q0 160 -47.5 311t-131.5 259h134q75 -87 123 -247t48 -327v-17q0 -247 -87.5 -358t-251.5 -111z" />
    <glyph glyph-name="iotadieresisgreek" unicode="&#x3ca;" horiz-adv-x="624" 
d="M181 1043h126v-778q0 -97 38.5 -131.5t142.5 -34.5q33 0 93 6v-107q-51 -8 -120 -8q-162 0 -221 61t-59 219v773zM408 1226q-36 0 -63 26t-27 62q0 38 26.5 64t63.5 26q40 0 67.5 -26t27.5 -64q0 -37 -27.5 -62.5t-67.5 -25.5zM79 1226q-38 0 -65 25.5t-27 62.5
q0 38 27 64t65 26q39 0 66 -26t27 -64q0 -37 -27.5 -62.5t-65.5 -25.5z" />
    <glyph glyph-name="upsilondieresisgreek" unicode="&#x3cb;" horiz-adv-x="1138" 
d="M704 1226q-36 0 -63 26t-27 62q0 38 26.5 64t63.5 26q40 0 67.5 -26t27.5 -64q0 -37 -27.5 -62.5t-67.5 -25.5zM375 1226q-38 0 -65 25.5t-27 62.5q0 38 27 64t65 26q39 0 66 -26t27 -64q0 -37 -27.5 -62.5t-65.5 -25.5zM557 -17q-182 0 -281 101t-99 300v659h126v-644
q0 -154 63 -229t194 -75q141 0 218.5 105t77.5 309v18q0 284 -97 516h130q42 -89 67.5 -231.5t25.5 -280.5v-16q0 -254 -110 -393t-315 -139z" />
    <glyph glyph-name="omicrontonosgreek" unicode="&#x3cc;" horiz-adv-x="1134" 
d="M567 1060q188 0 309.5 -121.5t121.5 -334.5v-165q0 -214 -121 -335t-310 -121q-191 0 -311 120t-120 336v165q0 210 121.5 333t309.5 123zM568 948q-137 0 -221.5 -97t-84.5 -263v-136q0 -167 82.5 -262t223.5 -95q140 0 222 94.5t82 262.5v136q0 166 -83.5 263
t-220.5 97zM515 1226l107 341h132l-138 -341h-101z" />
    <glyph glyph-name="upsilontonosgreek" unicode="&#x3cd;" horiz-adv-x="1138" 
d="M487 1226l107 341h132l-138 -341h-101zM557 -17q-182 0 -281 101t-99 300v659h126v-644q0 -154 63 -229t194 -75q141 0 218.5 105t77.5 309v18q0 284 -97 516h130q42 -89 67.5 -231.5t25.5 -280.5v-16q0 -254 -110 -393t-315 -139z" />
    <glyph glyph-name="omegatonosgreek" unicode="&#x3ce;" horiz-adv-x="1538" 
d="M1046 -17q-101 0 -173 54t-101 160h-6q-29 -106 -101 -160t-172 -54q-166 0 -253 112t-87 358v17q0 167 48 326.5t123 246.5h134q-84 -108 -131.5 -258.5t-47.5 -310.5v-41q0 -180 55 -259t159 -79q98 0 155.5 72t57.5 211v354h126v-354q0 -139 57.5 -211t155.5 -72
q104 0 159 79t55 259v40q0 160 -47.5 311t-131.5 259h134q75 -87 123 -247t48 -327v-17q0 -247 -87.5 -358t-251.5 -111zM718 1226l107 341h132l-138 -341h-101z" />
    <glyph glyph-name="Iocyrillic" unicode="&#x401;" horiz-adv-x="1155" 
d="M768 1490q-37 0 -63 25t-26 62t26 62t63 25q39 0 65.5 -25t26.5 -62t-26.5 -62t-65.5 -25zM443 1490q-38 0 -63.5 25t-25.5 62t25.5 62t63.5 25q39 0 65 -25t26 -62t-26 -62t-65 -25zM1007 116v-116h-796v1363h796v-117h-668v-491h632v-115h-632v-524h668z" />
    <glyph glyph-name="Djecyrillic" unicode="&#x402;" horiz-adv-x="1518" 
d="M619 709q52 46 142 78t185 32q209 0 324.5 -112t115.5 -303q0 -188 -112 -301t-294 -113q-68 0 -100 10v112q30 -8 98 -8q124 0 202.5 82t78.5 216q0 144 -81 224.5t-233 80.5q-103 0 -191.5 -35t-141.5 -88v-584h-127v1247h-434v116h996v-116h-435v-538h7z" />
    <glyph glyph-name="Gjecyrillic" unicode="&#x403;" horiz-adv-x="1070" 
d="M503 1514l263 322h136l-293 -322h-106zM339 0h-128v1363h781v-117h-653v-1246z" />
    <glyph glyph-name="Ecyrillic" unicode="&#x404;" horiz-adv-x="1313" 
d="M1049 394h127v-1q0 -75 -31 -148.5t-90 -135.5t-156 -100.5t-217 -38.5q-251 0 -388 158.5t-137 440.5v219q0 277 139.5 441t385.5 164q118 0 214 -39.5t154.5 -104t90 -141t31.5 -155.5v-1h-126q0 58 -24 115t-68.5 104t-115.5 76.5t-156 29.5q-187 0 -292.5 -131
t-105.5 -357v-32h591v-113h-591v-77q0 -228 105 -354.5t298 -126.5q167 0 264.5 89t97.5 219z" />
    <glyph glyph-name="Dzecyrillic" unicode="&#x405;" horiz-adv-x="1190" 
d="M112 357h129q10 -114 105 -192t258 -78q157 0 251 73.5t94 194.5q0 99 -63 157.5t-200 94.5l-218 57q-152 41 -232.5 129.5t-80.5 221.5q0 167 126 274t328 107t325.5 -104t126.5 -265h-129q-8 111 -93 181.5t-233 70.5q-145 0 -233 -72t-88 -188q0 -172 222 -231
l212 -58q187 -51 273.5 -136t86.5 -230q0 -180 -134 -287t-356 -107q-217 0 -345 111.5t-132 275.5z" />
    <glyph glyph-name="Icyrillic" unicode="&#x406;" horiz-adv-x="550" 
d="M339 0h-127v1363h127v-1363z" />
    <glyph glyph-name="Yicyrillic" unicode="&#x407;" horiz-adv-x="550" 
d="M339 0h-127v1363h127v-1363zM437 1490q-37 0 -63 25t-26 62t26 62t63 25q39 0 65.5 -25t26.5 -62t-26.5 -62t-65.5 -25zM112 1490q-38 0 -63.5 25t-25.5 62t25.5 62t63.5 25q39 0 65 -25t26 -62t-26 -62t-65 -25z" />
    <glyph glyph-name="Jecyrillic" unicode="&#x408;" horiz-adv-x="994" 
d="M64 299h125q3 -85 65 -146.5t168 -61.5q119 0 185 70t66 204v998h127v-985q0 -194 -100.5 -298.5t-277.5 -104.5q-168 0 -263 93.5t-95 230.5z" />
    <glyph glyph-name="Ljecyrillic" unicode="&#x409;" horiz-adv-x="1974" 
d="M109 -9q-41 0 -57 9v121q16 -8 52 -8q114 0 154.5 151.5t48.5 516.5l22 582h780v-526h341q195 0 311 -113.5t116 -302.5q0 -192 -116 -306.5t-311 -114.5h-469v1247h-526l-23 -477q-4 -98 -7.5 -166t-10 -144t-15 -126.5t-21 -104t-29.5 -87.5t-40 -65.5t-52 -48.5
t-66 -27t-82 -10zM1445 721h-336v-605h336q143 0 222 79.5t79 222.5t-79 223t-222 80z" />
    <glyph glyph-name="Njecyrillic" unicode="&#x40a;" horiz-adv-x="2072" 
d="M1079 802v561h127v-561h341q197 0 312 -106.5t115 -292.5q0 -188 -115 -295.5t-312 -107.5h-468v687h-740v-687h-128v1363h128v-561h740zM1542 686h-336v-570h336q145 0 223 72.5t78 212.5t-78 212.5t-223 72.5z" />
    <glyph glyph-name="Tshecyrillic" unicode="&#x40b;" horiz-adv-x="1558" 
d="M619 709q53 48 147 79t186 31q203 0 313.5 -114t110.5 -322v-383h-127v383q0 158 -76 241t-222 83q-94 0 -189.5 -34.5t-149.5 -88.5v-584h-127v1247h-434v116h996v-116h-435v-538h7z" />
    <glyph glyph-name="Kjecyrillic" unicode="&#x40c;" horiz-adv-x="1226" 
d="M543 1514l263 322h136l-293 -322h-106zM1017 0l-592 647h-77v-647h-128v1363h128v-601h77l562 601h164l-612 -654l647 -709h-169z" />
    <glyph glyph-name="Ushortcyrillic" unicode="&#x40e;" horiz-adv-x="1130" 
d="M784 1754h97q0 -108 -77.5 -180.5t-222.5 -72.5q-146 0 -224 72t-78 181h97q0 -79 53 -125.5t152 -46.5t151 46.5t52 125.5zM952 1363h133l-438 -1016q-81 -186 -167.5 -271t-215.5 -85q-45 0 -78 9v123q32 -9 78 -9q79 0 137 54.5t115 174.5l-465 1020h137l389 -870h6z
" />
    <glyph glyph-name="Dzhecyrillic" unicode="&#x40f;" horiz-adv-x="1408" 
d="M1069 1363h127v-1363h-434v-286h-116v286h-435v1363h128v-1248h730v1248z" />
    <glyph glyph-name="Acyrillic" unicode="&#x410;" horiz-adv-x="1243" 
d="M203 0h-134l489 1363h127l489 -1363h-135l-149 436h-538zM624 1206h-6l-229 -665h464z" />
    <glyph glyph-name="Becyrillic" unicode="&#x411;" horiz-adv-x="1231" 
d="M1100 404q0 -184 -116 -294t-311 -110h-462v1363h788v-117h-660v-443h334q195 0 311 -108.5t116 -290.5zM339 116h329q143 0 222 75.5t79 210.5t-79 210t-222 75h-329v-571z" />
    <glyph glyph-name="Vecyrillic" unicode="&#x412;" horiz-adv-x="1282" 
d="M211 0v1363h478q177 0 280 -90t103 -245q0 -122 -62.5 -200t-160.5 -107v-6q136 -18 218.5 -105.5t82.5 -233.5q0 -174 -123 -275t-342 -101h-474zM339 1246v-487h265q338 0 338 249q0 114 -71.5 176t-200.5 62h-331zM339 643v-527h291q200 0 294.5 63t94.5 194
q0 130 -86.5 200t-233.5 70h-360z" />
    <glyph glyph-name="Gecyrillic" unicode="&#x413;" horiz-adv-x="1070" 
d="M339 0h-128v1363h781v-117h-653v-1246z" />
    <glyph glyph-name="Decyrillic" unicode="&#x414;" horiz-adv-x="1406" 
d="M1027 115v1132h-576l-11 -339q-12 -381 -33.5 -546t-87.5 -240v-7h708zM162 -286h-115v401h109q93 57 120.5 211t37.5 591l11 446h829v-1248h180v-401h-116v286h-1056v-286z" />
    <glyph glyph-name="Iecyrillic" unicode="&#x415;" horiz-adv-x="1155" 
d="M1007 116v-116h-796v1363h796v-117h-668v-491h632v-115h-632v-524h668z" />
    <glyph glyph-name="Zhecyrillic" unicode="&#x416;" horiz-adv-x="1799" 
d="M1150 708l609 -708h-167l-554 647h-76v-647h-127v647h-76l-554 -647h-165l607 705l-577 658h166l523 -601h76v601h127v-601h76l524 601h162z" />
    <glyph glyph-name="Zecyrillic" unicode="&#x417;" horiz-adv-x="1201" 
d="M418 647v112h174q134 0 216 73t82 196q0 111 -81.5 181.5t-213.5 70.5q-138 0 -222 -68.5t-90 -160.5h-124q2 62 29.5 121.5t79.5 109.5t137 80.5t190 30.5q198 0 311.5 -102t113.5 -255q0 -133 -75.5 -218t-189.5 -103v-8q135 -14 224 -104.5t89 -232.5
q0 -179 -130 -290t-341 -111q-209 0 -335 100t-133 250h123q7 -100 102.5 -168.5t244.5 -68.5q157 0 248 77.5t91 208.5q0 137 -91.5 208t-256.5 71h-172z" />
    <glyph glyph-name="Iicyrillic" unicode="&#x418;" horiz-adv-x="1421" 
d="M1082 0v1150h-6l-744 -1150h-121v1363h128v-1150h7l743 1150h120v-1363h-127z" />
    <glyph glyph-name="Iishortcyrillic" unicode="&#x419;" horiz-adv-x="1421" 
d="M410 1752h97q0 -79 53 -125.5t152 -46.5t151 46.5t52 125.5h97q0 -108 -77.5 -180.5t-222.5 -72.5q-146 0 -224 72t-78 181zM1082 0v1150h-6l-744 -1150h-121v1363h128v-1150h7l743 1150h120v-1363h-127z" />
    <glyph glyph-name="Kacyrillic" unicode="&#x41a;" horiz-adv-x="1217" 
d="M1008 0l-592 647h-77v-647h-128v1363h128v-601h77l562 601h164l-612 -654l647 -709h-169z" />
    <glyph glyph-name="Elcyrillic" unicode="&#x41b;" horiz-adv-x="1337" 
d="M315 920l9 443h802v-1363h-128v1247h-550l-9 -336q-3 -108 -5.5 -182.5t-7 -159.5t-11 -140.5t-16 -118t-22 -101t-30 -78.5t-40 -63t-51 -42t-63.5 -27t-78 -8q-14 0 -28.5 2t-21.5 5l-7 2v120q21 -9 51 -9q32 0 57.5 11t45.5 37t35 59t26 87t18 111t12 140.5t7.5 166.5
t4.5 197z" />
    <glyph glyph-name="Emcyrillic" unicode="&#x41c;" horiz-adv-x="1646" 
d="M331 0h-116v1363h123l483 -1122h5l482 1122h123v-1363h-117v1084h-7l-426 -979h-116l-427 979h-7v-1084z" />
    <glyph glyph-name="Encyrillic" unicode="&#x41d;" horiz-adv-x="1418" 
d="M1206 0h-127v652h-740v-652h-128v1363h128v-595h740v595h127v-1363z" />
    <glyph glyph-name="Ocyrillic" unicode="&#x41e;" horiz-adv-x="1377" 
d="M1093 794q0 228 -111 355.5t-294 127.5t-293.5 -127t-110.5 -356v-225q0 -229 110.5 -356t293.5 -127t294 127t111 356v225zM1220 571q0 -280 -142.5 -440.5t-389.5 -160.5q-246 0 -388.5 160.5t-142.5 440.5v221q0 281 142.5 441t388.5 160q247 0 389.5 -160.5
t142.5 -441.5v-220z" />
    <glyph glyph-name="Pecyrillic" unicode="&#x41f;" horiz-adv-x="1401" 
d="M1189 0h-127v1247h-723v-1247h-128v1363h978v-1363z" />
    <glyph glyph-name="Ercyrillic" unicode="&#x420;" horiz-adv-x="1204" 
d="M680 1363q196 0 311.5 -112.5t115.5 -299.5t-115.5 -299.5t-311.5 -112.5h-341v-539h-128v1363h469zM976 951q0 140 -79 217.5t-222 77.5h-336v-591h336q143 0 222 78t79 218z" />
    <glyph glyph-name="Escyrillic" unicode="&#x421;" horiz-adv-x="1306" 
d="M284 789v-222q0 -221 102.5 -351t296.5 -130q160 0 260 87t100 221h126v-1q0 -179 -137.5 -301t-348.5 -122q-256 0 -391 160t-135 439v219q0 277 136.5 441t387.5 164q212 0 348 -129t136 -311v-1h-126q0 133 -100 229t-258 96q-190 0 -293.5 -133.5t-103.5 -354.5z" />
    <glyph glyph-name="Tecyrillic" unicode="&#x422;" horiz-adv-x="1104" 
d="M616 0h-128v1247h-434v116h996v-116h-434v-1247z" />
    <glyph glyph-name="Ucyrillic" unicode="&#x423;" horiz-adv-x="1130" 
d="M952 1363h133l-438 -1016q-81 -186 -167.5 -271t-215.5 -85q-45 0 -78 9v123q32 -9 78 -9q79 0 137 54.5t115 174.5l-465 1020h137l389 -870h6z" />
    <glyph glyph-name="Efcyrillic" unicode="&#x424;" horiz-adv-x="1591" 
d="M856 -10h-128v159q-282 4 -435 141.5t-153 383.5v22q0 248 153.5 387t434.5 146v144h128v-144q285 -3 440 -140t155 -385v-22q0 -250 -155.5 -389t-439.5 -144v-159zM267 671q0 -191 119.5 -297.5t341.5 -110.5v852q-220 -6 -340.5 -115t-120.5 -301v-28zM1324 707
q0 193 -121.5 299t-346.5 109v-852q224 5 346 114t122 303v27z" />
    <glyph glyph-name="Xacyrillic" unicode="&#x425;" horiz-adv-x="1187" 
d="M1129 1363l-462 -687l454 -676h-155l-376 574h-7l-378 -574h-146l456 685l-452 678h153l380 -575h8l377 575h148z" />
    <glyph glyph-name="Tsecyrillic" unicode="&#x426;" horiz-adv-x="1449" 
d="M1196 115h180v-401h-115v286h-65h-127h-858v1363h128v-1248h730v1248h127v-1248z" />
    <glyph glyph-name="Checyrillic" unicode="&#x427;" horiz-adv-x="1312" 
d="M1101 0h-128v652h-6q-7 -6 -18 -14.5t-44 -26.5t-70 -31.5t-95 -24.5t-119 -11q-211 0 -327.5 113.5t-116.5 322.5v383h127v-384q0 -159 82.5 -241t235.5 -82q60 0 118.5 12.5t95.5 27.5t72 36t45.5 29t19.5 16v586h128v-1363z" />
    <glyph glyph-name="Shacyrillic" unicode="&#x428;" horiz-adv-x="1893" 
d="M211 0v1363h128v-1248h544v1248h127v-1248h544v1248h127v-1363h-1470z" />
    <glyph glyph-name="Shchacyrillic" unicode="&#x429;" horiz-adv-x="1934" 
d="M1861 -286h-115v286h-1535v1363h128v-1248h544v1248h127v-1248h544v1248h127v-1248h180v-401z" />
    <glyph glyph-name="Hardsigncyrillic" unicode="&#x42a;" horiz-adv-x="1373" 
d="M848 0h-469v1247h-331v116h459v-526h341q195 0 311 -113.5t116 -302.5q0 -192 -116 -306.5t-311 -114.5zM843 116q143 0 222 79.5t79 222.5t-79 223t-222 80h-336v-605h336z" />
    <glyph glyph-name="Yericyrillic" unicode="&#x42b;" horiz-adv-x="1657" 
d="M1107 421q0 -193 -116.5 -307t-310.5 -114h-469v1363h128v-526h341q194 0 310.5 -113t116.5 -303zM675 721h-336v-605h336q143 0 222 79.5t79 222.5q0 144 -79 223.5t-222 79.5zM1446 0h-127v1363h127v-1363z" />
    <glyph glyph-name="Softsigncyrillic" unicode="&#x42c;" horiz-adv-x="1204" 
d="M680 0h-469v1363h128v-526h341q195 0 311 -113.5t116 -302.5q0 -192 -116 -306.5t-311 -114.5zM675 116q143 0 222 79.5t79 222.5t-79 223t-222 80h-336v-605h336z" />
    <glyph glyph-name="Ereversedcyrillic" unicode="&#x42d;" horiz-adv-x="1311" 
d="M628 -30q-120 0 -216.5 38.5t-155 100.5t-89.5 135.5t-31 148.5v1h126q0 -130 97.5 -219t264.5 -89q193 0 298 126.5t105 354.5v77h-591v113h591v32q0 226 -105.5 357t-292.5 131q-85 0 -156 -29.5t-115.5 -76.5t-68.5 -104t-24 -115h-126v1q0 79 31.5 155.5t90 141
t154.5 104t214 39.5q246 0 385.5 -164t139.5 -441v-219q0 -282 -137 -440.5t-389 -158.5z" />
    <glyph glyph-name="IUcyrillic" unicode="&#x42e;" horiz-adv-x="1788" 
d="M1508 564v225q0 229 -109 358.5t-287 129.5q-177 0 -285.5 -129.5t-108.5 -358.5v-225q0 -228 107.5 -353t286.5 -125t287.5 125t108.5 353zM591 768v19q0 281 141 443.5t382 162.5t381 -162.5t140 -444.5v-220q0 -279 -141 -437.5t-383 -158.5t-381 158t-139 438v86
h-252v-652h-128v1363h128v-595h252z" />
    <glyph glyph-name="IAcyrillic" unicode="&#x42f;" horiz-adv-x="1277" 
d="M615 676h323v570h-324q-154 0 -233.5 -77t-79.5 -208q0 -138 80.5 -211.5t233.5 -73.5zM938 560h-308h-11l-350 -560h-146l358 574q-146 29 -228.5 130.5t-82.5 254.5q0 184 118 294t321 110h456v-1363h-127v560z" />
    <glyph glyph-name="acyrillic" unicode="&#x430;" horiz-adv-x="1098" 
d="M464 -17q-152 0 -246 86.5t-94 229.5q0 137 93.5 218.5t267.5 81.5h295v123q0 114 -66.5 170t-184.5 56q-109 0 -166.5 -40.5t-73.5 -104.5h-123q11 120 107.5 188.5t261.5 68.5q167 0 269.5 -82t102.5 -250v-728h-122v152h-6q-39 -69 -117.5 -119t-197.5 -50zM492 95
q122 0 205 74t83 188v135h-293q-118 0 -175 -51.5t-57 -138.5q0 -98 67.5 -152.5t169.5 -54.5z" />
    <glyph glyph-name="becyrillic" unicode="&#x431;" horiz-adv-x="1148" 
d="M575 931q-141 0 -226 -98t-85 -261v-113q0 -169 83 -266.5t228 -97.5q144 0 226.5 97t82.5 267v113q0 164 -84 261.5t-225 97.5zM595 1044q185 0 300 -127.5t115 -329.5v-142q0 -209 -119 -335.5t-317 -126.5q-201 0 -318.5 129.5t-117.5 351.5v188q0 373 109 553.5
t369 196.5l85 5q152 11 166 60h123q-17 -89 -82.5 -128t-203.5 -49l-89 -6q-172 -12 -254 -116t-106 -334h7q39 101 125 155.5t208 54.5z" />
    <glyph glyph-name="vecyrillic" unicode="&#x432;" horiz-adv-x="1096" 
d="M196 0v1043h394q145 0 232.5 -71t87.5 -192q0 -93 -49 -151.5t-124 -78.5v-5q107 -15 170 -81.5t63 -175.5q0 -136 -103 -212t-279 -76h-392zM320 937v-348h233q232 0 232 182q0 82 -57 124t-152 42h-256zM320 483v-377h260q264 0 264 186q0 94 -68 142.5t-179 48.5h-277
z" />
    <glyph glyph-name="gecyrillic" unicode="&#x433;" horiz-adv-x="912" 
d="M829 938h-507v-938h-126v1043h633v-105z" />
    <glyph glyph-name="decyrillic" unicode="&#x434;" horiz-adv-x="1220" 
d="M849 106v831h-453q-9 -244 -17 -345q-13 -227 -31 -329.5t-61 -151.5v-5h562zM150 -285h-112v391h90q70 32 94.5 132.5t36.5 351.5q10 151 21 453h694v-937h173v-391h-112v285h-885v-285z" />
    <glyph glyph-name="iecyrillic" unicode="&#x435;" horiz-adv-x="1107" 
d="M568 -17q-202 0 -315.5 123t-113.5 337v151q0 216 115 341t302 125q186 0 301.5 -125t115.5 -341v-102h-708v-56q0 -155 80 -248t223 -93q107 0 175.5 47t81.5 108h133q-6 -43 -32.5 -87.5t-72 -86t-120.5 -67.5t-165 -26zM265 592h581v15q0 157 -79 249t-211 92
t-211.5 -92t-79.5 -249v-15z" />
    <glyph glyph-name="zhecyrillic" unicode="&#x436;" horiz-adv-x="1515" 
d="M693 593v450h126v-450h74l373 450h151l-410 -490l437 -553h-155l-390 487h-80v-487h-126v487h-80l-390 -487h-152l436 549l-413 494h153l372 -450h74z" />
    <glyph glyph-name="zecyrillic" unicode="&#x437;" horiz-adv-x="1037" 
d="M523 98q122 0 191 52t69 142q0 94 -70 141.5t-195 47.5h-130v105h130q104 0 166 47t62 132q0 83 -64 131.5t-168 48.5q-115 0 -177 -55.5t-73 -138.5h-125q8 130 108 219.5t267 89.5q160 0 259 -81.5t99 -209.5q0 -90 -53.5 -151t-129.5 -74v-6q94 -15 157 -79.5
t63 -169.5q0 -137 -105 -221.5t-280 -84.5q-98 0 -175 26t-122.5 69.5t-70 94t-28.5 105.5h125q17 -78 81 -129t189 -51z" />
    <glyph glyph-name="iicyrillic" unicode="&#x438;" horiz-adv-x="1205" 
d="M885 0v842h-7l-565 -842h-117v1043h123v-841h8l565 841h117v-1043h-124z" />
    <glyph glyph-name="iishortcyrillic" unicode="&#x439;" horiz-adv-x="1205" 
d="M327 1467h96q0 -76 47 -124.5t134 -48.5t132.5 48.5t45.5 124.5h97q0 -46 -16.5 -90t-48 -82t-86 -61t-124.5 -23t-125 23t-87 60.5t-48.5 81.5t-16.5 91zM885 0v842h-7l-565 -842h-117v1043h123v-841h8l565 841h117v-1043h-124z" />
    <glyph glyph-name="kacyrillic" unicode="&#x43a;" horiz-adv-x="1055" 
d="M828 0l-425 487h-81v-487h-126v1043h126v-450h73l409 450h152l-450 -491l478 -552h-156z" />
    <glyph glyph-name="elcyrillic" unicode="&#x43b;" horiz-adv-x="1105" 
d="M263 679l8 364h670v-1043h-126v937h-426l-6 -257q-2 -99 -4 -152t-7 -132t-12 -120.5t-19.5 -96t-31 -82t-44 -55.5t-60 -39t-78.5 -11q-16 0 -30 2.5t-21 5.5l-6 2v117q21 -8 47 -8q84 0 115 127q24 96 30 368q0 4 1 73z" />
    <glyph glyph-name="emcyrillic" unicode="&#x43c;" horiz-adv-x="1441" 
d="M319 785v-785h-123v1043h132l390 -819h5l390 819h132v-1043h-125v785h-5l-344 -704h-103l-344 704h-5z" />
    <glyph glyph-name="encyrillic" unicode="&#x43d;" horiz-adv-x="1188" 
d="M866 0v490h-544v-490h-126v1043h126v-447h544v447h126v-1043h-126z" />
    <glyph glyph-name="ocyrillic" unicode="&#x43e;" horiz-adv-x="1148" 
d="M574 1060q190 0 313 -121.5t123 -334.5v-165q0 -214 -122.5 -335t-313.5 -121q-193 0 -314.5 120t-121.5 336v165q0 210 123 333t313 123zM575 948q-139 0 -225 -97t-86 -263v-136q0 -167 84 -262t227 -95q142 0 225.5 94.5t83.5 262.5v136q0 166 -85 263t-224 97z" />
    <glyph glyph-name="pecyrillic" unicode="&#x43f;" horiz-adv-x="1178" 
d="M856 0v937h-534v-937h-126v1043h786v-1043h-126z" />
    <glyph glyph-name="ercyrillic" unicode="&#x440;" horiz-adv-x="1188" 
d="M645 -17q-120 0 -201 53.5t-115 135.5h-7v-526h-125v1398h120v-182h6q29 80 115 139t212 59q180 0 289.5 -119.5t109.5 -320.5v-196q0 -206 -111.5 -323.5t-292.5 -117.5zM629 95q134 0 214 93t80 266v135q0 170 -80 264.5t-217 94.5q-141 0 -222.5 -94t-81.5 -244v-191
q0 -142 85.5 -233t221.5 -91z" />
    <glyph glyph-name="escyrillic" unicode="&#x441;" horiz-adv-x="1075" 
d="M138 435v178q0 207 114.5 327t306.5 120q92 0 167 -27.5t121.5 -72.5t72.5 -99t29 -110h-125q-6 33 -22.5 65t-46 62t-80 48.5t-115.5 18.5q-140 0 -218 -90.5t-78 -250.5v-168q0 -158 80 -248t219 -90q123 0 186 51t80 129h125q-4 -55 -28.5 -105.5t-70 -94t-122 -69.5
t-173.5 -26q-195 0 -308.5 120t-113.5 332z" />
    <glyph glyph-name="tecyrillic" unicode="&#x442;" horiz-adv-x="966" 
d="M902 938h-356v-938h-126v938h-357v105h839v-105z" />
    <glyph glyph-name="ucyrillic" unicode="&#x443;" horiz-adv-x="1049" 
d="M972 1043l-377 -1050l-33 -90q-24 -64 -46.5 -106.5t-58.5 -83t-87 -60.5t-119 -20q-52 0 -99 9v108q31 -7 81 -7q85 0 131.5 42t72.5 125l24 75l-389 1058h140l311 -913h6l309 913h134z" />
    <glyph glyph-name="efcyrillic" unicode="&#x444;" horiz-adv-x="1429" 
d="M777 -354h-125v337q-228 2 -371 128t-143 350v114q0 222 144.5 352.5t369.5 132.5v276h125v-276q228 -2 371 -129t143 -352v-114q0 -147 -68 -257t-183.5 -167t-262.5 -58v-337zM1165 565q0 178 -105 279.5t-283 103.5v-853q174 2 281 106t107 279v85zM264 475
q0 -176 105 -277t283 -103v853q-174 -2 -281 -106.5t-107 -281.5v-85z" />
    <glyph glyph-name="hacyrillic" unicode="&#x445;" horiz-adv-x="1056" 
d="M808 0l-280 422h-6l-281 -422h-144l359 519l-357 524h152l273 -417h6l278 417h145l-357 -511l364 -532h-152z" />
    <glyph glyph-name="tsecyrillic" unicode="&#x446;" horiz-adv-x="1227" 
d="M1155 -285h-112v285h-847v1043h126v-937h534v937h126v-937h173v-391z" />
    <glyph glyph-name="checyrillic" unicode="&#x447;" horiz-adv-x="1145" 
d="M949 0h-126v487h-8q-49 -54 -125.5 -83t-166.5 -29q-167 0 -257 99.5t-90 266.5v302h126v-302q0 -114 61.5 -180.5t170.5 -66.5q95 0 172 39t117 105v405h126v-1043z" />
    <glyph glyph-name="shacyrillic" unicode="&#x448;" horiz-adv-x="1619" 
d="M196 0v1043h126v-937h425v937h126v-937h425v937h126v-1043h-1228z" />
    <glyph glyph-name="shchacyrillic" unicode="&#x449;" horiz-adv-x="1669" 
d="M1597 -285h-112v285h-1289v1043h126v-937h425v937h126v-937h425v937h126v-937h173v-391z" />
    <glyph glyph-name="hardsigncyrillic" unicode="&#x44a;" horiz-adv-x="1130" 
d="M641 0h-329v937h-256v106h382v-368h203q177 0 281 -91t104 -247q0 -154 -104.5 -245.5t-280.5 -91.5zM641 569h-203v-463h204q117 0 187.5 63.5t70.5 169.5q0 105 -70.5 167.5t-188.5 62.5z" />
    <glyph glyph-name="yericyrillic" unicode="&#x44b;" horiz-adv-x="1398" 
d="M1077 0v1043h125v-1043h-125zM525 569h-203v-463h203q118 0 188 63.5t70 169.5q0 105 -70 167.5t-188 62.5zM196 0v1043h126v-368h203q176 0 280 -91t104 -247q0 -155 -104 -246t-280 -91h-329z" />
    <glyph glyph-name="softsigncyrillic" unicode="&#x44c;" horiz-adv-x="1014" 
d="M525 569h-203v-463h203q118 0 188 63.5t70 169.5q0 105 -70 167.5t-188 62.5zM196 0v1043h126v-368h203q176 0 280 -91t104 -247q0 -155 -104 -246t-280 -91h-329z" />
    <glyph glyph-name="ereversedcyrillic" unicode="&#x44d;" horiz-adv-x="1072" 
d="M512 -17q-97 0 -173.5 26t-122 69.5t-70 94t-28.5 105.5h125q17 -78 80.5 -129t186.5 -51q139 0 219 90t80 248v41h-467v106h467v21q0 160 -78 250.5t-219 90.5q-65 0 -115.5 -18.5t-80 -49t-45.5 -61.5t-22 -65h-125q2 56 28 110t72.5 99t122 72.5t167.5 27.5
q191 0 305.5 -120t114.5 -327v-178q0 -212 -113.5 -332t-308.5 -120z" />
    <glyph glyph-name="iucyrillic" unicode="&#x44e;" horiz-adv-x="1537" 
d="M971 -17q-189 0 -308 120t-119 336v51h-222v-490h-126v1043h126v-447h222v8q0 210 120.5 333t306.5 123t307 -121.5t121 -334.5v-165q0 -214 -120.5 -335t-307.5 -121zM972 948q-135 0 -218.5 -97t-83.5 -263v-136q0 -167 81.5 -262t220.5 -95q138 0 219.5 94.5
t81.5 262.5v136q0 165 -83 262.5t-218 97.5z" />
    <glyph glyph-name="iacyrillic" unicode="&#x44f;" horiz-adv-x="1091" 
d="M552 497h217v440h-218q-117 0 -187.5 -60.5t-70.5 -160.5t70.5 -159.5t188.5 -59.5zM769 0v391h-207h-5l-283 -391h-149l296 410q-119 29 -186.5 109t-67.5 198q0 150 104.5 238t280.5 88h343v-1043h-126z" />
    <glyph glyph-name="iocyrillic" unicode="&#x451;" horiz-adv-x="1107" 
d="M568 -17q-202 0 -315.5 123t-113.5 337v151q0 216 115 341t302 125q186 0 301.5 -125t115.5 -341v-102h-708v-56q0 -155 80 -248t223 -93q107 0 175.5 47t81.5 108h133q-6 -43 -32.5 -87.5t-72 -86t-120.5 -67.5t-165 -26zM265 592h581v15q0 157 -79 249t-211 92
t-211.5 -92t-79.5 -249v-15zM716 1226q-36 0 -63 26t-27 62q0 38 26.5 64t63.5 26q40 0 67.5 -26t27.5 -64q0 -37 -27.5 -62.5t-67.5 -25.5zM387 1226q-38 0 -65 25.5t-27 62.5q0 38 27 64t65 26q39 0 66 -26t27 -64q0 -37 -27.5 -62.5t-65.5 -25.5z" />
    <glyph glyph-name="djecyrillic" unicode="&#x452;" horiz-adv-x="1192" 
d="M890 -48v716q0 130 -70 205t-192 75q-145 0 -225.5 -100t-80.5 -250v-598h-126v1209h-125v102h125v153h126v-153h263v-102h-263v-363h7q10 35 32.5 69t61 68.5t100.5 55.5t138 21q159 0 257 -92t98 -262v-754q0 -163 -64 -238t-189 -75q-54 0 -88 9v104q25 -5 66 -5
q81 0 115 47.5t34 157.5z" />
    <glyph glyph-name="gjecyrillic" unicode="&#x453;" horiz-adv-x="912" 
d="M413 1228l242 337h131l-272 -337h-101zM829 938h-507v-938h-126v1043h633v-105z" />
    <glyph glyph-name="ecyrillic" unicode="&#x454;" horiz-adv-x="1075" 
d="M954 278q-4 -55 -28.5 -105.5t-70 -94t-122 -69.5t-173.5 -26q-195 0 -308.5 120t-113.5 332v178q0 207 114.5 327t306.5 120q92 0 167 -27.5t122 -72.5t73 -99t28 -110h-125q-6 34 -22 65t-45.5 61.5t-80.5 49t-116 18.5q-140 0 -218 -90.5t-78 -250.5v-21h469v-106
h-469v-41q0 -158 80 -248t219 -90q123 0 186.5 51t80.5 129h124z" />
    <glyph glyph-name="dzecyrillic" unicode="&#x455;" horiz-adv-x="1038" 
d="M149 760q0 98 51.5 167.5t133 101t183.5 31.5q169 0 265 -82t96 -200h-120q-4 67 -66 121.5t-179 54.5q-105 0 -172 -48t-67 -134q0 -27 8 -49.5t19.5 -39t33 -30.5t40 -23t50.5 -18.5t54 -14.5t60 -13q57 -12 95.5 -22t84.5 -26t75.5 -36.5t56 -49t39 -67.5t12.5 -88
q0 -149 -110.5 -230.5t-286.5 -81.5q-178 0 -279.5 79.5t-101.5 205.5h124q8 -78 70.5 -128.5t190.5 -50.5q127 0 197.5 52t70.5 140q0 38 -16 67.5t-37.5 47.5t-64 33.5t-73 23.5t-88.5 20q-69 15 -114 28t-94 36t-76.5 51t-46 71.5t-18.5 100.5z" />
    <glyph glyph-name="icyrillic" unicode="&#x456;" horiz-adv-x="567" 
d="M221 0v1043h125v-1043h-125zM183 1361q0 44 29 72.5t71 28.5q44 0 72.5 -28.5t28.5 -72.5q0 -42 -29 -70.5t-72 -28.5q-42 0 -71 28.5t-29 70.5z" />
    <glyph glyph-name="yicyrillic" unicode="&#x457;" horiz-adv-x="554" 
d="M445 1239q-37 0 -63.5 25.5t-26.5 62.5q0 38 26.5 64t63.5 26q40 0 67.5 -26t27.5 -64q0 -37 -27.5 -62.5t-67.5 -25.5zM106 1239q-38 0 -64.5 25.5t-26.5 62.5q0 38 26.5 64t64.5 26q39 0 66 -26t27 -64q0 -37 -27 -62.5t-66 -25.5zM214 0v1043h125v-1043h-125z" />
    <glyph glyph-name="jecyrillic" unicode="&#x458;" horiz-adv-x="567" 
d="M183 1361q0 44 29 72.5t71 28.5q44 0 72.5 -28.5t28.5 -72.5q0 -42 -29 -70.5t-72 -28.5q-42 0 -71 28.5t-29 70.5zM346 1043v-1091q0 -163 -64 -238t-188 -75q-55 0 -89 9v104q27 -5 67 -5q81 0 115 47.5t34 157.5v1091h125z" />
    <glyph glyph-name="ljecyrillic" unicode="&#x459;" horiz-adv-x="1625" 
d="M127 -8q-16 0 -30 2.5t-21 5.5l-6 2v120q21 -8 47 -8q33 0 57 19t38.5 53.5t24 83.5t14 110t7 132t3.5 150v17l7 364h664v-368h203q177 0 281 -91t104 -247q0 -155 -104 -246t-281 -91h-329v937h-417l-6 -257q-2 -99 -4 -152t-7 -132t-12 -120.5t-19.5 -96t-31 -82
t-44 -55.5t-60 -39t-78.5 -11zM1135 569h-203v-463h204q118 0 188 63.5t70 169.5q0 105 -70.5 167.5t-188.5 62.5z" />
    <glyph glyph-name="njecyrillic" unicode="&#x45a;" horiz-adv-x="1684" 
d="M1212 509h-220v-403h221q110 0 175.5 54.5t65.5 148.5t-65.5 147t-176.5 53zM866 0v508h-544v-508h-126v1043h126v-429h544v429h126v-429h220q170 0 269 -81.5t99 -225.5q0 -143 -99.5 -225t-268.5 -82h-346z" />
    <glyph glyph-name="tshecyrillic" unicode="&#x45b;" horiz-adv-x="1210" 
d="M325 598v-598h-126v1209h-125v102h125v153h126v-153h263v-102h-263v-363h7q10 35 32.5 69t61 68.5t100.5 55.5t139 21q158 0 256 -92t98 -262v-706h-126v668q0 130 -69.5 205t-191.5 75q-146 0 -226.5 -100t-80.5 -250z" />
    <glyph glyph-name="kjecyrillic" unicode="&#x45c;" horiz-adv-x="1055" 
d="M443 1228l242 337h131l-272 -337h-101zM828 0l-425 487h-81v-487h-126v1043h126v-450h73l409 450h152l-450 -491l478 -552h-156z" />
    <glyph glyph-name="ushortcyrillic" unicode="&#x45e;" horiz-adv-x="1049" 
d="M252 1469h96q0 -76 47 -124.5t134 -48.5t132.5 48.5t45.5 124.5h97q0 -46 -16.5 -90t-48 -82t-86 -61t-124.5 -23t-125 23t-87 60.5t-48.5 81.5t-16.5 91zM972 1043l-377 -1050l-33 -90q-24 -64 -46.5 -106.5t-58.5 -83t-87 -60.5t-119 -20q-52 0 -99 9v108q31 -7 81 -7
q85 0 131.5 42t72.5 125l24 75l-389 1058h140l311 -913h6l309 913h134z" />
    <glyph glyph-name="dzhecyrillic" unicode="&#x45f;" horiz-adv-x="1178" 
d="M856 1043h126v-1043h-337v-285h-112v285h-337v1043h126v-937h534v937z" />
    <glyph glyph-name="Geupturncyrillic" unicode="&#x490;" horiz-adv-x="1070" 
d="M876 1649h116v-286v-117h-653v-1246h-128v1363h665v286z" />
    <glyph glyph-name="geupturncyrillic" unicode="&#x491;" horiz-adv-x="912" 
d="M717 1043v285h112v-390h-507v-938h-126v1043h521z" />
    <glyph glyph-name="Aringbelow" unicode="&#x1e00;" horiz-adv-x="1223" 
d="M193 0h-134l489 1363h127l489 -1363h-135l-149 436h-538zM614 1206h-6l-229 -665h464zM611 -469q-75 0 -127.5 51.5t-52.5 126.5t52.5 126t127.5 51t127.5 -51t52.5 -126t-52.5 -126.5t-127.5 -51.5zM502 -292q0 -45 32 -77.5t77 -32.5t76.5 32.5t31.5 77.5q0 46 -31 78
t-77 32q-45 0 -77 -32t-32 -78z" />
    <glyph glyph-name="aringbelow" unicode="&#x1e01;" horiz-adv-x="1088" 
d="M464 -17q-152 0 -246 86.5t-94 229.5q0 137 93.5 218.5t267.5 81.5h295v123q0 114 -66.5 170t-184.5 56q-109 0 -166.5 -40.5t-73.5 -104.5h-123q11 120 107.5 188.5t261.5 68.5q167 0 269.5 -82t102.5 -250v-728h-122v152h-6q-39 -69 -117.5 -119t-197.5 -50zM492 95
q122 0 205 74t83 188v135h-293q-118 0 -175 -51.5t-57 -138.5q0 -98 67.5 -152.5t169.5 -54.5zM544 -469q-75 0 -127.5 51.5t-52.5 126.5t52.5 126t127.5 51t127.5 -51t52.5 -126t-52.5 -126.5t-127.5 -51.5zM435 -292q0 -45 32 -77.5t77 -32.5t76.5 32.5t31.5 77.5
q0 46 -31 78t-77 32q-45 0 -77 -32t-32 -78z" />
    <glyph glyph-name="Bdotaccent" unicode="&#x1e02;" horiz-adv-x="1262" 
d="M510 1587q0 39 26 65.5t64 26.5q39 0 65.5 -26.5t26.5 -65.5q0 -38 -26.5 -64t-65.5 -26q-38 0 -64 26t-26 64zM201 0v1363h478q177 0 280 -90t103 -245q0 -122 -62.5 -200t-160.5 -107v-6q136 -18 218.5 -105.5t82.5 -233.5q0 -174 -123 -275t-342 -101h-474zM329 1246
v-487h265q338 0 338 249q0 114 -71.5 176t-200.5 62h-331zM329 643v-527h291q200 0 294.5 63t94.5 194q0 130 -86.5 200t-233.5 70h-360z" />
    <glyph glyph-name="bdotaccent" unicode="&#x1e03;" horiz-adv-x="1178" 
d="M159 1688q0 39 26 65.5t64 26.5q39 0 65.5 -26.5t26.5 -65.5q0 -38 -26.5 -64t-65.5 -26q-38 0 -64 26t-26 64zM638 -17q-114 0 -201.5 51t-121.5 138h-7v-172h-120v1464h125v-602h7q24 86 115.5 142t207.5 56q182 0 291 -120t109 -320v-196q0 -201 -110 -321t-295 -120z
M624 95q137 0 215 95.5t78 261.5v136q0 168 -79 264t-217 96q-139 0 -223.5 -93.5t-84.5 -247.5v-185q0 -143 87.5 -235t223.5 -92z" />
    <glyph glyph-name="Bdotbelow" unicode="&#x1e04;" horiz-adv-x="1262" 
d="M510 -263q0 39 26 64t65 25q40 0 66 -25t26 -64t-26 -63t-66 -24q-39 0 -65 24t-26 63zM201 0v1363h478q177 0 280 -90t103 -245q0 -122 -62.5 -200t-160.5 -107v-6q136 -18 218.5 -105.5t82.5 -233.5q0 -174 -123 -275t-342 -101h-474zM329 1246v-487h265q338 0 338 249
q0 114 -71.5 176t-200.5 62h-331zM329 643v-527h291q200 0 294.5 63t94.5 194q0 130 -86.5 200t-233.5 70h-360z" />
    <glyph glyph-name="bdotbelow" unicode="&#x1e05;" horiz-adv-x="1178" 
d="M498 -263q0 39 26 64t65 25q40 0 66 -25t26 -64t-26 -63t-66 -24q-39 0 -65 24t-26 63zM638 -17q-114 0 -201.5 51t-121.5 138h-7v-172h-120v1464h125v-602h7q24 86 115.5 142t207.5 56q182 0 291 -120t109 -320v-196q0 -201 -110 -321t-295 -120zM624 95q137 0 215 95.5
t78 261.5v136q0 168 -79 264t-217 96q-139 0 -223.5 -93.5t-84.5 -247.5v-185q0 -143 87.5 -235t223.5 -92z" />
    <glyph glyph-name="Blinebelow" unicode="&#x1e06;" horiz-adv-x="1262" 
d="M201 0v1363h478q177 0 280 -90t103 -245q0 -122 -62.5 -200t-160.5 -107v-6q136 -18 218.5 -105.5t82.5 -233.5q0 -174 -123 -275t-342 -101h-474zM329 1246v-487h265q338 0 338 249q0 114 -71.5 176t-200.5 62h-331zM329 643v-527h291q200 0 294.5 63t94.5 194
q0 130 -86.5 200t-233.5 70h-360zM891 -303h-579v90h579v-90z" />
    <glyph glyph-name="blinebelow" unicode="&#x1e07;" horiz-adv-x="1178" 
d="M879 -303h-579v90h579v-90zM638 -17q-114 0 -201.5 51t-121.5 138h-7v-172h-120v1464h125v-602h7q24 86 115.5 142t207.5 56q182 0 291 -120t109 -320v-196q0 -201 -110 -321t-295 -120zM624 95q137 0 215 95.5t78 261.5v136q0 168 -79 264t-217 96q-139 0 -223.5 -93.5
t-84.5 -247.5v-185q0 -143 87.5 -235t223.5 -92z" />
    <glyph glyph-name="Ccedillaacute" unicode="&#x1e08;" horiz-adv-x="1293" 
d="M578 1514l263 322h136l-293 -322h-106zM656 -481q-78 -3 -141 16v85q47 -14 119 -14q54 0 93 22t39 68q0 48 -40 65t-112 17h-51v64l52 131q-226 16 -347 173t-121 423v219q0 277 138 441t383 164q117 0 212.5 -39.5t154 -104t89.5 -141t31 -155.5v-1h-126q0 58 -24 115
t-68 104t-114 76.5t-155 29.5q-185 0 -289.5 -131t-104.5 -357v-222q0 -228 104 -354t296 -126q166 0 262.5 89t96.5 218h126v-1q0 -72 -28.5 -142.5t-82 -131.5t-142 -101.5t-197.5 -46.5l-44 -114q95 0 153.5 -39t58.5 -118q0 -87 -63 -132.5t-158 -48.5z" />
    <glyph glyph-name="ccedillaacute" unicode="&#x1e09;" horiz-adv-x="1070" 
d="M461 1228l242 337h131l-272 -337h-101zM563 -478q-78 -3 -141 16v85q47 -14 119 -14q54 0 93 22t39 68q0 49 -40 65.5t-112 16.5h-51v64l55 139q-181 11 -285 130t-104 321v178q0 207 114.5 327t306.5 120q92 0 167 -27.5t121.5 -72.5t72.5 -99t29 -110h-125
q-6 34 -22.5 66t-46 63t-80 50t-115.5 19q-140 0 -218.5 -92t-78.5 -253v-168q0 -158 80 -246.5t220 -88.5q123 0 186 49.5t80 127.5h125q-3 -50 -24 -97t-59.5 -88.5t-103 -70.5t-145.5 -37l-48 -125q95 0 153.5 -39t58.5 -118q0 -87 -63.5 -132.5t-157.5 -48.5z" />
    <glyph glyph-name="Ddotaccent" unicode="&#x1e0a;" horiz-adv-x="1338" 
d="M544 1587q0 39 26 65.5t64 26.5q39 0 65.5 -26.5t26.5 -65.5q0 -38 -26.5 -64t-65.5 -26q-38 0 -64 26t-26 64zM201 1363h403q300 0 451 -175t151 -507t-150 -506.5t-452 -174.5h-403v1363zM329 1247v-1131h271q475 0 475 565q0 277 -118 421.5t-357 144.5h-271z" />
    <glyph glyph-name="ddotaccent" unicode="&#x1e0b;" horiz-adv-x="1180" 
d="M838 1688q0 39 26 65.5t64 26.5q39 0 65.5 -26.5t26.5 -65.5q0 -38 -26.5 -64t-65.5 -26q-38 0 -64 26t-26 64zM540 1060q121 0 204.5 -54.5t113.5 -134.5h6v593h126v-1464h-120v182h-7q-21 -76 -110 -137.5t-217 -61.5q-180 0 -290.5 118t-110.5 314v213
q0 199 113 315.5t292 116.5zM554 948q-131 0 -212 -92.5t-81 -259.5v-149q0 -165 81 -258t217 -93q140 0 222.5 94.5t82.5 243.5v190q0 140 -87 232t-223 92z" />
    <glyph glyph-name="Ddotbelow" unicode="&#x1e0c;" horiz-adv-x="1338" 
d="M544 -263q0 39 26 64t65 25q40 0 66 -25t26 -64t-26 -63t-66 -24q-39 0 -65 24t-26 63zM201 1363h403q300 0 451 -175t151 -507t-150 -506.5t-452 -174.5h-403v1363zM329 1247v-1131h271q475 0 475 565q0 277 -118 421.5t-357 144.5h-271z" />
    <glyph glyph-name="ddotbelow" unicode="&#x1e0d;" horiz-adv-x="1180" 
d="M498 -263q0 39 26 64t65 25q40 0 66 -25t26 -64t-26 -63t-66 -24q-39 0 -65 24t-26 63zM540 1060q121 0 204.5 -54.5t113.5 -134.5h6v593h126v-1464h-120v182h-7q-21 -76 -110 -137.5t-217 -61.5q-180 0 -290.5 118t-110.5 314v213q0 199 113 315.5t292 116.5zM554 948
q-131 0 -212 -92.5t-81 -259.5v-149q0 -165 81 -258t217 -93q140 0 222.5 94.5t82.5 243.5v190q0 140 -87 232t-223 92z" />
    <glyph glyph-name="Dlinebelow" unicode="&#x1e0e;" horiz-adv-x="1338" 
d="M925 -303h-579v90h579v-90zM201 1363h403q300 0 451 -175t151 -507t-150 -506.5t-452 -174.5h-403v1363zM329 1247v-1131h271q475 0 475 565q0 277 -118 421.5t-357 144.5h-271z" />
    <glyph glyph-name="dlinebelow" unicode="&#x1e0f;" horiz-adv-x="1180" 
d="M879 -303h-579v90h579v-90zM540 1060q121 0 204.5 -54.5t113.5 -134.5h6v593h126v-1464h-120v182h-7q-21 -76 -110 -137.5t-217 -61.5q-180 0 -290.5 118t-110.5 314v213q0 199 113 315.5t292 116.5zM554 948q-131 0 -212 -92.5t-81 -259.5v-149q0 -165 81 -258t217 -93
q140 0 222.5 94.5t82.5 243.5v190q0 140 -87 232t-223 92z" />
    <glyph glyph-name="Dcommaaccent" unicode="&#x1e10;" horiz-adv-x="1338" 
d="M599 -471h-95l82 319h121zM201 1363h403q300 0 451 -175t151 -507t-150 -506.5t-452 -174.5h-403v1363zM329 1247v-1131h271q475 0 475 565q0 277 -118 421.5t-357 144.5h-271z" />
    <glyph glyph-name="dcommaaccent" unicode="&#x1e11;" horiz-adv-x="1180" 
d="M553 -471h-95l82 319h121zM540 1060q121 0 204.5 -54.5t113.5 -134.5h6v593h126v-1464h-120v182h-7q-21 -76 -110 -137.5t-217 -61.5q-180 0 -290.5 118t-110.5 314v213q0 199 113 315.5t292 116.5zM554 948q-131 0 -212 -92.5t-81 -259.5v-149q0 -165 81 -258t217 -93
q140 0 222.5 94.5t82.5 243.5v190q0 140 -87 232t-223 92z" />
    <glyph glyph-name="Dcircumflexbelow" unicode="&#x1e12;" horiz-adv-x="1338" 
d="M201 1363h403q300 0 451 -175t151 -507t-150 -506.5t-452 -174.5h-403v1363zM329 1247v-1131h271q475 0 475 565q0 277 -118 421.5t-357 144.5h-271zM326 -401l269 254h84l261 -254h-129l-174 175h-5l-179 -175h-127z" />
    <glyph glyph-name="dcircumflexbelow" unicode="&#x1e13;" horiz-adv-x="1180" 
d="M540 1060q121 0 204.5 -54.5t113.5 -134.5h6v593h126v-1464h-120v182h-7q-21 -76 -110 -137.5t-217 -61.5q-180 0 -290.5 118t-110.5 314v213q0 199 113 315.5t292 116.5zM554 948q-131 0 -212 -92.5t-81 -259.5v-149q0 -165 81 -258t217 -93q140 0 222.5 94.5
t82.5 243.5v190q0 140 -87 232t-223 92zM280 -401l269 254h84l261 -254h-129l-174 175h-5l-179 -175h-127z" />
    <glyph glyph-name="Emacrongrave" unicode="&#x1e14;" horiz-adv-x="1135" 
d="M674 1723h-126l-297 210h155zM880 1518h-566v86h566v-86zM997 116v-116h-796v1363h796v-117h-668v-491h632v-115h-632v-524h668z" />
    <glyph glyph-name="emacrongrave" unicode="&#x1e15;" horiz-adv-x="1103" 
d="M566 -17q-202 0 -315.5 123t-113.5 337v151q0 216 115 341t302 125q186 0 301.5 -125t115.5 -341v-102h-708v-56q0 -155 80 -248t223 -93q107 0 175.5 47t81.5 108h133q-6 -43 -32.5 -87.5t-72 -86t-120.5 -67.5t-165 -26zM263 592h581v15q0 157 -79 249t-211 92
t-211.5 -92t-79.5 -249v-15zM629 1525h-100l-272 337h131zM841 1270h-579v90h579v-90z" />
    <glyph glyph-name="Emacronacute" unicode="&#x1e16;" horiz-adv-x="1135" 
d="M520 1723l268 210h155l-297 -210h-126zM880 1518h-566v86h566v-86zM997 116v-116h-796v1363h796v-117h-668v-491h632v-115h-632v-524h668z" />
    <glyph glyph-name="emacronacute" unicode="&#x1e17;" horiz-adv-x="1103" 
d="M566 -17q-202 0 -315.5 123t-113.5 337v151q0 216 115 341t302 125q186 0 301.5 -125t115.5 -341v-102h-708v-56q0 -155 80 -248t223 -93q107 0 175.5 47t81.5 108h133q-6 -43 -32.5 -87.5t-72 -86t-120.5 -67.5t-165 -26zM263 592h581v15q0 157 -79 249t-211 92
t-211.5 -92t-79.5 -249v-15zM472 1525l242 337h131l-272 -337h-101zM841 1270h-579v90h579v-90z" />
    <glyph glyph-name="Ecircumflexbelow" unicode="&#x1e18;" horiz-adv-x="1135" 
d="M997 116v-116h-796v1363h796v-117h-668v-491h632v-115h-632v-524h668zM288 -401l269 254h84l261 -254h-129l-174 175h-5l-179 -175h-127z" />
    <glyph glyph-name="ecircumflexbelow" unicode="&#x1e19;" horiz-adv-x="1103" 
d="M566 -17q-202 0 -315.5 123t-113.5 337v151q0 216 115 341t302 125q186 0 301.5 -125t115.5 -341v-102h-708v-56q0 -155 80 -248t223 -93q107 0 175.5 47t81.5 108h133q-6 -43 -32.5 -87.5t-72 -86t-120.5 -67.5t-165 -26zM263 592h581v15q0 157 -79 249t-211 92
t-211.5 -92t-79.5 -249v-15zM246 -401l269 254h84l261 -254h-129l-174 175h-5l-179 -175h-127z" />
    <glyph glyph-name="Etildebelow" unicode="&#x1e1a;" horiz-adv-x="1135" 
d="M721 -377q-45 0 -83.5 21.5t-60.5 46.5t-50.5 46.5t-56.5 21.5q-39 0 -60.5 -36.5t-23.5 -85.5h-88q0 89 45 146.5t124 57.5q36 0 67.5 -14t53.5 -33.5t42 -39.5t43 -34t47 -14q41 0 64 35.5t24 86.5h88q0 -84 -46.5 -144.5t-128.5 -60.5zM997 116v-116h-796v1363h796
v-117h-668v-491h632v-115h-632v-524h668z" />
    <glyph glyph-name="etildebelow" unicode="&#x1e1b;" horiz-adv-x="1103" 
d="M679 -377q-45 0 -83.5 21.5t-60.5 46.5t-50.5 46.5t-56.5 21.5q-39 0 -60.5 -36.5t-23.5 -85.5h-88q0 89 45 146.5t124 57.5q36 0 67.5 -14t53.5 -33.5t42 -39.5t43 -34t47 -14q41 0 64 35.5t24 86.5h88q0 -84 -46.5 -144.5t-128.5 -60.5zM566 -17q-202 0 -315.5 123
t-113.5 337v151q0 216 115 341t302 125q186 0 301.5 -125t115.5 -341v-102h-708v-56q0 -155 80 -248t223 -93q107 0 175.5 47t81.5 108h133q-6 -43 -32.5 -87.5t-72 -86t-120.5 -67.5t-165 -26zM263 592h581v15q0 157 -79 249t-211 92t-211.5 -92t-79.5 -249v-15z" />
    <glyph glyph-name="Ecedillabreve" unicode="&#x1e1c;" horiz-adv-x="1135" 
d="M545 0h-344v1363h796v-117h-668v-491h632v-115h-632v-524h668v-116h-357l-54 -140q95 0 153 -39t58 -118q0 -87 -63 -132.5t-158 -48.5q-79 -3 -140 16v85q47 -14 119 -14q54 0 93 22t39 68q0 49 -40 65.5t-112 16.5h-51v64zM295 1733h97q0 -77 53 -122t152 -45t151 45
t52 122h97q0 -105 -77.5 -176t-222.5 -71q-146 0 -224 70.5t-78 176.5z" />
    <glyph glyph-name="ecedillabreve" unicode="&#x1e1d;" horiz-adv-x="1103" 
d="M275 1470h95q0 -74 47.5 -122.5t135.5 -48.5q87 0 133.5 48.5t46.5 122.5h94q0 -46 -16 -90t-47.5 -82t-86 -61.5t-124.5 -23.5t-125 23.5t-87.5 61.5t-49 82t-16.5 90zM263 592h581v15q0 157 -79 249.5t-211 92.5t-211.5 -92.5t-79.5 -249.5v-15zM555 -478
q-78 -3 -141 16v85q47 -14 119 -14q54 0 93 22t39 68q0 49 -40 65.5t-112 16.5h-51v64l55 140q-180 15 -280 136t-100 322v151q0 216 115 341t302 125q186 0 301.5 -125t115.5 -341v-102h-708v-55q0 -155 80 -248t223 -93q107 0 175.5 46.5t81.5 107.5h133q-4 -32 -19.5 -65
t-44 -67t-67 -61.5t-94 -47t-119.5 -24.5l-48 -125q95 0 153.5 -39t58.5 -118q0 -87 -63.5 -132.5t-157.5 -48.5z" />
    <glyph glyph-name="Fdotaccent" unicode="&#x1e1e;" horiz-adv-x="1065" 
d="M481 1587q0 39 26 65.5t64 26.5q39 0 65.5 -26.5t26.5 -65.5q0 -38 -26.5 -64t-65.5 -26q-38 0 -64 26t-26 64zM329 0h-128v1363h784v-117h-656v-513h602v-116h-602v-617z" />
    <glyph glyph-name="fdotaccent" unicode="&#x1e1f;" horiz-adv-x="748" 
d="M317 1665q0 39 26 65.5t64 26.5q39 0 65.5 -26.5t26.5 -65.5q0 -38 -26.5 -64t-65.5 -26q-38 0 -64 26t-26 64zM263 0v937h-180v106h180v117q0 145 71 212.5t229 67.5q71 0 113 -8v-107q-30 5 -100 5q-102 0 -145 -39.5t-43 -138.5v-109h264v-106h-264v-937h-125z" />
    <glyph glyph-name="Gmacron" unicode="&#x1e20;" horiz-adv-x="1315" 
d="M1161 972h-125q-16 132 -111 218.5t-252 86.5q-189 0 -294 -130.5t-105 -357.5v-205q0 -233 105 -365.5t301 -132.5q171 0 268 88.5t97 238.5v159h-382v116h506v-275q0 -201 -132.5 -322t-355.5 -121q-258 0 -396 163t-138 451v205q0 279 140.5 441.5t387.5 162.5
q210 0 342 -119.5t144 -301.5zM955 1518h-566v86h566v-86z" />
    <glyph glyph-name="gmacron" unicode="&#x1e21;" horiz-adv-x="1151" 
d="M866 1270h-579v90h579v-90zM549 -268q147 0 226 74.5t79 204.5v200h-8q-30 -72 -110.5 -129t-200.5 -57q-177 0 -293.5 118t-116.5 315v168q0 201 118 317.5t292 116.5q122 0 205.5 -59t112.5 -132h6v174h120v-1030q0 -191 -115.5 -292.5t-319.5 -101.5q-94 0 -169 23
t-121.5 63t-72 88.5t-30.5 103.5h131q10 -68 80.5 -116.5t186.5 -48.5zM557 948q-136 0 -221 -94.5t-85 -258.5v-108q0 -158 86.5 -254t220.5 -96q137 0 216.5 96.5t79.5 228.5v156q0 137 -82 233.5t-215 96.5z" />
    <glyph glyph-name="Hdotaccent" unicode="&#x1e22;" horiz-adv-x="1398" 
d="M1196 0h-127v652h-740v-652h-128v1363h128v-595h740v595h127v-1363zM608 1587q0 39 26 65.5t64 26.5q39 0 65.5 -26.5t26.5 -65.5q0 -38 -26.5 -64t-65.5 -26q-38 0 -64 26t-26 64z" />
    <glyph glyph-name="hdotaccent" unicode="&#x1e23;" horiz-adv-x="1190" 
d="M189 0v1464h126v-618h7q10 35 32.5 69t61 68.5t100.5 55.5t139 21q158 0 256 -92t98 -262v-706h-126v668q0 130 -69.5 205t-191.5 75q-146 0 -226.5 -100t-80.5 -250v-598h-126zM159 1688q0 39 26 65.5t64 26.5q39 0 65.5 -26.5t26.5 -65.5q0 -38 -26.5 -64t-65.5 -26
q-38 0 -64 26t-26 64z" />
    <glyph glyph-name="Hdotbelow" unicode="&#x1e24;" horiz-adv-x="1398" 
d="M1196 0h-127v652h-740v-652h-128v1363h128v-595h740v595h127v-1363zM608 -263q0 39 26 64t65 25q40 0 66 -25t26 -64t-26 -63t-66 -24q-39 0 -65 24t-26 63z" />
    <glyph glyph-name="hdotbelow" unicode="&#x1e25;" horiz-adv-x="1190" 
d="M189 0v1464h126v-618h7q10 35 32.5 69t61 68.5t100.5 55.5t139 21q158 0 256 -92t98 -262v-706h-126v668q0 130 -69.5 205t-191.5 75q-146 0 -226.5 -100t-80.5 -250v-598h-126zM499 -263q0 39 26 64t65 25q40 0 66 -25t26 -64t-26 -63t-66 -24q-39 0 -65 24t-26 63z" />
    <glyph glyph-name="Hdieresis" unicode="&#x1e26;" horiz-adv-x="1398" 
d="M1196 0h-127v652h-740v-652h-128v1363h128v-595h740v595h127v-1363zM860 1490q-37 0 -63 25t-26 62t26 62t63 25q39 0 65.5 -25t26.5 -62t-26.5 -62t-65.5 -25zM535 1490q-38 0 -63.5 25t-25.5 62t25.5 62t63.5 25q39 0 65 -25t26 -62t-26 -62t-65 -25z" />
    <glyph glyph-name="hdieresis" unicode="&#x1e27;" horiz-adv-x="1190" 
d="M189 0v1464h126v-618h7q10 35 32.5 69t61 68.5t100.5 55.5t139 21q158 0 256 -92t98 -262v-706h-126v668q0 130 -69.5 205t-191.5 75q-146 0 -226.5 -100t-80.5 -250v-598h-126zM411 1591q-37 0 -63 25t-26 62t26 62t63 25q39 0 65.5 -25t26.5 -62t-26.5 -62t-65.5 -25z
M86 1591q-38 0 -63.5 25t-25.5 62t25.5 62t63.5 25q39 0 65 -25t26 -62t-26 -62t-65 -25z" />
    <glyph glyph-name="Hcedilla" unicode="&#x1e28;" horiz-adv-x="1398" 
d="M234 0h-33v1363h128v-595h740v595h127v-1363h-127v652h-740v-652l-54 -140q98 0 155 -40t57 -117q0 -86 -64.5 -133t-170.5 -48q-83 0 -127 16v85q58 -14 119 -14q58 0 95 22.5t37 63.5q0 86 -143 86h-60v64z" />
    <glyph glyph-name="hcedilla" unicode="&#x1e29;" horiz-adv-x="1190" 
d="M220 0h-31v1464h126v-618h7q10 35 32.5 69t61 68.5t100.5 55.5t139 21q158 0 256 -92t98 -262v-706h-126v668q0 130 -69.5 205t-191.5 75q-146 0 -226.5 -100t-80.5 -250v-598l-57 -147q95 0 153.5 -39t58.5 -118q0 -87 -63 -132t-158 -49q-79 -3 -140 16v86
q43 -15 118 -15q54 0 93 22t39 69q0 48 -39.5 64.5t-111.5 16.5h-52v64z" />
    <glyph glyph-name="Hbrevebelow" unicode="&#x1e2a;" horiz-adv-x="1398" 
d="M1196 0h-127v652h-740v-652h-128v1363h128v-595h740v595h127v-1363zM885 -150h96q0 -47 -16 -90.5t-48 -82t-88.5 -61.5t-129.5 -23t-131 22.5t-91.5 60.5t-51 82t-17.5 92h102q0 -73 49.5 -122t139.5 -49q89 0 137.5 49t48.5 122z" />
    </font>
</defs>
</svg>
