<svg xmlns="http://www.w3.org/2000/svg" viewBox="0 0 1922 608.2"><path fill="#0095BF" d="M427.6 410.6H50.3c-7.9 0-14.4-6.5-14.4-14.4V220.9c0-7.9 6.5-14.4 14.4-14.4h377.2c7.9 0 14.4 6.5 14.4 14.4v175.3c.1 7.9-6.4 14.4-14.3 14.4z" opacity=".3"/><path fill="#0095BF" d="M520.2 581.1h-159c-12.4 0-22.5-10.1-22.5-22.5v-159c0-12.4 10.1-22.5 22.5-22.5h159c12.4 0 22.5 10.1 22.5 22.5v159c0 12.4-10.1 22.5-22.5 22.5zM346.4 218.6H144.9c-1.1 0-2-.9-2-2v-101c0-1.1.9-2 2-2h201.5c1.1 0 2 .9 2 2v101c0 1.1-.9 2-2 2z" opacity=".8"/><path fill="#0095BF" d="M491.6 259.2H377c-1.1 0-2-.9-2-2v-96.1c0-1.1.9-2 2-2h114.6c1.1 0 2 .9 2 2v96.1c0 1.1-.9 2-2 2zM713 190.8H598.4c-1.1 0-2-.9-2-2V92.7c0-1.1.9-2 2-2H713c1.1 0 2 .9 2 2v96.1c0 1.1-.9 2-2 2zM452.5 85.8h-36.4c-.3 0-.6-.3-.6-.6V54.6c0-.3.3-.6.6-.6h36.4c.3 0 .6.3.6.6v30.5c0 .4-.3.7-.6.7z" opacity=".5"/><path fill="#0095BF" d="M224.4 555.7H65.5c-6.2 0-11.4-5.1-11.4-11.4v-53.9c0-6.2 5.1-11.4 11.4-11.4h158.9c6.2 0 11.4 5.1 11.4 11.4v53.9c0 6.3-5.1 11.4-11.4 11.4z" opacity=".3"/><path fill="#0095BF" d="M595.7 503.2h-36.4c-.3 0-.6-.3-.6-.6v-30.5c0-.3.3-.6.6-.6h36.4c.3 0 .6.3.6.6v30.5c.1.4-.2.6-.6.6z" opacity=".5"/><path fill="#0095BF" d="M366.6 105.4h-36.4c-.3 0-.6-.3-.6-.6V74.3c0-.3.3-.6.6-.6h36.4c.3 0 .6.3.6.6v30.5c0 .4-.3.6-.6.6z" opacity=".8"/><path fill="#0095BF" d="M400.7 84.9h-46.5c-3.2 0-5.8-2.6-5.8-5.8v-31c0-3.2 2.6-5.8 5.8-5.8h46.5c3.2 0 5.8 2.6 5.8 5.8v31c-.1 3.2-2.6 5.8-5.8 5.8zM364.3 429.1H258.8c-7.2 0-13.1-5.9-13.1-13.1v-70.3c0-7.2 5.9-13.1 13.1-13.1h105.6c7.2 0 13.1 5.9 13.1 13.1V416c-.1 7.2-6 13.1-13.2 13.1z" opacity=".5"/><path fill="#0095BF" d="M113.5 41.4H0v310.8h113.5c1.1 0 2-.8 2-1.7V43.1c0-.9-.9-1.7-2-1.7z" opacity=".2"/><path fill="#BD5227" d="M1470.2 455.9h252.4c.7 0 1.3-.6 1.3-1.3V153.3c0-.7-.6-1.3-1.3-1.3h-252.4c-.7 0-1.3.6-1.3 1.3v301.3c0 .8.6 1.3 1.3 1.3z" opacity=".3"/><path fill="#BD5227" d="M1401.8 581.1h159c12.4 0 22.5-10.1 22.5-22.5v-159c0-12.4-10.1-22.5-22.5-22.5h-159c-12.4 0-22.5 10.1-22.5 22.5v159c0 12.4 10.1 22.5 22.5 22.5zM1576.1 276.8h200.5c1.4 0 2.5-1.1 2.5-2.5V116.1c0-1.4-1.1-2.5-2.5-2.5h-200.5c-1.4 0-2.5 1.1-2.5 2.5v158.2c0 1.4 1.1 2.5 2.5 2.5z" opacity=".8"/><path fill="#BD5227" d="M1512.1 326.8h114.6c1.1 0 2-.9 2-2v-96.1c0-1.1-.9-2-2-2h-114.6c-1.1 0-2 .9-2 2v96.1c0 1.1.9 2 2 2zM1209 100.1h114.6c1.1 0 2-.9 2-2V2c0-1.1-.9-2-2-2H1209c-1.1 0-2 .9-2 2v96.1c0 1.1.9 2 2 2zM1406.5 167.1h36.4c.3 0 .6.3.6.6v30.5c0 .3-.3.6-.6.6h-36.4c-.3 0-.6-.3-.6-.6v-30.5c0-.3.3-.6.6-.6z" opacity=".5"/><path fill="#BD5227" d="M1697.6 555.7h158.9c6.2 0 11.4-5.1 11.4-11.4v-53.9c0-6.2-5.1-11.4-11.4-11.4h-158.9c-6.2 0-11.4 5.1-11.4 11.4v53.9c0 6.3 5.1 11.4 11.4 11.4z" opacity=".3"/><path fill="#BD5227" d="M1345.1 87.4h36.4c.3 0 .6-.3.6-.6V56.3c0-.3-.3-.6-.6-.6h-36.4c-.3 0-.6.3-.6.6v30.5c0 .3.2.6.6.6z" opacity=".5"/><path fill="#BD5227" d="M1555.4 42.4h36.4c.3 0 .6.3.6.6v30.5c0 .3-.3.6-.6.6h-36.4c-.3 0-.6-.3-.6-.6V43c0-.3.3-.6.6-.6z" opacity=".8"/><path fill="#BD5227" d="M1521.3 62.9h46.5c3.2 0 5.8 2.6 5.8 5.8v31c0 3.2-2.6 5.8-5.8 5.8h-46.5c-3.2 0-5.8-2.6-5.8-5.8v-31c.1-3.2 2.6-5.8 5.8-5.8zM1641.9 464.4h105.6c7.2 0 13.1-5.9 13.1-13.1V381c0-7.2-5.9-13.1-13.1-13.1h-105.6c-7.2 0-13.1 5.9-13.1 13.1v70.3c0 7.2 5.8 13.1 13.1 13.1z" opacity=".5"/><path fill="#BD5227" d="M1808.5 315.2H1922v86.1h-113.5c-1.1 0-2-.2-2-.5v-85.1c0-.3.9-.5 2-.5z" opacity=".2"/><path fill="#0095BF" d="M122.5 447.7H0v160.5h122.5c11.2 0 20.4-9.2 20.4-20.4V468.1c0-11.2-9.2-20.4-20.4-20.4z"/><path fill="#16154A" d="M61.9 304H0v224h61.9c5.4 0 9.8-4.4 9.8-9.8V313.7c0-5.3-4.4-9.7-9.8-9.7z" opacity=".7"/><path fill="#16154A" d="M26.8 544.7H0v47.7h26.8c2.3 0 4.2-.9 4.2-2.1v-43.5c0-1.2-1.9-2.1-4.2-2.1z" opacity=".4"/></svg>