<?xml version="1.0" encoding="utf-8"?>
<!-- Generator: Adobe Illustrator 17.1.0, SVG Export Plug-In . SVG Version: 6.00 Build 0)  -->
<!DOCTYPE svg PUBLIC "-//W3C//DTD SVG 1.1//EN" "http://www.w3.org/Graphics/SVG/1.1/DTD/svg11.dtd">
<svg version="1.1" id="Layer_1" xmlns="http://www.w3.org/2000/svg" xmlns:xlink="http://www.w3.org/1999/xlink" x="0px" y="0px"
	 viewBox="0 0 69.6 88.6" enable-background="new 0 0 69.6 88.6" xml:space="preserve">
<g id="XMLID_437_">
	<g>
		<path opacity="0.5" fill="#0095BF" d="M55.4,41H4.5C2,41,0,39,0,36.5V4.5C0,2,2,0,4.5,0h50.9c2.5,0,4.5,2,4.5,4.5v32.1
			C59.8,39,57.8,41,55.4,41z"/>
		<path opacity="0.5" fill="#0095BF" d="M68,88.6H37.1c-0.9,0-1.7-0.7-1.7-1.7v-4.1c0-0.9,0.7-1.7,1.7-1.7H68c0.9,0,1.7,0.7,1.7,1.7
			V87C69.6,87.9,68.9,88.6,68,88.6z"/>
		<path opacity="0.9" fill="#0095BF" d="M60.5,77.9h-50c-4.1,0-7.5-3.4-7.5-7.5v-50c0-4.1,3.4-7.5,7.5-7.5h50c4.1,0,7.5,3.4,7.5,7.5
			v50C68,74.5,64.6,77.9,60.5,77.9z"/>
		<g>
			<polygon fill="#FFFFFF" points="28.8,35.2 28.8,62.1 17.4,56.5 15.6,55.7 15.4,55.6 15.4,28.7 19.6,30.7 21.4,31.6 			"/>
			<polygon fill="#B4DFEB" points="42.2,55.6 28.8,62.1 28.8,35.2 42.2,28.7 			"/>
			<polygon fill="#FFFFFF" points="55.6,35.2 55.6,62.1 42.2,55.6 42.2,28.7 42.2,28.7 44.4,29.7 			"/>
			<polygon fill="#68BFD8" points="55.6,43.1 55.6,45.4 42.4,44.2 42.2,44.4 28.8,53.7 28.7,53.8 22.6,47.4 17.4,56.5 15.6,55.7 
				21.2,45.9 15.4,39.8 15.4,36.7 17.4,38.8 19.6,30.7 21.4,31.6 18.9,40.4 28.8,50.8 28.9,51 42,41.9 42.2,41.9 44.9,42 42.2,28.7 
				44.4,29.7 46.9,42.2 			"/>
		</g>
	</g>
	<rect x="-19" y="0" fill="none" width="88.6" height="88.6"/>
</g>
</svg>
