<?xml version="1.0" encoding="utf-8"?>
<!-- Generator: Adobe Illustrator 17.1.0, SVG Export Plug-In . SVG Version: 6.00 Build 0)  -->
<!DOCTYPE svg PUBLIC "-//W3C//DTD SVG 1.1//EN" "http://www.w3.org/Graphics/SVG/1.1/DTD/svg11.dtd">
<svg version="1.1" id="Layer_1" xmlns="http://www.w3.org/2000/svg" xmlns:xlink="http://www.w3.org/1999/xlink" x="0px" y="0px"
	 viewBox="0 0 84.1 82" enable-background="new 0 0 84.1 82" xml:space="preserve">
<g>
	<g>
		<path opacity="0.3" fill="#0095BF" d="M35.4,82H4.7C2.1,82,0,79.9,0,77.3V18.9c0-2.6,2.1-4.7,4.7-4.7h30.7c2.6,0,4.7,2.1,4.7,4.7
			v58.4C40.2,79.9,38,82,35.4,82z"/>
		<path opacity="0.5" fill="#0095BF" d="M80.5,38.8h-33c-2,0-3.6-1.6-3.6-3.6V3.6c0-2,1.6-3.6,3.6-3.6h33c2,0,3.6,1.6,3.6,3.6v31.7
			C84.1,37.2,82.5,38.8,80.5,38.8z"/>
		<path opacity="0.9" fill="#0095BF" d="M69.3,73.6H18.5c-4.2,0-7.6-3.4-7.6-7.6V15.2c0-4.2,3.4-7.6,7.6-7.6h50.8
			c4.2,0,7.6,3.4,7.6,7.6V66C77,70.2,73.5,73.6,69.3,73.6z"/>
		<g>
			<polygon fill="#FFFFFF" points="29.5,48.1 33.8,48.1 33.8,43.6 38.1,43.6 38.1,39.1 42.4,39.1 42.4,34.7 46.8,34.7 46.8,34.7 
				46.8,30.2 46.8,25.7 51.1,25.7 51.1,25.7 57.5,25.7 64.9,33.2 64.9,55.5 41.5,55.5 29.5,55.5 			"/>
			<polygon fill="#82C9DD" points="57.5,33.2 57.5,25.7 64.9,33.2 			"/>
			<rect x="29.5" y="43.6" fill="#FFFFFF" width="2.9" height="2.9"/>
			<rect x="29.5" y="39.1" fill="#FFFFFF" width="2.9" height="2.9"/>
			<rect x="29.5" y="34.7" fill="#FFFFFF" width="2.9" height="2.9"/>
			<rect x="29.5" y="30.2" fill="#FFFFFF" width="2.9" height="2.9"/>
			<rect x="25.1" y="52.6" fill="#FFFFFF" width="2.9" height="2.9"/>
			<rect x="25.1" y="48.1" fill="#FFFFFF" width="2.9" height="2.9"/>
			<rect x="25.1" y="43.6" fill="#FFFFFF" width="2.9" height="2.9"/>
			<rect x="25.1" y="39.1" fill="#FFFFFF" width="2.9" height="2.9"/>
			<rect x="25.1" y="34.7" fill="#FFFFFF" width="2.9" height="2.9"/>
			<rect x="25.1" y="30.2" fill="#FFFFFF" width="2.9" height="2.9"/>
			<rect x="25.1" y="25.7" fill="#FFFFFF" width="2.9" height="2.9"/>
			<rect x="20.7" y="52.6" fill="#FFFFFF" width="2.9" height="2.9"/>
			<rect x="20.7" y="48.1" fill="#FFFFFF" width="2.9" height="2.9"/>
			<rect x="20.7" y="43.6" fill="#FFFFFF" width="2.9" height="2.9"/>
			<rect x="20.7" y="34.7" fill="#FFFFFF" width="2.9" height="2.9"/>
			<rect x="20.7" y="25.7" fill="#FFFFFF" width="2.9" height="2.9"/>
			<rect x="38.1" y="34.7" fill="#FFFFFF" width="2.9" height="2.9"/>
			<rect x="46.8" y="25.7" fill="#FFFFFF" width="2.9" height="2.9"/>
			<rect x="38.1" y="25.7" fill="#FFFFFF" width="7.2" height="7.4"/>
			<g>
				<polygon fill="#FFFFFF" points="33.8,28.4 33.8,25.7 36.7,25.7 36.7,28.4 36.7,28.6 36.7,33.1 33.8,33.1 33.8,28.6 				"/>
				<polygon fill="#FFFFFF" points="33.8,39.4 33.8,39.1 33.8,34.7 36.7,34.7 36.7,39.1 36.7,39.4 36.7,42 33.8,42 				"/>
			</g>
		</g>
	</g>
	<rect x="-4.6" y="-6.6" fill="none" width="88.6" height="88.6"/>
</g>
</svg>
