<?xml version="1.0" encoding="utf-8"?>
<!-- Generator: Adobe Illustrator 17.1.0, SVG Export Plug-In . SVG Version: 6.00 Build 0)  -->
<!DOCTYPE svg PUBLIC "-//W3C//DTD SVG 1.1//EN" "http://www.w3.org/Graphics/SVG/1.1/DTD/svg11.dtd">
<svg version="1.1" id="Layer_1" xmlns="http://www.w3.org/2000/svg" xmlns:xlink="http://www.w3.org/1999/xlink" x="0px" y="0px"
	 viewBox="0 0 84.1 81.9" enable-background="new 0 0 84.1 81.9" xml:space="preserve">
<g id="XMLID_535_">
	<g>
		<path opacity="0.3" fill="#0095BF" d="M35.4,82H4.7C2.1,82,0,79.9,0,77.3V18.9c0-2.6,2.1-4.7,4.7-4.7h30.7c2.6,0,4.7,2.1,4.7,4.7
			v58.4C40.2,79.9,38,82,35.4,82z"/>
		<path opacity="0.5" fill="#0095BF" d="M80.5,38.8h-33c-2,0-3.6-1.6-3.6-3.6V3.6c0-2,1.6-3.6,3.6-3.6h33c2,0,3.6,1.6,3.6,3.6v31.7
			C84.1,37.2,82.5,38.8,80.5,38.8z"/>
		<path opacity="0.9" fill="#0095BF" d="M69.3,73.6H18.5c-4.2,0-7.6-3.4-7.6-7.6V15.2c0-4.2,3.4-7.6,7.6-7.6h50.8
			c4.2,0,7.6,3.4,7.6,7.6V66C77,70.2,73.5,73.6,69.3,73.6z"/>
		<g>
			<rect x="25" y="28.7" fill="#FFFFFF" width="10.6" height="27"/>
			<rect x="26.7" y="24.6" fill="#FFFFFF" width="7.2" height="4.6"/>
			<rect x="28.1" y="22.3" fill="#FFFFFF" width="4.5" height="4.6"/>
			<g>
				<path fill="#FFFFFF" d="M58.4,32.3v22.4h-9.6V32.3H58.4 M59.4,31.3H47.7v24.4h11.6V31.3L59.4,31.3z"/>
			</g>
			<rect x="35.6" y="37.9" fill="#B4DFEB" width="14.7" height="17.9"/>
			<path fill="none" stroke="#FFFFFF" stroke-miterlimit="10" d="M57.1,31.7c0-2-1.6-3.5-3.5-3.5c-2,0-3.5,1.6-3.5,3.5
				c0,0,0,0.1,0,0.1L57.1,31.7C57.1,31.7,57.1,31.7,57.1,31.7z"/>
			<g>
				<path fill="#FFFFFF" d="M64.8,26.4v28.3h-5.3V26.4H64.8 M65.8,25.4h-7.3v30.3h7.3V25.4L65.8,25.4z"/>
			</g>
			<polygon fill="#68BFD8" points="40.4,37.9 47.7,37.9 47.7,31.3 49.2,31.3 49.2,20.9 40.4,20.9 			"/>
		</g>
	</g>
	<rect x="-4.7" y="-6.4" fill="none" width="88.6" height="88.6"/>
</g>
</svg>
