<?xml version="1.0" encoding="utf-8"?>
<!-- Generator: Adobe Illustrator 21.0.2, SVG Export Plug-In . SVG Version: 6.00 Build 0)  -->
<svg version="1.1" id="Layer_1" xmlns="http://www.w3.org/2000/svg" xmlns:xlink="http://www.w3.org/1999/xlink" x="0px" y="0px"
	 viewBox="0 0 98 28" style="enable-background:new 0 0 98 28;" xml:space="preserve">
<style type="text/css">
	.st0{fill:#FFFFFF;}
	.st1{fill:#FFFFFF;stroke:#0000FF;stroke-miterlimit:10;}
</style>
<g id="XMLID_7_">
	<g>
		<g>
			<g>
				<path class="st0" d="M26.9,20.8c-0.8-0.6-1.5-1.1-2.1-1.7c-0.3-0.3-0.7-0.6-1.1-0.9c-0.1-0.1-0.2-0.2-0.3-0.2l0,0c0,0,0,0,0,0
					c0,0,0,0-0.1,0c-0.3-0.1-0.5,0.1-0.7,0.3c-0.8,0.9-0.6,2.3,0.3,3.1c0.9,0.8,2.3,0.6,3.1-0.3c0.1-0.1,0.2-0.3,0.2-0.4
					c0.1,0.1,0.3,0.2,0.4,0.3c0,0,0.1,0,0.1,0c0.1,0,0.1,0,0.1-0.1C27,20.9,27,20.8,26.9,20.8z M25.1,20.9c-0.6,0-1-0.5-1-1
					c0,0,0-0.1,0-0.1c0.1,0,0.2,0.1,0.2,0.1c0.2,0,0.4-0.1,0.5-0.3c0.4,0.3,0.7,0.6,1.1,0.9C25.8,20.8,25.5,20.9,25.1,20.9z"/>
			</g>
		</g>
		<path class="st0" d="M31.2,22.7c-0.2,0-0.4,0.1-0.5,0.2c-0.2,0-0.4-0.1-0.6-0.1c-0.3-0.1-2.2-1.6-2-4.5c1.6-3.1,1.3-6.4,1.3-6.4
			l-1.8-0.1c0,0,0.6-5.5-1.8-7.8c0,0-1.9,2.5-1.9,2.5c-2.3-3.8-6.5-5.7-6.5-5.7l-0.8,2.2c-3.1-1.4-7.6-0.7-7.6-0.7l0.7,2.6
			C5.2,6,2.5,8.6,2.5,8.6l2.3,1.9c-2.4,2.4-3.4,8.1-3.4,8.1s2-0.1,2.3-0.2c0,2.6,0.9,7.1,6.5,8.8c0,0-1.1-1.7-0.7-2.8
			c0,0,0.9,2,3.8,1.8c0,0-1.8-1.2-1.2-1.7c2.8,0,7.4,0,7.4,0l11.1-0.1c0,0,0.4-0.1,0.5-0.1c0,0,0,0,0,0c0.4,0,0.7-0.4,0.7-0.8
			C31.9,23.1,31.6,22.7,31.2,22.7z M2.4,18c0,0,0.7-4,2.9-6.8l1.2,1C6.5,12.2,4.2,14.1,2.4,18z M4.5,18.6L6.2,19c0,0-0.9,3.9,2.5,7
			C8.8,26,4.4,24.3,4.5,18.6z M3.9,8.5c0,0,2.4-2.6,6-2.9l0.3,2C10.2,7.7,8.4,6.5,3.9,8.5z M16.5,6.1c0,0-1.2-2.5-6.2-2.9
			c0,0,3.7-0.6,6.8,1.1L16.5,6.1z M29,11.8c0,0,0.2,3.4-1.1,5.4c0-0.2,0-0.3,0-0.3c0-0.3-0.4-0.8-0.6-1.1C27.9,15.2,28.6,14,29,11.8
			z M25.8,5.3c0,0,1.7,3.7,0.6,7.1L25,12.2C25,12.2,26.7,10.3,25.8,5.3z M23.3,6.6l-1.1,0.9c0,0-0.2-2.6-4.3-5.5
			C17.8,2.1,21.6,3.5,23.3,6.6z M27,23.8c-1.9,0-4.4,0.2-6.2-0.6c-2.2-1-3-3.7-1.7-5.7c1-1.5,2.8-2.5,4.6-2.2
			c1.1,0.2,2.4,0.8,3.1,1.7c0.2,0.3,0.7,0.8,0.7,1.1c0,0.4-0.1,2.7,1.5,4.4l0,0c0.3,0.4,0.7,0.7,1.4,0.8c0,0,0,0,0,0
			c-0.1,0.1,0.1,0.4,0.1,0.4C29.4,23.8,28.2,23.8,27,23.8z"/>
	</g>
	<g>
		<g>
			<polygon class="st0" points="35,11.4 39.1,11.4 39.1,24.6 40.3,24.6 40.3,11.9 40.3,11.4 45.3,11.4 45.3,9.9 35,9.9 			"/>
		</g>
		<g>
			<path class="st0" d="M57.8,20.3c0-0.3-0.1-0.7-0.2-1c-0.1-0.3-0.2-0.6-0.3-0.8c-0.2-0.4-0.5-0.6-1-0.8c-0.5-0.2-1.9-0.3-1.9-0.3
				c0,0,1.5,0,2.7-1.2c0.1-0.1,0.2-0.3,0.3-0.4c0.4-0.6,0.6-1.4,0.6-2.2c0-1.1-0.3-2-1.1-2.7c-0.7-0.6-1.6-1-3-1h-6.7v14.7h1.2V11.9
				v-0.5h5.4c0.7,0,1.6,0.1,2.1,0.7c0.4,0.5,0.6,1.1,0.6,1.9c0,0.5-0.1,1-0.3,1.4c-0.2,0.3-0.6,0.7-1,0.9c-0.7,0.4-1.7,0.5-2.2,0.5
				h-3.7V18c1,0,4.5,0.1,5.4,0.3c1,0.2,1.2,1.1,1.3,1.4c0.2,0.7,0.7,4.9,0.7,4.9c0.5,0,1.4,0,1.9,0C58.4,24.6,57.8,20.7,57.8,20.3z"
				/>
		</g>
		<g>
			<g>
				<path class="st0" d="M70.9,22.2c0.6-0.7,1-1.4,1.3-2.3c0.3-0.9,0.4-1.8,0.4-2.7c0-0.9-0.1-1.9-0.4-2.7c-0.3-0.9-0.7-1.6-1.3-2.3
					c-0.6-0.7-1.2-1.2-2.1-1.6c-0.8-0.4-1.8-0.6-2.9-0.6c-1.1,0-2.1,0.2-2.9,0.6c-0.8,0.4-1.5,0.9-2.1,1.6c-0.6,0.7-1,1.4-1.3,2.3
					c-0.3,0.9-0.4,1.8-0.4,2.7c0,0.9,0.1,1.9,0.4,2.7c0.3,0.9,0.7,1.6,1.3,2.3c0.6,0.7,1.2,1.2,2.1,1.6c0.8,0.4,1.8,0.6,2.9,0.6
					c1.1,0,2.1-0.2,2.9-0.6C69.7,23.4,70.4,22.9,70.9,22.2z M68.3,22.7c-0.7,0.4-1.4,0.5-2.3,0.5c-0.9,0-1.7-0.2-2.3-0.5
					c-0.7-0.4-1.2-0.8-1.6-1.4c-0.4-0.6-0.7-1.2-0.9-2c-0.2-0.7-0.3-1.4-0.3-2.2c0-0.7,0.1-1.5,0.3-2.2c0.2-0.7,0.5-1.4,0.9-2
					c0.4-0.6,1-1.1,1.6-1.4c0.7-0.4,1.4-0.5,2.3-0.5c0.9,0,1.7,0.2,2.3,0.5c0.7,0.4,1.2,0.8,1.6,1.4c0.4,0.6,0.7,1.2,0.9,2
					c0.2,0.7,0.3,1.4,0.3,2.2c0,0.7-0.1,1.5-0.3,2.2c-0.2,0.7-0.5,1.4-0.9,2C69.5,21.9,69,22.4,68.3,22.7z"/>
			</g>
		</g>
		<g>
			<path class="st0" d="M73.6,21.6c0.3,0.6,0.7,1.2,1.2,1.6c0.5,0.4,1.1,0.7,1.8,0.9c1.3,0.4,2.7,0.4,4.1,0.1
				c0.6-0.1,1.2-0.4,1.7-0.7c0.5-0.3,0.9-0.7,1.2-1.2c0.3-0.5,0.5-1.1,0.5-1.8c0-0.7-0.1-1.2-0.4-1.6c-0.2-0.4-0.6-0.8-1-1.1
				c-0.4-0.3-0.9-0.5-1.4-0.7c-0.5-0.2-1.1-0.3-1.7-0.5c-0.6-0.1-1.1-0.3-1.7-0.4c-0.6-0.1-1.1-0.3-1.5-0.4
				c-0.5-0.2-0.8-0.4-1.1-0.7c-0.3-0.3-0.4-0.7-0.4-1.2c0-0.5,0.1-0.9,0.3-1.3c0.2-0.3,0.5-0.6,0.8-0.8c0.3-0.2,0.7-0.3,1.1-0.4
				c0.4-0.1,0.8-0.1,1.2-0.1c1,0,1.9,0,2.6,0.5c0.7,0.5,1.1,1.4,1.2,1.9h1.4c0-0.5-0.2-1-0.4-1.5c-0.3-0.5-0.6-0.9-1.1-1.2
				c-0.5-0.4-1-0.5-1.6-0.7c-1.2-0.3-2.6-0.3-3.8,0c-0.6,0.2-1.1,0.4-1.6,0.7c-0.5,0.3-0.8,0.7-1.1,1.2c-0.3,0.5-0.4,1.1-0.4,1.8
				c0,0.6,0.1,1.1,0.4,1.5c0.2,0.4,0.6,0.7,1,1c0.4,0.3,0.9,0.5,1.4,0.6c0.5,0.2,1.1,0.3,1.7,0.4c0.6,0.1,1.1,0.2,1.7,0.4
				c0.6,0.1,1.1,0.3,1.5,0.5c0.5,0.2,0.8,0.5,1.1,0.8c0.3,0.3,0.4,0.8,0.4,1.3c0,0.6-0.1,1-0.4,1.4c-0.2,0.4-0.5,0.6-0.9,0.9
				c-0.4,0.2-0.8,0.3-1.2,0.4c-1,0.2-2,0.2-2.9-0.1c-0.5-0.1-1-0.4-1.4-0.6c-0.4-0.3-0.7-0.8-1-1.3c-0.2-0.4-0.4-1.1-0.4-1.6h-1.4
				C73.2,20,73.3,21.1,73.6,21.6z"/>
		</g>
		<g>
			<path class="st0" d="M87.4,23.2c0.5,0.4,1.1,0.7,1.8,0.9c1.3,0.3,2.7,0.4,4.1,0.1c0.6-0.1,1.2-0.4,1.7-0.7
				c0.5-0.3,0.9-0.7,1.2-1.2c0.3-0.5,0.5-1.1,0.5-1.8c0-0.7-0.1-1.2-0.4-1.6c-0.2-0.4-0.6-0.8-1-1.1c-0.4-0.3-0.9-0.5-1.4-0.7
				c-0.5-0.2-1.1-0.3-1.7-0.5c-0.6-0.1-1.1-0.3-1.7-0.4c-0.6-0.1-1.1-0.3-1.5-0.4c-0.5-0.2-0.8-0.4-1.1-0.7
				c-0.3-0.3-0.4-0.7-0.4-1.2c0-0.5,0.1-0.9,0.3-1.3c0.2-0.3,0.5-0.6,0.8-0.8c0.3-0.2,0.7-0.3,1.1-0.4c0.4-0.1,0.8-0.1,1.2-0.1
				c1,0,1.9,0,2.6,0.5c0.6,0.5,1,0.9,1.2,1.9h1.4c0-0.5-0.2-1-0.4-1.5c-0.3-0.5-0.6-0.8-1.1-1.2c-0.4-0.4-1-0.5-1.6-0.7
				c-1.1-0.3-2.6-0.3-3.8,0c-0.6,0.2-1.1,0.4-1.6,0.7c-0.5,0.3-0.8,0.7-1.1,1.2c-0.3,0.5-0.4,1.1-0.4,1.8c0,0.6,0.1,1.1,0.4,1.5
				c0.2,0.4,0.6,0.7,1,1c0.4,0.3,0.9,0.5,1.4,0.6c0.5,0.2,1.1,0.3,1.7,0.4c0.6,0.1,1.1,0.2,1.7,0.4c0.6,0.1,1.1,0.3,1.5,0.5
				c0.5,0.2,0.8,0.5,1.1,0.8c0.3,0.3,0.4,0.8,0.4,1.3c0,0.6-0.1,1-0.4,1.4c-0.2,0.4-0.5,0.6-0.9,0.9c-0.4,0.2-0.8,0.3-1.2,0.4
				c-1,0.2-2,0.2-2.9-0.1c-0.5-0.1-1-0.4-1.4-0.6c-0.4-0.3-0.7-0.8-1-1.3c-0.2-0.4-0.3-1.1-0.4-1.6h-1.4c0,0.5,0.2,1.5,0.4,2.1
				C86.5,22.2,86.9,22.9,87.4,23.2z"/>
		</g>
	</g>
</g>
<path class="st1" d="M97.9,11.4"/>
<path class="st1" d="M98.4,14.7"/>
<path class="st1" d="M0.9,17"/>
</svg>
