<?xml version="1.0" encoding="utf-8"?>
<!-- Generator: Adobe Illustrator 21.0.2, SVG Export Plug-In . SVG Version: 6.00 Build 0)  -->
<svg version="1.1" id="Layer_1" xmlns="http://www.w3.org/2000/svg" xmlns:xlink="http://www.w3.org/1999/xlink" x="0px" y="0px"
	 viewBox="0 0 43.8 21.7" style="enable-background:new 0 0 43.8 21.7;" xml:space="preserve">
<style type="text/css">
	.st0{opacity:0.5;fill:#0194BE;}
	.st1{opacity:0.5;fill:#BE4F00;}
	.st2{opacity:0.3;fill:#0194BE;}
	.st3{fill:#0194BE;}
	.st4{opacity:0.8;fill:#BE4F00;}
</style>
<g>
	<path class="st0" d="M8.6,7.8H-8.6c-2.9,0-5.3,2.4-5.3,5.3v17.2c0,2.9,2.4,5.3,5.3,5.3H8.6c2.9,0,5.3-2.4,5.3-5.3V13.1
		C13.9,10.2,11.5,7.8,8.6,7.8z"/>
	<path class="st1" d="M4.7,21.7h34.5c2.6,0,4.7-2.1,4.7-4.7V4.7c0-2.6-2.1-4.7-4.7-4.7H4.7C2.1,0,0,2.1,0,4.7V17
		C0,19.6,2.1,21.7,4.7,21.7z"/>
	<path class="st1" d="M49.3,24.6l-14.7,0c-0.6,0-1.2,0.5-1.2,1.2v14.7c0,0.6,0.5,1.2,1.2,1.2l14.7,0c0.6,0,1.2-0.5,1.2-1.2V25.8
		C50.5,25.2,50,24.6,49.3,24.6z"/>
	<rect x="7.2" y="-10" class="st2" width="19.6" height="14.9"/>
	<path class="st3" d="M28.4,24.6H12.2c-1.6,0-2.9,1.3-2.9,2.9v16.2c0,1.6,1.3,2.9,2.9,2.9l16.2,0c1.6,0,2.9-1.3,2.9-2.9V27.5
		C31.2,25.9,29.9,24.6,28.4,24.6z"/>
	<path class="st4" d="M41.5,49.5H25.5c-0.7,0-1.3,0.6-1.3,1.3v7.8c0,0.7,0.6,1.3,1.3,1.3h16.1c0.7,0,1.3-0.6,1.3-1.3v-7.8
		C42.8,50,42.2,49.5,41.5,49.5z"/>
</g>
</svg>
