<?xml version="1.0" encoding="utf-8"?>
<!-- Generator: Adobe Illustrator 21.0.2, SVG Export Plug-In . SVG Version: 6.00 Build 0)  -->
<svg version="1.1" id="Layer_1" xmlns="http://www.w3.org/2000/svg" xmlns:xlink="http://www.w3.org/1999/xlink" x="0px" y="0px"
	 viewBox="0 0 18 16.5" style="enable-background:new 0 0 18 16.5;" xml:space="preserve">
<style type="text/css">
	.st0{opacity:0.9;fill:#0194BE;}
	.st1{fill:#0194BE;}
</style>
<g>
	<g>
		<path class="st0" d="M3.8,13.1H2.4C1.1,13.1,0,12,0,10.7V10c0-1.3,1.1-2.4,2.4-2.4h1.4c0.5,0,0.9,0.4,0.9,0.9v3.7
			C4.7,12.7,4.3,13.1,3.8,13.1z"/>
		<path class="st0" d="M14.2,13.1h1.4c1.3,0,2.4-1.1,2.4-2.4V10c0-1.3-1.1-2.4-2.4-2.4h-1.4c-0.5,0-0.9,0.4-0.9,0.9v3.7
			C13.2,12.7,13.7,13.1,14.2,13.1z"/>
		<g>
			<path class="st1" d="M15.5,7.5h-1.3V5.4c0-2.2-1.8-4.1-4.1-4.1H7.8c-2.2,0-4.1,1.8-4.1,4.1v2.2H2.4V5.4c0-3,2.4-5.4,5.4-5.4h2.4
				c3,0,5.4,2.4,5.4,5.4V7.5z"/>
		</g>
		<g>
			<path class="st1" d="M15.7,13v1.1c0,1.1-0.9,1.9-1.9,1.9h-3.1c0.2-0.2,0.3-0.4,0.3-0.7c0-0.2-0.1-0.4-0.2-0.6h3
				c0.4,0,0.6-0.3,0.6-0.6V13H15.7z"/>
		</g>
		<path class="st0" d="M11,15.3c0,0.3-0.1,0.5-0.3,0.7c-0.2,0.3-0.5,0.4-0.9,0.4H8.1c-0.6,0-1.1-0.5-1.1-1.1c0-0.6,0.5-1.1,1.1-1.1
			h1.7c0.4,0,0.8,0.2,1,0.5C10.9,14.9,11,15.1,11,15.3z"/>
	</g>
</g>
</svg>
