<?xml version="1.0" encoding="utf-8"?>
<!-- Generator: Adobe Illustrator 21.0.2, SVG Export Plug-In . SVG Version: 6.00 Build 0)  -->
<svg version="1.1" id="Layer_1" xmlns="http://www.w3.org/2000/svg" xmlns:xlink="http://www.w3.org/1999/xlink" x="0px" y="0px"
	 viewBox="0 0 43 55" style="enable-background:new 0 0 43 55;" xml:space="preserve">
<style type="text/css">
	.st0{opacity:0.5;fill:#FFFFFF;}
	.st1{fill:#FFFFFF;}
	.st2{opacity:0.3;fill:#FFFFFF;}
	.st3{fill:#6D6E71;}
	.st4{fill:none;}
	.st5{fill:none;stroke:#C8C8C8;stroke-miterlimit:10;stroke-dasharray:3;}
	.st6{fill:none;stroke:#C8C8C8;stroke-miterlimit:10;stroke-dasharray:12;}
	.st7{fill:#6D6E71;stroke:#0000FF;stroke-miterlimit:10;}
	.st8{fill:none;stroke:#0000FF;stroke-miterlimit:10;}
</style>
<g id="XMLID_351_">
	<path class="st0" d="M40.3,43.9H11c-1,0-1.8-0.8-1.8-1.8V22.4c0-1,0.8-1.8,1.8-1.8h29.3c1,0,1.8,0.8,1.8,1.8v19.8
		C42,43.2,41.2,43.9,40.3,43.9z"/>
	<g>
		<path class="st1" d="M35.3,45.5c0,1.9-1.6,3.5-3.5,3.5H3.9c-1.9,0-3.5-1.6-3.5-3.5V17.6c0-1.9,1.6-3.5,3.5-3.5h27.8
			c1.9,0,3.5,1.6,3.5,3.5V45.5z"/>
	</g>
	<path class="st2" d="M7.9,9.1H2.2c-0.8,0-1.4-0.6-1.4-1.4V2c0-0.8,0.6-1.4,1.4-1.4h5.7c0.8,0,1.4,0.6,1.4,1.4v5.7
		C9.3,8.4,8.7,9.1,7.9,9.1z"/>
	<g>
		<g>
			<rect x="5.3" y="27.4" class="st3" width="5.9" height="16.8"/>
			<circle class="st3" cx="8.2" cy="21.9" r="2.9"/>
			<path class="st3" d="M30.5,34.9c0-4.5-1-7.6-6.3-7.6c-2.5,0-4.2,0.9-4.9,2.3h-0.1v-2.3h-4.7v16.8h4.9v-8.3c0-2.2,0.4-4.3,3.1-4.3
				c2.7,0,2.9,2.5,2.9,4.5v8.2h5V34.9z"/>
		</g>
	</g>
	<rect x="0.5" y="0.6" class="st4" width="41.6" height="54.7"/>
</g>
<path id="XMLID_3_" class="st5" d="M-557,101"/>
<path id="XMLID_1_" class="st5" d="M723,100"/>
<path id="Specctr_Canvas_Border_1._בית_3_" class="st6" d="M-877,100.5"/>
<path id="Specctr_Canvas_Border_1._בית_1_" class="st6" d="M1043,100.5"/>
<path class="st7" d="M42,22"/>
<path class="st7" d="M42.5,18.7"/>
<path class="st7" d="M42.5,25.3"/>
<path class="st7" d="M0.5,20"/>
<path class="st8" d="M21.8,0.6"/>
<path class="st8" d="M21.8,55.4 M25.1,55.9"/>
</svg>
