<?xml version="1.0" encoding="utf-8"?>
<!-- Generator: Adobe Illustrator 21.0.2, SVG Export Plug-In . SVG Version: 6.00 Build 0)  -->
<svg version="1.1" id="Layer_1" xmlns="http://www.w3.org/2000/svg" xmlns:xlink="http://www.w3.org/1999/xlink" x="0px" y="0px"
	 viewBox="0 0 67.1 60.4" style="enable-background:new 0 0 67.1 60.4;" xml:space="preserve">
<style type="text/css">
	.st0{opacity:0.5;fill:#0194BE;}
	.st1{fill:#0194BE;}
	.st2{opacity:0.3;fill:#0194BE;}
	.st3{fill:#FFFFFF;}
</style>
<g>
	<path class="st0" d="M52.2,60.4H9.3c-1.4,0-2.6-1.1-2.6-2.6v-29c0-1.4,1.1-2.6,2.6-2.6h42.9c1.4,0,2.6,1.1,2.6,2.6v29
		C54.8,59.3,53.6,60.4,52.2,60.4z"/>
	<g>
		<path class="st1" d="M51.1,46c0,2.8-2.3,5.1-5.1,5.1H5.1C2.3,51.1,0,48.8,0,46V5.1C0,2.3,2.3,0,5.1,0h40.8c2.8,0,5.1,2.3,5.1,5.1
			V46z"/>
	</g>
	<path class="st2" d="M65.1,22.2h-8.3c-1.1,0-2-0.9-2-2v-8.3c0-1.1,0.9-2,2-2h8.3c1.1,0,2,0.9,2,2v8.3
		C67.1,21.3,66.2,22.2,65.1,22.2z"/>
	<g>
		<path class="st3" d="M27.7,12.3c7.9,0,14.9,7,12.2,15.3c-1.1,3.3-4.1,6-7.2,7.2c-2,0.8-4.4,0.8-6.2,0.8c-0.3,0-0.6,0-0.9,0
			c-0.1,0-0.2,0-0.3,0c-0.1,0-0.2,0-0.3,0c-4.5,0-10.8-0.6-14.4-5.3c4.9,0,4-5.5,4.6-8.8c1-5,5.9-8.4,10.7-9
			C26.5,12.3,27.1,12.3,27.7,12.3 M27.7,10.5c-0.7,0-1.3,0-2,0.1c-2.8,0.4-5.5,1.5-7.6,3.2c-2.4,1.9-4,4.4-4.6,7.2
			c-0.2,0.8-0.2,1.7-0.3,2.6c-0.1,1.4-0.2,2.8-0.6,3.7c-0.3,0.6-0.7,1.1-2,1.1c-0.7,0-1.3,0.4-1.6,1c-0.3,0.6-0.2,1.3,0.2,1.8
			c4.1,5.4,11,6,15.8,6c0.1,0,0.2,0,0.4,0c0.1,0,0.2,0,0.3,0c0.1,0,0.3,0,0.4,0c0.2,0,0.3,0,0.5,0c2.2,0,4.6-0.1,6.8-0.9
			c1.8-0.7,3.5-1.8,5-3.1c1.6-1.5,2.7-3.3,3.3-5.1c0.7-2.1,0.9-4.2,0.5-6.2c-0.3-1.9-1.1-3.7-2.3-5.3c-1.3-1.8-3.1-3.4-5.2-4.4
			C32.4,11.1,30,10.5,27.7,10.5"/>
		<path class="st3" d="M25.4,21c0,0.9-0.8,1.7-1.7,1.7c-0.9,0-1.7-0.8-1.7-1.7c0-0.9,0.8-1.7,1.7-1.7C24.7,19.3,25.4,20,25.4,21"/>
		<path class="st3" d="M33.3,21c0,0.9-0.8,1.7-1.7,1.7c-0.9,0-1.7-0.8-1.7-1.7c0-0.9,0.8-1.7,1.7-1.7C32.5,19.3,33.3,20,33.3,21"/>
		<path class="st3" d="M27.6,30c-2.8,0-5.4-1.9-5.9-4.3c-0.1-0.5,0.2-0.9,0.7-1c0.5-0.1,0.9,0.2,1,0.7c0.3,1.4,2,2.9,4.3,2.9
			c2.4-0.1,4-1.5,4.3-2.9c0.1-0.5,0.6-0.8,1.1-0.7c0.5,0.1,0.8,0.6,0.7,1.1c-0.3,1.1-1,2.2-2,2.9c-1.1,0.8-2.4,1.2-3.9,1.3
			C27.7,30,27.7,30,27.6,30"/>
		<path class="st3" d="M15.7,37.1c0-1.9,1.6-3.5,3.5-3.5c1.9,0,3.5,1.6,3.5,3.5c0,1.9-1.6,3.5-3.5,3.5C17.3,40.6,15.7,39,15.7,37.1"
			/>
		<path class="st1" d="M18,37.1c0-0.6,0.5-1.1,1.1-1.1c0.6,0,1.1,0.5,1.1,1.1c0,0.6-0.5,1.1-1.1,1.1C18.5,38.2,18,37.7,18,37.1"/>
		<path class="st3" d="M27.7,37.1c0-1.9,1.6-3.5,3.5-3.5c1.9,0,3.5,1.6,3.5,3.5c0,1.9-1.6,3.5-3.5,3.5C29.3,40.6,27.7,39,27.7,37.1"
			/>
		<path class="st1" d="M30.1,37.1c0-0.6,0.5-1.1,1.1-1.1c0.6,0,1.1,0.5,1.1,1.1c0,0.6-0.5,1.1-1.1,1.1
			C30.6,38.2,30.1,37.7,30.1,37.1"/>
	</g>
</g>
</svg>
