<?xml version="1.0" encoding="utf-8"?>
<!-- Generator: Adobe Illustrator 21.0.2, SVG Export Plug-In . SVG Version: 6.00 Build 0)  -->
<svg version="1.1" id="Layer_1" xmlns="http://www.w3.org/2000/svg" xmlns:xlink="http://www.w3.org/1999/xlink" x="0px" y="0px"
	 viewBox="0 0 18.8 12.9" style="enable-background:new 0 0 18.8 12.9;" xml:space="preserve">
<style type="text/css">
	.st0{fill:#0194BE;}
</style>
<path class="st0" d="M18.8,1.4v10.2c0,0.8-0.6,1.4-1.4,1.4h-16c-0.8,0-1.4-0.6-1.4-1.4V1.4C0,0.7,0.4,0.2,1,0c0,0,0,0.1,0.1,0.1
	l7.7,7.7C9,7.9,9.2,8,9.4,8c0.2,0,0.5-0.1,0.6-0.3l7.7-7.7c0,0,0-0.1,0.1-0.1C18.4,0.2,18.8,0.7,18.8,1.4z"/>
<g>
	<polygon class="st0" points="16.5,-0.1 9.4,7 2.4,-0.1 	"/>
</g>
</svg>
