<?xml version="1.0" encoding="utf-8"?>
<!-- Generator: Adobe Illustrator 21.0.2, SVG Export Plug-In . SVG Version: 6.00 Build 0)  -->
<svg version="1.1" id="Layer_1" xmlns="http://www.w3.org/2000/svg" xmlns:xlink="http://www.w3.org/1999/xlink" x="0px" y="0px"
	 viewBox="0 0 33.4 23" style="enable-background:new 0 0 33.4 23;" xml:space="preserve">
<style type="text/css">
	.st0{opacity:0.9;}
	.st1{fill:#FFFFFF;}
</style>
<g>
	<g class="st0">
		<polygon class="st1" points="16.7,12.5 4.2,0 29.2,0 		"/>
		<path class="st1" d="M33.4,2.5v18c0,1.4-1.1,2.5-2.5,2.5H2.5C1.1,23,0,21.9,0,20.5v-18c0-1.1,0.8-2.1,1.8-2.4
			c0,0.1,0.1,0.1,0.1,0.2l13.6,13.6c0.3,0.3,0.7,0.5,1.2,0.5c0.4,0,0.8-0.2,1.2-0.5L31.4,0.3c0.1-0.1,0.1-0.1,0.1-0.2
			C32.6,0.4,33.4,1.4,33.4,2.5z"/>
	</g>
	<g>
		<polygon class="st1" points="29.2,0 16.7,12.5 4.2,0 		"/>
	</g>
</g>
</svg>
