<?xml version="1.0" encoding="utf-8"?>
<!-- Generator: Adobe Illustrator 21.0.2, SVG Export Plug-In . SVG Version: 6.00 Build 0)  -->
<svg version="1.1" id="Layer_1" xmlns="http://www.w3.org/2000/svg" xmlns:xlink="http://www.w3.org/1999/xlink" x="0px" y="0px"
	 viewBox="0 0 18.8 15.6" style="enable-background:new 0 0 18.8 15.6;" xml:space="preserve">
<style type="text/css">
	.st0{fill:#0194BE;}
	.st1{fill:none;stroke:#0194BE;stroke-miterlimit:10;}
</style>
<g>
	<path class="st0" d="M18.8,3.9v2.2h-8.4V5.8c0-0.3-0.3-0.6-0.6-0.6H9c-0.3,0-0.6,0.3-0.6,0.6v0.4H0V3.9c0-0.7,0.6-1.3,1.3-1.3h16.2
		C18.2,2.6,18.8,3.2,18.8,3.9z"/>
	<path class="st0" d="M10.5,7.1h8.4v7.2c0,0.7-0.6,1.3-1.3,1.3H1.3C0.6,15.6,0,15,0,14.3V7.1h8.4v0.4c0,0.3,0.3,0.6,0.6,0.6h0.9
		c0.3,0,0.6-0.3,0.6-0.6V7.1z"/>
	<path class="st1" d="M12.5,2.6V1.4c0-0.5-0.4-0.9-0.9-0.9l-4.5,0c-0.5,0-0.9,0.4-0.9,0.9v1.2"/>
</g>
</svg>
