<?xml version="1.0" encoding="utf-8"?>
<!-- Generator: Adobe Illustrator 21.0.2, SVG Export Plug-In . SVG Version: 6.00 Build 0)  -->
<svg version="1.1" id="Layer_1" xmlns="http://www.w3.org/2000/svg" xmlns:xlink="http://www.w3.org/1999/xlink" x="0px" y="0px"
	 viewBox="0 0 46 55" style="enable-background:new 0 0 46 55;" xml:space="preserve">
<style type="text/css">
	.st0{opacity:0.5;fill:#FFFFFF;}
	.st1{fill:#FFFFFF;}
	.st2{opacity:0.3;fill:#FFFFFF;}
	.st3{fill:#6D6E71;}
	.st4{fill:none;}
	.st5{fill:none;stroke:#C8C8C8;stroke-miterlimit:10;stroke-dasharray:3;}
	.st6{fill:none;stroke:#C8C8C8;stroke-miterlimit:10;stroke-dasharray:12;}
	.st7{fill:none;stroke:#0000FF;stroke-miterlimit:10;}
</style>
<path class="st0" d="M35.7,55.4H6.4c-1,0-1.8-0.8-1.8-1.8V33.9c0-1,0.8-1.8,1.8-1.8h29.3c1,0,1.8,0.8,1.8,1.8v19.8
	C37.4,54.6,36.6,55.4,35.7,55.4z"/>
<path class="st1" d="M0.1,17.6c0-1.9,1.6-3.5,3.5-3.5h27.8c1.9,0,3.5,1.6,3.5,3.5v27.8c0,1.9-1.6,3.5-3.5,3.5H3.6
	c-1.9,0-3.5-1.6-3.5-3.5"/>
<path class="st2" d="M44.5,29.3h-5.7c-0.8,0-1.4-0.6-1.4-1.4v-5.7c0-0.8,0.6-1.4,1.4-1.4h5.7c0.8,0,1.4,0.6,1.4,1.4v5.7
	C45.9,28.7,45.2,29.3,44.5,29.3z"/>
<g>
	<path class="st3" d="M19,22.5c5.4,0,10.2,4.8,8.3,10.4c-0.7,2.3-2.8,4.1-4.9,4.9c-1.4,0.5-3,0.6-4.2,0.6c-0.2,0-0.4,0-0.6,0
		c-0.1,0-0.1,0-0.2,0c-0.1,0-0.2,0-0.2,0c-3.1,0-7.3-0.4-9.8-3.6c3.4,0,2.7-3.8,3.1-6c0.7-3.4,4-5.7,7.3-6.1
		C18.2,22.5,18.6,22.5,19,22.5 M19,21.3c-0.5,0-0.9,0-1.4,0.1c-1.9,0.3-3.7,1-5.2,2.2c-1.7,1.3-2.7,3-3.1,4.9
		c-0.1,0.6-0.2,1.2-0.2,1.8c-0.1,0.9-0.1,1.9-0.4,2.5c-0.2,0.4-0.5,0.7-1.3,0.7c-0.5,0-0.9,0.3-1.1,0.7c-0.2,0.4-0.2,0.9,0.1,1.3
		c2.8,3.7,7.5,4.1,10.8,4.1c0.1,0,0.2,0,0.2,0c0.1,0,0.1,0,0.2,0c0.1,0,0.2,0,0.3,0c0.1,0,0.2,0,0.3,0c1.5,0,3.1-0.1,4.6-0.6
		c1.2-0.5,2.4-1.2,3.4-2.1c1.1-1,1.8-2.2,2.3-3.5c0.5-1.4,0.6-2.8,0.3-4.2c-0.2-1.3-0.7-2.5-1.5-3.6c-0.9-1.2-2.1-2.3-3.6-3
		C22.2,21.7,20.6,21.3,19,21.3"/>
	<path class="st3" d="M17.4,28.5c0,0.6-0.5,1.1-1.1,1.1c-0.6,0-1.1-0.5-1.1-1.1c0-0.6,0.5-1.1,1.1-1.1
		C16.9,27.3,17.4,27.8,17.4,28.5"/>
	<path class="st3" d="M22.8,28.5c0,0.6-0.5,1.1-1.1,1.1c-0.6,0-1.1-0.5-1.1-1.1c0-0.6,0.5-1.1,1.1-1.1
		C22.3,27.3,22.8,27.8,22.8,28.5"/>
	<path class="st3" d="M18.9,34.6c-1.9,0-3.7-1.3-4-2.9c-0.1-0.3,0.1-0.6,0.5-0.7c0.3-0.1,0.6,0.1,0.7,0.5c0.2,1,1.4,2,2.9,2
		c1.6,0,2.7-1,2.9-2c0.1-0.3,0.4-0.5,0.7-0.4c0.3,0.1,0.5,0.4,0.4,0.7c-0.2,0.8-0.7,1.5-1.4,2C21,34.3,20,34.6,19,34.6
		C19,34.6,19,34.6,18.9,34.6"/>
	<path class="st3" d="M10.8,39.4c0-1.3,1.1-2.4,2.4-2.4c1.3,0,2.4,1.1,2.4,2.4c0,1.3-1.1,2.4-2.4,2.4C11.9,41.8,10.8,40.8,10.8,39.4
		"/>
	<path class="st1" d="M12.4,39.4c0-0.4,0.3-0.8,0.8-0.8c0.4,0,0.8,0.3,0.8,0.8c0,0.4-0.3,0.8-0.8,0.8C12.7,40.2,12.4,39.9,12.4,39.4
		"/>
	<path class="st3" d="M19,39.4c0-1.3,1.1-2.4,2.4-2.4c1.3,0,2.4,1.1,2.4,2.4c0,1.3-1.1,2.4-2.4,2.4C20.1,41.8,19,40.8,19,39.4"/>
	<path id="SVGID_x5F_1_x5F_" class="st4" d="M20.6,39.4c0-0.4,0.3-0.8,0.8-0.8c0.4,0,0.8,0.3,0.8,0.8c0,0.4-0.3,0.8-0.8,0.8
		C20.9,40.2,20.6,39.9,20.6,39.4"/>
	<text>	<textPath  xlink:href="#SVGID_x5F_1_x5F_" startOffset="15.625%">
	</textPath>
</text>
</g>
<polyline class="st4" points="-0.2,0.6 45.9,0.6 45.9,55.4 -0.2,55.4 "/>
<line id="XMLID_344_" class="st5" x1="656" y1="100" x2="-624" y2="101"/>
<line id="Specctr_Canvas_Border_1._בית_2_" class="st6" x1="976" y1="100.5" x2="-944" y2="100.5"/>
<path class="st7" d="M46.4,21.7"/>
</svg>
