<?xml version="1.0" encoding="utf-8"?>
<!-- Generator: Adobe Illustrator 21.0.2, SVG Export Plug-In . SVG Version: 6.00 Build 0)  -->
<svg version="1.1" id="Layer_1" xmlns="http://www.w3.org/2000/svg" xmlns:xlink="http://www.w3.org/1999/xlink" x="0px" y="0px"
	 viewBox="0 0 65 70" style="enable-background:new 0 0 65 70;" xml:space="preserve">
<style type="text/css">
	.st0{opacity:0.5;fill:#0194BE;}
	.st1{opacity:0.5;fill:#BE4F00;}
	.st2{opacity:0.3;fill:#0194BE;}
	.st3{fill:#0194BE;}
	.st4{opacity:0.8;fill:#BE4F00;}
</style>
<g>
	<path class="st0" d="M23,17.9H5.8c-2.9,0-5.3,2.4-5.3,5.3v17.2c0,2.9,2.4,5.3,5.3,5.3H23c2.9,0,5.3-2.4,5.3-5.3V23.2
		C28.2,20.3,25.9,17.9,23,17.9z"/>
	<path class="st1" d="M19,31.8h34.5c2.6,0,4.7-2.1,4.7-4.7V14.8c0-2.6-2.1-4.7-4.7-4.7H19c-2.6,0-4.7,2.1-4.7,4.7v12.4
		C14.4,29.7,16.5,31.8,19,31.8z"/>
	<path class="st1" d="M63.7,34.7H49c-0.6,0-1.2,0.5-1.2,1.2v14.7c0,0.6,0.5,1.2,1.2,1.2l14.7,0c0.6,0,1.2-0.5,1.2-1.2V35.9
		C64.9,35.3,64.3,34.7,63.7,34.7z"/>
	<rect x="21.6" y="0.1" class="st2" width="19.6" height="14.9"/>
	<path class="st3" d="M42.7,34.7H26.6c-1.6,0-2.9,1.3-2.9,2.9v16.2c0,1.6,1.3,2.9,2.9,2.9h16.2c1.6,0,2.9-1.3,2.9-2.9V37.6
		C45.6,36,44.3,34.7,42.7,34.7z"/>
	<path class="st4" d="M55.9,59.6l-16.1,0c-0.7,0-1.3,0.6-1.3,1.3v7.7c0,0.7,0.6,1.3,1.3,1.3h16.1c0.7,0,1.3-0.6,1.3-1.3v-7.7
		C57.1,60.1,56.6,59.6,55.9,59.6z"/>
</g>
</svg>
