<?xml version="1.0" encoding="utf-8"?>
<!-- Generator: Adobe Illustrator 17.1.0, SVG Export Plug-In . SVG Version: 6.00 Build 0)  -->
<!DOCTYPE svg PUBLIC "-//W3C//DTD SVG 1.1//EN" "http://www.w3.org/Graphics/SVG/1.1/DTD/svg11.dtd">
<svg version="1.1" id="Layer_1" xmlns="http://www.w3.org/2000/svg" xmlns:xlink="http://www.w3.org/1999/xlink" x="0px" y="0px"
	 viewBox="0 0 55.4 78.1" enable-background="new 0 0 55.4 78.1" xml:space="preserve" height="78">
<g>
	<path opacity="0.8" fill="#BD5227" d="M9.3,69.1l17.1,8.5c1.3,0.6,2.8,0.6,4.1,0l17.1-8.5c2.5-1.3,2.5-4.9,0-6.2l-17.1-8.5
		c-1.3-0.6-2.8-0.6-4.1,0L9.3,62.9C6.8,64.2,6.8,67.8,9.3,69.1z"/>
	<path opacity="0.5" fill="#0095BF" d="M9.3,43.8l17.1,8.5c1.3,0.6,2.8,0.6,4.1,0l17.1-8.5c2.5-1.3,2.5-4.9,0-6.2l-17.1-8.5
		c-1.3-0.6-2.8-0.6-4.1,0L9.3,37.7C6.8,38.9,6.8,42.6,9.3,43.8z"/>
	<path opacity="0.9" fill="#0095BF" d="M9.3,18.6l17.1,8.5c1.3,0.6,2.8,0.6,4.1,0l17.1-8.5c2.5-1.3,2.5-4.9,0-6.2L30.5,3.9
		c-1.3-0.6-2.8-0.6-4.1,0L9.3,12.5C6.8,13.7,6.8,17.4,9.3,18.6z"/>
	<linearGradient id="SVGID_1_" gradientUnits="userSpaceOnUse" x1="14.0425" y1="18.6976" x2="14.0425" y2="51.7463">
		<stop  offset="0" style="stop-color:#0095BF;stop-opacity:0.1"/>
		<stop  offset="1" style="stop-color:#0095BF;stop-opacity:0.6"/>
	</linearGradient>
	<path fill="url(#SVGID_1_)" d="M7.2,19.1l16.9,8.6c1.2,0.6,2,1.9,2,3.3v17c0,2.7-2.9,4.5-5.3,3.3L4.2,43.2c-1.2-0.6-2-1.9-2.1-3.3
		L1.9,22.4C1.8,19.7,4.8,17.8,7.2,19.1z"/>
	<path opacity="0.3" fill="#0095BF" d="M2.6,18.9l8.1,4.1c0.6,0.3,1,0.9,1,1.6v8.1c0,1.3-1.4,2.2-2.5,1.6l-8-3.9
		c-0.6-0.3-1-0.9-1-1.6L0,20.5C0,19.2,1.4,18.3,2.6,18.9z"/>
	<path opacity="0.3" fill="#0095BF" d="M1.6,0.1l5.2,2.6c0.4,0.2,0.6,0.6,0.6,1v5.2c0,0.8-0.9,1.4-1.6,1L0.7,7.5
		c-0.4-0.2-0.6-0.6-0.6-1L0,1.1C0,0.3,0.9-0.3,1.6,0.1z"/>
	<linearGradient id="SVGID_2_" gradientUnits="userSpaceOnUse" x1="42.125" y1="44.0176" x2="42.125" y2="78.0731">
		<stop  offset="0" style="stop-color:#BD5227;stop-opacity:0.1"/>
		<stop  offset="1" style="stop-color:#BD5227;stop-opacity:0.6"/>
	</linearGradient>
	<path fill="url(#SVGID_2_)" d="M33.6,77.8l19.1-9.4c0.8-0.4,1.4-1.3,1.4-2.2V46.5c0-1.8-1.9-3-3.5-2.2l-19.1,9.4
		c-0.8,0.4-1.4,1.3-1.4,2.2v19.8C30.1,77.4,32,78.6,33.6,77.8z"/>
	<path opacity="0.5" fill="#BD5227" d="M34.5,63.9l9.6-4.7c0.4-0.2,0.7-0.6,0.7-1.1V40.7c0-0.9-0.9-1.5-1.8-1.1l-9.6,4.7
		c-0.4,0.2-0.7,0.6-0.7,1.1v17.4C32.7,63.7,33.7,64.3,34.5,63.9z"/>
	<path opacity="0.15" fill="#BD5227" d="M47.8,63.3l7.1-3.5c0.3-0.2,0.5-0.5,0.5-0.8v-5.9c0-0.7-0.7-1.1-1.3-0.8L47,55.8
		c-0.3,0.2-0.5,0.5-0.5,0.8v5.9C46.5,63.2,47.2,63.6,47.8,63.3z"/>
</g>
</svg>
