<?xml version="1.0" encoding="utf-8"?>
<!-- Generator: Adobe Illustrator 21.0.2, SVG Export Plug-In . SVG Version: 6.00 Build 0)  -->
<svg version="1.1" id="Layer_1" xmlns="http://www.w3.org/2000/svg" xmlns:xlink="http://www.w3.org/1999/xlink" x="0px" y="0px"
	 viewBox="0 0 665 451" style="enable-background:new 0 0 665 451;" xml:space="preserve">
<style type="text/css">
	.st0{fill:#C46120;}
	.st1{opacity:0.3;fill:#BB4F00;}
	.st2{opacity:0.4;fill:#FFFFFF;}
	.st3{opacity:0.3;fill:#0592BC;}
	.st4{opacity:0.7;fill:#BB4F00;}
	.st5{fill:#FFFFFF;stroke:#232020;stroke-miterlimit:10;}
	.st6{opacity:0.6;fill:#0592BC;}
	.st7{fill:#0592BC;}
	.st8{fill:#66BDD6;}
	.st9{fill:#00546B;}
	.st10{fill:#024459;}
	.st11{fill:#B0DDE9;}
	.st12{fill:#35A7C9;}
</style>
<g>
	<g>
		<polygon class="st0" points="168.9,237.5 168.1,237.1 79.2,192.7 82.9,190.8 168.9,233.8 204.1,216.2 240.1,234.2 238.6,237.1 
			204.1,219.9 		"/>
	</g>
	<g>
		<polygon class="st0" points="243,204.1 165.2,165.2 279.9,107.8 264.5,99.2 268.1,97.4 286.9,108 172.6,165.2 244.5,201.1 		"/>
	</g>
	<g>
		<polygon class="st0" points="393,160.7 389.3,158.8 465.6,120.7 469.3,122.5 		"/>
	</g>
	<g>
		<polygon class="st0" points="450.8,272.7 402,248.4 405.7,246.5 450.8,269 521.3,233.8 556.7,251.5 553,253.4 521.3,237.5 		"/>
	</g>
	<g>
		<polygon class="st0" points="323.7,385.4 306.1,376.6 411.8,323.8 331.5,283.6 335.2,281.8 419.2,323.8 313.5,376.6 327.3,383.5 
					"/>
	</g>
	<g>
		<g>
			<path class="st1" d="M664.7,307c0-0.8-0.4-1.6-1.2-2l-61.7-30.8c-3.1-1.5-6.6-1.5-9.7,0L530.5,305c-0.8,0.4-1.2,1.2-1.2,2v5.3
				c0,0.8,0.4,1.6,1.2,2l61.7,30.8c3.1,1.5,6.6,1.5,9.7,0l61.7-30.8c0.8-0.4,1.2-1.2,1.2-2V307z"/>
			<path class="st2" d="M530.5,308.9l61.7,30.8c3.1,1.5,6.6,1.5,9.7,0l61.7-30.8c1.6-0.8,1.6-3.1,0-4l-61.7-30.8
				c-3.1-1.5-6.6-1.5-9.7,0L530.5,305C528.8,305.8,528.8,308.1,530.5,308.9z"/>
		</g>
		<g>
			<path class="st3" d="M664.7,286.8c0-0.8-0.4-1.6-1.2-2L601.8,254c-3.1-1.5-6.6-1.5-9.7,0l-61.7,30.8c-0.8,0.4-1.2,1.2-1.2,2v5.3
				c0,0.8,0.4,1.6,1.2,2l61.7,30.8c3.1,1.5,6.6,1.5,9.7,0l61.7-30.8c0.8-0.4,1.2-1.2,1.2-2V286.8z"/>
			<path class="st2" d="M530.5,288.8l61.7,30.8c3.1,1.5,6.6,1.5,9.7,0l61.7-30.8c1.6-0.8,1.6-3.1,0-4L601.8,254
				c-3.1-1.5-6.6-1.5-9.7,0l-61.7,30.8C528.8,285.6,528.8,288,530.5,288.8z"/>
		</g>
		<g>
			<path class="st1" d="M664.7,266.7c0-0.8-0.4-1.6-1.2-2l-61.7-30.8c-3.1-1.5-6.6-1.5-9.7,0l-61.7,30.8c-0.8,0.4-1.2,1.2-1.2,2v5.3
				c0,0.8,0.4,1.6,1.2,2l61.7,30.8c3.1,1.5,6.6,1.5,9.7,0l61.7-30.8c0.8-0.4,1.2-1.2,1.2-2V266.7z"/>
			<path class="st2" d="M530.5,268.6l61.7,30.8c3.1,1.5,6.6,1.5,9.7,0l61.7-30.8c1.6-0.8,1.6-3.1,0-4l-61.7-30.8
				c-3.1-1.5-6.6-1.5-9.7,0l-61.7,30.8C528.8,265.5,528.8,267.8,530.5,268.6z"/>
		</g>
		<polygon class="st4" points="606.5,271 597,275.8 597,262.4 606.5,257.6 		"/>
		<polygon class="st4" points="587.5,271 597,275.8 597,262.4 587.5,257.6 		"/>
		<polygon class="st1" points="606.5,257.6 597,252.8 587.5,257.6 597,262.4 		"/>
		<path class="st4" d="M620.2,175.5c-0.6-0.5-1.3-0.8-2-1.1l-9.1-4.6l0,0c-4-2.1-9-1.6-15,1.4c-7.3,3.7-13,9.3-17,16.8
			c-4.1,7.6-6.2,15.8-6.6,24.7l9.5,4.8l9.2-4.6c0.3-5.7,1.7-10.7,4.1-15.1c2.5-4.4,5.7-7.6,9.8-9.7c1-0.5,1.9-0.9,2.8-1.1
			c0.6,1.7,1,3.7,1,6.2c0,4-0.7,7.7-2,11.2c-1.3,3.4-3.6,7.3-6.7,11.6c-3.7,5-6.5,9.8-8.2,14.4c-1.7,4.5-2.6,9.3-2.6,14.3v7l0,0l0,0
			l9.5,4.8v0l0,0l0,0l0,0l9.5-4.8v-5c0-4.1,0.6-7.7,1.9-10.9c1.2-3.2,3.6-7,6.9-11.6c7.5-10.2,11.3-20.9,11.3-32.1
			C626.6,184.1,624.4,178.6,620.2,175.5z"/>
		<path class="st5" d="M597,256.3"/>
		<path class="st5" d="M587.5,251.6"/>
		<g>
			<path class="st4" d="M580.1,217.4c0.3-8.9,2.5-17.1,6.6-24.7c4.1-7.6,9.7-13.2,17-16.8c6.7-3.4,12.2-3.5,16.5-0.4
				s6.4,8.6,6.4,16.6c0,11.2-3.8,21.9-11.3,32.1c-3.4,4.6-5.7,8.4-6.9,11.6c-1.2,3.2-1.9,6.8-1.9,10.9v5l-9.5,4.8v-7
				c0-5,0.8-9.7,2.6-14.3c1.7-4.5,4.5-9.3,8.2-14.4c3.2-4.3,5.4-8.2,6.7-11.6c1.3-3.4,2-7.1,2-11.2c0-4.8-1.2-8.1-3.7-10
				c-2.4-1.9-5.6-1.8-9.6,0.2c-4.1,2-7.3,5.3-9.8,9.7c-2.5,4.4-3.8,9.4-4.1,15.1L580.1,217.4z"/>
		</g>
		<polygon class="st4" points="606.5,271 597,275.8 597,262.4 606.5,257.6 		"/>
	</g>
	<g>
		<g>
			<path class="st3" d="M441.5,406c0-0.9-0.5-1.8-1.4-2.3l-71-35.5c-3.5-1.8-7.6-1.8-11.1,0l-71,35.5c-0.9,0.5-1.4,1.4-1.4,2.3v6.1
				c0,0.9,0.5,1.8,1.4,2.3l71,35.5c3.5,1.8,7.6,1.8,11.1,0l71-35.5c0.9-0.5,1.4-1.4,1.4-2.3V406z"/>
			<path class="st2" d="M287,408.3l71,35.5c3.5,1.8,7.6,1.8,11.1,0l71-35.5c1.9-0.9,1.9-3.6,0-4.6l-71-35.5c-3.5-1.8-7.6-1.8-11.1,0
				l-71,35.5C285.1,404.6,285.1,407.3,287,408.3z"/>
		</g>
		<polygon class="st6" points="374.4,411 363.5,416.5 363.5,401 374.4,395.6 		"/>
		<polygon class="st6" points="352.6,411 363.5,416.5 363.5,401 352.6,395.6 		"/>
		<polygon class="st3" points="374.4,395.6 363.5,390.1 352.6,395.6 363.5,401 		"/>
		<path class="st6" d="M390.2,301.1c-0.7-0.5-1.5-1-2.3-1.3l-10.4-5.2l0,0c-4.6-2.4-10.4-1.9-17.2,1.6c-8.4,4.2-14.9,10.7-19.6,19.4
			c-4.7,8.7-7.2,18.2-7.6,28.4l10.9,5.5l10.6-5.3c0.3-6.5,1.9-12.3,4.8-17.3c2.8-5.1,6.6-8.8,11.3-11.1c1.1-0.6,2.2-1,3.2-1.3
			c0.7,1.9,1.1,4.3,1.1,7.1c0,4.6-0.8,8.9-2.3,12.8c-1.5,3.9-4.1,8.4-7.7,13.4c-4.3,5.8-7.5,11.3-9.5,16.6c-2,5.2-3,10.7-3,16.4v8.1
			l0,0l0,0l10.9,5.5v0l0,0l0,0l0,0l10.9-5.5v-5.7c0-4.7,0.7-8.9,2.1-12.5c1.4-3.7,4.1-8.1,8-13.3c8.7-11.7,13-24,13-36.9
			C397.6,311,395.1,304.7,390.2,301.1z"/>
		<path class="st5" d="M363.5,394.1"/>
		<path class="st5" d="M352.6,388.6"/>
		<g>
			<path class="st6" d="M344.1,349.3c0.4-10.2,2.9-19.7,7.6-28.4c4.7-8.7,11.2-15.2,19.6-19.4c7.8-3.9,14.1-4.1,19-0.5
				s7.4,9.9,7.4,19.1c0,12.8-4.3,25.1-13,36.9c-3.9,5.2-6.6,9.7-8,13.3c-1.4,3.7-2.1,7.8-2.1,12.5v5.7l-10.9,5.5V386
				c0-5.7,0.9-11.2,3-16.4c2-5.2,5.2-10.8,9.5-16.6c3.6-5,6.2-9.5,7.7-13.4c1.5-3.9,2.3-8.2,2.3-12.8c0-5.5-1.4-9.3-4.2-11.5
				c-2.8-2.1-6.5-2.1-11,0.2c-4.7,2.4-8.5,6.1-11.3,11.1c-2.8,5.1-4.4,10.8-4.8,17.3L344.1,349.3z"/>
		</g>
		<polygon class="st6" points="374.4,411 363.5,416.5 363.5,401 374.4,395.6 		"/>
	</g>
	<g>
		<g>
			<path class="st1" d="M185.4,344.9c0-0.6-0.3-1.1-0.9-1.4l-44.3-22.2c-2.2-1.1-4.8-1.1-7,0l-44.3,22.2c-0.6,0.3-0.9,0.9-0.9,1.4
				v3.8c0,0.6,0.3,1.1,0.9,1.4l44.3,22.2c2.2,1.1,4.8,1.1,7,0l44.3-22.2c0.6-0.3,0.9-0.9,0.9-1.4V344.9z"/>
			<path class="st2" d="M88.8,346.4l44.3,22.2c2.2,1.1,4.8,1.1,7,0l44.3-22.2c1.2-0.6,1.2-2.3,0-2.9l-44.3-22.2
				c-2.2-1.1-4.8-1.1-7,0l-44.3,22.2C87.7,344.1,87.7,345.8,88.8,346.4z"/>
		</g>
		<polygon class="st4" points="143.5,348.1 136.7,351.5 136.7,341.8 143.5,338.4 		"/>
		<polygon class="st4" points="129.9,348.1 136.7,351.5 136.7,341.8 129.9,338.4 		"/>
		<polygon class="st1" points="143.5,338.4 136.7,335 129.9,338.4 136.7,341.8 		"/>
		<path class="st4" d="M153.3,279.4c-0.5-0.3-0.9-0.6-1.4-0.8l-6.5-3.3l0,0c-2.9-1.5-6.5-1.2-10.8,1c-5.2,2.6-9.3,6.7-12.2,12.1
			c-2.9,5.4-4.5,11.4-4.7,17.7l6.8,3.4l6.6-3.3c0.2-4.1,1.2-7.7,3-10.8c1.8-3.2,4.1-5.5,7.1-7c0.7-0.4,1.4-0.6,2-0.8
			c0.5,1.2,0.7,2.7,0.7,4.4c0,2.9-0.5,5.6-1.4,8c-0.9,2.5-2.6,5.2-4.8,8.4c-2.7,3.6-4.7,7.1-5.9,10.3c-1.3,3.3-1.9,6.7-1.8,10.3v5.1
			l0,0l0,0l6.8,3.4v0l0,0l0,0l0,0l6.8-3.4v-3.6c0-2.9,0.4-5.5,1.3-7.8c0.9-2.3,2.6-5.1,5-8.3c5.4-7.3,8.1-15,8.1-23.1
			C157.9,285.6,156.4,281.6,153.3,279.4z"/>
		<path class="st5" d="M136.7,337.5"/>
		<path class="st5" d="M129.9,334.1"/>
		<g>
			<path class="st4" d="M124.5,309.5c0.2-6.4,1.8-12.3,4.7-17.7c2.9-5.4,7-9.5,12.2-12.1c4.8-2.4,8.8-2.5,11.9-0.3
				c3.1,2.2,4.6,6.2,4.6,11.9c0,8-2.7,15.7-8.1,23.1c-2.4,3.3-4.1,6.1-5,8.3c-0.9,2.3-1.3,4.9-1.3,7.8v3.6l-6.8,3.4v-5.1
				c0-3.6,0.6-7,1.8-10.3c1.3-3.3,3.2-6.7,5.9-10.3c2.3-3.1,3.9-5.9,4.8-8.4c0.9-2.5,1.4-5.1,1.4-8c0-3.4-0.9-5.8-2.6-7.2
				c-1.7-1.3-4.1-1.3-6.9,0.1c-2.9,1.5-5.3,3.8-7.1,7c-1.8,3.2-2.8,6.8-3,10.8L124.5,309.5z"/>
		</g>
		<polygon class="st4" points="143.5,348.1 136.7,351.5 136.7,341.8 143.5,338.4 		"/>
	</g>
	<g>
		<g>
			<path class="st1" d="M99.4,177.9c0-0.5-0.3-1.1-0.9-1.4l-42.9-21.4c-2.1-1.1-4.6-1.1-6.7,0L6.1,176.5c-0.6,0.3-0.9,0.8-0.9,1.4
				v3.7c0,0.5,0.3,1.1,0.9,1.4L49,204.4c2.1,1.1,4.6,1.1,6.7,0L98.6,183c0.6-0.3,0.9-0.8,0.9-1.4V177.9z"/>
			<path class="st2" d="M6.1,179.3L49,200.7c2.1,1.1,4.6,1.1,6.7,0l42.9-21.4c1.1-0.6,1.1-2.2,0-2.8l-42.9-21.4
				c-2.1-1.1-4.6-1.1-6.7,0L6.1,176.5C5,177.1,5,178.7,6.1,179.3z"/>
		</g>
		<polygon class="st4" points="58.9,180.9 52.3,184.2 52.3,174.9 58.9,171.6 		"/>
		<polygon class="st4" points="45.8,180.9 52.3,184.2 52.3,174.9 45.8,171.6 		"/>
		<polygon class="st1" points="58.9,171.6 52.3,168.3 45.8,171.6 52.3,174.9 		"/>
		<path class="st4" d="M68.4,114.5c-0.4-0.3-0.9-0.6-1.4-0.8l-6.3-3.2l0,0c-2.8-1.4-6.3-1.1-10.4,0.9c-5.1,2.5-9,6.4-11.8,11.7
			c-2.8,5.3-4.3,11-4.6,17.2l6.6,3.3l6.4-3.2c0.2-3.9,1.2-7.4,2.9-10.5c1.7-3.1,4-5.3,6.8-6.7c0.7-0.3,1.3-0.6,1.9-0.8
			c0.4,1.2,0.7,2.6,0.7,4.3c0,2.8-0.5,5.4-1.4,7.8c-0.9,2.4-2.5,5.1-4.7,8.1c-2.6,3.5-4.5,6.8-5.7,10c-1.2,3.2-1.8,6.5-1.8,9.9v4.9
			l0,0l0,0l6.6,3.3v0l0,0l0,0l0,0l6.6-3.3V164c0-2.8,0.4-5.4,1.3-7.6c0.9-2.2,2.5-4.9,4.8-8.1c5.2-7.1,7.9-14.5,7.9-22.3
			C72.9,120.5,71.4,116.7,68.4,114.5z"/>
		<path class="st5" d="M52.3,170.7"/>
		<path class="st5" d="M45.8,167.4"/>
		<g>
			<path class="st4" d="M40.6,143.7c0.2-6.2,1.7-11.9,4.6-17.2c2.8-5.3,6.8-9.2,11.8-11.7c4.7-2.4,8.5-2.4,11.5-0.3
				c3,2.2,4.5,6,4.5,11.5c0,7.8-2.6,15.2-7.9,22.3c-2.4,3.2-4,5.9-4.8,8.1c-0.9,2.2-1.3,4.7-1.3,7.6v3.5l-6.6,3.3v-4.9
				c0-3.5,0.6-6.8,1.8-9.9c1.2-3.2,3.1-6.5,5.7-10c2.2-3,3.8-5.7,4.7-8.1c0.9-2.4,1.4-5,1.4-7.8c0-3.3-0.8-5.6-2.5-6.9
				c-1.7-1.3-3.9-1.3-6.7,0.1c-2.8,1.4-5.1,3.7-6.8,6.7c-1.7,3.1-2.7,6.6-2.9,10.5L40.6,143.7z"/>
		</g>
		<polygon class="st4" points="58.9,180.9 52.3,184.2 52.3,174.9 58.9,171.6 		"/>
	</g>
	<g>
		<g>
			<path class="st3" d="M284.5,84.2c0-0.6-0.3-1.2-0.9-1.5l-46.3-23.1c-2.3-1.1-5-1.1-7.3,0l-46.3,23.1c-0.6,0.3-0.9,0.9-0.9,1.5v4
				c0,0.6,0.3,1.2,0.9,1.5l46.3,23.1c2.3,1.1,5,1.1,7.3,0l46.3-23.1c0.6-0.3,0.9-0.9,0.9-1.5V84.2z"/>
			<path class="st2" d="M183.8,85.7l46.3,23.1c2.3,1.1,5,1.1,7.3,0l46.3-23.1c1.2-0.6,1.2-2.4,0-3l-46.3-23.1c-2.3-1.1-5-1.1-7.3,0
				l-46.3,23.1C182.5,83.3,182.5,85.1,183.8,85.7z"/>
		</g>
		<g>
			<path class="st1" d="M284.5,73.2c0-0.6-0.3-1.2-0.9-1.5l-46.3-23.1c-2.3-1.1-5-1.1-7.3,0l-46.3,23.1c-0.6,0.3-0.9,0.9-0.9,1.5v4
				c0,0.6,0.3,1.2,0.9,1.5l46.3,23.1c2.3,1.1,5,1.1,7.3,0l46.3-23.1c0.6-0.3,0.9-0.9,0.9-1.5V73.2z"/>
			<path class="st2" d="M183.8,74.7L230,97.8c2.3,1.1,5,1.1,7.3,0l46.3-23.1c1.2-0.6,1.2-2.4,0-3l-46.3-23.1c-2.3-1.1-5-1.1-7.3,0
				l-46.3,23.1C182.5,72.3,182.5,74,183.8,74.7z"/>
		</g>
		<polygon class="st4" points="240.8,76.4 233.7,80 233.7,69.9 240.8,66.4 		"/>
		<polygon class="st4" points="226.6,76.4 233.7,80 233.7,69.9 226.6,66.4 		"/>
		<polygon class="st1" points="240.8,66.4 233.7,62.8 226.6,66.4 233.7,69.9 		"/>
		<path class="st4" d="M251.1,4.8c-0.5-0.3-1-0.6-1.5-0.9l-6.8-3.4l0,0c-3-1.6-6.8-1.2-11.2,1c-5.5,2.7-9.7,7-12.8,12.6
			c-3,5.7-4.7,11.9-4.9,18.5l7.1,3.6l6.9-3.5c0.2-4.2,1.3-8,3.1-11.3c1.9-3.3,4.3-5.7,7.4-7.3c0.7-0.4,1.4-0.6,2.1-0.8
			c0.5,1.3,0.7,2.8,0.7,4.6c0,3-0.5,5.8-1.5,8.4c-1,2.6-2.7,5.5-5.1,8.7c-2.8,3.8-4.9,7.4-6.2,10.8c-1.3,3.4-2,7-1.9,10.7v5.3l0,0
			l0,0l7.1,3.6v0l0,0l0,0l0,0l7.1-3.6v-3.7c0-3.1,0.5-5.8,1.4-8.2c0.9-2.4,2.7-5.3,5.2-8.7c5.7-7.7,8.5-15.7,8.5-24.1
			C255.9,11.2,254.3,7.1,251.1,4.8z"/>
		<path class="st5" d="M233.7,65.4"/>
		<path class="st5" d="M226.6,61.9"/>
		<g>
			<path class="st4" d="M221,36.2c0.2-6.7,1.9-12.8,4.9-18.5c3-5.7,7.3-9.9,12.8-12.6c5.1-2.5,9.2-2.6,12.4-0.3s4.8,6.5,4.8,12.5
				c0,8.4-2.8,16.4-8.5,24.1c-2.5,3.4-4.3,6.3-5.2,8.7c-0.9,2.4-1.4,5.1-1.4,8.2v3.7l-7.1,3.6v-5.3c0-3.7,0.6-7.3,1.9-10.7
				c1.3-3.4,3.4-7,6.2-10.8c2.4-3.3,4.1-6.2,5.1-8.7c1-2.6,1.5-5.4,1.5-8.4c0-3.6-0.9-6.1-2.7-7.5c-1.8-1.4-4.2-1.3-7.2,0.1
				c-3.1,1.5-5.5,4-7.4,7.3c-1.9,3.3-2.9,7.1-3.1,11.3L221,36.2z"/>
		</g>
		<polygon class="st4" points="240.8,76.4 233.7,80 233.7,69.9 240.8,66.4 		"/>
	</g>
	<g>
		<g>
			<path class="st3" d="M552.5,105.4c0-0.6-0.3-1.2-1-1.6l-48.7-24.3c-2.4-1.2-5.2-1.2-7.6,0l-48.7,24.3c-0.6,0.3-1,0.9-1,1.6v4.2
				c0,0.6,0.3,1.2,1,1.6l48.7,24.3c2.4,1.2,5.2,1.2,7.6,0l48.7-24.3c0.6-0.3,1-0.9,1-1.6V105.4z"/>
			<path class="st2" d="M446.5,106.9l48.7,24.3c2.4,1.2,5.2,1.2,7.6,0l48.7-24.3c1.3-0.6,1.3-2.5,0-3.1l-48.7-24.3
				c-2.4-1.2-5.2-1.2-7.6,0l-48.7,24.3C445.2,104.4,445.2,106.3,446.5,106.9z"/>
		</g>
		<polygon class="st6" points="506.5,108.8 499,112.5 499,102 506.5,98.2 		"/>
		<polygon class="st6" points="491.5,108.8 499,112.5 499,102 491.5,98.2 		"/>
		<polygon class="st3" points="506.5,98.2 499,94.5 491.5,98.2 499,102 		"/>
		<path class="st6" d="M517.3,33.4c-0.5-0.4-1-0.7-1.5-0.9l-7.2-3.6l0,0c-3.2-1.6-7.1-1.3-11.8,1.1c-5.7,2.9-10.2,7.3-13.4,13.3
			c-3.2,6-4.9,12.5-5.2,19.5l7.5,3.8l7.3-3.7c0.2-4.5,1.3-8.4,3.3-11.9c1.9-3.5,4.5-6,7.7-7.6c0.8-0.4,1.5-0.7,2.2-0.9
			c0.5,1.3,0.8,2.9,0.8,4.9c0,3.2-0.5,6.1-1.6,8.8c-1,2.7-2.8,5.8-5.3,9.2c-3,4-5.1,7.8-6.5,11.4c-1.4,3.6-2.1,7.3-2,11.3v5.6l0,0
			l0,0l7.5,3.8v0l0,0l0,0l0,0l7.5-3.7v-3.9c0-3.2,0.5-6.1,1.5-8.6c1-2.5,2.8-5.6,5.5-9.1c5.9-8.1,8.9-16.5,8.9-25.3
			C522.4,40.2,520.7,35.9,517.3,33.4z"/>
		<path class="st5" d="M499,97.2"/>
		<path class="st5" d="M491.5,93.5"/>
		<g>
			<path class="st6" d="M485.7,66.5c0.3-7,2-13.5,5.2-19.5c3.2-6,7.7-10.4,13.4-13.3c5.3-2.7,9.7-2.8,13-0.3
				c3.4,2.5,5.1,6.8,5.1,13.1c0,8.8-3,17.2-8.9,25.3c-2.7,3.6-4.5,6.6-5.5,9.1c-1,2.5-1.5,5.4-1.5,8.6v3.9l-7.5,3.7v-5.6
				c0-3.9,0.6-7.7,2-11.3c1.4-3.6,3.5-7.4,6.5-11.4c2.5-3.4,4.3-6.5,5.3-9.2c1-2.7,1.6-5.6,1.6-8.8c0-3.8-1-6.4-2.9-7.9
				c-1.9-1.5-4.4-1.4-7.6,0.2c-3.2,1.6-5.8,4.2-7.7,7.6c-1.9,3.5-3,7.4-3.3,11.9L485.7,66.5z"/>
		</g>
		<polygon class="st6" points="506.5,108.8 499,112.5 499,102 506.5,98.2 		"/>
	</g>
	<path class="st7" d="M422.5,175.5l-60-30c-6.4-3.5-14.5-4.1-21.8-0.3l-80.4,41.5c-16.3,8.4-26.6,25.3-26.6,43.6v40.6l61.7,30.8
		l141-70.5v-34.5C436.3,186.9,430.4,179,422.5,175.5z"/>
	<g>
		<path class="st8" d="M295.4,301.7l141-70.5v-34.5c0-17.4-18.5-28.7-33.9-20.7L322,217.5c-16.3,8.4-26.6,25.3-26.6,43.6V301.7z"/>
		<g>
			<path class="st7" d="M380.1,58.2l-9.9-5c-3.6-1.8-7.5-2-11-0.9l0,0l0,0c-0.1,0-0.2,0.1-0.3,0.1l-5.5,1.7l0,0
				c-6,1.8-10.7,7.2-10.7,14.3v27.3c0,10.6,6,20.3,15.5,25.1l9.9,5c3.8,1.9,7.8,2,11.3,0.8l0,0l5.6-1.8c0,0,0,0,0,0l0,0l0,0
				c5.8-1.9,10.3-7.3,10.3-14.2V83.3C395.6,72.7,389.6,63,380.1,58.2z"/>
			<path class="st9" d="M377,59l-9.9-5c-3.6-1.8-7.5-2-11-0.9l0,0l0,0c-0.1,0-0.2,0.1-0.3,0.1l-5.5,1.7l0,0
				c-6,1.8-10.7,7.2-10.7,14.3v27.3c0,10.6,6,20.3,15.5,25.1l9.9,5c3.8,1.9,7.8,2,11.3,0.8l0,0l5.6-1.8c0,0,0,0,0,0l0,0l0,0
				c5.8-1.9,10.3-7.3,10.3-14.2V84.1C392.5,73.4,386.5,63.7,377,59z"/>
			<path class="st10" d="M373.7,59.8l-9.9-5c-3.6-1.8-7.5-2-11-0.9l0,0l0,0c-0.1,0-0.2,0.1-0.3,0.1l-5.5,1.7l0,0
				c-6,1.8-10.7,7.2-10.7,14.3v24.3c0,10.6,6,20.3,15.5,25.1l9.9,5c3.8,1.9,7.8,2,11.3,0.8l0,0l5.6-1.8c0,0,0,0,0,0l0,0l0,0
				c5.8-1.9,10.3-7.3,10.3-14.2V84.9C389.2,74.3,383.2,64.6,373.7,59.8z"/>
			<path class="st11" d="M376,32.7v29.7l-17.5-8.7V22.4l17.4,8.7c0,0,0,0,0,0C376,31.7,376,32.2,376,32.7z"/>
			<circle class="st8" cx="324.4" cy="113.5" r="69.5"/>
			<path class="st10" d="M282.4,103.1l-9.9-5c-3.6-1.8-7.5-2-11-0.9l0,0l0,0c-0.1,0-0.2,0.1-0.3,0.1l-5.5,1.7l0,0
				c-6,1.8-10.7,7.2-10.7,14.3v24.3c0,10.6,6,20.3,15.5,25.1l9.9,5c3.8,1.9,7.8,2,11.3,0.8l0,0l5.6-1.8c0,0,0,0,0,0l0,0l0,0
				c5.8-1.9,10.3-7.3,10.3-14.2v-24.3C297.9,117.6,291.9,107.9,282.4,103.1z"/>
			<path class="st9" d="M278.1,104.3l-9.9-5c-3.6-1.8-7.5-2-11-0.9l0,0l0,0c-0.1,0-0.2,0.1-0.3,0.1l-5.5,1.7l0,0
				c-6,1.8-10.7,7.2-10.7,14.3v29c0,10.6,6,20.3,15.5,25.1l9.9,5c3.8,1.9,7.8,2,11.3,0.8l0,0l5.6-1.8c0,0,0,0,0,0l0,0l0,0
				c5.8-1.9,10.3-7.3,10.3-14.2v-29C293.6,118.8,287.6,109.1,278.1,104.3z"/>
			<path class="st7" d="M273.9,105.5l-9.9-5c-3.6-1.8-7.5-2-11-0.9l0,0l0,0c-0.1,0-0.2,0.1-0.3,0.1l-5.5,1.7l0,0
				c-6,1.8-10.7,7.2-10.7,14.3v29c0,10.6,6,20.3,15.5,25.1l9.9,5c3.8,1.9,7.8,2,11.3,0.8l0,0l5.6-1.8c0,0,0,0,0,0l0,0l0,0
				c5.8-1.9,10.3-7.3,10.3-14.2v-29C289.4,120,283.4,110.3,273.9,105.5z"/>
			<path class="st12" d="M252.1,169.8l9.9,5c9.9,4.9,21.5-2.2,21.5-13.3v-29c0-10.6-6-20.3-15.5-25.1l-9.9-5
				c-9.9-4.9-21.5,2.2-21.5,13.3v29C236.6,155.3,242.6,165,252.1,169.8z"/>
			<path class="st12" d="M376,31.2C376,31.2,376,31.2,376,31.2l-17.4-8.7v0c0-1.2-0.1-2.3-0.4-3.4c0.5-0.2,1-0.3,1.5-0.4
				c2.7-0.6,5.4-0.3,7.9,0.5c0,0,0.1,0,0.2,0.1c0.4,0.1,0.7,0.3,1.1,0.4c0,0,0,0,0,0c0,0,0,0,0,0c0.2,0.1,0.5,0.3,0.7,0.5
				c0.1,0,0.1,0.1,0.1,0.1c0,0,0.1,0.1,0.1,0.1C373.2,22.9,375.5,26.7,376,31.2z"/>
			<polygon class="st11" points="275.9,96.6 275.9,109.5 256.7,100 256.7,87.1 271.3,94.3 			"/>
			<path class="st12" d="M369.3,18.2L369.3,18.2c-3-1.6-6.6-2.2-10.1-1.4c-0.5,0.1-1,0.2-1.5,0.4c-0.8,0.2-1.6,0.6-2.4,1l-51.3,26.2
				c-17.2,8.6-28,26.1-28,45.3v6.9l-4.5-2.3l-14.6-7.3v-6.9c0-19.2,10.9-36.8,28-45.3l51.3-26.2c4.8-2.4,10-2.1,14.1,0.1l-0.1-0.1
				l7.6,3.8L369.3,18.2z"/>
			<path class="st7" d="M377.7,32v29.6l-1.6,0.8V32.7c0-0.5,0-1.1-0.1-1.6c0,0,0,0,0,0c-0.4-4.5-2.8-8.3-6-10.8c0,0-0.1-0.1-0.1-0.1
				c0,0-0.1-0.1-0.1-0.1c-0.5-0.4-1.4-0.7-1.8-0.9c-0.1-0.1-0.2-0.1-0.2-0.1c-2.5-0.9-5.2-1.1-7.9-0.5c-0.5,0.1-1,0.2-1.5,0.4
				c0,0,0,0,0,0c-0.8,0.2-1.6,0.6-2.4,1l-49.9,25.5c-17.2,8.6-28,24.1-28,45.3v17.7l-2,1V89.7c0-19.2,10.8-36.8,28-45.3l51.3-26.2
				c0.8-0.4,1.6-0.7,2.4-1c0.5-0.2,1-0.3,1.5-0.4c3.5-0.7,7.1-0.1,10.1,1.5C374.1,20.8,377.7,25.8,377.7,32z"/>
			<g>
				<path class="st10" d="M354.3,160.8L354.3,160.8c0,4.2,4.4,6.9,8.2,5l14.6-7.3c2.2-1.1,3.7-3.4,3.7-5.9v0c0-4.2-4.4-6.9-8.2-5
					l-14.6,7.3C355.7,156,354.3,158.3,354.3,160.8z"/>
				<g>
					<path class="st9" d="M325.7,180.7c-0.4,0-0.8-0.1-1.2-0.3l-35.2-17.6c-1.4-0.7-1.9-2.3-1.2-3.7c0.7-1.4,2.3-1.9,3.7-1.2l34,17
						l29.6-14.8c1.4-0.7,3-0.1,3.7,1.2c0.7,1.4,0.1,3-1.2,3.7l-30.8,15.4C326.5,180.6,326.1,180.7,325.7,180.7z"/>
				</g>
			</g>
		</g>
	</g>
	<g>
		<polygon class="st0" points="163,332.7 159.3,330.9 257.5,281.7 259,284.6 		"/>
	</g>
</g>
</svg>
