<?xml version="1.0" encoding="utf-8"?>
<!-- Generator: Adobe Illustrator 21.0.2, SVG Export Plug-In . SVG Version: 6.00 Build 0)  -->
<svg version="1.1" id="Layer_1" xmlns="http://www.w3.org/2000/svg" xmlns:xlink="http://www.w3.org/1999/xlink" x="0px" y="0px"
	 viewBox="0 0 300.5 496.7" style="enable-background:new 0 0 300.5 496.7;" xml:space="preserve">
<style type="text/css">
	.st0{fill:#FFFFFF;}
	.st1{fill:none;stroke:#C16019;stroke-linejoin:round;}
	.st2{fill:none;stroke:#C16019;stroke-linejoin:round;stroke-dasharray:4.4777,4.4777;}
	.st3{fill:#0592BC;}
	.st4{fill:#35A7C9;}
	.st5{fill:#CCE7F0;}
	.st6{opacity:0.5;fill:#0592BC;}
	.st7{fill:#DCA47F;}
	.st8{fill:#C97233;}
	.st9{fill:#C16019;}
	.st10{opacity:0.45;fill:#0592BC;}
	.st11{opacity:0.4;fill:#FFFFFF;}
	.st12{opacity:0.8;fill:#35A7C9;}
	.st13{opacity:0.5;fill:#BB4F00;}
	.st14{opacity:0.7;fill:#BB4F00;}
	.st15{opacity:0.3;fill:#0592BC;}
	.st16{opacity:0.6;fill:#0592BC;}
	.st17{opacity:0.9;fill:#0592BC;}
	.st18{fill:#D0814C;}
	.st19{fill:none;stroke:#C16019;stroke-miterlimit:10;}
	.st20{fill:none;stroke:#C16019;stroke-linejoin:round;stroke-dasharray:3.9904,3.9904;}
	.st21{fill:none;stroke:#C16019;stroke-linejoin:round;stroke-dasharray:3.9289,3.9289;}
	.st22{fill:none;stroke:#C16019;stroke-linejoin:round;stroke-dasharray:3.9418,3.9418;}
	.st23{fill:none;stroke:#C16019;stroke-linejoin:round;stroke-miterlimit:10;stroke-dasharray:4;}
	.st24{opacity:0.8;fill:#0592BC;}
	.st25{opacity:0.15;fill:#BB4F00;}
	.st26{fill:#00546B;}
</style>
<g id="XMLID_11_">
	<g>
		<line class="st0" x1="96.2" y1="117.5" x2="64.5" y2="101.6"/>
		<g>
			<line class="st1" x1="96.2" y1="117.5" x2="94.4" y2="116.6"/>
			<line class="st2" x1="90.4" y1="114.6" x2="68.3" y2="103.5"/>
			<line class="st1" x1="66.3" y1="102.5" x2="64.5" y2="101.6"/>
		</g>
	</g>
	<g>
		<path class="st3" d="M300.5,421.5c0-1.4-0.7-2.7-2.1-3.4l-156-78.8c-3.5-1.7-7.5-1.8-11,0L2.1,403.9c-1.3,0.7-2,2-2.1,3.2l0,0
			l0,0.1v0l0,5.7c-0.1,1.4,0.6,2.8,2.1,3.6l157.7,78.8c3.5,1.7,7.5,1.7,11,0l127.7-64.7c1.4-0.7,2.1-2.1,2.1-3.4V421.5z"/>
		<path class="st4" d="M2.1,410.7l157.7,78.8c3.5,1.7,7.5,1.7,11,0l127.7-64.7c2.8-1.4,2.8-5.4,0-6.8l-156-78.8
			c-3.5-1.7-7.5-1.8-11,0L2.1,403.9C-0.7,405.3-0.7,409.3,2.1,410.7z"/>
		<polygon class="st5" points="14.8,408.2 152.9,476.4 275.2,414.4 138.6,346.3 		"/>
		<ellipse class="st3" cx="227" cy="449.3" rx="9.2" ry="4.6"/>
	</g>
	<g>
		<path class="st6" d="M85.8,109.5v18.7c0,0.3,0.2,0.6,0.5,0.8l1.7,0.8c0.2,0.1,0.5,0.1,0.8,0l15.5-7.6c0.8-0.4,1.3-1.2,1.3-2.1
			v-18.5c0-0.3-0.2-0.6-0.4-0.7l-1.8-0.9c-0.2-0.1-0.5-0.1-0.7,0l-15.8,7.7C86.2,108.1,85.8,108.8,85.8,109.5z"/>
		<path class="st6" d="M88.4,110.8v17.8c0,0.6,0.7,1.1,1.3,0.8l14.6-7.2c0.8-0.4,1.3-1.2,1.3-2.1v-17.8c0-0.6-0.6-1-1.1-0.7l-15,7.4
			C88.8,109.4,88.4,110.1,88.4,110.8z"/>
	</g>
	<path class="st7" d="M205.7,303l-100.2,50.3l47.9-72.3c1.3-2,3-2.8,4.3-2.2L205.7,303z"/>
	<polygon class="st8" points="110.8,356 110.8,444.5 105.5,441.9 105.5,353.3 	"/>
	<path class="st9" d="M211,305.7l-5.3,8L167,372l-4-2c-1.3-0.7-3,0.2-4.3,2.2l-4,6L110.8,356l-5.3-2.7L205.7,303L211,305.7z"/>
	<g>
		<polygon class="st10" points="120.7,413.8 205.7,371.3 205.7,229.6 120.7,272.1 		"/>
		<polygon class="st11" points="120.7,413.8 205.7,371.3 205.7,229.6 120.7,272.1 		"/>
		<polygon class="st12" points="129.5,286.3 196.8,252.7 196.8,248.8 129.5,282.5 		"/>
		<polygon class="st12" points="129.5,293.7 196.8,260 196.8,256.2 129.5,289.8 		"/>
		<polygon class="st12" points="129.5,301.1 196.8,267.4 196.8,263.6 129.5,297.2 		"/>
		<polygon class="st12" points="129.5,308.4 170.5,287.9 170.5,284.1 129.5,304.6 		"/>
		<polygon class="st12" points="129.5,315.8 170.5,295.3 170.5,291.5 129.5,312 		"/>
		<polygon class="st12" points="129.5,323.2 170.5,302.7 170.5,298.8 129.5,319.4 		"/>
		<polygon class="st12" points="129.5,330.6 170.5,310.1 170.5,306.2 129.5,326.7 		"/>
		<polygon class="st12" points="129.5,337.9 196.8,304.3 196.8,300.5 129.5,334.1 		"/>
		<polygon class="st12" points="129.5,345.3 196.8,311.7 196.8,307.8 129.5,341.5 		"/>
		<polygon class="st12" points="129.5,352.7 196.8,319.1 196.8,315.2 129.5,348.9 		"/>
		<polygon class="st12" points="129.5,360.1 196.8,326.4 196.8,322.6 129.5,356.2 		"/>
		<polygon class="st12" points="129.5,367.5 196.8,333.8 196.8,330 129.5,363.6 		"/>
		<polygon class="st12" points="129.5,374.8 196.8,341.2 196.8,337.4 129.5,371 		"/>
		<polygon class="st12" points="129.5,382.2 196.8,348.6 196.8,344.7 129.5,378.4 		"/>
		<polygon class="st12" points="129.5,389.6 196.8,355.9 196.8,352.1 129.5,385.8 		"/>
		<polygon class="st4" points="129.5,397 196.8,363.3 196.8,359.5 129.5,393.1 		"/>
		<polygon class="st12" points="196.8,271 196.8,296.9 173.3,308.7 173.3,283 		"/>
	</g>
	<g>
		<polygon class="st13" points="184.4,209.8 221.9,191.1 221.9,128.6 184.4,147.3 		"/>
		<polygon class="st14" points="188.3,160.1 218,145.2 218,143.5 188.3,158.4 		"/>
		<polygon class="st14" points="188.3,163.3 218,148.6 218,146.9 188.3,161.7 		"/>
		<polygon class="st14" points="188.3,166.6 218,151.8 218,150.1 188.3,164.9 		"/>
		<polygon class="st14" points="188.3,169.9 218,155.1 218,153.4 188.3,168.2 		"/>
		<polygon class="st14" points="188.3,173.1 218,158.3 218,156.6 188.3,171.4 		"/>
		<polygon class="st14" points="188.3,176.4 218,161.5 218,159.8 188.3,174.7 		"/>
		<polygon class="st14" points="188.3,186.1 218,171.3 218,169.6 188.3,184.4 		"/>
		<polygon class="st14" points="188.3,189.4 218,174.5 218,172.9 188.3,187.7 		"/>
		<polygon class="st14" points="188.3,192.7 218,177.8 218,176.1 188.3,191 		"/>
		<polygon class="st14" points="188.3,195.9 218,181.1 218,179.4 188.3,194.2 		"/>
	</g>
	<g>
		<polygon class="st15" points="184.4,131.7 221.9,113 221.9,50.5 184.4,69.2 		"/>
		<polygon class="st16" points="188.3,82 218,67.1 218,65.4 188.3,80.3 		"/>
		<polygon class="st16" points="188.3,85.2 218,70.5 218,68.8 188.3,83.5 		"/>
		<polygon class="st16" points="188.3,88.5 218,73.7 218,72 188.3,86.8 		"/>
		<polygon class="st16" points="188.3,91.8 218,77 218,75.3 188.3,90.1 		"/>
		<polygon class="st16" points="188.3,95 218,80.2 218,78.5 188.3,93.3 		"/>
		<polygon class="st16" points="188.3,98.3 218,83.4 218,81.7 188.3,96.6 		"/>
		<polygon class="st16" points="191.9,116 216.3,103.8 216.3,92.4 191.9,104.6 		"/>
	</g>
	<g>
		<polygon class="st16" points="124.9,163.6 149.5,151.3 149.5,110.3 124.9,122.6 		"/>
		<polygon class="st17" points="127.4,148.1 146.9,138.3 146.9,137.2 127.4,147 		"/>
		<polygon class="st17" points="127.4,150.2 146.9,140.5 146.9,139.4 127.4,149.1 		"/>
		<polygon class="st17" points="127.4,152.4 146.9,142.6 146.9,141.5 127.4,151.3 		"/>
		<polygon class="st17" points="127.4,154.5 146.9,144.8 146.9,143.6 127.4,153.4 		"/>
		<polygon class="st17" points="127.4,129.9 127.4,141.7 146.9,131.9 146.9,120.1 		"/>
	</g>
	<polygon class="st18" points="211,305.7 211,394.2 205.7,391.5 167,372 205.7,313.7 	"/>
	<polygon class="st18" points="154.7,378.2 116.1,436.5 110.8,444.5 110.8,356 	"/>
	<path class="st7" d="M211,394.2l-100.2,50.3l5.3-8l38.6-58.3l4-6c1.3-2,3-2.8,4.3-2.2l4,2l38.6,19.5L211,394.2z"/>
	<polyline class="st19" points="159.9,252.5 159.9,241.7 203.2,219.4 203.2,200.5 	"/>
	<g>
		<line class="st0" x1="124.7" y1="131.7" x2="96.2" y2="117.5"/>
		<g>
			<line class="st1" x1="124.7" y1="131.7" x2="122.9" y2="130.9"/>
			<line class="st20" x1="119.4" y1="129.1" x2="99.7" y2="119.2"/>
			<line class="st1" x1="97.9" y1="118.4" x2="96.2" y2="117.5"/>
		</g>
	</g>
	<line class="st19" x1="184.4" y1="161.6" x2="137.2" y2="138"/>
	<g>
		<polygon class="st16" points="96.5,177.8 121.2,165.5 121.2,124.5 96.5,136.8 		"/>
		<polygon class="st17" points="99.1,162.3 118.6,152.5 118.6,151.4 99.1,161.1 		"/>
		<polygon class="st17" points="99.1,164.4 118.6,154.6 118.6,153.5 99.1,163.3 		"/>
		<polygon class="st17" points="99.1,166.5 118.6,156.8 118.6,155.7 99.1,165.4 		"/>
		<polygon class="st17" points="99.1,168.7 118.6,158.9 118.6,157.8 99.1,167.6 		"/>
		<polygon class="st17" points="99.1,144 99.1,155.8 118.6,146.1 118.6,134.3 		"/>
	</g>
	<g>
		<g>
			<line class="st1" x1="64.4" y1="147.6" x2="62.6" y2="146.7"/>
			<line class="st21" x1="59.1" y1="145" x2="39.8" y2="135.3"/>
			<polyline class="st1" points="38,134.4 36.2,133.5 36.2,131.5 			"/>
			<line class="st1" x1="36.2" y1="127.5" x2="36.2" y2="125.5"/>
		</g>
	</g>
	<polygon class="st6" points="9.7,138.8 66.3,110.5 66.3,53.8 9.7,82.2 	"/>
	<polygon class="st3" points="39.2,79.5 61.8,68.2 61.8,66.5 39.2,77.8 	"/>
	<polygon class="st3" points="39.2,82.7 61.8,71.5 61.8,69.8 39.2,81 	"/>
	<polygon class="st3" points="39.2,86 61.8,74.7 61.8,73 39.2,84.3 	"/>
	<polygon class="st3" points="39.2,89.2 61.8,78 61.8,76.3 39.2,87.5 	"/>
	<polygon class="st3" points="39.2,92.5 61.8,81.2 61.8,79.5 39.2,90.8 	"/>
	<polygon class="st3" points="39.2,95.7 61.8,84.4 61.8,82.7 39.2,94 	"/>
	<polygon class="st3" points="42.8,113.5 60.1,104.9 60.1,93.4 42.8,102 	"/>
	<polygon class="st3" points="16.3,127.1 33.6,118.5 33.6,81.3 16.3,90 	"/>
	<g>
		<path class="st13" d="M59.2,138.2v19.3c0,0.2,0.1,0.3,0.2,0.4l0.8,0.4c0.1,0.1,0.2,0.1,0.4,0l7.2-3.5c0.4-0.2,0.6-0.6,0.6-1v-19.2
			c0-0.1-0.1-0.3-0.2-0.3l-0.8-0.4c-0.1-0.1-0.2-0.1-0.3,0l-7.3,3.6C59.4,137.6,59.2,137.9,59.2,138.2z"/>
		<path class="st14" d="M60.4,138.8v18.9c0,0.3,0.3,0.5,0.6,0.4l6.8-3.3c0.4-0.2,0.6-0.6,0.6-1v-18.8c0-0.3-0.3-0.4-0.5-0.3
			l-6.9,3.4C60.6,138.2,60.4,138.5,60.4,138.8z"/>
	</g>
	<g>
		<g>
			<line class="st1" x1="156.1" y1="193.5" x2="154.3" y2="192.6"/>
			<line class="st22" x1="150.8" y1="190.8" x2="67.9" y2="149.4"/>
			<line class="st1" x1="66.2" y1="148.5" x2="64.4" y2="147.6"/>
		</g>
	</g>
	<line class="st19" x1="141.1" y1="168.3" x2="131.8" y2="163.6"/>
	<path class="st23" d="M174.7,149.1c0,6.4-3.6,13.3-8.1,15.6s-8.1-1.1-8.1-7.4s3.6-13.3,8.1-15.6C171,139.4,174.7,142.7,174.7,149.1
		z"/>
	<path class="st24" d="M138.9,170.2v5.2c0,0.4,0.5,0.7,0.9,0.5l10.1-5c0.5-0.3,0.9-0.8,0.9-1.4v-5.2c0-0.4-0.4-0.7-0.8-0.5
		l-10.4,5.1C139.2,169.2,138.9,169.7,138.9,170.2z"/>
	<polygon class="st25" points="133.1,106.1 170.6,87.3 170.6,24.8 133.1,43.5 	"/>
	<polygon class="st15" points="41.7,270.7 79.2,251.9 79.2,189.4 41.7,208.2 	"/>
	<line class="st19" x1="160.2" y1="177.8" x2="144.5" y2="169.9"/>
	<polygon class="st25" points="80,81.3 117.5,62.5 117.5,0 80,18.8 	"/>
	<g>
		<polygon class="st9" points="94,32.9 123.7,18 123.7,16.3 94,31.2 		"/>
		<polygon class="st9" points="94,36.1 123.7,21.3 123.7,19.7 94,34.4 		"/>
		<polygon class="st9" points="94,39.4 123.7,24.6 123.7,22.9 94,37.7 		"/>
		<polygon class="st9" points="94,42.6 123.7,27.9 123.7,26.2 94,41 		"/>
		<polygon class="st9" points="94,45.9 123.7,31.1 123.7,29.4 94,44.2 		"/>
		<polygon class="st9" points="94,49.2 123.7,34.3 123.7,32.6 94,47.5 		"/>
	</g>
	<g>
		<polygon class="st26" points="96,202.9 125.7,188.1 125.7,186.4 96,201.2 		"/>
		<polygon class="st26" points="96,206.2 125.7,191.4 125.7,189.7 96,204.5 		"/>
		<polygon class="st26" points="96,209.4 125.7,194.6 125.7,193 96,207.7 		"/>
		<polygon class="st26" points="96,212.7 125.7,197.9 125.7,196.2 96,211 		"/>
		<polygon class="st26" points="96,215.9 125.7,201.2 125.7,199.5 96,214.2 		"/>
		<polygon class="st26" points="96,219.2 125.7,204.3 125.7,202.7 96,217.5 		"/>
	</g>
	<line class="st19" x1="133.1" y1="65.4" x2="64.5" y2="31.1"/>
	<line class="st19" x1="184.4" y1="91.1" x2="150.6" y2="74.2"/>
	<line class="st23" x1="232.4" y1="67.3" x2="137.2" y2="19.7"/>
	<g>
		<path class="st15" d="M70.2,20L70.2,20l-2.1-1.9l0,0c-1.4-1.1-3.3-1.3-5.4-0.2c-4.5,2.3-8.1,9.2-8.1,15.6c0,3.1,0.9,5.5,2.3,6.9
			l0,0l2.1,1.9l0,0c1.5,1.3,3.5,1.5,5.7,0.4c4.5-2.3,8.1-9.2,8.1-15.6C72.7,23.8,71.7,21.3,70.2,20z"/>
		<path class="st15" d="M72.7,27.1c0,6.4-3.6,13.3-8.1,15.6s-8.1-1.1-8.1-7.4s3.6-13.3,8.1-15.6S72.7,20.7,72.7,27.1z"/>
	</g>
</g>
</svg>
