<?xml version="1.0" encoding="utf-8"?>
<!-- Generator: Adobe Illustrator 21.0.2, SVG Export Plug-In . SVG Version: 6.00 Build 0)  -->
<svg version="1.1" id="Layer_1" xmlns="http://www.w3.org/2000/svg" xmlns:xlink="http://www.w3.org/1999/xlink" x="0px" y="0px"
	 viewBox="0 0 86 76" style="enable-background:new 0 0 86 76;" xml:space="preserve">
<style type="text/css">
	.st0{fill:#D0814C;}
	.st1{fill:#DCA47F;}
	.st2{fill:#FFFFFF;}
	.st3{fill:none;}
	.st4{fill:none;stroke:#0000FF;stroke-miterlimit:10;}
	.st5{fill:#6D6E71;stroke:#0000FF;stroke-miterlimit:10;}
</style>
<g id="XMLID_610_">
	<g>
		<g>
			<path class="st0" d="M45.6,4.4c-0.2,0.3-0.5,0.7-0.8,1.2l-1.1-1.8c-0.1-0.2-0.4-0.3-0.6-0.3h0c-0.4,0-0.8,0.2-1.1,0.6L14.4,45.2
				c-4.9,7.4-0.3,17,9.2,18.2c0.1,0,0.1,0,0.2,0c0.4,0.1,0.9,0.1,1.4,0.1h0.1c0.1,0,0.1,0,0.2,0h-1.2c-9.2,0-18.4-10.2-13.4-17.8
				L39.4,2c1.7-2.6,5.5-2.6,7.2,0.1C46.8,2.7,46.5,3.2,45.6,4.4z"/>
		</g>
		<g>
			<path class="st0" d="M63.8,63.6h-1.4c0.2,0,0.3,0,0.5,0h0.4c7.8-0.4,12.4-9,8.3-15.5L45.8,7.1L47.8,4L73.6,46
				C78.4,53.7,72.8,63.6,63.8,63.6z"/>
		</g>
		<g>
			<path class="st1" d="M44.8,5.5c-0.7,1.1-28.7,43.9-28.7,43.9c-3.7,5.6,0.1,13,7.5,14c-9.5-1.2-14.1-10.8-9.2-18.2L42,4
				c0.2-0.4,0.6-0.6,1.1-0.6h0c0.2,0,0.5,0.1,0.6,0.3L44.8,5.5z"/>
		</g>
		<g>
			<path class="st1" d="M63.2,63.5h-0.4c6.1-0.3,9.8-7.2,6.4-12.5L43.6,10.7l2.2-3.5L71.6,48C75.7,54.6,71,63.1,63.2,63.5z"/>
		</g>
		<g>
			<path class="st1" d="M52.8,53.9h4.4c-0.8,7-6.8,12.4-14,12.4s-13.1-5.4-14-12.4h4.4c0.8,4.6,4.8,8.1,9.6,8.1
				C48,62,52,58.5,52.8,53.9z"/>
		</g>
		<g>
			<path class="st0" d="M33.6,50.6h-4.4c0.8-7,6.8-12.4,14-12.4s13.1,5.4,14,12.4h-4.4C52,46,48,42.6,43.2,42.6
				C38.4,42.6,34.4,46,33.6,50.6z"/>
		</g>
		<g>
			<path class="st2" d="M30.1,43.1c0,0.2,0,0.3,0,0.5c-0.1,0.2-0.1,0.4-0.2,0.5c-0.1,0.2-0.3,0.4-0.5,0.5c-0.2,0.1-0.4,0.2-0.7,0.3
				c-0.3,0-0.5,0-0.9-0.1c-0.3-0.1-0.7-0.2-1.1-0.5c-0.4-0.2-0.7-0.5-1-0.7c-0.2-0.2-0.4-0.5-0.5-0.7c-0.1-0.2-0.1-0.5-0.1-0.7
				c0-0.2,0.1-0.4,0.2-0.6c0.1-0.2,0.2-0.4,0.3-0.5c0.1-0.1,0.2-0.2,0.3-0.3l0.4,0.3c-0.1,0.1-0.2,0.1-0.3,0.2
				c-0.1,0.1-0.2,0.2-0.3,0.4c-0.1,0.1-0.1,0.3-0.1,0.5c0,0.2,0,0.3,0.1,0.5c0.1,0.2,0.2,0.4,0.4,0.5c0.2,0.2,0.5,0.4,0.8,0.6
				c0.6,0.3,1.1,0.5,1.5,0.5c0.4,0,0.7-0.2,0.9-0.6c0.1-0.1,0.1-0.3,0.2-0.4c0-0.1,0-0.3,0-0.4L30.1,43.1z"/>
			<path class="st2" d="M26.8,39.6l1.4-1.7l0.4,0.3l-1.1,1.3l1.3,1.1l1-1.2l0.4,0.3l-1,1.2l1.4,1.2l1.1-1.3l0.4,0.3l-1.4,1.7
				L26.8,39.6z"/>
			<path class="st2" d="M29.4,36.9c0.1-0.1,0.2-0.3,0.3-0.4c0.1-0.1,0.3-0.2,0.4-0.3c0.1-0.1,0.3-0.2,0.4-0.3
				c0.2-0.1,0.3-0.1,0.5-0.1c0.2,0,0.3,0.1,0.5,0.1c0.2,0.1,0.3,0.2,0.5,0.4c0.2,0.3,0.4,0.6,0.4,0.9c0,0.3,0,0.5-0.2,0.8l0.4,0
				l2,0.9l-0.5,0.4l-2.2-1l-0.5,0.3l1.4,1.8l-0.4,0.3L29.4,36.9z M31.2,38.3l0.3-0.3c0.2-0.2,0.3-0.4,0.3-0.6c0-0.2-0.1-0.5-0.3-0.7
				c-0.2-0.2-0.3-0.3-0.6-0.4c-0.2-0.1-0.4,0-0.6,0.2c-0.1,0.1-0.1,0.1-0.2,0.2c-0.1,0.1-0.1,0.1-0.2,0.2L31.2,38.3z"/>
			<path class="st2" d="M34.8,33.8l-1.1,0.6l2.2,3.9l-0.5,0.3l-2.2-3.9l-1.1,0.6L32,34.8l2.6-1.4L34.8,33.8z"/>
			<path class="st2" d="M35.7,32.9l0.5-0.2l1.7,4.6l-0.5,0.2L35.7,32.9z"/>
			<path class="st2" d="M37.7,32.2l2.1-0.5l0.1,0.5l-1.6,0.4l0.4,1.7l1.5-0.3l0.1,0.5l-1.5,0.3l0.5,2.2l-0.5,0.1L37.7,32.2z"/>
			<path class="st2" d="M41.1,31.6l0.5,0l0.4,4.9l-0.5,0L41.1,31.6z"/>
			<path class="st2" d="M43.2,31.5l2.2,0.1l0,0.5L43.7,32l-0.1,1.7l1.5,0.1l0,0.5l-1.5-0.1L43.5,36l1.7,0.1l0,0.5l-2.2-0.1
				L43.2,31.5z"/>
			<path class="st2" d="M47,31.8c0.1,0,0.2,0,0.3,0c0.1,0,0.2,0,0.3,0.1c0.1,0,0.2,0,0.3,0.1c0.1,0,0.2,0,0.3,0.1
				c0.3,0.1,0.6,0.2,0.8,0.4c0.2,0.2,0.4,0.4,0.4,0.6c0.1,0.3,0.1,0.5,0.1,0.8c0,0.3-0.1,0.7-0.2,1c-0.1,0.3-0.2,0.6-0.3,0.9
				c-0.1,0.3-0.3,0.5-0.5,0.7c-0.2,0.2-0.4,0.3-0.7,0.4c-0.3,0.1-0.6,0.1-1,0c-0.1,0-0.1,0-0.2-0.1c-0.1,0-0.2-0.1-0.3-0.1
				c-0.1,0-0.2-0.1-0.3-0.1c-0.1,0-0.1-0.1-0.2-0.1L47,31.8z M47.9,32.5c0,0-0.1,0-0.1,0c-0.1,0-0.1,0-0.2,0c-0.1,0-0.1,0-0.1,0
				c0,0-0.1,0-0.1,0l-1,3.9c0,0,0,0,0.1,0c0,0,0.1,0,0.1,0c0.1,0,0.1,0,0.1,0c0,0,0.1,0,0.1,0c0.3,0.1,0.5,0.1,0.7,0
				c0.2-0.1,0.4-0.2,0.5-0.3c0.1-0.2,0.3-0.4,0.4-0.6c0.1-0.2,0.2-0.5,0.3-0.8c0.1-0.2,0.1-0.5,0.1-0.7c0-0.2,0-0.5,0-0.7
				c0-0.2-0.1-0.4-0.3-0.5C48.4,32.7,48.2,32.6,47.9,32.5z"/>
			<path class="st2" d="M52.8,33.9l0.5,0.3l-2.4,4.3l-0.5-0.3L52.8,33.9z"/>
			<path class="st2" d="M52,38.4c0,0.1,0.1,0.2,0.2,0.4c0.1,0.1,0.2,0.3,0.4,0.4c0.2,0.2,0.4,0.2,0.6,0.2c0.2,0,0.4-0.1,0.6-0.3
				c0.1-0.1,0.2-0.3,0.2-0.5c0-0.2,0-0.3-0.1-0.5c0-0.2-0.1-0.4-0.2-0.5c-0.1-0.2-0.1-0.4-0.1-0.6c0-0.2,0-0.4,0-0.6
				c0-0.2,0.1-0.4,0.3-0.6c0.2-0.3,0.5-0.5,0.8-0.5c0.3,0,0.6,0.1,0.9,0.3c0.2,0.1,0.3,0.3,0.5,0.4c0.1,0.1,0.2,0.3,0.3,0.4
				l-0.4,0.3c0-0.1-0.1-0.2-0.2-0.3c-0.1-0.1-0.2-0.3-0.4-0.4c-0.2-0.2-0.4-0.2-0.6-0.2c-0.2,0-0.3,0.1-0.4,0.3
				c-0.1,0.1-0.1,0.3-0.1,0.4c0,0.2,0,0.3,0.1,0.5c0,0.2,0.1,0.4,0.2,0.5c0.1,0.2,0.1,0.4,0.1,0.6c0,0.2,0,0.4,0,0.6
				c0,0.2-0.1,0.4-0.3,0.6c-0.2,0.3-0.5,0.5-0.9,0.6c-0.3,0-0.7-0.1-1-0.3c-0.2-0.2-0.4-0.3-0.5-0.5c-0.1-0.1-0.2-0.3-0.2-0.4
				L52,38.4z"/>
			<path class="st2" d="M58.4,40.8l0.6-0.4l0,0l-0.7,0.3L56,41.2l-0.1-0.1l1-2.2l0.4-0.6l0,0l-0.5,0.6l-2.5,2.1l-0.3-0.4l3.8-3.2
				l0.3,0.3l-1.1,2.5l-0.3,0.5l0,0l0.6-0.3l2.6-0.7l0.3,0.4l-3.8,3.2l-0.3-0.4L58.4,40.8z"/>
			<path class="st2" d="M57.1,43.5c0,0.1,0,0.2,0,0.4c0,0.2,0.1,0.3,0.2,0.5c0.1,0.2,0.3,0.4,0.5,0.5c0.2,0.1,0.4,0.1,0.7-0.1
				c0.2-0.1,0.3-0.2,0.4-0.3c0.1-0.1,0.1-0.3,0.2-0.5c0-0.2,0.1-0.4,0.1-0.6c0-0.2,0.1-0.4,0.1-0.6c0.1-0.2,0.1-0.4,0.2-0.5
				c0.1-0.2,0.3-0.3,0.5-0.4c0.4-0.2,0.7-0.2,0.9-0.1c0.3,0.1,0.5,0.4,0.7,0.7c0.1,0.2,0.2,0.4,0.2,0.6c0,0.2,0.1,0.3,0.1,0.5
				l-0.5,0.1c0-0.1,0-0.2,0-0.4c0-0.2-0.1-0.3-0.2-0.5c-0.1-0.2-0.3-0.4-0.4-0.4c-0.2-0.1-0.3,0-0.5,0.1c-0.1,0.1-0.3,0.2-0.3,0.3
				c-0.1,0.1-0.1,0.3-0.2,0.5c0,0.2-0.1,0.4-0.1,0.6c0,0.2-0.1,0.4-0.1,0.6c-0.1,0.2-0.1,0.4-0.3,0.5c-0.1,0.2-0.3,0.3-0.5,0.4
				c-0.4,0.2-0.7,0.2-1,0.1c-0.3-0.1-0.6-0.4-0.8-0.8c-0.1-0.3-0.2-0.5-0.3-0.7c0-0.2-0.1-0.3,0-0.5L57.1,43.5z"/>
		</g>
		<g>
			<path class="st2" d="M42,47.5c0.1,0,0.1,0.1,0.2,0.1c0.1,0,0.2,0.1,0.4,0.1c0.2,0,0.3,0,0.4-0.1c0.1-0.1,0.2-0.2,0.2-0.4
				c0-0.1,0-0.2-0.1-0.3c-0.1-0.1-0.1-0.2-0.2-0.2c-0.1-0.1-0.2-0.1-0.3-0.2c-0.1-0.1-0.2-0.1-0.3-0.2c-0.1-0.1-0.2-0.2-0.2-0.3
				c-0.1-0.1-0.1-0.2-0.1-0.4c0-0.3,0.1-0.4,0.2-0.6c0.2-0.1,0.4-0.2,0.6-0.2c0.2,0,0.3,0,0.4,0c0.1,0,0.2,0.1,0.3,0.1l-0.1,0.3
				c-0.1,0-0.1-0.1-0.2-0.1c-0.1,0-0.2,0-0.4,0c-0.2,0-0.3,0-0.4,0.1c-0.1,0.1-0.1,0.2-0.1,0.3c0,0.1,0,0.2,0.1,0.3
				c0.1,0.1,0.1,0.2,0.2,0.2c0.1,0.1,0.2,0.1,0.3,0.2c0.1,0.1,0.2,0.2,0.3,0.2s0.2,0.2,0.2,0.3c0.1,0.1,0.1,0.3,0.1,0.4
				c0,0.3-0.1,0.5-0.2,0.6c-0.2,0.2-0.4,0.2-0.7,0.2c-0.2,0-0.3,0-0.4,0c-0.1,0-0.2-0.1-0.3-0.1L42,47.5z"/>
			<path class="st2" d="M44,44.8h0.3V48H44V44.8z"/>
			<path class="st2" d="M34.8,50.2h0.3v3.2h-0.3V50.2z"/>
			<path class="st2" d="M35.8,53c0.1,0,0.1,0.1,0.2,0.1c0.1,0,0.2,0.1,0.4,0.1c0.2,0,0.3,0,0.4-0.1c0.1-0.1,0.2-0.2,0.2-0.4
				c0-0.1,0-0.2-0.1-0.3c-0.1-0.1-0.1-0.2-0.2-0.2c-0.1-0.1-0.2-0.1-0.3-0.2c-0.1-0.1-0.2-0.1-0.3-0.2c-0.1-0.1-0.2-0.2-0.2-0.3
				c-0.1-0.1-0.1-0.2-0.1-0.4c0-0.3,0.1-0.4,0.2-0.6c0.2-0.1,0.4-0.2,0.6-0.2c0.2,0,0.3,0,0.4,0c0.1,0,0.2,0.1,0.3,0.1l-0.1,0.3
				c-0.1,0-0.1-0.1-0.2-0.1c-0.1,0-0.2,0-0.4,0c-0.2,0-0.3,0-0.4,0.1c-0.1,0.1-0.1,0.2-0.1,0.3c0,0.1,0,0.2,0.1,0.3
				c0.1,0.1,0.1,0.2,0.2,0.2c0.1,0.1,0.2,0.1,0.3,0.2c0.1,0.1,0.2,0.2,0.3,0.2c0.1,0.1,0.2,0.2,0.2,0.3c0.1,0.1,0.1,0.3,0.1,0.4
				c0,0.3-0.1,0.5-0.2,0.6c-0.2,0.2-0.4,0.2-0.7,0.2c-0.2,0-0.3,0-0.4,0c-0.1,0-0.2-0.1-0.3-0.1L35.8,53z"/>
			<path class="st2" d="M37.6,51.8c0-0.5,0.1-0.9,0.3-1.2c0.2-0.3,0.4-0.4,0.8-0.4c0.2,0,0.4,0,0.5,0.1c0.1,0.1,0.2,0.2,0.3,0.3
				c0.1,0.1,0.1,0.3,0.2,0.5c0,0.2,0.1,0.4,0.1,0.7c0,0.5-0.1,0.9-0.3,1.2c-0.2,0.3-0.4,0.4-0.8,0.4c-0.2,0-0.3,0-0.5-0.1
				c-0.1-0.1-0.2-0.2-0.3-0.3c-0.1-0.1-0.1-0.3-0.2-0.5C37.6,52.3,37.6,52.1,37.6,51.8z M38,51.8c0,0.2,0,0.3,0,0.5
				c0,0.2,0.1,0.3,0.1,0.4c0.1,0.1,0.1,0.2,0.2,0.3c0.1,0.1,0.2,0.1,0.3,0.1c0.2,0,0.4-0.1,0.5-0.3c0.1-0.2,0.2-0.6,0.2-1
				c0-0.2,0-0.3,0-0.5c0-0.2-0.1-0.3-0.1-0.4c-0.1-0.1-0.1-0.2-0.2-0.3c-0.1-0.1-0.2-0.1-0.3-0.1c-0.2,0-0.4,0.1-0.5,0.3
				C38,51,38,51.4,38,51.8z"/>
			<path class="st2" d="M42.5,50.9c0,0.2,0,0.3-0.1,0.5c0,0.2-0.1,0.4-0.2,0.5c-0.1,0.2-0.2,0.3-0.3,0.5c-0.1,0.2-0.2,0.3-0.3,0.4
				l-0.2,0.2v0l0.2,0h0.8v0.3h-1.5v-0.1c0.1-0.1,0.1-0.2,0.2-0.3c0.1-0.1,0.2-0.2,0.2-0.3c0.1-0.1,0.2-0.3,0.2-0.4
				c0.1-0.1,0.1-0.3,0.2-0.4c0.1-0.1,0.1-0.3,0.1-0.4c0-0.1,0.1-0.3,0.1-0.4c0-0.2,0-0.3-0.1-0.4c-0.1-0.1-0.2-0.1-0.3-0.1
				c-0.1,0-0.2,0-0.3,0.1c-0.1,0-0.2,0.1-0.2,0.1l-0.1-0.2c0.1-0.1,0.2-0.1,0.3-0.2c0.1,0,0.2-0.1,0.4-0.1c0.2,0,0.4,0.1,0.5,0.2
				C42.5,50.5,42.5,50.7,42.5,50.9z"/>
			<path class="st2" d="M43.3,53.4l0.9-2.7l0.2-0.2l-0.2,0h-1v-0.3h1.5v0.1l-1,3H43.3z"/>
			<path class="st2" d="M45.1,51.8c0-0.3,0-0.5,0.1-0.7c0-0.2,0.1-0.4,0.2-0.5c0.1-0.1,0.2-0.2,0.3-0.3c0.1-0.1,0.2-0.1,0.4-0.1
				c0.1,0,0.3,0,0.4,0.1c0.1,0.1,0.2,0.2,0.3,0.3c0.1,0.1,0.1,0.3,0.2,0.5c0,0.2,0,0.5,0,0.7c0,0.3,0,0.5-0.1,0.7
				c0,0.2-0.1,0.4-0.2,0.5c-0.1,0.1-0.2,0.2-0.3,0.3c-0.1,0.1-0.2,0.1-0.4,0.1c-0.1,0-0.3,0-0.4-0.1c-0.1-0.1-0.2-0.2-0.3-0.3
				c-0.1-0.1-0.1-0.3-0.2-0.5C45.1,52.3,45.1,52.1,45.1,51.8z M45.5,51.8c0,0.4,0,0.8,0.1,1c0.1,0.2,0.2,0.3,0.4,0.3
				c0.2,0,0.3-0.1,0.4-0.3c0.1-0.2,0.1-0.6,0.1-1c0-0.4,0-0.8-0.1-1c-0.1-0.2-0.2-0.4-0.4-0.4c-0.2,0-0.3,0.1-0.4,0.3
				C45.5,51,45.5,51.3,45.5,51.8z"/>
			<path class="st2" d="M47.2,51.8c0-0.3,0-0.5,0.1-0.7s0.1-0.4,0.2-0.5c0.1-0.1,0.2-0.2,0.3-0.3c0.1-0.1,0.2-0.1,0.4-0.1
				c0.1,0,0.3,0,0.4,0.1c0.1,0.1,0.2,0.2,0.3,0.3c0.1,0.1,0.1,0.3,0.2,0.5c0,0.2,0,0.5,0,0.7c0,0.3,0,0.5-0.1,0.7
				c0,0.2-0.1,0.4-0.2,0.5c-0.1,0.1-0.2,0.2-0.3,0.3c-0.1,0.1-0.2,0.1-0.4,0.1c-0.1,0-0.3,0-0.4-0.1c-0.1-0.1-0.2-0.2-0.3-0.3
				c-0.1-0.1-0.1-0.3-0.2-0.5C47.2,52.3,47.2,52.1,47.2,51.8z M47.5,51.8c0,0.4,0,0.8,0.1,1c0.1,0.2,0.2,0.3,0.4,0.3
				c0.2,0,0.3-0.1,0.4-0.3c0.1-0.2,0.1-0.6,0.1-1c0-0.4,0-0.8-0.1-1c-0.1-0.2-0.2-0.4-0.4-0.4c-0.2,0-0.3,0.1-0.4,0.3
				C47.5,51,47.5,51.3,47.5,51.8z"/>
			<path class="st2" d="M49.4,53.1H50v-2.2l0-0.3l-0.2,0.2l-0.4,0.3l-0.2-0.2l0.8-0.8h0.2v2.9h0.5v0.3h-1.3V53.1z"/>
			<path class="st2" d="M51.4,51.4c0-0.1,0-0.1,0.1-0.2c0,0,0.1-0.1,0.2-0.1c0.1,0,0.1,0,0.2,0.1c0,0,0.1,0.1,0.1,0.2
				c0,0.1,0,0.2-0.1,0.2c0,0-0.1,0.1-0.2,0.1c-0.1,0-0.1,0-0.2-0.1C51.4,51.5,51.4,51.5,51.4,51.4z M51.4,53.2c0-0.1,0-0.1,0.1-0.2
				c0,0,0.1-0.1,0.2-0.1c0.1,0,0.1,0,0.2,0.1c0,0,0.1,0.1,0.1,0.2c0,0.1,0,0.2-0.1,0.2c0,0-0.1,0.1-0.2,0.1c-0.1,0-0.1,0-0.2-0.1
				C51.4,53.3,51.4,53.3,51.4,53.2z"/>
			<path class="st2" d="M40.8,56.4c0,0.2,0,0.3-0.1,0.5c0,0.2-0.1,0.4-0.2,0.5c-0.1,0.2-0.2,0.3-0.3,0.5c-0.1,0.2-0.2,0.3-0.3,0.4
				l-0.2,0.2v0l0.2,0h0.8v0.3h-1.5v-0.1c0.1-0.1,0.1-0.2,0.2-0.3c0.1-0.1,0.2-0.2,0.2-0.3c0.1-0.1,0.2-0.3,0.2-0.4
				c0.1-0.1,0.1-0.3,0.2-0.4c0.1-0.1,0.1-0.3,0.1-0.4c0-0.1,0.1-0.3,0.1-0.4c0-0.2,0-0.3-0.1-0.4c-0.1-0.1-0.2-0.1-0.3-0.1
				c-0.1,0-0.2,0-0.3,0.1c-0.1,0-0.2,0.1-0.2,0.1l-0.1-0.2c0.1-0.1,0.2-0.1,0.3-0.2c0.1,0,0.2-0.1,0.4-0.1c0.2,0,0.4,0.1,0.5,0.2
				C40.7,56,40.8,56.1,40.8,56.4z"/>
			<path class="st2" d="M41.3,57.2c0-0.3,0-0.5,0.1-0.7s0.1-0.4,0.2-0.5c0.1-0.1,0.2-0.2,0.3-0.3c0.1-0.1,0.2-0.1,0.4-0.1
				c0.1,0,0.3,0,0.4,0.1c0.1,0.1,0.2,0.2,0.3,0.3c0.1,0.1,0.1,0.3,0.2,0.5c0,0.2,0,0.5,0,0.7c0,0.3,0,0.5-0.1,0.7
				c0,0.2-0.1,0.4-0.2,0.5c-0.1,0.1-0.2,0.2-0.3,0.3c-0.1,0.1-0.2,0.1-0.4,0.1c-0.1,0-0.3,0-0.4-0.1c-0.1-0.1-0.2-0.2-0.3-0.3
				c-0.1-0.1-0.1-0.3-0.2-0.5C41.4,57.8,41.3,57.5,41.3,57.2z M41.7,57.2c0,0.4,0,0.8,0.1,1c0.1,0.2,0.2,0.3,0.4,0.3
				c0.2,0,0.3-0.1,0.4-0.3c0.1-0.2,0.1-0.6,0.1-1c0-0.4,0-0.8-0.1-1c-0.1-0.2-0.2-0.4-0.4-0.4c-0.2,0-0.3,0.1-0.4,0.3
				C41.7,56.4,41.7,56.8,41.7,57.2z"/>
			<path class="st2" d="M43.6,58.5h0.5v-2.2l0-0.3L44,56.3l-0.4,0.3l-0.2-0.2l0.8-0.8h0.2v2.9H45v0.3h-1.3V58.5z"/>
			<path class="st2" d="M45.7,58.5c0.1,0,0.1,0.1,0.2,0.1c0.1,0,0.2,0,0.3,0c0.1,0,0.2,0,0.2-0.1c0.1,0,0.1-0.1,0.2-0.1
				c0-0.1,0.1-0.1,0.1-0.2c0-0.1,0-0.2,0-0.3c0-0.2,0-0.4-0.1-0.5c-0.1-0.1-0.2-0.2-0.4-0.2h-0.3v-0.1l0.5-1l0.2-0.2l-0.2,0h-0.7
				v-0.3h1.3v0.1l-0.6,1.1L46.2,57v0l0.1,0c0.1,0,0.2,0,0.3,0.1c0.1,0,0.2,0.1,0.2,0.2c0.1,0.1,0.1,0.2,0.1,0.3s0.1,0.2,0.1,0.4
				c0,0.2,0,0.3-0.1,0.4c0,0.1-0.1,0.2-0.2,0.3c-0.1,0.1-0.2,0.2-0.3,0.2c-0.1,0-0.2,0.1-0.3,0.1c-0.1,0-0.2,0-0.3,0
				c-0.1,0-0.2,0-0.2-0.1L45.7,58.5z"/>
		</g>
		<g>
			<path class="st2" d="M3,72.2H2v3.7H1.6v-3.7h-1v-0.4H3V72.2z"/>
			<path class="st2" d="M5.5,74H3.9v1.9H3.5v-4.1h0.4v1.8h1.5v-1.8h0.4v4.1H5.5V74z"/>
			<path class="st2" d="M6.7,71.8h1.8v0.4H7.1v1.4h1.3V74H7.1v1.5h1.4v0.4H6.7V71.8z"/>
			<path class="st2" d="M10.4,75.3c0.1,0.1,0.2,0.1,0.3,0.1c0.1,0,0.3,0.1,0.5,0.1c0.2,0,0.4-0.1,0.5-0.2c0.1-0.1,0.2-0.3,0.2-0.5
				c0-0.2,0-0.3-0.1-0.4c-0.1-0.1-0.2-0.2-0.3-0.3c-0.1-0.1-0.2-0.2-0.4-0.3c-0.1-0.1-0.3-0.2-0.4-0.3c-0.1-0.1-0.2-0.2-0.3-0.4
				c-0.1-0.1-0.1-0.3-0.1-0.5c0-0.3,0.1-0.6,0.3-0.7c0.2-0.2,0.5-0.2,0.8-0.2c0.2,0,0.4,0,0.5,0.1c0.2,0,0.3,0.1,0.4,0.1l-0.1,0.4
				c-0.1,0-0.2-0.1-0.3-0.1c-0.1,0-0.3-0.1-0.5-0.1c-0.2,0-0.4,0.1-0.5,0.2c-0.1,0.1-0.2,0.2-0.2,0.4c0,0.1,0,0.3,0.1,0.4
				c0.1,0.1,0.2,0.2,0.3,0.3c0.1,0.1,0.2,0.2,0.4,0.3c0.1,0.1,0.3,0.2,0.4,0.3s0.2,0.3,0.3,0.4c0.1,0.1,0.1,0.3,0.1,0.5
				c0,0.3-0.1,0.6-0.3,0.8c-0.2,0.2-0.5,0.3-0.9,0.3c-0.2,0-0.4,0-0.6-0.1c-0.2,0-0.3-0.1-0.4-0.1L10.4,75.3z"/>
			<path class="st2" d="M15.1,72.2h-1v3.7h-0.4v-3.7h-1v-0.4h2.5V72.2z"/>
			<path class="st2" d="M16.8,74.7h-1.2l-0.3,1.2h-0.4l1.2-4.2h0.2l1.2,4.2h-0.5L16.8,74.7z M15.8,74.4h0.9l-0.4-1.3l-0.1-0.6h0
				l-0.1,0.6L15.8,74.4z"/>
			<path class="st2" d="M18.7,73.3l-0.3-0.6h0l0.1,0.6v2.6H18v-4.2h0.3l1.5,2.7l0.2,0.6h0L20,74.4v-2.6h0.4V76h-0.3L18.7,73.3z"/>
			<path class="st2" d="M21.2,71.8c0.1,0,0.1,0,0.2,0c0.1,0,0.2,0,0.2,0c0.1,0,0.2,0,0.2,0c0.1,0,0.1,0,0.2,0c0.3,0,0.5,0,0.7,0.1
				c0.2,0.1,0.4,0.2,0.5,0.4c0.1,0.2,0.2,0.4,0.3,0.7c0.1,0.3,0.1,0.5,0.1,0.9c0,0.3,0,0.6-0.1,0.8c-0.1,0.3-0.1,0.5-0.3,0.7
				c-0.1,0.2-0.3,0.4-0.5,0.5c-0.2,0.1-0.5,0.2-0.8,0.2c-0.1,0-0.1,0-0.2,0c-0.1,0-0.2,0-0.2,0c-0.1,0-0.2,0-0.2,0
				c-0.1,0-0.1,0-0.2,0V71.8z M22.1,72.1c0,0-0.1,0-0.1,0c0,0-0.1,0-0.1,0c0,0-0.1,0-0.1,0c0,0-0.1,0-0.1,0v3.4c0,0,0,0,0.1,0
				c0,0,0.1,0,0.1,0c0,0,0.1,0,0.1,0c0,0,0.1,0,0.1,0c0.2,0,0.4,0,0.5-0.1c0.1-0.1,0.3-0.2,0.3-0.4c0.1-0.2,0.1-0.3,0.2-0.6
				c0-0.2,0.1-0.4,0.1-0.7c0-0.2,0-0.4,0-0.6c0-0.2-0.1-0.4-0.2-0.5c-0.1-0.2-0.2-0.3-0.3-0.4C22.5,72.2,22.3,72.1,22.1,72.1z"/>
			<path class="st2" d="M25.7,74.7h-1.2l-0.3,1.2h-0.4l1.2-4.2h0.2l1.2,4.2h-0.5L25.7,74.7z M24.7,74.4h0.9l-0.4-1.3l-0.1-0.6h0
				L25,73.1L24.7,74.4z"/>
			<path class="st2" d="M26.9,71.8c0.1,0,0.3-0.1,0.4-0.1c0.2,0,0.3,0,0.4,0c0.2,0,0.3,0,0.4,0.1c0.1,0,0.3,0.1,0.4,0.2
				c0.1,0.1,0.2,0.2,0.2,0.3c0.1,0.1,0.1,0.3,0.1,0.5c0,0.3-0.1,0.6-0.2,0.8c-0.1,0.2-0.3,0.3-0.5,0.4l0.2,0.2l0.8,1.6h-0.5
				l-0.9-1.8L27.4,74v1.9h-0.4V71.8z M27.4,73.7h0.4c0.2,0,0.4-0.1,0.5-0.2c0.1-0.1,0.2-0.3,0.2-0.6c0-0.2-0.1-0.4-0.2-0.5
				c-0.1-0.1-0.3-0.2-0.5-0.2c-0.1,0-0.2,0-0.2,0c-0.1,0-0.1,0-0.2,0V73.7z"/>
			<path class="st2" d="M29.8,71.8c0.1,0,0.1,0,0.2,0c0.1,0,0.2,0,0.2,0c0.1,0,0.2,0,0.2,0c0.1,0,0.1,0,0.2,0c0.3,0,0.5,0,0.7,0.1
				c0.2,0.1,0.4,0.2,0.5,0.4c0.1,0.2,0.2,0.4,0.3,0.7c0.1,0.3,0.1,0.5,0.1,0.9c0,0.3,0,0.6-0.1,0.8c-0.1,0.3-0.1,0.5-0.3,0.7
				c-0.1,0.2-0.3,0.4-0.5,0.5c-0.2,0.1-0.5,0.2-0.8,0.2c-0.1,0-0.1,0-0.2,0c-0.1,0-0.2,0-0.2,0c-0.1,0-0.2,0-0.2,0
				c-0.1,0-0.1,0-0.2,0V71.8z M30.7,72.1c0,0-0.1,0-0.1,0c0,0-0.1,0-0.1,0c0,0-0.1,0-0.1,0c0,0-0.1,0-0.1,0v3.4c0,0,0,0,0.1,0
				c0,0,0.1,0,0.1,0c0,0,0.1,0,0.1,0c0,0,0.1,0,0.1,0c0.2,0,0.4,0,0.5-0.1c0.1-0.1,0.3-0.2,0.3-0.4c0.1-0.2,0.1-0.3,0.2-0.6
				c0-0.2,0.1-0.4,0.1-0.7c0-0.2,0-0.4,0-0.6c0-0.2-0.1-0.4-0.2-0.5c-0.1-0.2-0.2-0.3-0.3-0.4C31.1,72.2,30.9,72.1,30.7,72.1z"/>
			<path class="st2" d="M32.8,75.3c0.1,0.1,0.2,0.1,0.3,0.1c0.1,0,0.3,0.1,0.5,0.1c0.2,0,0.4-0.1,0.5-0.2c0.1-0.1,0.2-0.3,0.2-0.5
				c0-0.2,0-0.3-0.1-0.4c-0.1-0.1-0.2-0.2-0.3-0.3c-0.1-0.1-0.2-0.2-0.4-0.3c-0.1-0.1-0.3-0.2-0.4-0.3c-0.1-0.1-0.2-0.2-0.3-0.4
				c-0.1-0.1-0.1-0.3-0.1-0.5c0-0.3,0.1-0.6,0.3-0.7c0.2-0.2,0.5-0.2,0.8-0.2c0.2,0,0.4,0,0.5,0.1c0.2,0,0.3,0.1,0.4,0.1l-0.1,0.4
				c-0.1,0-0.2-0.1-0.3-0.1c-0.1,0-0.3-0.1-0.5-0.1c-0.2,0-0.4,0.1-0.5,0.2c-0.1,0.1-0.2,0.2-0.2,0.4c0,0.1,0,0.3,0.1,0.4
				c0.1,0.1,0.2,0.2,0.3,0.3c0.1,0.1,0.2,0.2,0.4,0.3c0.1,0.1,0.3,0.2,0.4,0.3s0.2,0.3,0.3,0.4c0.1,0.1,0.1,0.3,0.1,0.5
				c0,0.3-0.1,0.6-0.3,0.8C34.3,75.9,34,76,33.6,76c-0.2,0-0.4,0-0.6-0.1c-0.2,0-0.3-0.1-0.4-0.1L32.8,75.3z"/>
			<path class="st2" d="M36.7,71.8h0.4v4.1h-0.4V71.8z"/>
			<path class="st2" d="M38.6,73.3l-0.3-0.6h0l0.1,0.6v2.6H38v-4.2h0.3l1.5,2.7L40,75h0L40,74.4v-2.6h0.4V76h-0.3L38.6,73.3z"/>
			<path class="st2" d="M41.1,75.3c0.1,0.1,0.2,0.1,0.3,0.1c0.1,0,0.3,0.1,0.5,0.1c0.2,0,0.4-0.1,0.5-0.2c0.1-0.1,0.2-0.3,0.2-0.5
				c0-0.2,0-0.3-0.1-0.4c-0.1-0.1-0.2-0.2-0.3-0.3c-0.1-0.1-0.2-0.2-0.4-0.3c-0.1-0.1-0.3-0.2-0.4-0.3c-0.1-0.1-0.2-0.2-0.3-0.4
				c-0.1-0.1-0.1-0.3-0.1-0.5c0-0.3,0.1-0.6,0.3-0.7c0.2-0.2,0.5-0.2,0.8-0.2c0.2,0,0.4,0,0.5,0.1c0.2,0,0.3,0.1,0.4,0.1l-0.1,0.4
				c-0.1,0-0.2-0.1-0.3-0.1c-0.1,0-0.3-0.1-0.5-0.1c-0.2,0-0.4,0.1-0.5,0.2c-0.1,0.1-0.2,0.2-0.2,0.4c0,0.1,0,0.3,0.1,0.4
				c0.1,0.1,0.2,0.2,0.3,0.3c0.1,0.1,0.2,0.2,0.4,0.3c0.1,0.1,0.3,0.2,0.4,0.3s0.2,0.3,0.3,0.4c0.1,0.1,0.1,0.3,0.1,0.5
				c0,0.3-0.1,0.6-0.3,0.8c-0.2,0.2-0.5,0.3-0.9,0.3c-0.2,0-0.4,0-0.6-0.1c-0.2,0-0.3-0.1-0.4-0.1L41.1,75.3z"/>
			<path class="st2" d="M45.8,72.2h-1v3.7h-0.4v-3.7h-1v-0.4h2.5V72.2z"/>
			<path class="st2" d="M46.4,71.8h0.4v4.1h-0.4V71.8z"/>
			<path class="st2" d="M49.8,72.2h-1v3.7h-0.4v-3.7h-1v-0.4h2.5V72.2z"/>
			<path class="st2" d="M52.2,71.8h0.4v2.8c0,0.5-0.1,0.9-0.3,1.1c-0.2,0.2-0.5,0.3-0.8,0.3c-0.4,0-0.7-0.1-0.9-0.3
				c-0.2-0.2-0.3-0.5-0.3-1v-2.9h0.4v2.6c0,0.2,0,0.4,0,0.5c0,0.1,0.1,0.3,0.1,0.4c0.1,0.1,0.1,0.2,0.2,0.2c0.1,0,0.2,0.1,0.3,0.1
				c0.3,0,0.4-0.1,0.5-0.3c0.1-0.2,0.2-0.5,0.2-0.9V71.8z"/>
			<path class="st2" d="M55.5,72.2h-1v3.7h-0.4v-3.7h-1v-0.4h2.5V72.2z"/>
			<path class="st2" d="M56.1,71.8h0.4v4.1h-0.4V71.8z"/>
			<path class="st2" d="M57.3,73.8c0-0.7,0.1-1.2,0.3-1.6c0.2-0.4,0.6-0.5,1-0.5c0.2,0,0.5,0.1,0.6,0.2c0.2,0.1,0.3,0.2,0.4,0.4
				c0.1,0.2,0.2,0.4,0.2,0.7c0.1,0.3,0.1,0.6,0.1,0.9c0,0.7-0.1,1.2-0.3,1.6c-0.2,0.4-0.6,0.5-1,0.5c-0.2,0-0.5-0.1-0.6-0.2
				c-0.2-0.1-0.3-0.2-0.4-0.4c-0.1-0.2-0.2-0.4-0.2-0.7C57.3,74.4,57.3,74.2,57.3,73.8z M57.7,73.8c0,0.2,0,0.5,0.1,0.7
				c0,0.2,0.1,0.4,0.2,0.5c0.1,0.2,0.2,0.3,0.3,0.4c0.1,0.1,0.3,0.1,0.4,0.1c0.3,0,0.5-0.1,0.7-0.4c0.2-0.3,0.2-0.7,0.2-1.3
				c0-0.2,0-0.4-0.1-0.7c0-0.2-0.1-0.4-0.2-0.6c-0.1-0.2-0.2-0.3-0.3-0.4c-0.1-0.1-0.3-0.1-0.4-0.1c-0.3,0-0.5,0.1-0.7,0.4
				C57.8,72.8,57.7,73.2,57.7,73.8z"/>
			<path class="st2" d="M61.2,73.3L61,72.6h0l0.1,0.6v2.6h-0.4v-4.2h0.3l1.5,2.7l0.2,0.6h0l-0.1-0.6v-2.6H63V76h-0.3L61.2,73.3z"/>
			<path class="st2" d="M64.9,73.8c0-0.7,0.1-1.2,0.3-1.6c0.2-0.4,0.6-0.5,1-0.5c0.2,0,0.5,0.1,0.6,0.2c0.2,0.1,0.3,0.2,0.4,0.4
				c0.1,0.2,0.2,0.4,0.2,0.7c0.1,0.3,0.1,0.6,0.1,0.9c0,0.7-0.1,1.2-0.3,1.6c-0.2,0.4-0.6,0.5-1,0.5c-0.2,0-0.5-0.1-0.6-0.2
				c-0.2-0.1-0.3-0.2-0.4-0.4C65.1,75.2,65,75,65,74.7C64.9,74.4,64.9,74.2,64.9,73.8z M65.4,73.8c0,0.2,0,0.5,0.1,0.7
				c0,0.2,0.1,0.4,0.2,0.5c0.1,0.2,0.2,0.3,0.3,0.4c0.1,0.1,0.3,0.1,0.4,0.1c0.3,0,0.5-0.1,0.7-0.4c0.2-0.3,0.2-0.7,0.2-1.3
				c0-0.2,0-0.4-0.1-0.7c0-0.2-0.1-0.4-0.2-0.6c-0.1-0.2-0.2-0.3-0.3-0.4c-0.1-0.1-0.3-0.1-0.4-0.1c-0.3,0-0.5,0.1-0.7,0.4
				C65.4,72.8,65.4,73.2,65.4,73.8z"/>
			<path class="st2" d="M68.2,71.8h1.8v0.4h-1.4v1.5H70V74h-1.3v1.9h-0.4V71.8z"/>
			<path class="st2" d="M72,71.8h0.4v4.1H72V71.8z"/>
			<path class="st2" d="M73.3,75.3c0.1,0.1,0.2,0.1,0.3,0.1c0.1,0,0.3,0.1,0.5,0.1c0.2,0,0.4-0.1,0.5-0.2c0.1-0.1,0.2-0.3,0.2-0.5
				c0-0.2,0-0.3-0.1-0.4c-0.1-0.1-0.2-0.2-0.3-0.3c-0.1-0.1-0.2-0.2-0.4-0.3c-0.1-0.1-0.3-0.2-0.4-0.3c-0.1-0.1-0.2-0.2-0.3-0.4
				c-0.1-0.1-0.1-0.3-0.1-0.5c0-0.3,0.1-0.6,0.3-0.7c0.2-0.2,0.5-0.2,0.8-0.2c0.2,0,0.4,0,0.5,0.1c0.2,0,0.3,0.1,0.4,0.1L75,72.3
				c-0.1,0-0.2-0.1-0.3-0.1c-0.1,0-0.3-0.1-0.5-0.1c-0.2,0-0.4,0.1-0.5,0.2c-0.1,0.1-0.2,0.2-0.2,0.4c0,0.1,0,0.3,0.1,0.4
				c0.1,0.1,0.2,0.2,0.3,0.3c0.1,0.1,0.2,0.2,0.4,0.3c0.1,0.1,0.3,0.2,0.4,0.3c0.1,0.1,0.2,0.3,0.3,0.4c0.1,0.1,0.1,0.3,0.1,0.5
				c0,0.3-0.1,0.6-0.3,0.8c-0.2,0.2-0.5,0.3-0.9,0.3c-0.2,0-0.4,0-0.6-0.1c-0.2,0-0.3-0.1-0.4-0.1L73.3,75.3z"/>
			<path class="st2" d="M75.8,71.8c0.1,0,0.3-0.1,0.4-0.1c0.2,0,0.3,0,0.4,0c0.2,0,0.3,0,0.4,0.1c0.1,0,0.3,0.1,0.4,0.2
				c0.1,0.1,0.2,0.2,0.2,0.3c0.1,0.1,0.1,0.3,0.1,0.5c0,0.3-0.1,0.6-0.2,0.8c-0.1,0.2-0.3,0.3-0.5,0.4l0.2,0.2l0.8,1.6h-0.5
				l-0.9-1.8L76.3,74v1.9h-0.4V71.8z M76.3,73.7h0.4c0.2,0,0.4-0.1,0.5-0.2c0.1-0.1,0.2-0.3,0.2-0.6c0-0.2-0.1-0.4-0.2-0.5
				c-0.1-0.1-0.3-0.2-0.5-0.2c-0.1,0-0.2,0-0.2,0c-0.1,0-0.1,0-0.2,0V73.7z"/>
			<path class="st2" d="M78.6,71.8h1.8v0.4h-1.4v1.4h1.3V74h-1.3v1.5h1.4v0.4h-1.9V71.8z"/>
			<path class="st2" d="M82.7,74.7h-1.2l-0.3,1.2h-0.4l1.2-4.2h0.2l1.2,4.2h-0.5L82.7,74.7z M81.7,74.4h0.9l-0.4-1.3l-0.1-0.6h0
				L82,73.1L81.7,74.4z"/>
			<path class="st2" d="M85.9,75.9h-2v-4.1h0.4v3.7h1.5V75.9z"/>
		</g>
	</g>
	<rect x="0.6" y="0" class="st3" width="85.4" height="75.9"/>
</g>
<path class="st4" d="M0.1,34.2"/>
<path class="st4" d="M86.4,34.7"/>
<path class="st4" d="M86.4,41.3"/>
<path class="st5" d="M43.3,0"/>
<path class="st5" d="M40-0.5"/>
<path class="st5" d="M43.3,76"/>
</svg>
