<?xml version="1.0" encoding="utf-8"?>
<!-- Generator: Adobe Illustrator 21.0.2, SVG Export Plug-In . SVG Version: 6.00 Build 0)  -->
<svg version="1.1" id="Layer_1" xmlns="http://www.w3.org/2000/svg" xmlns:xlink="http://www.w3.org/1999/xlink" x="0px" y="0px"
	 viewBox="0 0 86 76" style="enable-background:new 0 0 86 76;" xml:space="preserve">
<style type="text/css">
	.st0{fill:#0194BE;}
	.st1{fill:#80C9DE;}
	.st2{fill:#FFFFFF;}
	.st3{fill:none;}
	.st4{fill:none;stroke:#C8C8C8;stroke-miterlimit:10;stroke-dasharray:3;}
	.st5{fill:none;stroke:#C8C8C8;stroke-miterlimit:10;stroke-dasharray:12;}
</style>
<g>
	<path class="st0" d="M45.9,4.4c-0.2,0.3-0.5,0.7-0.8,1.2L44,3.8c-0.1-0.2-0.4-0.3-0.6-0.3h0c-0.4,0-0.8,0.2-1.1,0.6L14.7,45.2
		c-4.9,7.4-0.3,17,9.2,18.2c0.1,0,0.1,0,0.2,0c0.4,0.1,0.9,0.1,1.4,0.1h0.1c0.1,0,0.1,0,0.2,0h-1.2c-9.2,0-18.4-10.2-13.4-17.8
		L39.6,2c1.7-2.6,5.5-2.6,7.2,0.1C47.1,2.7,46.8,3.2,45.9,4.4z"/>
</g>
<g>
	<path class="st0" d="M64.1,63.6h-1.4c0.2,0,0.3,0,0.5,0h0.4c7.8-0.4,12.4-9,8.3-15.5L46.1,7.1L48,4L73.9,46
		C78.6,53.7,73.1,63.6,64.1,63.6z"/>
</g>
<g>
	<path class="st1" d="M45.1,5.5c-0.7,1.1-28.7,43.9-28.7,43.9c-3.7,5.6,0.1,13,7.5,14c-9.5-1.2-14.1-10.8-9.2-18.2L42.3,4
		c0.2-0.4,0.6-0.6,1.1-0.6h0c0.2,0,0.5,0.1,0.6,0.3L45.1,5.5z"/>
</g>
<g>
	<path class="st1" d="M63.5,63.5h-0.4c6.1-0.3,9.8-7.2,6.4-12.5L43.9,10.7l2.2-3.5L71.8,48C76,54.6,71.3,63.1,63.5,63.5z"/>
</g>
<g>
	<path class="st1" d="M53.1,53.9h4.4c-0.8,7-6.8,12.4-14,12.4c-7.2,0-13.1-5.4-14-12.4h4.4c0.8,4.6,4.8,8.1,9.6,8.1
		C48.3,62,52.3,58.5,53.1,53.9z"/>
</g>
<g>
	<path class="st0" d="M33.9,50.6h-4.4c0.8-7,6.8-12.4,14-12.4c7.2,0,13.1,5.4,14,12.4h-4.4c-0.8-4.6-4.8-8.1-9.6-8.1
		C38.7,42.6,34.7,46,33.9,50.6z"/>
</g>
<g>
	<path class="st2" d="M30.4,43.1c0,0.2,0,0.3,0,0.5c-0.1,0.2-0.1,0.4-0.2,0.5c-0.1,0.2-0.3,0.4-0.5,0.5c-0.2,0.1-0.4,0.2-0.7,0.3
		c-0.3,0-0.5,0-0.9-0.1c-0.3-0.1-0.7-0.2-1.1-0.5c-0.4-0.2-0.7-0.5-1-0.7c-0.2-0.2-0.4-0.5-0.5-0.7c-0.1-0.2-0.1-0.5-0.1-0.7
		c0-0.2,0.1-0.4,0.2-0.6c0.1-0.2,0.2-0.4,0.3-0.5c0.1-0.1,0.2-0.2,0.3-0.3l0.4,0.3c-0.1,0.1-0.2,0.1-0.3,0.2
		c-0.1,0.1-0.2,0.2-0.3,0.4C26.1,41.9,26,42,26,42.2c0,0.2,0,0.3,0.1,0.5c0.1,0.2,0.2,0.4,0.4,0.5c0.2,0.2,0.5,0.4,0.8,0.6
		c0.6,0.3,1.1,0.5,1.5,0.5c0.4,0,0.7-0.2,0.9-0.6c0.1-0.1,0.1-0.3,0.2-0.4c0-0.1,0-0.3,0-0.4L30.4,43.1z"/>
	<path class="st2" d="M27.1,39.6l1.4-1.7l0.4,0.3l-1.1,1.3l1.3,1.1l1-1.2l0.4,0.3l-1,1.2l1.4,1.2l1.1-1.3l0.4,0.3l-1.4,1.7
		L27.1,39.6z"/>
	<path class="st2" d="M29.6,36.9c0.1-0.1,0.2-0.3,0.3-0.4c0.1-0.1,0.3-0.2,0.4-0.3c0.1-0.1,0.3-0.2,0.4-0.3c0.2-0.1,0.3-0.1,0.5-0.1
		c0.2,0,0.3,0.1,0.5,0.1c0.2,0.1,0.3,0.2,0.5,0.4c0.2,0.3,0.4,0.6,0.4,0.9c0,0.3,0,0.5-0.2,0.8l0.4,0l2,0.9l-0.5,0.4l-2.2-1
		l-0.5,0.3l1.4,1.8l-0.4,0.3L29.6,36.9z M31.5,38.3l0.3-0.3c0.2-0.2,0.3-0.4,0.3-0.6c0-0.2-0.1-0.5-0.3-0.7
		c-0.2-0.2-0.3-0.3-0.6-0.4c-0.2-0.1-0.4,0-0.6,0.2c-0.1,0.1-0.1,0.1-0.2,0.2c-0.1,0.1-0.1,0.1-0.2,0.2L31.5,38.3z"/>
	<path class="st2" d="M35.1,33.8L34,34.4l2.2,3.9l-0.5,0.3l-2.2-3.9l-1.1,0.6l-0.2-0.4l2.6-1.4L35.1,33.8z"/>
	<path class="st2" d="M36,32.9l0.5-0.2l1.7,4.6l-0.5,0.2L36,32.9z"/>
	<path class="st2" d="M37.9,32.2l2.1-0.5l0.1,0.5l-1.6,0.4l0.4,1.7l1.5-0.3l0.1,0.5L39,34.8l0.5,2.2L39,37.1L37.9,32.2z"/>
	<path class="st2" d="M41.4,31.6l0.5,0l0.4,4.9l-0.5,0L41.4,31.6z"/>
	<path class="st2" d="M43.5,31.5l2.2,0.1l0,0.5L44,32l-0.1,1.7l1.5,0.1l0,0.5l-1.5-0.1L43.8,36l1.7,0.1l0,0.5l-2.2-0.1L43.5,31.5z"
		/>
	<path class="st2" d="M47.2,31.8c0.1,0,0.2,0,0.3,0c0.1,0,0.2,0,0.3,0.1c0.1,0,0.2,0,0.3,0.1c0.1,0,0.2,0,0.3,0.1
		c0.3,0.1,0.6,0.2,0.8,0.4c0.2,0.2,0.4,0.4,0.4,0.6c0.1,0.3,0.1,0.5,0.1,0.8c0,0.3-0.1,0.7-0.2,1c-0.1,0.3-0.2,0.6-0.3,0.9
		c-0.1,0.3-0.3,0.5-0.5,0.7c-0.2,0.2-0.4,0.3-0.7,0.4c-0.3,0.1-0.6,0.1-1,0c-0.1,0-0.1,0-0.2-0.1c-0.1,0-0.2-0.1-0.3-0.1
		c-0.1,0-0.2-0.1-0.3-0.1c-0.1,0-0.1-0.1-0.2-0.1L47.2,31.8z M48.2,32.5c0,0-0.1,0-0.1,0c-0.1,0-0.1,0-0.2,0c-0.1,0-0.1,0-0.1,0
		c0,0-0.1,0-0.1,0l-1,3.9c0,0,0,0,0.1,0c0,0,0.1,0,0.1,0c0.1,0,0.1,0,0.1,0c0,0,0.1,0,0.1,0c0.3,0.1,0.5,0.1,0.7,0
		c0.2-0.1,0.4-0.2,0.5-0.3c0.1-0.2,0.3-0.4,0.4-0.6c0.1-0.2,0.2-0.5,0.3-0.8c0.1-0.2,0.1-0.5,0.1-0.7c0-0.2,0-0.5,0-0.7
		c0-0.2-0.1-0.4-0.3-0.5C48.7,32.7,48.5,32.6,48.2,32.5z"/>
	<path class="st2" d="M51.8,35.9c0.4-0.7,0.9-1.2,1.4-1.4c0.5-0.2,0.9-0.2,1.4,0.1c0.3,0.2,0.4,0.3,0.5,0.6c0.1,0.2,0.2,0.4,0.2,0.7
		c0,0.3-0.1,0.5-0.2,0.8c-0.1,0.3-0.3,0.6-0.5,0.9c-0.5,0.7-0.9,1.2-1.4,1.4c-0.5,0.2-0.9,0.2-1.4-0.1c-0.2-0.2-0.4-0.3-0.5-0.6
		c-0.1-0.2-0.2-0.4-0.2-0.7c0-0.3,0.1-0.5,0.2-0.8C51.4,36.6,51.6,36.3,51.8,35.9z M52.3,36.2c-0.1,0.2-0.3,0.5-0.4,0.7
		c-0.1,0.2-0.2,0.5-0.2,0.7c0,0.2,0,0.4,0,0.6c0.1,0.2,0.2,0.3,0.3,0.4c0.3,0.2,0.6,0.2,1,0c0.3-0.2,0.7-0.6,1.1-1.2
		c0.1-0.2,0.3-0.5,0.4-0.7c0.1-0.2,0.2-0.5,0.2-0.7c0-0.2,0-0.4,0-0.6c-0.1-0.2-0.2-0.3-0.3-0.4c-0.3-0.2-0.6-0.2-0.9,0
		S52.7,35.6,52.3,36.2z"/>
	<path class="st2" d="M58.1,40.1l0.6-0.5l0,0L58,39.9l-2.3,0.7l-0.1-0.1l0.9-2.2l0.4-0.6l0,0l-0.5,0.6L54,40.4l-0.3-0.4l3.6-3.4
		l0.3,0.3l-1,2.5l-0.3,0.5l0,0l0.5-0.3l2.5-0.8l0.3,0.3l-3.6,3.4l-0.4-0.4L58.1,40.1z"/>
	<path class="st2" d="M57,42.9c0,0.1,0,0.2,0,0.4c0,0.2,0.1,0.3,0.2,0.5c0.1,0.2,0.3,0.4,0.5,0.5c0.2,0.1,0.4,0,0.7-0.1
		c0.2-0.1,0.3-0.2,0.3-0.4c0.1-0.2,0.1-0.3,0.1-0.5c0-0.2,0-0.4,0.1-0.6c0-0.2,0-0.4,0.1-0.6c0-0.2,0.1-0.4,0.2-0.5
		c0.1-0.2,0.3-0.3,0.5-0.4c0.3-0.2,0.7-0.2,0.9-0.1c0.3,0.1,0.5,0.3,0.7,0.7c0.1,0.2,0.2,0.4,0.3,0.6c0.1,0.2,0.1,0.3,0.1,0.5
		l-0.5,0.1c0-0.1,0-0.2-0.1-0.4c0-0.2-0.1-0.3-0.2-0.5c-0.1-0.2-0.3-0.4-0.4-0.4c-0.2,0-0.3,0-0.5,0.1c-0.1,0.1-0.2,0.2-0.3,0.3
		c-0.1,0.1-0.1,0.3-0.1,0.5c0,0.2,0,0.4-0.1,0.6c0,0.2-0.1,0.4-0.1,0.6c-0.1,0.2-0.1,0.4-0.2,0.5c-0.1,0.2-0.3,0.3-0.5,0.4
		c-0.4,0.2-0.7,0.3-1,0.2c-0.3-0.1-0.6-0.3-0.8-0.7c-0.1-0.2-0.2-0.5-0.3-0.6c0-0.2-0.1-0.3-0.1-0.5L57,42.9z"/>
</g>
<g>
	<g>
		<path class="st2" d="M52.9,39.7l-0.3-0.1l0.1-1.6l0.5,0.2L52.9,39.7z"/>
	</g>
</g>
<g>
	<path class="st2" d="M42.3,47.5c0.1,0,0.1,0.1,0.2,0.1c0.1,0,0.2,0.1,0.4,0.1c0.2,0,0.3,0,0.4-0.1c0.1-0.1,0.2-0.2,0.2-0.4
		c0-0.1,0-0.2-0.1-0.3c-0.1-0.1-0.1-0.2-0.2-0.2c-0.1-0.1-0.2-0.1-0.3-0.2c-0.1-0.1-0.2-0.1-0.3-0.2c-0.1-0.1-0.2-0.2-0.2-0.3
		c-0.1-0.1-0.1-0.2-0.1-0.4c0-0.3,0.1-0.4,0.2-0.6c0.2-0.1,0.4-0.2,0.6-0.2c0.2,0,0.3,0,0.4,0c0.1,0,0.2,0.1,0.3,0.1l-0.1,0.3
		c-0.1,0-0.1-0.1-0.2-0.1c-0.1,0-0.2,0-0.4,0c-0.2,0-0.3,0-0.4,0.1c-0.1,0.1-0.1,0.2-0.1,0.3c0,0.1,0,0.2,0.1,0.3
		c0.1,0.1,0.1,0.2,0.2,0.2c0.1,0.1,0.2,0.1,0.3,0.2c0.1,0.1,0.2,0.2,0.3,0.2c0.1,0.1,0.2,0.2,0.2,0.3c0.1,0.1,0.1,0.3,0.1,0.4
		c0,0.3-0.1,0.5-0.2,0.6c-0.2,0.2-0.4,0.2-0.7,0.2c-0.2,0-0.3,0-0.4,0c-0.1,0-0.2-0.1-0.3-0.1L42.3,47.5z"/>
	<path class="st2" d="M44.3,44.8h0.3V48h-0.3V44.8z"/>
	<path class="st2" d="M36.1,50.2h0.3v3.2h-0.3V50.2z"/>
	<path class="st2" d="M37,53c0.1,0,0.1,0.1,0.2,0.1c0.1,0,0.2,0.1,0.4,0.1c0.2,0,0.3,0,0.4-0.1c0.1-0.1,0.2-0.2,0.2-0.4
		c0-0.1,0-0.2-0.1-0.3c-0.1-0.1-0.1-0.2-0.2-0.2c-0.1-0.1-0.2-0.1-0.3-0.2c-0.1-0.1-0.2-0.1-0.3-0.2c-0.1-0.1-0.2-0.2-0.2-0.3
		C37,51.2,37,51.1,37,50.9c0-0.3,0.1-0.4,0.2-0.6c0.2-0.1,0.4-0.2,0.6-0.2c0.2,0,0.3,0,0.4,0c0.1,0,0.2,0.1,0.3,0.1l-0.1,0.3
		c-0.1,0-0.1-0.1-0.2-0.1c-0.1,0-0.2,0-0.4,0c-0.2,0-0.3,0-0.4,0.1c-0.1,0.1-0.1,0.2-0.1,0.3c0,0.1,0,0.2,0.1,0.3
		c0.1,0.1,0.1,0.2,0.2,0.2c0.1,0.1,0.2,0.1,0.3,0.2c0.1,0.1,0.2,0.2,0.3,0.2c0.1,0.1,0.2,0.2,0.2,0.3c0.1,0.1,0.1,0.3,0.1,0.4
		c0,0.3-0.1,0.5-0.2,0.6c-0.2,0.2-0.4,0.2-0.7,0.2c-0.2,0-0.3,0-0.4,0c-0.1,0-0.2-0.1-0.3-0.1L37,53z"/>
	<path class="st2" d="M38.9,51.8c0-0.5,0.1-0.9,0.3-1.2c0.2-0.3,0.4-0.4,0.8-0.4c0.2,0,0.4,0,0.5,0.1c0.1,0.1,0.2,0.2,0.3,0.3
		c0.1,0.1,0.1,0.3,0.2,0.5c0,0.2,0.1,0.4,0.1,0.7c0,0.5-0.1,0.9-0.3,1.2c-0.2,0.3-0.4,0.4-0.8,0.4c-0.2,0-0.3,0-0.5-0.1
		c-0.1-0.1-0.2-0.2-0.3-0.3c-0.1-0.1-0.1-0.3-0.2-0.5C38.9,52.3,38.9,52.1,38.9,51.8z M39.3,51.8c0,0.2,0,0.3,0,0.5
		c0,0.2,0.1,0.3,0.1,0.4c0.1,0.1,0.1,0.2,0.2,0.3c0.1,0.1,0.2,0.1,0.3,0.1c0.2,0,0.4-0.1,0.5-0.3s0.2-0.6,0.2-1c0-0.2,0-0.3,0-0.5
		c0-0.2-0.1-0.3-0.1-0.4c-0.1-0.1-0.1-0.2-0.2-0.3c-0.1-0.1-0.2-0.1-0.3-0.1c-0.2,0-0.4,0.1-0.5,0.3C39.3,51,39.3,51.4,39.3,51.8z"
		/>
	<path class="st2" d="M42.4,51.2c0-0.3,0.1-0.6,0.2-0.7c0.1-0.2,0.3-0.3,0.6-0.3c0.3,0,0.5,0.1,0.6,0.3c0.1,0.2,0.2,0.5,0.2,0.9
		c0,0.3,0,0.6-0.1,0.9c-0.1,0.3-0.2,0.5-0.3,0.6c-0.1,0.2-0.2,0.3-0.4,0.4c-0.2,0.1-0.3,0.2-0.5,0.2l-0.1-0.3
		c0.3-0.1,0.5-0.2,0.7-0.5c0.2-0.2,0.3-0.5,0.3-0.9c-0.1,0.1-0.1,0.1-0.2,0.2c-0.1,0-0.2,0.1-0.3,0.1c-0.1,0-0.2,0-0.3-0.1
		c-0.1,0-0.2-0.1-0.2-0.2c-0.1-0.1-0.1-0.2-0.2-0.3C42.4,51.5,42.4,51.3,42.4,51.2z M42.7,51.2c0,0.2,0,0.4,0.1,0.5
		c0.1,0.1,0.2,0.2,0.3,0.2c0.1,0,0.2,0,0.3-0.1c0.1,0,0.1-0.1,0.2-0.2c0,0,0-0.1,0-0.1c0,0,0-0.1,0-0.1c0-0.1,0-0.2,0-0.3
		c0-0.1,0-0.2-0.1-0.3c0-0.1-0.1-0.1-0.2-0.2c-0.1,0-0.1-0.1-0.2-0.1c-0.1,0-0.3,0.1-0.3,0.2C42.7,50.8,42.7,50.9,42.7,51.2z"/>
	<path class="st2" d="M44.4,51.8c0-0.3,0-0.5,0.1-0.7c0-0.2,0.1-0.4,0.2-0.5c0.1-0.1,0.2-0.2,0.3-0.3c0.1-0.1,0.2-0.1,0.4-0.1
		c0.1,0,0.3,0,0.4,0.1c0.1,0.1,0.2,0.2,0.3,0.3c0.1,0.1,0.1,0.3,0.2,0.5c0,0.2,0,0.5,0,0.7c0,0.3,0,0.5-0.1,0.7
		c0,0.2-0.1,0.4-0.2,0.5c-0.1,0.1-0.2,0.2-0.3,0.3c-0.1,0.1-0.2,0.1-0.4,0.1c-0.1,0-0.3,0-0.4-0.1c-0.1-0.1-0.2-0.2-0.3-0.3
		c-0.1-0.1-0.1-0.3-0.2-0.5C44.4,52.3,44.4,52.1,44.4,51.8z M44.7,51.8c0,0.4,0,0.8,0.1,1c0.1,0.2,0.2,0.3,0.4,0.3
		c0.2,0,0.3-0.1,0.4-0.3c0.1-0.2,0.1-0.6,0.1-1c0-0.4,0-0.8-0.1-1c-0.1-0.2-0.2-0.4-0.4-0.4c-0.2,0-0.3,0.1-0.4,0.3
		C44.8,51,44.7,51.3,44.7,51.8z"/>
	<path class="st2" d="M46.4,51.8c0-0.3,0-0.5,0.1-0.7c0-0.2,0.1-0.4,0.2-0.5c0.1-0.1,0.2-0.2,0.3-0.3c0.1-0.1,0.2-0.1,0.4-0.1
		c0.1,0,0.3,0,0.4,0.1c0.1,0.1,0.2,0.2,0.3,0.3c0.1,0.1,0.1,0.3,0.2,0.5c0,0.2,0,0.5,0,0.7c0,0.3,0,0.5-0.1,0.7
		c0,0.2-0.1,0.4-0.2,0.5c-0.1,0.1-0.2,0.2-0.3,0.3c-0.1,0.1-0.2,0.1-0.4,0.1c-0.1,0-0.3,0-0.4-0.1c-0.1-0.1-0.2-0.2-0.3-0.3
		c-0.1-0.1-0.1-0.3-0.2-0.5C46.4,52.3,46.4,52.1,46.4,51.8z M46.7,51.8c0,0.4,0,0.8,0.1,1c0.1,0.2,0.2,0.3,0.4,0.3
		c0.2,0,0.3-0.1,0.4-0.3c0.1-0.2,0.1-0.6,0.1-1c0-0.4,0-0.8-0.1-1c-0.1-0.2-0.2-0.4-0.4-0.4c-0.2,0-0.3,0.1-0.4,0.3
		C46.8,51,46.7,51.3,46.7,51.8z"/>
	<path class="st2" d="M48.7,53.1h0.5v-2.2l0-0.3l-0.2,0.2l-0.4,0.3l-0.2-0.2l0.8-0.8h0.2v2.9H50v0.3h-1.3V53.1z"/>
	<path class="st2" d="M50.7,51.4c0-0.1,0-0.1,0.1-0.2c0,0,0.1-0.1,0.2-0.1c0.1,0,0.1,0,0.2,0.1c0,0,0.1,0.1,0.1,0.2
		c0,0.1,0,0.2-0.1,0.2c0,0-0.1,0.1-0.2,0.1c-0.1,0-0.1,0-0.2-0.1C50.7,51.5,50.7,51.5,50.7,51.4z M50.7,53.2c0-0.1,0-0.1,0.1-0.2
		c0,0,0.1-0.1,0.2-0.1c0.1,0,0.1,0,0.2,0.1c0,0,0.1,0.1,0.1,0.2c0,0.1,0,0.2-0.1,0.2c0,0-0.1,0.1-0.2,0.1c-0.1,0-0.1,0-0.2-0.1
		C50.7,53.3,50.7,53.3,50.7,53.2z"/>
	<path class="st2" d="M41.1,56.4c0,0.2,0,0.3-0.1,0.5c0,0.2-0.1,0.4-0.2,0.5c-0.1,0.2-0.2,0.3-0.3,0.5c-0.1,0.2-0.2,0.3-0.3,0.4
		l-0.2,0.2v0l0.2,0h0.8v0.3h-1.5v-0.1c0.1-0.1,0.1-0.2,0.2-0.3c0.1-0.1,0.2-0.2,0.2-0.3c0.1-0.1,0.2-0.3,0.2-0.4
		c0.1-0.1,0.1-0.3,0.2-0.4c0.1-0.1,0.1-0.3,0.1-0.4c0-0.1,0.1-0.3,0.1-0.4c0-0.2,0-0.3-0.1-0.4c-0.1-0.1-0.2-0.1-0.3-0.1
		c-0.1,0-0.2,0-0.3,0.1c-0.1,0-0.2,0.1-0.2,0.1l-0.1-0.2c0.1-0.1,0.2-0.1,0.3-0.2s0.2-0.1,0.4-0.1c0.2,0,0.4,0.1,0.5,0.2
		C41,56,41.1,56.1,41.1,56.4z"/>
	<path class="st2" d="M41.6,57.2c0-0.3,0-0.5,0.1-0.7c0-0.2,0.1-0.4,0.2-0.5c0.1-0.1,0.2-0.2,0.3-0.3c0.1-0.1,0.2-0.1,0.4-0.1
		c0.1,0,0.3,0,0.4,0.1c0.1,0.1,0.2,0.2,0.3,0.3c0.1,0.1,0.1,0.3,0.2,0.5c0,0.2,0,0.5,0,0.7c0,0.3,0,0.5-0.1,0.7
		c0,0.2-0.1,0.4-0.2,0.5c-0.1,0.1-0.2,0.2-0.3,0.3c-0.1,0.1-0.2,0.1-0.4,0.1c-0.1,0-0.3,0-0.4-0.1c-0.1-0.1-0.2-0.2-0.3-0.3
		c-0.1-0.1-0.1-0.3-0.2-0.5C41.6,57.8,41.6,57.5,41.6,57.2z M42,57.2c0,0.4,0,0.8,0.1,1c0.1,0.2,0.2,0.3,0.4,0.3
		c0.2,0,0.3-0.1,0.4-0.3c0.1-0.2,0.1-0.6,0.1-1c0-0.4,0-0.8-0.1-1c-0.1-0.2-0.2-0.4-0.4-0.4c-0.2,0-0.3,0.1-0.4,0.3
		C42,56.4,42,56.8,42,57.2z"/>
	<path class="st2" d="M43.9,58.5h0.5v-2.2l0-0.3l-0.2,0.2l-0.4,0.3l-0.2-0.2l0.8-0.8h0.2v2.9h0.5v0.3h-1.3V58.5z"/>
	<path class="st2" d="M45.9,58.5c0.1,0,0.1,0.1,0.2,0.1c0.1,0,0.2,0,0.3,0c0.1,0,0.2,0,0.2-0.1s0.1-0.1,0.2-0.1
		c0-0.1,0.1-0.1,0.1-0.2c0-0.1,0-0.2,0-0.3c0-0.2,0-0.4-0.1-0.5c-0.1-0.1-0.2-0.2-0.4-0.2h-0.3v-0.1l0.5-1l0.2-0.2l-0.2,0h-0.7v-0.3
		h1.3v0.1l-0.6,1.1L46.5,57v0l0.1,0c0.1,0,0.2,0,0.3,0.1c0.1,0,0.2,0.1,0.2,0.2c0.1,0.1,0.1,0.2,0.1,0.3c0,0.1,0.1,0.2,0.1,0.4
		c0,0.2,0,0.3-0.1,0.4c0,0.1-0.1,0.2-0.2,0.3c-0.1,0.1-0.2,0.2-0.3,0.2c-0.1,0-0.2,0.1-0.3,0.1c-0.1,0-0.2,0-0.3,0
		c-0.1,0-0.2,0-0.2-0.1L45.9,58.5z"/>
</g>
<polyline class="st2" points="0.8,71.8 3.3,71.8 3.3,72.2 2.3,72.2 2.3,75.9 1.9,75.9 1.9,72.2 0.8,72.2 "/>
<path class="st2" d="M5.7,74H4.2v1.9H3.8v-4.1h0.4v1.8h1.5v-1.8h0.4v4.1H5.7V74z"/>
<path class="st2" d="M6.9,71.8h1.8v0.4H7.4v1.4h1.3V74H7.4v1.5h1.4v0.4H6.9V71.8z"/>
<path class="st2" d="M10.7,75.3c0.1,0.1,0.2,0.1,0.3,0.1c0.1,0,0.3,0.1,0.5,0.1c0.2,0,0.4-0.1,0.5-0.2c0.1-0.1,0.2-0.3,0.2-0.5
	c0-0.2,0-0.3-0.1-0.4c-0.1-0.1-0.2-0.2-0.3-0.3c-0.1-0.1-0.2-0.2-0.4-0.3c-0.1-0.1-0.3-0.2-0.4-0.3c-0.1-0.1-0.2-0.2-0.3-0.4
	c-0.1-0.1-0.1-0.3-0.1-0.5c0-0.3,0.1-0.6,0.3-0.7c0.2-0.2,0.5-0.2,0.8-0.2c0.2,0,0.4,0,0.5,0.1s0.3,0.1,0.4,0.1l-0.1,0.4
	c-0.1,0-0.2-0.1-0.3-0.1c-0.1,0-0.3-0.1-0.5-0.1c-0.2,0-0.4,0.1-0.5,0.2c-0.1,0.1-0.2,0.2-0.2,0.4c0,0.1,0,0.3,0.1,0.4
	c0.1,0.1,0.2,0.2,0.3,0.3c0.1,0.1,0.2,0.2,0.4,0.3c0.1,0.1,0.3,0.2,0.4,0.3c0.1,0.1,0.2,0.3,0.3,0.4c0.1,0.1,0.1,0.3,0.1,0.5
	c0,0.3-0.1,0.6-0.3,0.8c-0.2,0.2-0.5,0.3-0.9,0.3c-0.2,0-0.4,0-0.6-0.1c-0.2,0-0.3-0.1-0.4-0.1L10.7,75.3z"/>
<path class="st2" d="M15.4,72.2h-1v3.7h-0.4v-3.7h-1v-0.4h2.5V72.2z"/>
<path class="st2" d="M17.1,74.7h-1.2l-0.3,1.2h-0.4l1.2-4.2h0.2l1.2,4.2h-0.5L17.1,74.7z M16.1,74.4H17l-0.4-1.3l-0.1-0.6h0
	l-0.1,0.6L16.1,74.4z"/>
<path class="st2" d="M18.9,73.3l-0.3-0.6h0l0.1,0.6v2.6h-0.4v-4.2h0.3l1.5,2.7l0.2,0.6h0l-0.1-0.6v-2.6h0.4V76h-0.3L18.9,73.3z"/>
<path class="st2" d="M21.5,71.8c0.1,0,0.1,0,0.2,0c0.1,0,0.2,0,0.2,0c0.1,0,0.2,0,0.2,0c0.1,0,0.1,0,0.2,0c0.3,0,0.5,0,0.7,0.1
	c0.2,0.1,0.4,0.2,0.5,0.4c0.1,0.2,0.2,0.4,0.3,0.7c0.1,0.3,0.1,0.5,0.1,0.9c0,0.3,0,0.6-0.1,0.8c-0.1,0.3-0.1,0.5-0.3,0.7
	c-0.1,0.2-0.3,0.4-0.5,0.5c-0.2,0.1-0.5,0.2-0.8,0.2c-0.1,0-0.1,0-0.2,0c-0.1,0-0.2,0-0.2,0c-0.1,0-0.2,0-0.2,0c-0.1,0-0.1,0-0.2,0
	V71.8z M22.4,72.1c0,0-0.1,0-0.1,0c0,0-0.1,0-0.1,0c0,0-0.1,0-0.1,0c0,0-0.1,0-0.1,0v3.4c0,0,0,0,0.1,0c0,0,0.1,0,0.1,0
	c0,0,0.1,0,0.1,0c0,0,0.1,0,0.1,0c0.2,0,0.4,0,0.5-0.1c0.1-0.1,0.3-0.2,0.3-0.4c0.1-0.2,0.1-0.3,0.2-0.6c0-0.2,0.1-0.4,0.1-0.7
	c0-0.2,0-0.4,0-0.6c0-0.2-0.1-0.4-0.2-0.5c-0.1-0.2-0.2-0.3-0.3-0.4C22.8,72.2,22.6,72.1,22.4,72.1z"/>
<path class="st2" d="M26,74.7h-1.2l-0.3,1.2h-0.4l1.2-4.2h0.2l1.2,4.2h-0.5L26,74.7z M25,74.4h0.9l-0.4-1.3l-0.1-0.6h0l-0.1,0.6
	L25,74.4z"/>
<path class="st2" d="M27.2,71.8c0.1,0,0.3-0.1,0.4-0.1c0.2,0,0.3,0,0.4,0c0.2,0,0.3,0,0.4,0.1c0.1,0,0.3,0.1,0.4,0.2
	c0.1,0.1,0.2,0.2,0.2,0.3c0.1,0.1,0.1,0.3,0.1,0.5c0,0.3-0.1,0.6-0.2,0.8c-0.1,0.2-0.3,0.3-0.5,0.4l0.2,0.2l0.8,1.6H29l-0.9-1.8
	L27.7,74v1.9h-0.4V71.8z M27.7,73.7H28c0.2,0,0.4-0.1,0.5-0.2c0.1-0.1,0.2-0.3,0.2-0.6c0-0.2-0.1-0.4-0.2-0.5
	c-0.1-0.1-0.3-0.2-0.5-0.2c-0.1,0-0.2,0-0.2,0c-0.1,0-0.1,0-0.2,0V73.7z"/>
<path class="st2" d="M30,71.8c0.1,0,0.1,0,0.2,0c0.1,0,0.2,0,0.2,0c0.1,0,0.2,0,0.2,0c0.1,0,0.1,0,0.2,0c0.3,0,0.5,0,0.7,0.1
	c0.2,0.1,0.4,0.2,0.5,0.4c0.1,0.2,0.2,0.4,0.3,0.7c0.1,0.3,0.1,0.5,0.1,0.9c0,0.3,0,0.6-0.1,0.8c-0.1,0.3-0.1,0.5-0.3,0.7
	c-0.1,0.2-0.3,0.4-0.5,0.5c-0.2,0.1-0.5,0.2-0.8,0.2c-0.1,0-0.1,0-0.2,0c-0.1,0-0.2,0-0.2,0c-0.1,0-0.2,0-0.2,0c-0.1,0-0.1,0-0.2,0
	V71.8z M31,72.1c0,0-0.1,0-0.1,0c0,0-0.1,0-0.1,0c0,0-0.1,0-0.1,0c0,0-0.1,0-0.1,0v3.4c0,0,0,0,0.1,0c0,0,0.1,0,0.1,0
	c0,0,0.1,0,0.1,0c0,0,0.1,0,0.1,0c0.2,0,0.4,0,0.5-0.1c0.1-0.1,0.3-0.2,0.3-0.4c0.1-0.2,0.1-0.3,0.2-0.6c0-0.2,0.1-0.4,0.1-0.7
	c0-0.2,0-0.4,0-0.6c0-0.2-0.1-0.4-0.2-0.5c-0.1-0.2-0.2-0.3-0.3-0.4C31.4,72.2,31.2,72.1,31,72.1z"/>
<path class="st2" d="M33.1,75.3c0.1,0.1,0.2,0.1,0.3,0.1c0.1,0,0.3,0.1,0.5,0.1c0.2,0,0.4-0.1,0.5-0.2c0.1-0.1,0.2-0.3,0.2-0.5
	c0-0.2,0-0.3-0.1-0.4c-0.1-0.1-0.2-0.2-0.3-0.3c-0.1-0.1-0.2-0.2-0.4-0.3c-0.1-0.1-0.3-0.2-0.4-0.3c-0.1-0.1-0.2-0.2-0.3-0.4
	C33.1,73,33,72.9,33,72.7c0-0.3,0.1-0.6,0.3-0.7c0.2-0.2,0.5-0.2,0.8-0.2c0.2,0,0.4,0,0.5,0.1c0.2,0,0.3,0.1,0.4,0.1l-0.1,0.4
	c-0.1,0-0.2-0.1-0.3-0.1c-0.1,0-0.3-0.1-0.5-0.1c-0.2,0-0.4,0.1-0.5,0.2c-0.1,0.1-0.2,0.2-0.2,0.4c0,0.1,0,0.3,0.1,0.4
	c0.1,0.1,0.2,0.2,0.3,0.3c0.1,0.1,0.2,0.2,0.4,0.3c0.1,0.1,0.3,0.2,0.4,0.3c0.1,0.1,0.2,0.3,0.3,0.4c0.1,0.1,0.1,0.3,0.1,0.5
	c0,0.3-0.1,0.6-0.3,0.8c-0.2,0.2-0.5,0.3-0.9,0.3c-0.2,0-0.4,0-0.6-0.1c-0.2,0-0.3-0.1-0.4-0.1L33.1,75.3z"/>
<path class="st2" d="M37,71.8h0.4v4.1H37V71.8z"/>
<path class="st2" d="M38.9,73.3l-0.3-0.6h0l0.1,0.6v2.6h-0.4v-4.2h0.3l1.5,2.7l0.2,0.6h0l-0.1-0.6v-2.6h0.4V76h-0.3L38.9,73.3z"/>
<path class="st2" d="M41.4,75.3c0.1,0.1,0.2,0.1,0.3,0.1c0.1,0,0.3,0.1,0.5,0.1c0.2,0,0.4-0.1,0.5-0.2c0.1-0.1,0.2-0.3,0.2-0.5
	c0-0.2,0-0.3-0.1-0.4c-0.1-0.1-0.2-0.2-0.3-0.3c-0.1-0.1-0.2-0.2-0.4-0.3c-0.1-0.1-0.3-0.2-0.4-0.3c-0.1-0.1-0.2-0.2-0.3-0.4
	c-0.1-0.1-0.1-0.3-0.1-0.5c0-0.3,0.1-0.6,0.3-0.7c0.2-0.2,0.5-0.2,0.8-0.2c0.2,0,0.4,0,0.5,0.1c0.2,0,0.3,0.1,0.4,0.1l-0.1,0.4
	c-0.1,0-0.2-0.1-0.3-0.1c-0.1,0-0.3-0.1-0.5-0.1c-0.2,0-0.4,0.1-0.5,0.2c-0.1,0.1-0.2,0.2-0.2,0.4c0,0.1,0,0.3,0.1,0.4
	c0.1,0.1,0.2,0.2,0.3,0.3c0.1,0.1,0.2,0.2,0.4,0.3c0.1,0.1,0.3,0.2,0.4,0.3s0.2,0.3,0.3,0.4c0.1,0.1,0.1,0.3,0.1,0.5
	c0,0.3-0.1,0.6-0.3,0.8c-0.2,0.2-0.5,0.3-0.9,0.3c-0.2,0-0.4,0-0.6-0.1c-0.2,0-0.3-0.1-0.4-0.1L41.4,75.3z"/>
<path class="st2" d="M46.1,72.2h-1v3.7h-0.4v-3.7h-1v-0.4h2.5V72.2z"/>
<path class="st2" d="M46.7,71.8h0.4v4.1h-0.4V71.8z"/>
<path class="st2" d="M50.1,72.2h-1v3.7h-0.4v-3.7h-1v-0.4h2.5V72.2z"/>
<path class="st2" d="M52.5,71.8h0.4v2.8c0,0.5-0.1,0.9-0.3,1.1c-0.2,0.2-0.5,0.3-0.8,0.3c-0.4,0-0.7-0.1-0.9-0.3
	c-0.2-0.2-0.3-0.5-0.3-1v-2.9H51v2.6c0,0.2,0,0.4,0,0.5c0,0.1,0.1,0.3,0.1,0.4c0.1,0.1,0.1,0.2,0.2,0.2c0.1,0,0.2,0.1,0.3,0.1
	c0.3,0,0.4-0.1,0.5-0.3c0.1-0.2,0.2-0.5,0.2-0.9V71.8z"/>
<path class="st2" d="M55.8,72.2h-1v3.7h-0.4v-3.7h-1v-0.4h2.5V72.2z"/>
<path class="st2" d="M56.4,71.8h0.4v4.1h-0.4V71.8z"/>
<path class="st2" d="M57.5,73.8c0-0.7,0.1-1.2,0.3-1.6c0.2-0.4,0.6-0.5,1-0.5c0.2,0,0.5,0.1,0.6,0.2c0.2,0.1,0.3,0.2,0.4,0.4
	c0.1,0.2,0.2,0.4,0.2,0.7c0.1,0.3,0.1,0.6,0.1,0.9c0,0.7-0.1,1.2-0.3,1.6c-0.2,0.4-0.6,0.5-1,0.5c-0.2,0-0.5-0.1-0.6-0.2
	c-0.2-0.1-0.3-0.2-0.4-0.4c-0.1-0.2-0.2-0.4-0.2-0.7C57.5,74.4,57.5,74.2,57.5,73.8z M58,73.8c0,0.2,0,0.5,0.1,0.7
	c0,0.2,0.1,0.4,0.2,0.5c0.1,0.2,0.2,0.3,0.3,0.4c0.1,0.1,0.3,0.1,0.4,0.1c0.3,0,0.5-0.1,0.7-0.4c0.2-0.3,0.2-0.7,0.2-1.3
	c0-0.2,0-0.4-0.1-0.7c0-0.2-0.1-0.4-0.2-0.6c-0.1-0.2-0.2-0.3-0.3-0.4c-0.1-0.1-0.3-0.1-0.4-0.1c-0.3,0-0.5,0.1-0.7,0.4
	C58.1,72.8,58,73.2,58,73.8z"/>
<path class="st2" d="M61.5,73.3l-0.3-0.6h0l0.1,0.6v2.6h-0.4v-4.2h0.3l1.5,2.7l0.2,0.6h0l-0.1-0.6v-2.6h0.4V76H63L61.5,73.3z"/>
<path class="st2" d="M65.2,73.8c0-0.7,0.1-1.2,0.3-1.6c0.2-0.4,0.6-0.5,1-0.5c0.2,0,0.5,0.1,0.6,0.2c0.2,0.1,0.3,0.2,0.4,0.4
	c0.1,0.2,0.2,0.4,0.2,0.7c0.1,0.3,0.1,0.6,0.1,0.9c0,0.7-0.1,1.2-0.3,1.6c-0.2,0.4-0.6,0.5-1,0.5c-0.2,0-0.5-0.1-0.6-0.2
	c-0.2-0.1-0.3-0.2-0.4-0.4c-0.1-0.2-0.2-0.4-0.2-0.7C65.2,74.4,65.2,74.2,65.2,73.8z M65.6,73.8c0,0.2,0,0.5,0.1,0.7
	c0,0.2,0.1,0.4,0.2,0.5c0.1,0.2,0.2,0.3,0.3,0.4c0.1,0.1,0.3,0.1,0.4,0.1c0.3,0,0.5-0.1,0.7-0.4c0.2-0.3,0.2-0.7,0.2-1.3
	c0-0.2,0-0.4-0.1-0.7c0-0.2-0.1-0.4-0.2-0.6c-0.1-0.2-0.2-0.3-0.3-0.4c-0.1-0.1-0.3-0.1-0.4-0.1c-0.3,0-0.5,0.1-0.7,0.4
	C65.7,72.8,65.6,73.2,65.6,73.8z"/>
<path class="st2" d="M68.5,71.8h1.8v0.4H69v1.5h1.3V74H69v1.9h-0.4V71.8z"/>
<path class="st2" d="M72.3,71.8h0.4v4.1h-0.4V71.8z"/>
<path class="st2" d="M73.5,75.3c0.1,0.1,0.2,0.1,0.3,0.1c0.1,0,0.3,0.1,0.5,0.1c0.2,0,0.4-0.1,0.5-0.2c0.1-0.1,0.2-0.3,0.2-0.5
	c0-0.2,0-0.3-0.1-0.4c-0.1-0.1-0.2-0.2-0.3-0.3c-0.1-0.1-0.2-0.2-0.4-0.3c-0.1-0.1-0.3-0.2-0.4-0.3c-0.1-0.1-0.2-0.2-0.3-0.4
	c-0.1-0.1-0.1-0.3-0.1-0.5c0-0.3,0.1-0.6,0.3-0.7c0.2-0.2,0.5-0.2,0.8-0.2c0.2,0,0.4,0,0.5,0.1s0.3,0.1,0.4,0.1l-0.1,0.4
	c-0.1,0-0.2-0.1-0.3-0.1c-0.1,0-0.3-0.1-0.5-0.1c-0.2,0-0.4,0.1-0.5,0.2c-0.1,0.1-0.2,0.2-0.2,0.4c0,0.1,0,0.3,0.1,0.4
	c0.1,0.1,0.2,0.2,0.3,0.3c0.1,0.1,0.2,0.2,0.4,0.3c0.1,0.1,0.3,0.2,0.4,0.3c0.1,0.1,0.2,0.3,0.3,0.4c0.1,0.1,0.1,0.3,0.1,0.5
	c0,0.3-0.1,0.6-0.3,0.8C75,75.9,74.7,76,74.3,76c-0.2,0-0.4,0-0.6-0.1c-0.2,0-0.3-0.1-0.4-0.1L73.5,75.3z"/>
<path class="st2" d="M76.1,71.8c0.1,0,0.3-0.1,0.4-0.1c0.2,0,0.3,0,0.4,0c0.2,0,0.3,0,0.4,0.1c0.1,0,0.3,0.1,0.4,0.2
	c0.1,0.1,0.2,0.2,0.2,0.3c0.1,0.1,0.1,0.3,0.1,0.5c0,0.3-0.1,0.6-0.2,0.8c-0.1,0.2-0.3,0.3-0.5,0.4l0.2,0.2l0.8,1.6h-0.5L77,74.1
	L76.5,74v1.9h-0.4V71.8z M76.5,73.7h0.4c0.2,0,0.4-0.1,0.5-0.2c0.1-0.1,0.2-0.3,0.2-0.6c0-0.2-0.1-0.4-0.2-0.5
	c-0.1-0.1-0.3-0.2-0.5-0.2c-0.1,0-0.2,0-0.2,0c-0.1,0-0.1,0-0.2,0V73.7z"/>
<path class="st2" d="M78.9,71.8h1.8v0.4h-1.4v1.4h1.3V74h-1.3v1.5h1.4v0.4h-1.9V71.8z"/>
<path class="st2" d="M83,74.7h-1.2l-0.3,1.2h-0.4l1.2-4.2h0.2l1.2,4.2h-0.5L83,74.7z M82,74.4h0.9l-0.4-1.3l-0.1-0.6h0l-0.1,0.6
	L82,74.4z"/>
<path class="st2" d="M86.2,75.9h-2v-4.1h0.4v3.7h1.5V75.9z"/>
<line class="st3" x1="86.2" y1="0" x2="0.8" y2="0"/>
<line class="st3" x1="0.8" y1="75.9" x2="86.2" y2="75.9"/>
<line id="XMLID_164_" class="st4" x1="1034" y1="110" x2="-246" y2="111"/>
<line id="Specctr_Canvas_Border_1._בית" class="st5" x1="1354" y1="110.5" x2="-566" y2="110.5"/>
</svg>
